<svg width="36" height="36" viewBox="0 0 36 36" fill="none" xmlns="http://www.w3.org/2000/svg">
<path d="M15.6974 18.6081C15.6974 18.7221 15.6936 18.8363 15.7009 18.9501C15.707 19.2785 15.8245 19.595 16.034 19.848C16.2435 20.1009 16.5327 20.2753 16.8542 20.3424C17.2014 20.4137 17.5605 20.4029 17.9029 20.3107C19.9887 19.788 22.0767 19.2728 24.1609 18.7433C24.2568 18.7001 24.3654 18.694 24.4656 18.7262C24.5657 18.7583 24.6504 18.8265 24.7032 18.9176C24.9428 19.2636 25.2179 19.585 25.4806 19.9149C25.662 20.1371 25.9114 20.2935 26.1904 20.36C26.4694 20.4265 26.7625 20.3993 27.0246 20.2827C27.247 20.1763 27.4302 20.0026 27.5484 19.7863C27.6665 19.5699 27.7136 19.3219 27.6829 19.0773C27.6544 18.7807 27.5333 18.5007 27.3368 18.2768C25.9134 16.425 24.4906 14.5728 23.0683 12.7203C22.9298 12.5236 22.737 12.3716 22.5133 12.2828C22.2441 12.1821 21.9491 12.1731 21.6743 12.2573C21.3994 12.3415 21.1601 12.5142 20.9935 12.7485C20.8233 12.9733 20.7343 13.2491 20.7412 13.5309C20.7481 13.8128 20.8504 14.0839 21.0315 14.3001C21.5424 14.9559 22.0662 15.6031 22.5825 16.255C22.8169 16.5507 22.8161 16.5572 22.4327 16.6379C21.3972 16.8559 20.3573 17.0549 19.3269 17.2956C19.0134 17.3687 18.9774 17.2924 18.9774 17.006C18.9863 13.5283 18.9863 10.0505 18.9774 6.57282C18.9774 6.28295 19.0285 6.21062 19.3245 6.27408C20.9711 6.62633 22.6203 6.96693 24.2722 7.29588C24.5287 7.34724 24.6148 7.44109 24.6132 7.71509C24.5992 9.7103 24.6054 11.7058 24.6059 13.7012C24.5838 13.8369 24.6108 13.976 24.682 14.0936C25.4059 15.0299 26.1281 15.9674 26.8488 16.9062L26.9184 16.8817V16.5462C26.9184 13.3992 26.9184 10.2521 26.9184 7.10496C26.9184 6.99122 26.9203 6.87667 26.9109 6.7632C26.9005 6.40699 26.7787 6.06299 26.5627 5.77957C26.3466 5.49616 26.0472 5.28758 25.7065 5.18317C23.0713 4.47248 20.4361 3.75506 17.7929 3.07744C16.7961 2.82199 15.6708 3.15623 15.6842 4.71771C15.7227 9.34917 15.6971 13.9785 15.6974 18.6081Z" fill="#04B2A6"/>
<path d="M8.58952 9.22021C8.84872 9.36848 9.14863 9.42974 9.44521 9.39499C9.74179 9.36024 10.0194 9.23131 10.2373 9.02714C10.5135 8.77707 10.7888 8.52646 11.1274 8.22045V8.68C11.1274 11.9067 11.1262 15.133 11.1239 18.3586C11.117 18.5983 11.1631 18.8366 11.2587 19.0565C11.3544 19.2764 11.4973 19.4726 11.6773 19.631C12.0142 19.9407 12.4171 20.1699 12.8556 20.3011C13.7851 20.5813 14.3807 20.1417 14.3807 19.1747C14.3807 14.25 14.3807 9.32508 14.3807 4.39998C14.3807 4.29753 14.3845 4.19481 14.378 4.09237C14.3825 3.83758 14.286 3.59136 14.1098 3.40734C13.9335 3.22331 13.6916 3.11638 13.4369 3.10982C13.1117 3.08603 12.7852 3.13245 12.4795 3.24593C12.1738 3.35941 11.8961 3.5373 11.6652 3.76754C10.6202 4.68555 9.5882 5.61781 8.53843 6.52991C8.16901 6.84107 7.92924 7.27908 7.86619 7.75795C7.81586 8.04691 7.85883 8.34439 7.98888 8.6073C8.11893 8.8702 8.3293 9.08487 8.58952 9.22021Z" fill="#EF4567"/>
<path d="M7.43605 27.6818H5.5968V26.8106H7.68774C7.71355 26.6557 7.73291 26.5008 7.74582 26.3459C7.76518 26.191 7.77486 26.0297 7.77486 25.8619V25.5037H5.5968V24.6325H9.13009V25.6102C9.12364 26.2104 9.03974 26.7848 8.87841 27.3333C8.71707 27.8819 8.48152 28.3788 8.17175 28.8241C7.86198 29.2694 7.48122 29.6501 7.02948 29.9663C6.58419 30.2761 6.07436 30.4955 5.5 30.6246V29.7437C5.95174 29.5501 6.33895 29.2758 6.66163 28.9209C6.99076 28.5595 7.2489 28.1465 7.43605 27.6818ZM11.2113 27.7302V32.9091H9.95291V24.1485H11.2113V26.859H11.8406V24.1485H13.099V32.9091H11.8406V27.7302H11.2113Z" fill="#04B2A6"/>
<path d="M20.8179 24.1292V32.9091H19.5111V30.0825C19.2723 30.2051 18.9948 30.289 18.6786 30.3342C18.3624 30.3729 18.0429 30.3923 17.7203 30.3923H13.732V29.521H14.5064V25.4844H13.7804V24.6132H18.5915V25.4844H17.8461V27.8173C17.8461 28.1787 17.83 28.5143 17.7977 28.8241C17.7654 29.1338 17.7235 29.3662 17.6719 29.521H17.9429C18.2398 29.521 18.514 29.5081 18.7657 29.4823C19.0239 29.4501 19.2723 29.3662 19.5111 29.2306V24.1292H20.8179ZM15.8132 29.521H16.365C16.4296 29.3533 16.4747 29.1209 16.5005 28.8241C16.5264 28.5208 16.5393 28.1852 16.5393 27.8173V25.4844H15.8132V29.521Z" fill="#04B2A6"/>
<path d="M29.348 33.0059H24.5466C24.4111 33.0059 24.2821 32.9737 24.1594 32.9091C24.0368 32.8511 23.9303 32.7672 23.84 32.6575C23.7496 32.5477 23.6754 32.4219 23.6173 32.2799C23.5657 32.1379 23.5399 31.9863 23.5399 31.8249V30.6633H27.9347V30.0922H23.5399V29.221H29.2512V30.7117C29.2512 30.9311 29.1867 31.1247 29.0576 31.2925C28.9286 31.4539 28.7801 31.5345 28.6124 31.5345H24.8467V31.7959C24.8467 31.8992 24.879 31.9798 24.9435 32.0379C25.0145 32.1024 25.1146 32.1347 25.2436 32.1347H29.348V33.0059ZM22.417 24.3421H26.5311V25.2133H23.7238V25.9394H26.4343V26.8106H23.7238V27.2268C23.7238 27.343 23.7593 27.4333 23.8303 27.4979C23.9013 27.556 24.0078 27.585 24.1498 27.585H26.444C26.7279 27.585 26.9828 27.5753 27.2087 27.556C27.441 27.5366 27.683 27.4624 27.9347 27.3333V24.1485H29.2416V25.7458H30.5V26.617H29.2416V28.7466H27.9347V28.1755C27.7024 28.2852 27.4604 28.3594 27.2087 28.3981C26.9635 28.4369 26.6989 28.4562 26.4149 28.4562H23.4237C23.1333 28.4562 22.8913 28.3401 22.6977 28.1077C22.5106 27.869 22.417 27.585 22.417 27.2559V24.3421Z" fill="#04B2A6"/>
</svg>
