<svg width="36" height="36" viewBox="0 0 36 36" fill="none" xmlns="http://www.w3.org/2000/svg">
<path d="M25.3799 17.3833C25.3932 16.3466 25.6687 15.3302 26.1805 14.4286C26.6923 13.527 27.424 12.7696 28.3072 12.2268C27.746 11.4255 27.0057 10.766 26.1451 10.3007C25.2846 9.83546 24.3274 9.57714 23.3496 9.5463C21.2645 9.32681 19.2411 10.7946 18.1794 10.7946C17.0956 10.7946 15.4605 9.56825 13.6963 9.60391C12.5565 9.64065 11.4456 9.97207 10.4719 10.5659C9.49829 11.1597 8.69509 11.9956 8.14062 12.9922C5.73863 17.1515 7.53018 23.2628 9.83204 26.625C10.983 28.2712 12.3287 30.1094 14.0846 30.0449C15.8075 29.9749 16.4509 28.9475 18.5305 28.9475C20.6102 28.9475 21.1945 30.0449 22.9902 30.0037C24.8394 29.9749 26.0081 28.3494 27.1138 26.6881C27.9414 25.5154 28.5781 24.219 29 22.8471C27.9275 22.3914 27.0126 21.6305 26.369 20.6591C25.7254 19.6877 25.3814 18.5486 25.3799 17.3833Z" fill="#0F0F0F"/>
<path d="M23.3606 7.33484C24.3686 6.12517 24.8652 4.57003 24.7447 3C23.2075 3.16264 21.7875 3.89709 20.7665 5.05768C20.267 5.62625 19.8843 6.28766 19.6405 7.00415C19.3966 7.72063 19.2963 8.47814 19.3453 9.23339C20.1146 9.24087 20.8755 9.07393 21.5709 8.7451C22.2663 8.41627 22.8782 7.93411 23.3606 7.33484Z" fill="#0F0F0F"/>
</svg>
