<svg width="44" height="44" viewBox="0 0 44 44" fill="none" xmlns="http://www.w3.org/2000/svg">
<path d="M31.019 21.2465C31.0353 19.9795 31.372 18.7372 31.9975 17.6353C32.6231 16.5333 33.5173 15.6075 34.5969 14.9441C33.9109 13.9647 33.0061 13.1588 31.9543 12.5901C30.9025 12.0214 29.7326 11.7057 28.5375 11.668C25.9891 11.3997 23.516 13.1937 22.2183 13.1937C20.8938 13.1937 18.8953 11.6948 16.7391 11.7384C15.346 11.7833 13.9882 12.1884 12.7982 12.9141C11.6081 13.6399 10.6265 14.6616 9.94878 15.8797C7.01301 20.9632 9.20269 28.4326 12.0161 32.542C13.4228 34.5539 15.0675 36.8006 17.2136 36.7218C19.3195 36.6363 20.1058 35.3805 22.6476 35.3805C25.1893 35.3805 25.9036 36.7218 28.0983 36.6715C30.3584 36.6363 31.7868 34.6495 33.1382 32.6191C34.1498 31.1858 34.9279 29.6013 35.4436 27.9245C34.1328 27.3675 33.0146 26.4376 32.2279 25.2503C31.4413 24.063 31.0209 22.6708 31.019 21.2465Z" fill="#0F0F0F"/>
<path d="M28.5473 8.9622C29.7794 7.48371 30.3862 5.58299 30.239 3.66406C28.3601 3.86284 26.6247 4.7605 25.3767 6.179C24.7662 6.87392 24.2986 7.68232 24.0005 8.55802C23.7025 9.43372 23.5799 10.3596 23.6398 11.2827C24.5799 11.2918 25.5099 11.0877 26.3599 10.6858C27.2099 10.2839 27.9577 9.69464 28.5473 8.9622Z" fill="#0F0F0F"/>
</svg>
