<svg width="36" height="36" viewBox="0 0 36 36" fill="none" xmlns="http://www.w3.org/2000/svg">
<path d="M25.3799 17.3828C25.3932 16.3462 25.6687 15.3297 26.1805 14.4281C26.6923 13.5265 27.424 12.7691 28.3072 12.2263C27.746 11.425 27.0057 10.7655 26.1451 10.3003C25.2846 9.83497 24.3274 9.57665 23.3496 9.54581C21.2645 9.32632 19.2411 10.7941 18.1794 10.7941C17.0956 10.7941 15.4605 9.56776 13.6963 9.60342C12.5565 9.64016 11.4456 9.97159 10.4719 10.5654C9.49829 11.1592 8.69509 11.9951 8.14062 12.9917C5.73863 17.151 7.53018 23.2623 9.83204 26.6245C10.983 28.2707 12.3287 30.1089 14.0846 30.0444C15.8075 29.9744 16.4509 28.947 18.5305 28.947C20.6102 28.947 21.1945 30.0444 22.9902 30.0032C24.8394 29.9744 26.0081 28.3489 27.1138 26.6876C27.9414 25.515 28.5781 24.2186 29 22.8466C27.9275 22.3909 27.0126 21.6301 26.369 20.6586C25.7254 19.6872 25.3814 18.5481 25.3799 17.3828Z" fill="#0F0F0F"/>
<path d="M23.3593 7.33484C24.3674 6.12517 24.864 4.57003 24.7434 3C23.2062 3.16264 21.7863 3.89709 20.7653 5.05768C20.2657 5.62625 19.8831 6.28766 19.6393 7.00415C19.3954 7.72063 19.2951 8.47814 19.3441 9.23339C20.1133 9.24087 20.8742 9.07393 21.5697 8.7451C22.2651 8.41627 22.877 7.93411 23.3593 7.33484Z" fill="#0F0F0F"/>
</svg>
