<svg width="36" height="36" viewBox="0 0 36 36" fill="none" xmlns="http://www.w3.org/2000/svg">
<path d="M6.5 6.5C6.5 5.11929 7.61929 4 9 4H27C28.3807 4 29.5 5.11929 29.5 6.5V32H6.5V6.5Z" fill="#AFC3DC"/>
<path d="M11.25 10C11.25 9.44772 11.6977 9 12.25 9H15.25C15.8023 9 16.25 9.44772 16.25 10V13C16.25 13.5523 15.8023 14 15.25 14H12.25C11.6977 14 11.25 13.5523 11.25 13V10Z" fill="white"/>
<path d="M19.75 10C19.75 9.44772 20.1977 9 20.75 9H23.75C24.3023 9 24.75 9.44772 24.75 10V13C24.75 13.5523 24.3023 14 23.75 14H20.75C20.1977 14 19.75 13.5523 19.75 13V10Z" fill="white"/>
<path d="M11.25 18C11.25 17.4477 11.6977 17 12.25 17H15.25C15.8023 17 16.25 17.4477 16.25 18V21C16.25 21.5523 15.8023 22 15.25 22H12.25C11.6977 22 11.25 21.5523 11.25 21V18Z" fill="white"/>
<path d="M19.75 18C19.75 17.4477 20.1977 17 20.75 17H23.75C24.3023 17 24.75 17.4477 24.75 18V21C24.75 21.5523 24.3023 22 23.75 22H20.75C20.1977 22 19.75 21.5523 19.75 21V18Z" fill="white"/>
<path d="M15 27C15 26.4477 15.4477 26 16 26H20C20.5523 26 21 26.4477 21 27V32H15V27Z" fill="#7891B5"/>
</svg>
