<svg width="36" height="36" viewBox="0 0 36 36" fill="none" xmlns="http://www.w3.org/2000/svg">
<path fill-rule="evenodd" clip-rule="evenodd" d="M11.5 4C10.1193 4 9 5.11929 9 6.5V27.1338C9.14709 27.0487 9.31786 27 9.5 27H11.5C12.0523 27 12.5 27.4477 12.5 28V32H26.5C27.8807 32 29 30.8807 29 29.5V6.5C29 5.11929 27.8807 4 26.5 4H11.5Z" fill="#AFC3DC"/>
<path d="M12 17C12 16.4477 12.4477 16 13 16C13.5523 16 14 16.4477 14 17V19C14 19.5523 13.5523 20 13 20C12.4477 20 12 19.5523 12 19V17Z" fill="white"/>
<path d="M13 11C13 10.4477 13.4477 10 14 10H24C24.5523 10 25 10.4477 25 11C25 11.5523 24.5523 12 24 12H14C13.4477 12 13 11.5523 13 11Z" fill="white"/>
<path d="M13 17C13 16.4477 13.4477 16 14 16H24C24.5523 16 25 16.4477 25 17C25 17.5523 24.5523 18 24 18H14C13.4477 18 13 17.5523 13 17Z" fill="white"/>
<path d="M22 29C22 26.2386 24.2386 24 27 24C29.7614 24 32 26.2386 32 29V32H22V29Z" fill="#00CBC1"/>
<path d="M30 31C30 29.3431 31.3431 28 33 28C34.6569 28 36 29.3431 36 31V32H30V31Z" fill="#00CBC1"/>
<path fill-rule="evenodd" clip-rule="evenodd" d="M5.5 13C4.11929 13 3 14.1193 3 15.5V29.5C3 30.8807 4.11929 32 5.5 32H8.5V28C8.5 27.4477 8.94772 27 9.5 27H11.5C12.0523 27 12.5 27.4477 12.5 28V32H18V15.5C18 14.1193 16.8807 13 15.5 13H5.5Z" fill="#074093"/>
<path d="M5.5 20C5.5 19.4477 5.94772 19 6.5 19H14.5C15.0523 19 15.5 19.4477 15.5 20C15.5 20.5523 15.0523 21 14.5 21H6.5C5.94772 21 5.5 20.5523 5.5 20Z" fill="white"/>
</svg>
