<svg width="24" height="24" viewBox="0 0 24 24" fill="none" xmlns="http://www.w3.org/2000/svg">
<path d="M5.5 4.5C5.5 3.25736 6.50736 2.25 7.75 2.25H16.25C17.4926 2.25 18.5 3.25736 18.5 4.5V19.5C18.5 20.7426 17.4926 21.75 16.25 21.75H7.75C6.50736 21.75 5.5 20.7426 5.5 19.5V4.5Z" fill="#A1B3C9"/>
<path d="M5.5 4.75H18.5V19.25H5.5V4.75Z" fill="#DCEAFC"/>
<path d="M14.0093 16.4829C13.9911 16.4789 13.9723 16.4747 13.9541 16.4706C12.296 15.9517 10.8679 14.8292 9.92542 13.3042C8.98297 11.7792 8.58781 9.95133 8.81072 8.14794C8.8239 8.04595 8.85678 7.94787 8.90735 7.85973C8.95792 7.77159 9.0251 7.69525 9.10476 7.63541C9.1825 7.57699 9.27093 7.53617 9.36444 7.51551C9.45796 7.49486 9.55453 7.49483 9.64806 7.51542L11.0798 7.82418C11.2331 7.85762 11.3712 7.94402 11.4723 8.06961C11.5734 8.1952 11.6316 8.35275 11.6376 8.51715L11.6838 9.82876C11.689 9.97351 11.6531 10.1166 11.5807 10.2399C11.5083 10.3631 11.4027 10.461 11.2772 10.5209L10.6138 10.8395C10.9215 11.9154 11.5119 12.8781 12.3171 13.6167L12.8855 13.0968C12.9895 13.0018 13.1178 12.9412 13.2544 12.9223C13.391 12.9035 13.5299 12.9275 13.6537 12.9911L14.7829 13.5691C14.9242 13.6404 15.0386 13.7597 15.1075 13.9077C15.1765 14.0558 15.196 14.2239 15.1628 14.385L14.8521 15.921C14.8327 16.0192 14.794 16.1121 14.7384 16.1937C14.6827 16.2752 14.6115 16.3436 14.5291 16.3944C14.3726 16.4916 14.187 16.5232 14.0093 16.4829Z" fill="#00CBC1"/>
</svg>
