<svg width="44" height="45" viewBox="0 0 44 45" fill="none" xmlns="http://www.w3.org/2000/svg">
<path d="M9.78125 7.83464C9.78125 5.80959 11.4229 4.16797 13.4479 4.16797H30.559C32.5841 4.16797 34.2257 5.80959 34.2257 7.83464V37.168C34.2257 39.193 32.5841 40.8346 30.559 40.8346H13.4479C11.4229 40.8346 9.78125 39.193 9.78125 37.168V7.83464Z" fill="#99ABC1"/>
<path d="M9.78125 9.05859H34.2257V35.9475H9.78125V9.05859Z" fill="#DCEAFC"/>
<path d="M24.9135 28.891C24.8875 28.8852 24.8607 28.8792 24.8347 28.8734C22.4704 28.1335 20.434 26.533 19.0901 24.3584C17.7463 22.1839 17.1828 19.5774 17.5006 17.0059C17.5194 16.8605 17.5663 16.7207 17.6384 16.595C17.7105 16.4693 17.8063 16.3604 17.9199 16.2751C18.0308 16.1918 18.1569 16.1336 18.2902 16.1042C18.4236 16.0747 18.5613 16.0747 18.6946 16.104L20.7362 16.5443C20.9547 16.592 21.1518 16.7152 21.2959 16.8943C21.44 17.0733 21.523 17.298 21.5316 17.5324L21.5974 19.4027C21.6048 19.6091 21.5537 19.8131 21.4504 19.9889C21.3472 20.1646 21.1966 20.3041 21.0177 20.3896L20.0717 20.8439C20.5104 22.378 21.3523 23.7507 22.5005 24.8041L23.3109 24.0627C23.4592 23.9272 23.6422 23.8407 23.837 23.8139C24.0318 23.7871 24.2298 23.8212 24.4063 23.912L26.0165 24.7361C26.2181 24.8378 26.3811 25.0079 26.4794 25.219C26.5777 25.4301 26.6055 25.6698 26.5583 25.8996L26.1152 28.0897C26.0876 28.2298 26.0323 28.3623 25.953 28.4786C25.8737 28.5948 25.7721 28.6923 25.6547 28.7648C25.4315 28.9034 25.1669 28.9485 24.9135 28.891Z" fill="#00CBC1"/>
</svg>
