<svg width="36" height="36" viewBox="0 0 36 36" fill="none" xmlns="http://www.w3.org/2000/svg">
<rect x="13.25" y="6" width="9" height="9" rx="4.5" fill="#AFC3DC"/>
<path d="M8 26.25C8 20.8652 12.3652 16.5 17.75 16.5C23.1348 16.5 27.5 20.8652 27.5 26.25V26.5658C27.5 28.0482 26.2982 29.25 24.8158 29.25H10.6842C9.20176 29.25 8 28.0482 8 26.5658V26.25Z" fill="#AFC3DC"/>
<path d="M31.8037 19.4025C32.0654 19.212 32.0654 18.7877 31.8037 18.5972L27.6595 15.5803C27.3695 15.3691 26.9833 15.5991 26.9833 15.983V18.1356L20.8731 18.1282C20.3912 18.1278 20.0004 18.5592 20 19.0918C19.9996 19.6243 20.39 20.0564 20.8718 20.0568L26.9833 20.0642V22.0171C26.9833 22.4009 27.3695 22.6309 27.6595 22.4197L31.8037 19.4025Z" fill="#435062"/>
</svg>
