<svg width="36" height="36" viewBox="0 0 36 36" fill="none" xmlns="http://www.w3.org/2000/svg">
<path d="M13 10C13 7.23858 15.2386 5 18 5C20.7614 5 23 7.23858 23 10C23 12.7614 20.7614 15 18 15C15.2386 15 13 12.7614 13 10Z" fill="#074093"/>
<path d="M5.5 28.6667C5.5 22.2233 10.7233 17 17.1667 17H18.8333C25.2767 17 30.5 22.2233 30.5 28.6667C30.5 29.9553 29.4553 31 28.1667 31H7.83333C6.54467 31 5.5 29.9553 5.5 28.6667Z" fill="#092E63"/>
<path d="M35 28C35 31.866 31.866 35 28 35C24.134 35 21 31.866 21 28C21 24.134 24.134 21 28 21C31.866 21 35 24.134 35 28Z" fill="#00CBC1"/>
<path fill-rule="evenodd" clip-rule="evenodd" d="M24.25 28C24.25 27.5858 24.5858 27.25 25 27.25H30C30.4142 27.25 30.75 27.5858 30.75 28C30.75 28.4142 30.4142 28.75 30 28.75H25C24.5858 28.75 24.25 28.4142 24.25 28Z" fill="white"/>
<path fill-rule="evenodd" clip-rule="evenodd" d="M28.2197 25.2197C28.5126 24.9268 28.9874 24.9268 29.2803 25.2197L31.5303 27.4697C31.671 27.6103 31.75 27.8011 31.75 28C31.75 28.1989 31.671 28.3897 31.5303 28.5303L29.2803 30.7803C28.9874 31.0732 28.5126 31.0732 28.2197 30.7803C27.9268 30.4874 27.9268 30.0126 28.2197 29.7197L29.9393 28L28.2197 26.2803C27.9268 25.9874 27.9268 25.5126 28.2197 25.2197Z" fill="white"/>
</svg>
