<svg width="36" height="36" viewBox="0 0 36 36" fill="none" xmlns="http://www.w3.org/2000/svg">
<path d="M4 24H9.5V28.5C9.5 29.3284 8.88439 30 8.125 30H5.375C4.61561 30 4 29.3284 4 28.5V24Z" fill="#003582"/>
<path d="M26.5 24H32V28.5C32 29.3284 31.3844 30 30.625 30H27.875C27.1156 30 26.5 29.3284 26.5 28.5V24Z" fill="#003582"/>
<path fill-rule="evenodd" clip-rule="evenodd" d="M4.67768 17.133L6.80749 14.6015C7.55135 12.401 9.65816 8 12.1345 8H12.2065H15.3019H20.7701H23.9375H24.2254C24.9453 8 25.577 8.36424 25.9335 8.91221C27.4997 10.3204 28.7317 13.0254 29.2645 14.6015L31.4764 17.2402C31.4764 17.2402 32 17.8259 32 19.2654V26.4441C32 26.7511 32 27 32 27H4C4 27 4 26.7511 4 26.4441V19.2654C4 17.8259 4.63636 17.1962 4.67768 17.133Z" fill="#0168FE"/>
<path d="M14.0956 25.2794C14.1531 25.1133 14.3257 25 14.5212 25H21.4788C21.6743 25 21.8469 25.1133 21.9044 25.2794L22.5 27H13.5L14.0956 25.2794Z" fill="#A3C6F9"/>
<path d="M7.63212 9.54572C8.06191 7.47564 9.81699 5.99854 11.8468 5.99854H24.1532C26.183 5.99854 27.9381 7.47564 28.3679 9.54572L29.5 14.9985H6.5L7.63212 9.54572Z" fill="#0168FE"/>
<path d="M9.10504 10.0067C9.35557 8.56017 10.6558 7.5 12.1794 7.5H23.8206C25.3442 7.5 26.6444 8.56017 26.895 10.0067L27.5 13.5H8.5L9.10504 10.0067Z" fill="#004DBE"/>
<path fill-rule="evenodd" clip-rule="evenodd" d="M4.13257 11.5C2.78907 11.5 1.69995 12.8645 1.69995 14.5476C1.69995 15.0736 2.0403 15.5 2.46014 15.5H5.35081H6.69515H7.70341V14.0263H6.69515V12.3421C6.69515 11.877 6.39421 11.5 6.02298 11.5H4.13257Z" fill="#0168FE"/>
<path fill-rule="evenodd" clip-rule="evenodd" d="M31.8674 11.5C33.2109 11.5 34.3 12.8645 34.3 14.5476C34.3 15.0736 33.9597 15.5 33.5399 15.5H30.6493H29.3049H28.2967V14.0263H29.3049V12.3421C29.3049 11.877 29.6059 11.5 29.9771 11.5H31.8674Z" fill="#0168FE"/>
<path d="M6.5 20.75C6.5 20.3358 6.83579 20 7.25 20H11.25C11.6642 20 12 20.3358 12 20.75V22.75C12 23.1642 11.6642 23.5 11.25 23.5H7.25C6.83579 23.5 6.5 23.1642 6.5 22.75V20.75Z" fill="white"/>
<path d="M24 20.75C24 20.3358 24.3358 20 24.75 20H28.75C29.1642 20 29.5 20.3358 29.5 20.75V22.75C29.5 23.1642 29.1642 23.5 28.75 23.5H24.75C24.3358 23.5 24 23.1642 24 22.75V20.75Z" fill="white"/>
<path d="M26.25 19.5714C26.25 19.2558 26.5058 19 26.8214 19H31.1786C31.4942 19 31.75 19.2558 31.75 19.5714V20.25C31.75 21.7688 30.5188 23 29 23C27.4812 23 26.25 21.7688 26.25 20.25V19.5714Z" fill="#FF9E00"/>
<path d="M23 28.5C23 25.1863 25.6863 22.5 29 22.5C32.3137 22.5 35 25.1863 35 28.5V30.1923C35 31.4668 33.9668 32.5 32.6923 32.5H25.3077C24.0332 32.5 23 31.4668 23 30.1923V28.5Z" fill="#FFC737"/>
</svg>
