<svg width="65" height="64" viewBox="0 0 65 64" fill="none" xmlns="http://www.w3.org/2000/svg">
<path d="M7.60938 42.6641H17.3872V50.6641C17.3872 52.1368 16.2927 53.3307 14.9427 53.3307H10.0538C8.70379 53.3307 7.60938 52.1368 7.60938 50.6641V42.6641Z" fill="#003582"/>
<path d="M47.6094 42.6641H57.3872V50.6641C57.3872 52.1368 56.2927 53.3307 54.9427 53.3307H50.0538C48.7038 53.3307 47.6094 52.1368 47.6094 50.6641V42.6641Z" fill="#003582"/>
<path fill-rule="evenodd" clip-rule="evenodd" d="M8.81414 30.4552L12.6005 25.9547C13.9229 22.0427 17.6683 14.2188 22.0707 14.2188H22.1987H27.7017H37.4228H43.0538H43.5657C44.8454 14.2188 45.9684 14.8663 46.6023 15.8405C49.3866 18.3439 51.5769 23.1527 52.524 25.9547L56.4562 30.6457C56.4562 30.6457 57.3872 31.6871 57.3872 34.246V47.0082C57.3872 47.5541 57.3872 47.9965 57.3872 47.9965H7.60938C7.60938 47.9965 7.60938 47.5541 7.60938 47.0082V34.246C7.60938 31.6871 8.74069 30.5675 8.81414 30.4552Z" fill="#0168FE"/>
<path d="M25.5588 44.942C25.661 44.6468 25.9679 44.4453 26.3154 44.4453H38.6846C39.0321 44.4453 39.339 44.6468 39.4412 44.942L40.5 48.0009H24.5L25.5588 44.942Z" fill="#A3C6F9"/>
<path d="M14.0673 16.9702C14.8314 13.29 17.9516 10.6641 21.5602 10.6641H43.4381C47.0467 10.6641 50.1668 13.29 50.9309 16.9702L52.9436 26.6641H12.0547L14.0673 16.9702Z" fill="#0168FE"/>
<path d="M16.685 17.7923C17.1304 15.2207 19.442 13.3359 22.1505 13.3359H42.846C45.5545 13.3359 47.8661 15.2207 48.3115 17.7923L49.3872 24.0026H15.6094L16.685 17.7923Z" fill="#004DBE"/>
<path fill-rule="evenodd" clip-rule="evenodd" d="M7.84809 20.4453C5.45965 20.4453 3.52344 22.871 3.52344 25.8633C3.52344 26.7984 4.1285 27.5564 4.87489 27.5564H10.0139H12.4038H14.1962V24.9365H12.4038V21.9424C12.4038 21.1156 11.8688 20.4453 11.2088 20.4453H7.84809Z" fill="#0168FE"/>
<path fill-rule="evenodd" clip-rule="evenodd" d="M57.1519 20.4453C59.5404 20.4453 61.4766 22.871 61.4766 25.8633C61.4766 26.7984 60.8715 27.5564 60.1251 27.5564H54.9863H52.5963H50.8039V24.9365H52.5963V21.9424C52.5963 21.1156 53.1313 20.4453 53.7913 20.4453H57.1519Z" fill="#0168FE"/>
<path d="M12.0547 36.888C12.0547 36.1516 12.6516 35.5547 13.388 35.5547H20.4991C21.2355 35.5547 21.8325 36.1516 21.8325 36.888V40.4436C21.8325 41.18 21.2355 41.7769 20.4991 41.7769H13.388C12.6516 41.7769 12.0547 41.18 12.0547 40.4436V36.888Z" fill="white"/>
<path d="M43.1641 36.888C43.1641 36.1516 43.761 35.5547 44.4974 35.5547H51.6085C52.3449 35.5547 52.9418 36.1516 52.9418 36.888V40.4436C52.9418 41.18 52.3449 41.7769 51.6085 41.7769H44.4974C43.761 41.7769 43.1641 41.18 43.1641 40.4436V36.888Z" fill="white"/>
<path d="M47.1641 34.7971C47.1641 34.2361 47.6189 33.7812 48.1799 33.7812H55.926C56.487 33.7812 56.9418 34.2361 56.9418 34.7971V36.0035C56.9418 38.7035 54.753 40.8924 52.0529 40.8924C49.3529 40.8924 47.1641 38.7035 47.1641 36.0035V34.7971Z" fill="#FF9E00"/>
<path d="M41.3906 50.6667C41.3906 44.7756 46.1663 40 52.0573 40C57.9483 40 62.724 44.7756 62.724 50.6667V53.6752C62.724 55.941 60.8872 57.7778 58.6214 57.7778H45.4932C43.2274 57.7778 41.3906 55.941 41.3906 53.6752V50.6667Z" fill="#FFC737"/>
</svg>
