<svg width="26" height="26" viewBox="0 0 26 26" fill="none" xmlns="http://www.w3.org/2000/svg">
<path d="M21.125 13.5C21.125 15.107 20.6485 16.6779 19.7557 18.014C18.8629 19.3502 17.594 20.3916 16.1093 21.0065C14.6247 21.6215 12.991 21.7824 11.4149 21.4689C9.8388 21.1554 8.39106 20.3815 7.25476 19.2452C6.11846 18.1089 5.34463 16.6612 5.03112 15.0851C4.71762 13.509 4.87852 11.8753 5.49348 10.3907C6.10845 8.90605 7.14985 7.63709 8.486 6.74431C9.82215 5.85152 11.393 5.375 13 5.375C15.1548 5.37543 17.2211 6.23159 18.7448 7.75523C20.2684 9.27887 21.1246 11.3452 21.125 13.5Z" fill="#DF2534"/>
<path d="M8.81553 11.5725C8.56305 11.4251 8.26705 11.3706 7.97865 11.4183C8.47429 10.944 8.76848 10.2972 8.80027 9.61188C8.80093 9.5546 8.79815 9.49733 8.79195 9.44039C8.79664 9.27789 8.75335 9.11762 8.66748 8.97959C8.58161 8.84156 8.45698 8.7319 8.30915 8.66429C8.0318 8.56051 7.52473 8.61321 6.71835 9.43761L6.23416 9.97982C5.85292 10.4911 5.60007 11.0864 5.49689 11.7158C5.33591 13.0328 5.43461 14.3685 5.7874 15.6476C5.81897 15.7778 5.87852 15.8996 5.96189 16.0044C6.04527 16.1093 6.15048 16.1948 6.27021 16.2549C6.60233 16.3904 6.91735 16.2272 7.197 16.0835L7.27165 16.046L7.55916 15.9175L7.83859 15.7943L8.17879 15.6448C8.43098 15.5573 8.66698 15.4288 8.87724 15.2644C9.17545 15.0109 9.39361 14.6762 9.50519 14.3011C9.56699 14.089 9.60688 13.8711 9.62422 13.6509C9.65551 13.3595 9.64437 13.0651 9.59116 12.7768C9.55496 12.5325 9.46705 12.2986 9.33329 12.091C9.19954 11.8833 9.02303 11.7065 8.81553 11.5725ZM6.23023 12.5912C6.23023 12.5968 6.24548 12.7704 6.24548 12.7704C6.24386 12.7889 6.24798 12.8076 6.25729 12.8237C6.26661 12.8399 6.28066 12.8528 6.29755 12.8607C6.31445 12.8687 6.33336 12.8712 6.35174 12.868C6.37013 12.8648 6.38709 12.8561 6.40033 12.8429C6.70333 12.5887 7.16302 12.3608 7.53282 12.4882C7.82195 12.5885 8.01817 12.8866 8.12055 13.3754C8.33087 14.4004 7.62827 14.8941 7.18983 15.0954L7.17458 15.1024L6.61296 15.3776C6.60228 15.3816 6.5909 15.3834 6.57952 15.3829C6.56813 15.3824 6.55695 15.3797 6.54663 15.3748C6.51196 15.3568 6.50225 15.3349 6.47891 15.2738C6.09758 13.8844 5.97227 12.4373 6.10912 11.003C6.12806 10.8822 6.17701 10.7681 6.25149 10.6711L6.7232 10.1682L6.7759 10.1106C7.03175 9.86172 7.27258 9.73714 7.40247 9.79123C7.5104 9.83745 7.53651 10.0099 7.5379 10.1453C7.56101 10.8798 7.14916 11.6302 6.28986 12.4387C6.26877 12.4578 6.2524 12.4815 6.24205 12.5079C6.23171 12.5344 6.22766 12.5629 6.23023 12.5912Z" fill="white"/>
<path d="M15.194 7.29136C15.0364 6.75054 14.778 6.63706 14.7043 6.6121C14.0402 6.39886 13.3343 6.3504 12.6473 6.47088C11.6553 6.64108 10.7647 7.18075 10.1547 7.98125C9.8498 8.3928 9.63295 8.86273 9.51764 9.36176C9.40233 9.86078 9.39102 10.3782 9.48443 10.8818C9.55878 11.3736 9.73344 11.8448 9.99755 12.2662C10.2617 12.6877 10.6096 13.0503 11.0198 13.3317C11.9824 13.9804 13.2632 14.1782 14.6328 13.8905C15.3658 13.7507 16.0517 13.4286 16.6274 12.954C16.7172 12.875 16.7884 12.7771 16.836 12.6673C16.8836 12.5576 16.9064 12.4387 16.9027 12.3191C16.8963 12.1153 16.8629 11.9132 16.8033 11.7182C16.7728 11.6075 16.7245 11.5742 16.647 11.5742C16.5902 11.5742 16.5315 11.6392 16.5197 11.653C16.0672 12.1363 15.4658 12.4541 14.8115 12.5556C12.9263 12.918 11.4764 12.0376 11.1171 10.3112C11.0357 9.96761 11.026 9.61098 11.0886 9.26351C11.1512 8.91605 11.2847 8.58522 11.4808 8.29164C11.6936 8.00142 11.9637 7.75808 12.2745 7.57677C12.5854 7.39545 12.9302 7.28005 13.2875 7.23774C13.8715 7.15098 14.468 7.22414 15.0137 7.44945C15.0137 7.44945 15.2437 7.51762 15.194 7.29136Z" fill="white"/>
</svg>
