<svg width="44" height="44" viewBox="0 0 44 44" fill="none" xmlns="http://www.w3.org/2000/svg">
<rect x="7.33594" y="3.66406" width="29.3333" height="36.6667" rx="4" fill="#DCEAFC"/>
<rect x="13.75" y="13.75" width="16.5" height="16.5" rx="8.25" fill="#0168FE"/>
<path fill-rule="evenodd" clip-rule="evenodd" d="M18.3211 19.2832C18.6825 19.167 19.0698 19.3658 19.186 19.7273L20.0763 22.4974L21.2894 19.6669C21.3977 19.4141 21.6463 19.2502 21.9213 19.2502C22.1963 19.2502 22.4449 19.4141 22.5532 19.6669L23.7663 22.4974L24.6567 19.7273C24.7729 19.3658 25.1601 19.167 25.5216 19.2832C25.8831 19.3994 26.0819 19.7866 25.9657 20.1481L24.5129 24.6679C24.4251 24.9409 24.1771 25.1308 23.8906 25.1443C23.6042 25.1577 23.3394 24.9919 23.2265 24.7283L21.9213 21.683L20.6162 24.7283C20.5032 24.9919 20.2384 25.1577 19.952 25.1443C19.6655 25.1308 19.4175 24.9409 19.3297 24.6679L17.8769 20.1481C17.7607 19.7866 17.9596 19.3994 18.3211 19.2832Z" fill="white"/>
<path d="M16.5 22.0211C16.5 21.6211 16.8242 21.2969 17.2242 21.2969H18.4877C18.8877 21.2969 19.2119 21.6211 19.2119 22.0211C19.2119 22.421 18.8877 22.7453 18.4877 22.7453H17.2242C16.8242 22.7453 16.5 22.421 16.5 22.0211Z" fill="white"/>
<path d="M24.4062 22.0211C24.4062 21.6211 24.7305 21.2969 25.1305 21.2969H26.3939C26.7939 21.2969 27.1182 21.6211 27.1182 22.0211C27.1182 22.421 26.7939 22.7453 26.3939 22.7453H25.1305C24.7305 22.7453 24.4062 22.421 24.4062 22.0211Z" fill="white"/>
</svg>
