<svg width="36" height="36" viewBox="0 0 36 36" fill="none" xmlns="http://www.w3.org/2000/svg">
<path fill-rule="evenodd" clip-rule="evenodd" d="M11.5 4C10.1193 4 9 5.11929 9 6.5V27.1338C9.14709 27.0487 9.31786 27 9.5 27H11.5C12.0523 27 12.5 27.4477 12.5 28V32H26.5C27.8807 32 29 30.8807 29 29.5V6.5C29 5.11929 27.8807 4 26.5 4H11.5Z" fill="#AFC3DC"/>
<path d="M12 17C12 16.4477 12.4477 16 13 16C13.5523 16 14 16.4477 14 17V19C14 19.5523 13.5523 20 13 20C12.4477 20 12 19.5523 12 19V17Z" fill="white"/>
<path d="M13 11C13 10.4477 13.4477 10 14 10H24C24.5523 10 25 10.4477 25 11C25 11.5523 24.5523 12 24 12H14C13.4477 12 13 11.5523 13 11Z" fill="white"/>
<path d="M13 17C13 16.4477 13.4477 16 14 16H24C24.5523 16 25 16.4477 25 17C25 17.5523 24.5523 18 24 18H14C13.4477 18 13 17.5523 13 17Z" fill="white"/>
<path fill-rule="evenodd" clip-rule="evenodd" d="M5.5 13C4.11929 13 3 14.1193 3 15.5V29.5C3 30.8807 4.11929 32 5.5 32H8.5V28C8.5 27.4477 8.94772 27 9.5 27H11.5C12.0523 27 12.5 27.4477 12.5 28V32H18V15.5C18 14.1193 16.8807 13 15.5 13H5.5Z" fill="#074093"/>
<path d="M5.5 20C5.5 19.4477 5.94772 19 6.5 19H14.5C15.0523 19 15.5 19.4477 15.5 20C15.5 20.5523 15.0523 21 14.5 21H6.5C5.94772 21 5.5 20.5523 5.5 20Z" fill="white"/>
<path d="M35 28C35 31.866 31.866 35 28 35C24.134 35 21 31.866 21 28C21 24.134 24.134 21 28 21C31.866 21 35 24.134 35 28Z" fill="#F64A4A"/>
<path d="M27.9993 31.625C27.8248 31.6243 27.5478 31.3198 27.5478 31.3198L25.0285 28.6818C24.6879 28.3181 24.5 27.8498 24.5 27.3649C24.5 26.88 24.6879 26.4118 25.0285 26.0481C25.188 25.8777 25.3839 25.7409 25.6033 25.6466C25.8226 25.5523 26.0607 25.5025 26.3019 25.5006C26.543 25.5025 26.7809 25.5523 27.0002 25.6466C27.2195 25.741 27.4152 25.8778 27.5746 26.0481L27.9993 26.4861L28.4257 26.0437C28.5856 25.8741 28.7816 25.738 29.001 25.6444C29.2204 25.5507 29.4582 25.5015 29.699 25.5C29.9399 25.5014 30.1778 25.5505 30.3972 25.6442C30.6166 25.7379 30.8126 25.874 30.9724 26.0437C31.3125 26.4084 31.5 26.8771 31.5 27.3624C31.5 27.8478 31.3125 28.3165 30.9724 28.6812L28.4355 31.3198C28.4355 31.3198 28.1737 31.6257 27.9993 31.625Z" fill="white"/>
</svg>
