<svg width="36" height="36" viewBox="0 0 36 36" fill="none" xmlns="http://www.w3.org/2000/svg">
<path fill-rule="evenodd" clip-rule="evenodd" d="M30 15.5H26V31.5H30C31.1046 31.5 32 30.6046 32 29.5V17.5C32 16.3954 31.1046 15.5 30 15.5ZM28.5 18.5C28.2239 18.5 28 18.7239 28 19V20C28 20.2761 28.2239 20.5 28.5 20.5H29.5C29.7761 20.5 30 20.2761 30 20V19C30 18.7239 29.7761 18.5 29.5 18.5H28.5Z" fill="#B2C2D6"/>
<path fill-rule="evenodd" clip-rule="evenodd" d="M8 4.5C6.89543 4.5 6 5.39543 6 6.5V29.5C6 30.6046 6.89543 31.5 8 31.5H13V25.5C13 24.9477 13.4477 24.5 14 24.5H18C18.5523 24.5 19 24.9477 19 25.5V31.5H26V6.5C26 5.39543 25.1046 4.5 24 4.5H8ZM11 9.5C10.4477 9.5 10 9.94772 10 10.5V12.5C10 13.0523 10.4477 13.5 11 13.5H13C13.5523 13.5 14 13.0523 14 12.5V10.5C14 9.94772 13.5523 9.5 13 9.5H11ZM10 17.5C10 16.9477 10.4477 16.5 11 16.5H13C13.5523 16.5 14 16.9477 14 17.5V19.5C14 20.0523 13.5523 20.5 13 20.5H11C10.4477 20.5 10 20.0523 10 19.5V17.5ZM18 10.5C18 9.94772 18.4477 9.5 19 9.5H21C21.5523 9.5 22 9.94772 22 10.5V12.5C22 13.0523 21.5523 13.5 21 13.5H19C18.4477 13.5 18 13.0523 18 12.5V10.5ZM19 16.5C18.4477 16.5 18 16.9477 18 17.5V19.5C18 20.0523 18.4477 20.5 19 20.5H21C21.5523 20.5 22 20.0523 22 19.5V17.5C22 16.9477 21.5523 16.5 21 16.5H19Z" fill="#143B75"/>
</svg>
