<svg width="36" height="36" viewBox="0 0 36 36" fill="none" xmlns="http://www.w3.org/2000/svg">
<path d="M5 7C5 5.89543 5.89543 5 7 5H18V18H5V7Z" fill="#00CBC1"/>
<path d="M5 18H18V31H7C5.89543 31 5 30.1046 5 29V18Z" fill="#0E8882"/>
<path d="M18 5H29C30.1046 5 31 5.89543 31 7V18H18V5Z" fill="#A6F0ED"/>
<path d="M18 18H31V29C31 30.1046 30.1046 31 29 31H18V18Z" fill="#00CBC1"/>
<path d="M8 11.5C8 11.0858 8.33579 10.75 8.75 10.75H14.25C14.6642 10.75 15 11.0858 15 11.5C15 11.9142 14.6642 12.25 14.25 12.25H8.75C8.33579 12.25 8 11.9142 8 11.5Z" fill="white"/>
<path d="M11.5 8C11.9142 8 12.25 8.33579 12.25 8.75L12.25 14.25C12.25 14.6642 11.9142 15 11.5 15C11.0858 15 10.75 14.6642 10.75 14.25L10.75 8.75C10.75 8.33579 11.0858 8 11.5 8Z" fill="white"/>
<path d="M8.84955 21.8502C9.14245 21.5573 9.64176 21.5817 9.96481 21.9047L14.0983 26.0382C14.4213 26.3612 14.4457 26.8606 14.1529 27.1535C13.86 27.4463 13.3606 27.4219 13.0376 27.0989L8.90415 22.9654C8.5811 22.6424 8.55666 22.143 8.84955 21.8502Z" fill="white"/>
<path d="M14.1498 21.8498C14.4427 22.1427 14.4183 22.642 14.0953 22.965L9.9618 27.0985C9.63875 27.4215 9.13944 27.446 8.84654 27.1531C8.55365 26.8602 8.57809 26.3609 8.90114 26.0378L13.0346 21.9044C13.3576 21.5813 13.857 21.5569 14.1498 21.8498Z" fill="white"/>
<path d="M21.25 11.5C21.25 11.0858 21.5858 10.75 22 10.75H27C27.4142 10.75 27.75 11.0858 27.75 11.5C27.75 11.9142 27.4142 12.25 27 12.25H22C21.5858 12.25 21.25 11.9142 21.25 11.5Z" fill="#05B0A8"/>
<path d="M21.25 22.875C21.25 22.4608 21.5858 22.125 22 22.125H27C27.4142 22.125 27.75 22.4608 27.75 22.875C27.75 23.2892 27.4142 23.625 27 23.625H22C21.5858 23.625 21.25 23.2892 21.25 22.875Z" fill="white"/>
<path d="M21.25 26.125C21.25 25.7108 21.5858 25.375 22 25.375H27C27.4142 25.375 27.75 25.7108 27.75 26.125C27.75 26.5392 27.4142 26.875 27 26.875H22C21.5858 26.875 21.25 26.5392 21.25 26.125Z" fill="white"/>
</svg>
