<svg width="37" height="36" viewBox="0 0 37 36" fill="none" xmlns="http://www.w3.org/2000/svg">
<path d="M5.62817 7C5.62817 5.89543 6.5236 5 7.62817 5H18.6282V18H5.62817V7Z" fill="#00CBC1"/>
<path d="M5.62817 18H18.6282V31H7.62817C6.5236 31 5.62817 30.1046 5.62817 29V18Z" fill="#0E8882"/>
<path d="M18.6282 5H29.6282C30.7327 5 31.6282 5.89543 31.6282 7V18H18.6282V5Z" fill="#A6F0ED"/>
<path d="M18.6282 18H31.6282V29C31.6282 30.1046 30.7327 31 29.6282 31H18.6282V18Z" fill="#00CBC1"/>
<rect x="8.60742" y="10.6875" width="7.04167" height="1.625" rx="0.8125" fill="white"/>
<rect x="12.9407" y="7.97925" width="7.04167" height="1.625" rx="0.8125" transform="rotate(90 12.9407 7.97925)" fill="white"/>
<path d="M9.52045 21.8997C9.83775 21.5824 10.3522 21.5824 10.6695 21.8997L14.7295 25.9597C15.0468 26.277 15.0468 26.7914 14.7295 27.1087C14.4122 27.426 13.8977 27.426 13.5804 27.1087L9.52045 23.0488C9.20315 22.7315 9.20315 22.217 9.52045 21.8997Z" fill="white"/>
<path d="M14.7368 21.8893C15.0541 22.2066 15.0541 22.7211 14.7368 23.0384L10.6768 27.0984C10.3595 27.4157 9.84504 27.4157 9.52773 27.0984C9.21043 26.7811 9.21043 26.2666 9.52773 25.9493L13.5877 21.8893C13.905 21.572 14.4195 21.572 14.7368 21.8893Z" fill="white"/>
<rect x="21.6282" y="11" width="6.5" height="1.625" rx="0.8125" fill="#05B0A8"/>
<rect x="21.8782" y="22.0625" width="6.5" height="1.625" rx="0.8125" fill="white"/>
<rect x="21.8782" y="25.3125" width="6.5" height="1.625" rx="0.8125" fill="white"/>
</svg>
