<svg width="36" height="36" viewBox="0 0 36 36" fill="none" xmlns="http://www.w3.org/2000/svg">
<path d="M24.5 8.5C24.5 9.05228 24.0523 9.5 23.5 9.5C22.9477 9.5 22.5 9.05228 22.5 8.5C22.5 7.94772 22.9477 7.5 23.5 7.5C24.0523 7.5 24.5 7.94772 24.5 8.5Z" fill="white"/>
<path d="M28.5 8.5C28.5 9.05228 28.0523 9.5 27.5 9.5C26.9477 9.5 26.5 9.05228 26.5 8.5C26.5 7.94772 26.9477 7.5 27.5 7.5C28.0523 7.5 28.5 7.94772 28.5 8.5Z" fill="white"/>
<path d="M20.5858 32.9488C20.5284 32.9366 20.469 32.924 20.4116 32.9117C15.1827 31.3551 10.6789 27.9877 7.70677 23.4127C4.73468 18.8377 3.48851 13.354 4.19148 7.94383C4.23304 7.63785 4.33675 7.3436 4.49621 7.07918C4.65568 6.81476 4.86755 6.58574 5.11878 6.40622C5.36394 6.23097 5.64278 6.1085 5.93769 6.04654C6.23261 5.98458 6.53717 5.98449 6.83212 6.04626L11.3474 6.97254C11.8306 7.07286 12.2663 7.33206 12.5851 7.70884C12.9039 8.08561 13.0874 8.55826 13.1063 9.05144L13.2519 12.9863C13.2683 13.4205 13.1552 13.8498 12.9269 14.2196C12.6986 14.5894 12.3655 14.8829 11.9699 15.0627L9.8777 16.0184C10.8479 19.2461 12.7098 22.1342 15.2491 24.3502L17.0415 22.7905C17.3695 22.5055 17.7742 22.3235 18.205 22.267C18.6359 22.2106 19.0738 22.2824 19.4641 22.4734L23.0252 24.2072C23.471 24.4212 23.8317 24.7791 24.049 25.2232C24.2664 25.6674 24.3279 26.1718 24.2234 26.6551L23.2434 31.2629C23.1824 31.5577 23.0602 31.8364 22.8848 32.081C22.7094 32.3256 22.4846 32.5308 22.225 32.6831C21.7315 32.9748 21.1462 33.0696 20.5858 32.9488Z" fill="#00CBC1"/>
<path fill-rule="evenodd" clip-rule="evenodd" d="M27.5001 2.5C24.1864 2.5 21.5001 5.18629 21.5001 8.5V12.0001L19.8537 13.6464C19.5388 13.9614 19.7618 14.5 20.2073 14.5H21.5001H25.7931H27.5001C30.8138 14.5 33.5001 11.8137 33.5001 8.5C33.5001 5.18629 30.8138 2.5 27.5001 2.5Z" fill="#074093"/>
<path d="M26.5 8.5C26.5 9.05228 26.0523 9.5 25.5 9.5C24.9477 9.5 24.5 9.05228 24.5 8.5C24.5 7.94772 24.9477 7.5 25.5 7.5C26.0523 7.5 26.5 7.94772 26.5 8.5Z" fill="white"/>
<path d="M30.5 8.5C30.5 9.05228 30.0523 9.5 29.5 9.5C28.9477 9.5 28.5 9.05228 28.5 8.5C28.5 7.94772 28.9477 7.5 29.5 7.5C30.0523 7.5 30.5 7.94772 30.5 8.5Z" fill="white"/>
</svg>
