<svg width="24" height="24" viewBox="0 0 24 24" fill="none" xmlns="http://www.w3.org/2000/svg">
<g clip-path="url(#clip0_401_23964)">
<path d="M15.9265 19.7302C15.8935 19.7232 15.8594 19.716 15.8265 19.7089C12.8235 18.815 10.237 16.8811 8.53009 14.2536C6.82322 11.6262 6.10754 8.47693 6.51126 5.36988C6.53513 5.19415 6.59469 5.02517 6.68627 4.87331C6.77785 4.72145 6.89952 4.58993 7.04381 4.48683C7.1846 4.38619 7.34474 4.31585 7.51411 4.28027C7.68348 4.24468 7.85839 4.24463 8.02777 4.28011L10.6209 4.81207C10.8984 4.86968 11.1486 5.01854 11.3317 5.23492C11.5148 5.4513 11.6202 5.72275 11.631 6.00598L11.7146 8.26575C11.7241 8.51514 11.6591 8.7617 11.528 8.97405C11.3969 9.18641 11.2056 9.35496 10.9784 9.45826L9.77685 10.0071C10.334 11.8608 11.4033 13.5194 12.8616 14.7921L13.891 13.8963C14.0794 13.7327 14.3118 13.6281 14.5592 13.5957C14.8067 13.5633 15.0582 13.6045 15.2823 13.7142L17.3275 14.7099C17.5835 14.8328 17.7906 15.0384 17.9155 15.2934C18.0403 15.5485 18.0756 15.8382 18.0156 16.1157L17.4528 18.762C17.4177 18.9313 17.3476 19.0914 17.2468 19.2319C17.1461 19.3723 17.017 19.4901 16.8679 19.5776C16.5845 19.7451 16.2483 19.7996 15.9265 19.7302Z" fill="#15181F"/>
</g>
<defs>
<clipPath id="clip0_401_23964">
<rect width="16" height="16" fill="white" transform="translate(4 4)"/>
</clipPath>
</defs>
</svg>
