<svg width="36" height="36" viewBox="0 0 36 36" fill="none" xmlns="http://www.w3.org/2000/svg">
<path d="M18.3624 33.5858C18.3057 33.5738 18.2472 33.5613 18.1905 33.5493C13.0321 32.0136 8.58891 28.6916 5.65685 24.1782C2.72478 19.6648 1.4954 14.2549 2.1889 8.91764C2.2299 8.61579 2.33221 8.32551 2.48953 8.06465C2.64685 7.80378 2.85586 7.57785 3.10371 7.40074C3.34556 7.22786 3.62066 7.10704 3.9116 7.04591C4.20253 6.98479 4.50299 6.9847 4.79397 7.04564L9.24839 7.95944C9.72512 8.05841 10.155 8.31412 10.4695 8.68582C10.784 9.05752 10.965 9.5238 10.9836 10.0103L11.1273 13.8922C11.1435 14.3206 11.0319 14.7441 10.8066 15.1089C10.5814 15.4737 10.2528 15.7632 9.86252 15.9407L7.79854 16.8835C8.75568 20.0677 10.5925 22.9168 13.0976 25.1031L14.8659 23.5644C15.1894 23.2832 15.5887 23.1036 16.0137 23.0479C16.4387 22.9923 16.8708 23.0631 17.2558 23.2515L20.769 24.962C21.2087 25.1731 21.5645 25.5262 21.779 25.9643C21.9935 26.4025 22.0541 26.9001 21.951 27.3769L20.9842 31.9227C20.924 32.2135 20.8035 32.4884 20.6305 32.7297C20.4574 32.9711 20.2357 33.1734 19.9796 33.3237C19.4927 33.6115 18.9152 33.705 18.3624 33.5858Z" fill="#00CBC1"/>
<path fill-rule="evenodd" clip-rule="evenodd" d="M25.5001 2.5C22.1864 2.5 19.5001 5.18629 19.5001 8.5V12.0001L17.8537 13.6464C17.5388 13.9614 17.7618 14.5 18.2073 14.5H19.5001H23.7931H25.5001C28.8138 14.5 31.5001 11.8137 31.5001 8.5C31.5001 5.18629 28.8138 2.5 25.5001 2.5Z" fill="#0168FE"/>
<path d="M24.5 8.5C24.5 9.05228 24.0523 9.5 23.5 9.5C22.9477 9.5 22.5 9.05228 22.5 8.5C22.5 7.94772 22.9477 7.5 23.5 7.5C24.0523 7.5 24.5 7.94772 24.5 8.5Z" fill="white"/>
<path d="M28.5 8.5C28.5 9.05228 28.0523 9.5 27.5 9.5C26.9477 9.5 26.5 9.05228 26.5 8.5C26.5 7.94772 26.9477 7.5 27.5 7.5C28.0523 7.5 28.5 7.94772 28.5 8.5Z" fill="white"/>
</svg>
