<svg width="40" height="40" viewBox="0 0 40 40" fill="none" xmlns="http://www.w3.org/2000/svg">
<path d="M5.82275 24.496H11.3278V28.8107C11.3278 29.4681 10.7949 30.001 10.1375 30.001H7.01304C6.35566 30.001 5.82275 29.4681 5.82275 28.8107V24.496Z" fill="#4E627D"/>
<path d="M27.8433 24.496H33.3483V28.8107C33.3483 29.4681 32.8154 30.001 32.158 30.001H29.0335C28.3762 30.001 27.8433 29.4681 27.8433 28.8107V24.496Z" fill="#4E627D"/>
<path fill-rule="evenodd" clip-rule="evenodd" d="M13.2441 6.875C11.5634 6.875 10.1101 8.04712 9.75422 9.68979L8.8547 13.8418C8.75013 14.1004 8.65907 14.3433 8.58265 14.5631L8.5647 14.5859V13.1227C8.5647 12.713 8.29975 12.3809 7.9729 12.3809H6.30851C5.12565 12.3809 4.16675 13.5829 4.16675 15.0657C4.16675 15.5291 4.4664 15.9047 4.83605 15.9047H7.3811H7.52651L6.48897 17.2226C6.48541 17.2279 6.47734 17.2374 6.46559 17.2512C6.3434 17.3946 5.82278 18.0059 5.82278 19.2614V25.8861V26.4176H33.3479V25.8861V19.2614C33.3479 17.8851 32.8332 17.3251 32.8332 17.3251L31.7149 15.9046H31.7856H34.3307C34.7003 15.9046 35 15.529 35 15.0656C35 13.5829 34.0411 12.3809 32.8582 12.3809H31.1938C30.867 12.3809 30.602 12.713 30.602 13.1227V14.4031C30.5012 14.1243 30.3794 13.8143 30.2384 13.4859L29.416 9.68978C29.0601 8.04712 27.6069 6.875 25.9261 6.875H13.2441Z" fill="#00CBC1"/>
<path d="M15.7753 24.4758C15.824 24.3177 15.9701 24.2097 16.1356 24.2097H23.0338C23.1993 24.2097 23.3455 24.3177 23.3941 24.4758L23.99 26.4124H15.1794L15.7753 24.4758Z" fill="#00A69E"/>
<path d="M8.57227 19.942C8.57227 19.416 8.99872 18.9895 9.52477 18.9895H13.1264C13.6524 18.9895 14.0789 19.416 14.0789 19.942V21.341C14.0789 21.867 13.6524 22.2935 13.1264 22.2935H9.52477C8.99872 22.2935 8.57227 21.867 8.57227 21.341V19.942Z" fill="white"/>
<path d="M25.092 19.942C25.092 19.416 25.5185 18.9895 26.0445 18.9895H29.6461C30.1722 18.9895 30.5986 19.416 30.5986 19.942V21.341C30.5986 21.867 30.1722 22.2935 29.6461 22.2935H26.0445C25.5185 22.2935 25.092 21.867 25.092 21.341V19.942Z" fill="white"/>
<path d="M11.3902 10.0652C11.5912 8.85979 12.6341 7.97632 13.8562 7.97632H25.3143C26.5363 7.97632 27.5793 8.8598 27.7802 10.0652L28.3958 13.7575H10.7747L11.3902 10.0652Z" fill="#00A69E"/>
<path d="M38.3335 28C38.3335 32.1421 34.9756 35.5 30.8335 35.5C26.6914 35.5 23.3335 32.1421 23.3335 28C23.3335 23.8579 26.6914 20.5 30.8335 20.5C34.9756 20.5 38.3335 23.8579 38.3335 28Z" fill="#0168FE"/>
<path fill-rule="evenodd" clip-rule="evenodd" d="M34.5637 25.5521C34.88 25.8864 34.8654 26.4139 34.5311 26.7302L30.5677 30.4802C30.2418 30.7885 29.7302 30.7835 29.4104 30.4688L27.1238 28.2188C26.7958 27.896 26.7915 27.3684 27.1143 27.0404C27.4371 26.7123 27.9648 26.708 28.2928 27.0309L30.0063 28.7169L33.3856 25.5195C33.7199 25.2032 34.2473 25.2178 34.5637 25.5521Z" fill="white"/>
</svg>
