<svg width="65" height="64" viewBox="0 0 65 64" fill="none" xmlns="http://www.w3.org/2000/svg">
<path d="M9.94141 39.1953H18.7494V46.0989C18.7494 47.1507 17.8968 48.0034 16.845 48.0034H11.8459C10.7941 48.0034 9.94141 47.1507 9.94141 46.0989V39.1953Z" fill="#4E627D"/>
<path d="M45.1738 39.1953H53.9819V46.0989C53.9819 47.1507 53.1292 48.0034 52.0774 48.0034H47.0783C46.0265 48.0034 45.1738 47.1507 45.1738 46.0989V39.1953Z" fill="#4E627D"/>
<path fill-rule="evenodd" clip-rule="evenodd" d="M21.8148 11C19.1256 11 16.8004 12.8754 16.231 15.5037L14.7917 22.1468C14.6244 22.5607 14.4787 22.9492 14.3565 23.301L14.3277 23.3375V20.9964C14.3277 20.3408 13.9038 19.8094 13.3809 19.8094H10.7178C8.82526 19.8094 7.29102 21.7327 7.29102 24.1051C7.29102 24.8465 7.77047 25.4475 8.3619 25.4475H12.434H12.6666L11.0066 27.5562C11.0009 27.5647 10.988 27.5798 10.9692 27.6019C10.7737 27.8314 9.94067 28.8094 9.94067 30.8182V41.4177V42.2682H53.9809V41.4177V30.8182C53.9809 28.6162 53.1573 27.7201 53.1573 27.7201L51.3681 25.4474H51.4812H55.5533C56.1447 25.4474 56.6242 24.8464 56.6242 24.105C56.6242 21.7326 55.0899 19.8094 53.1973 19.8094H50.5344C50.0114 19.8094 49.5875 20.3408 49.5875 20.9964V23.0449C49.4262 22.5988 49.2312 22.1029 49.0057 21.5775L47.6898 15.5037C47.1204 12.8754 44.7952 11 42.106 11H21.8148Z" fill="#00CBC1"/>
<path d="M25.8655 39.1602C25.9433 38.9071 26.1772 38.7344 26.442 38.7344H37.4791C37.7439 38.7344 37.9777 38.9071 38.0556 39.1602L39.009 42.2586H24.9121L25.8655 39.1602Z" fill="#00A69E"/>
<path d="M14.3398 31.9068C14.3398 31.0651 15.0222 30.3828 15.8638 30.3828H21.6264C22.4681 30.3828 23.1504 31.0651 23.1504 31.9068V34.1451C23.1504 34.9868 22.4681 35.6691 21.6264 35.6691H15.8638C15.0222 35.6691 14.3398 34.9868 14.3398 34.1451V31.9068Z" fill="white"/>
<path d="M40.7715 31.9068C40.7715 31.0651 41.4538 30.3828 42.2955 30.3828H48.058C48.8997 30.3828 49.582 31.0651 49.582 31.9068V34.1451C49.582 34.9868 48.8997 35.6691 48.058 35.6691H42.2955C41.4538 35.6691 40.7715 34.9868 40.7715 34.1451V31.9068Z" fill="white"/>
<path d="M18.8481 16.1079C19.1697 14.1792 20.8384 12.7656 22.7937 12.7656H41.1266C43.0819 12.7656 44.7506 14.1792 45.0722 16.1079L46.057 22.0155H17.8633L18.8481 16.1079Z" fill="#00A69E"/>
<path d="M61.959 44C61.959 50.6274 56.5864 56 49.959 56C43.3316 56 37.959 50.6274 37.959 44C37.959 37.3726 43.3316 32 49.959 32C56.5864 32 61.959 37.3726 61.959 44Z" fill="#0168FE"/>
<path fill-rule="evenodd" clip-rule="evenodd" d="M44.8759 40.3842C45.4017 40.2152 45.9649 40.5044 46.1339 41.0302L47.429 45.0594L49.1935 40.9423C49.3511 40.5746 49.7126 40.3362 50.1126 40.3362C50.5127 40.3362 50.8742 40.5746 51.0318 40.9423L52.7962 45.0594L54.0913 41.0302C54.2603 40.5044 54.8236 40.2152 55.3494 40.3842C55.8752 40.5532 56.1644 41.1164 55.9954 41.6422L53.8822 48.2165C53.7546 48.6137 53.3938 48.8898 52.9771 48.9094C52.5604 48.929 52.1754 48.6878 52.0111 48.3044L50.1126 43.8748L48.2142 48.3044C48.0499 48.6878 47.6648 48.929 47.2481 48.9094C46.8315 48.8898 46.4707 48.6137 46.3431 48.2165L44.2299 41.6422C44.0609 41.1164 44.3501 40.5532 44.8759 40.3842Z" fill="white"/>
<path d="M42.2246 44.3581C42.2246 43.7763 42.6962 43.3047 43.278 43.3047H45.1158C45.6976 43.3047 46.1692 43.7763 46.1692 44.3581C46.1692 44.9398 45.6976 45.4115 45.1158 45.4115H43.278C42.6962 45.4115 42.2246 44.9398 42.2246 44.3581Z" fill="white"/>
<path d="M53.7305 44.3581C53.7305 43.7763 54.2021 43.3047 54.7839 43.3047H56.6217C57.2034 43.3047 57.6751 43.7763 57.6751 44.3581C57.6751 44.9398 57.2034 45.4115 56.6217 45.4115H54.7839C54.2021 45.4115 53.7305 44.9398 53.7305 44.3581Z" fill="white"/>
</svg>
