<svg width="65" height="64" viewBox="0 0 65 64" fill="none" xmlns="http://www.w3.org/2000/svg">
<path d="M9.60938 39.1953H18.4174V46.0989C18.4174 47.1507 17.5648 48.0034 16.513 48.0034H11.5138C10.462 48.0034 9.60938 47.1507 9.60938 46.0989V39.1953Z" fill="#06316F"/>
<path d="M44.8438 39.1953H53.6518V46.0989C53.6518 47.1507 52.7991 48.0034 51.7473 48.0034H46.7482C45.6964 48.0034 44.8438 47.1507 44.8438 46.0989V39.1953Z" fill="#4E627D"/>
<path fill-rule="evenodd" clip-rule="evenodd" d="M21.4847 11C18.7955 11 16.4703 12.8754 15.9009 15.5037L14.4617 22.1468C14.2943 22.5607 14.1487 22.9492 14.0264 23.301L13.9977 23.3375V20.9964C13.9977 20.3408 13.5737 19.8094 13.0508 19.8094H10.3878C8.49518 19.8094 6.96094 21.7327 6.96094 24.1051C6.96094 24.8465 7.44039 25.4475 8.03182 25.4475H12.1039H12.3366L10.6765 27.5562C10.6708 27.5647 10.6579 27.5798 10.6391 27.6019C10.4436 27.8314 9.61059 28.8094 9.61059 30.8182V41.4177V42.2682H53.6508V41.4177V30.8182C53.6508 28.6162 52.8272 27.7201 52.8272 27.7201L51.038 25.4474H51.1512H55.2232C55.8146 25.4474 56.2941 24.8464 56.2941 24.105C56.2941 21.7326 54.7598 19.8094 52.8672 19.8094H50.2043C49.6813 19.8094 49.2574 20.3408 49.2574 20.9964V23.0449C49.0961 22.5988 48.9011 22.1029 48.6756 21.5775L47.3597 15.5037C46.7903 12.8754 44.4651 11 41.7759 11H21.4847Z" fill="#5478AC"/>
<path d="M25.5315 39.1602C25.6094 38.9071 25.8432 38.7344 26.108 38.7344H37.1451C37.4099 38.7344 37.6438 38.9071 37.7216 39.1602L38.675 42.2586H24.5781L25.5315 39.1602Z" fill="#0C408C"/>
<path d="M14.0078 31.9068C14.0078 31.0651 14.6901 30.3828 15.5318 30.3828H21.2944C22.136 30.3828 22.8184 31.0651 22.8184 31.9068V34.1451C22.8184 34.9868 22.136 35.6691 21.2944 35.6691H15.5318C14.6901 35.6691 14.0078 34.9868 14.0078 34.1451V31.9068Z" fill="white"/>
<path d="M40.4375 31.9068C40.4375 31.0651 41.1198 30.3828 41.9615 30.3828H47.724C48.5657 30.3828 49.248 31.0651 49.248 31.9068V34.1451C49.248 34.9868 48.5657 35.6691 47.724 35.6691H41.9615C41.1198 35.6691 40.4375 34.9868 40.4375 34.1451V31.9068Z" fill="white"/>
<path d="M18.5161 16.1079C18.8376 14.1792 20.5064 12.7656 22.4617 12.7656H40.7946C42.7499 12.7656 44.4186 14.1792 44.7401 16.1079L45.725 22.0155H17.5312L18.5161 16.1079Z" fill="#0C408C"/>
<path d="M61.6328 44C61.6328 50.6274 56.2602 56 49.6328 56C43.0054 56 37.6328 50.6274 37.6328 44C37.6328 37.3726 43.0054 32 49.6328 32C56.2602 32 61.6328 37.3726 61.6328 44Z" fill="#20C7BF"/>
<path d="M46.8004 40.5303L48.7518 37.3656C49.1402 36.7356 50.0545 36.7312 50.449 37.3573L52.4484 40.5303M45.106 43.8788L42.9802 47.493C42.588 48.1596 43.0687 49 43.8421 49H47.7417M54.1428 43.8788L56.2298 47.5007C56.614 48.1674 56.1328 49 55.3634 49H51.5071" stroke="white" stroke-width="2"/>
</svg>
