<svg width="48" height="48" viewBox="0 0 48 48" fill="none" xmlns="http://www.w3.org/2000/svg">
<path d="M5.5 29.9985H12.5V35.9982C12.5 37.1027 11.7165 37.998 10.75 37.998H7.25C6.2835 37.998 5.5 37.1027 5.5 35.9982V29.9985Z" fill="#003582"/>
<path d="M35.5 29.9985H42.5V35.9982C42.5 37.1027 41.7165 37.998 40.75 37.998H37.25C36.2835 37.998 35.5 37.1027 35.5 35.9982V29.9985Z" fill="#003582"/>
<path fill-rule="evenodd" clip-rule="evenodd" d="M6.39551 20.0171L9.20989 16.6861C10.1929 13.7908 12.9769 8 16.2492 8H16.3443H20.4347H27.6604H31.846H32.2264C33.1777 8 34.0124 8.47927 34.4836 9.20028C36.5532 11.0531 38.1812 14.6123 38.8852 16.6861L41.8081 20.1581C41.8081 20.1581 42.5 20.9289 42.5 22.8228V32.2685C42.5 32.6725 42.5 33 42.5 33H5.5C5.5 33 5.5 32.6725 5.5 32.2685V22.8228C5.5 20.9289 6.34091 20.1002 6.39551 20.0171Z" fill="#0168FE"/>
<path d="M18.7941 30.8492C18.8707 30.6417 19.1009 30.5 19.3615 30.5H28.6378C28.8984 30.5 29.1285 30.6417 29.2052 30.8492L29.9993 33H18L18.7941 30.8492Z" fill="#A3C6F9"/>
<path d="M10.0259 10.7278C10.6052 7.96789 12.9707 5.99854 15.7066 5.99854H32.2934C35.0293 5.99854 37.3948 7.96788 37.9741 10.7278L39.5 17.9978H8.5L10.0259 10.7278Z" fill="#0168FE"/>
<path d="M12.2961 11.342C12.6258 9.41348 14.3366 8 16.3413 8H31.6587C33.6634 8 35.3742 9.41348 35.7039 11.342L36.5 15.9995H11.5L12.2961 11.342Z" fill="#004DBE"/>
<path fill-rule="evenodd" clip-rule="evenodd" d="M5.49329 13C3.70207 13 2.25 14.7056 2.25 16.8095C2.25 17.467 2.70377 18 3.26353 18H7.11752H8.90986H10.2541V16.1579H8.90986V14.0526C8.90986 13.4713 8.50863 13 8.01369 13H5.49329Z" fill="#0168FE"/>
<path fill-rule="evenodd" clip-rule="evenodd" d="M42.5067 13C44.2979 13 45.75 14.7056 45.75 16.8095C45.75 17.467 45.2962 18 44.7365 18H40.8826H39.0902H37.746V16.1579H39.0902V14.0526C39.0902 13.4713 39.4915 13 39.9864 13H42.5067Z" fill="#0168FE"/>
<path d="M8.09937 25.4165C8.09937 25.0023 8.43515 24.6665 8.84937 24.6665H14.6823C15.0965 24.6665 15.4323 25.0023 15.4323 25.4165V28.5829C15.4323 28.9971 15.0965 29.3329 14.6823 29.3329H8.84937C8.43515 29.3329 8.09937 28.9971 8.09937 28.5829V25.4165Z" fill="white"/>
<path d="M31.4314 25.4165C31.4314 25.0023 31.7672 24.6665 32.1814 24.6665H38.0143C38.4285 24.6665 38.7643 25.0023 38.7643 25.4165V28.5829C38.7643 28.9971 38.4285 29.3329 38.0143 29.3329H32.1814C31.7672 29.3329 31.4314 28.9971 31.4314 28.5829V25.4165Z" fill="white"/>
<path d="M46 36C46 40.9706 41.9706 45 37 45C32.0294 45 28 40.9706 28 36C28 31.0294 32.0294 27 37 27C41.9706 27 46 31.0294 46 36Z" fill="#2AD6CE"/>
<path fill-rule="evenodd" clip-rule="evenodd" d="M41.717 33.3029C42.102 33.6989 42.0931 34.332 41.6971 34.717L36.5542 39.717C36.1661 40.0943 35.5482 40.0943 35.1601 39.717L32.3029 36.9392C31.9069 36.5542 31.898 35.9211 32.283 35.5251C32.668 35.1292 33.3011 35.1202 33.6971 35.5052L35.8571 37.6053L40.3029 33.283C40.6989 32.898 41.332 32.9069 41.717 33.3029Z" fill="white"/>
</svg>
