<svg width="65" height="64" viewBox="0 0 65 64" fill="none" xmlns="http://www.w3.org/2000/svg">
<path d="M10.0078 39.1953H18.8159V46.0989C18.8159 47.1507 17.9632 48.0034 16.9114 48.0034H11.9123C10.8605 48.0034 10.0078 47.1507 10.0078 46.0989V39.1953Z" fill="#003582"/>
<path d="M45.2422 39.1953H54.0502V46.0989C54.0502 47.1507 53.1976 48.0034 52.1458 48.0034H47.1466C46.0948 48.0034 45.2422 47.1507 45.2422 46.0989V39.1953Z" fill="#003582"/>
<path fill-rule="evenodd" clip-rule="evenodd" d="M21.8832 11C19.1939 11 16.8687 12.8754 16.2993 15.5037L14.8601 22.1468C14.6928 22.5607 14.5471 22.9492 14.4248 23.301L14.3961 23.3375V20.9964C14.3961 20.3408 13.9722 19.8094 13.4492 19.8094H10.7862C8.89361 19.8094 7.35938 21.7327 7.35938 24.1051C7.35938 24.8465 7.83882 25.4475 8.43026 25.4475H12.5023H12.735L11.0749 27.5562C11.0692 27.5647 11.0563 27.5798 11.0375 27.6019C10.842 27.8314 10.009 28.8094 10.009 30.8182V41.4177V42.2682H54.0492V41.4177V30.8182C54.0492 28.6162 53.2256 27.7201 53.2256 27.7201L51.4364 25.4474H51.5496H55.6216C56.2131 25.4474 56.6925 24.8464 56.6925 24.105C56.6925 21.7326 55.1583 19.8094 53.2657 19.8094H50.6027C50.0798 19.8094 49.6558 20.3408 49.6558 20.9964V23.0449C49.4945 22.5988 49.2996 22.1029 49.0741 21.5775L47.7582 15.5037C47.1888 12.8754 44.8636 11 42.1743 11H21.8832Z" fill="#0168FE"/>
<path d="M25.9299 39.1602C26.0078 38.9071 26.2416 38.7344 26.5064 38.7344H37.5436C37.8084 38.7344 38.0422 38.9071 38.1201 39.1602L39.0734 42.2586H24.9766L25.9299 39.1602Z" fill="#A3C6F9"/>
<path d="M14.4062 31.9068C14.4062 31.0651 15.0886 30.3828 15.9303 30.3828H21.6928C22.5345 30.3828 23.2168 31.0651 23.2168 31.9068V34.1451C23.2168 34.9868 22.5345 35.6691 21.6928 35.6691H15.9303C15.0886 35.6691 14.4062 34.9868 14.4062 34.1451V31.9068Z" fill="white"/>
<path d="M40.8359 31.9068C40.8359 31.0651 41.5183 30.3828 42.3599 30.3828H48.1225C48.9642 30.3828 49.6465 31.0651 49.6465 31.9068V34.1451C49.6465 34.9868 48.9642 35.6691 48.1225 35.6691H42.3599C41.5183 35.6691 40.8359 34.9868 40.8359 34.1451V31.9068Z" fill="white"/>
<path d="M18.9145 16.1079C19.2361 14.1792 20.9048 12.7656 22.8601 12.7656H41.193C43.1483 12.7656 44.8171 14.1792 45.1386 16.1079L46.1234 22.0155H17.9297L18.9145 16.1079Z" fill="#004DBE"/>
<rect x="40" y="35" width="17" height="13" rx="2" fill="#E0E0E0"/>
<path d="M40 37C40 35.8954 40.8954 35 42 35H55C56.1046 35 57 35.8954 57 37V38H40V37Z" fill="#06316E"/>
<path d="M42 33.5C42 32.6716 42.6716 32 43.5 32C44.3284 32 45 32.6716 45 33.5V36H42V33.5Z" fill="#06316E"/>
<path d="M52 33.5C52 32.6716 52.6716 32 53.5 32C54.3284 32 55 32.6716 55 33.5V36H52V33.5Z" fill="#06316E"/>
<rect x="42" y="41" width="3.56889" height="3.56889" rx="0.5" fill="#8F8F8F"/>
<rect x="46.7578" y="41" width="3.56889" height="3.56889" rx="0.5" fill="#8F8F8F"/>
<rect x="51.5156" y="41" width="3.56889" height="3.56889" rx="0.5" fill="#8F8F8F"/>
</svg>
