<svg width="48" height="48" viewBox="0 0 48 48" fill="none" xmlns="http://www.w3.org/2000/svg">
<path d="M6.9873 29.3953H13.5933V34.5729C13.5933 35.3618 12.9538 36.0013 12.165 36.0013H8.41565C7.6268 36.0013 6.9873 35.3618 6.9873 34.5729V29.3953Z" fill="#4E627D"/>
<path d="M33.4119 29.3953H40.0179V34.5729C40.0179 35.3618 39.3784 36.0013 38.5895 36.0013H34.8402C34.0514 36.0013 33.4119 35.3618 33.4119 34.5729V29.3953Z" fill="#4E627D"/>
<path fill-rule="evenodd" clip-rule="evenodd" d="M15.8929 8.25C13.8759 8.25 12.132 9.65654 11.705 11.6277L10.6255 16.6101C10.5001 16.9205 10.3908 17.2119 10.2991 17.4758L10.2775 17.5031V15.7473C10.2775 15.2556 9.9596 14.8571 9.56738 14.8571H7.57011C6.15068 14.8571 5 16.2995 5 18.0788C5 18.6349 5.35959 19.0856 5.80316 19.0856H8.85722H9.03171L7.78666 20.6671C7.78239 20.6735 7.77271 20.6849 7.75861 20.7014C7.61198 20.8736 6.98724 21.6071 6.98724 23.1137V31.0633V31.7011H40.0174V31.0633V23.1137C40.0174 21.4622 39.3997 20.7901 39.3997 20.7901L38.0578 19.0856H38.1427H41.1967C41.6403 19.0856 41.9999 18.6348 41.9999 18.0788C41.9999 16.2995 40.8492 14.8571 39.4297 14.8571H37.4325C37.0403 14.8571 36.7223 15.2556 36.7223 15.7473V17.2837C36.6014 16.9491 36.4551 16.5772 36.286 16.1831L35.2991 11.6277C34.872 9.65654 33.1281 8.25 31.1112 8.25H15.8929Z" fill="#00CBC1"/>
<path d="M18.9304 29.3711C18.9888 29.1813 19.1641 29.0518 19.3627 29.0518H27.6406C27.8392 29.0518 28.0146 29.1813 28.073 29.3711L28.788 31.6949H18.2153L18.9304 29.3711Z" fill="#00A69E"/>
<path d="M10.2869 23.9304C10.2869 23.2991 10.7986 22.7874 11.4299 22.7874H15.7518C16.383 22.7874 16.8948 23.2991 16.8948 23.9304V25.6091C16.8948 26.2404 16.383 26.7521 15.7518 26.7521H11.4299C10.7986 26.7521 10.2869 26.2404 10.2869 25.6091V23.9304Z" fill="white"/>
<path d="M30.1104 23.9304C30.1104 23.2991 30.6221 22.7874 31.2534 22.7874H35.5753C36.2065 22.7874 36.7183 23.2991 36.7183 23.9304V25.6091C36.7183 26.2404 36.2065 26.7521 35.5753 26.7521H31.2534C30.6221 26.7521 30.1104 26.2404 30.1104 25.6091V23.9304Z" fill="white"/>
<path d="M13.6683 12.0782C13.9095 10.6317 15.161 9.57153 16.6275 9.57153H30.3772C31.8437 9.57153 33.0952 10.6317 33.3364 12.0782L34.075 16.509H12.9297L13.6683 12.0782Z" fill="#00A69E"/>
<path d="M46 33C46 37.9706 41.9706 42 37 42C32.0294 42 28 37.9706 28 33C28 28.0294 32.0294 24 37 24C41.9706 24 46 28.0294 46 33Z" fill="#0168FE"/>
<path fill-rule="evenodd" clip-rule="evenodd" d="M33.1892 30.2859C33.5835 30.1592 34.0059 30.3761 34.1327 30.7705L35.104 33.7923L36.4273 30.7045C36.5455 30.4288 36.8167 30.25 37.1167 30.25C37.4167 30.25 37.6879 30.4288 37.8061 30.7045L39.1294 33.7923L40.1007 30.7705C40.2275 30.3761 40.6499 30.1592 41.0443 30.2859C41.4386 30.4127 41.6555 30.8351 41.5288 31.2295L39.9439 36.1602C39.8482 36.458 39.5776 36.6652 39.2651 36.6799C38.9526 36.6945 38.6638 36.5137 38.5405 36.2261L37.1167 32.9039L35.6929 36.2261C35.5697 36.5137 35.2809 36.6945 34.9683 36.6799C34.6558 36.6652 34.3853 36.458 34.2895 36.1602L32.7046 31.2295C32.5779 30.8351 32.7948 30.4127 33.1892 30.2859Z" fill="white"/>
<path d="M31.2002 33.2693C31.2002 32.833 31.5539 32.4792 31.9902 32.4792H33.3686C33.8049 32.4792 34.1586 32.833 34.1586 33.2693C34.1586 33.7056 33.8049 34.0593 33.3686 34.0593H31.9902C31.5539 34.0593 31.2002 33.7056 31.2002 33.2693Z" fill="white"/>
<path d="M39.8289 33.2693C39.8289 32.833 40.1826 32.4792 40.6189 32.4792H41.9973C42.4336 32.4792 42.7873 32.833 42.7873 33.2693C42.7873 33.7056 42.4336 34.0593 41.9973 34.0593H40.6189C40.1826 34.0593 39.8289 33.7056 39.8289 33.2693Z" fill="white"/>
</svg>
