<svg width="36" height="36" viewBox="0 0 36 36" fill="none" xmlns="http://www.w3.org/2000/svg">
<path d="M4 24H9.5V28.5C9.5 29.3284 8.88439 30 8.125 30H5.375C4.61561 30 4 29.3284 4 28.5V24Z" fill="#AA5A10"/>
<path d="M26.5 24H32V28.5C32 29.3284 31.3844 30 30.625 30H27.875C27.1156 30 26.5 29.3284 26.5 28.5V24Z" fill="#AA5A10"/>
<path fill-rule="evenodd" clip-rule="evenodd" d="M4.67768 17.133L6.80749 14.6015C7.55135 12.401 9.65816 8 12.1345 8H12.2065H15.3019H20.7701H23.9375H24.2254C24.9453 8 25.577 8.36424 25.9335 8.91221C27.4997 10.3204 28.7317 13.0254 29.2645 14.6015L31.4764 17.2402C31.4764 17.2402 32 17.8259 32 19.2654V26.4441C32 26.7511 32 27 32 27H4C4 27 4 26.7511 4 26.4441V19.2654C4 17.8259 4.63636 17.1962 4.67768 17.133Z" fill="#FFBB37"/>
<path d="M14.0956 25.2794C14.1531 25.1133 14.3257 25 14.5212 25H21.4788C21.6743 25 21.8469 25.1133 21.9044 25.2794L22.5 27H13.5L14.0956 25.2794Z" fill="#E99312"/>
<path d="M7.63212 9.54572C8.06191 7.47564 9.81699 5.99854 11.8468 5.99854H24.1532C26.183 5.99854 27.9381 7.47564 28.3679 9.54572L29.5 14.9985H6.5L7.63212 9.54572Z" fill="#FFBB37"/>
<path d="M9.10504 10.0067C9.35557 8.56017 10.6558 7.5 12.1794 7.5H23.8206C25.3442 7.5 26.6444 8.56017 26.895 10.0067L27.5 13.5H8.5L9.10504 10.0067Z" fill="#E99312"/>
<path fill-rule="evenodd" clip-rule="evenodd" d="M4.13257 11.5C2.78907 11.5 1.69995 12.8645 1.69995 14.5476C1.69995 15.0736 2.0403 15.5 2.46014 15.5H5.35081H6.69515H7.70341V14.0263H6.69515V12.3421C6.69515 11.877 6.39421 11.5 6.02298 11.5H4.13257Z" fill="#FFBB37"/>
<path fill-rule="evenodd" clip-rule="evenodd" d="M31.8674 11.5C33.2109 11.5 34.3 12.8645 34.3 14.5476C34.3 15.0736 33.9597 15.5 33.5399 15.5H30.6493H29.3049H28.2967V14.0263H29.3049V12.3421C29.3049 11.877 29.6059 11.5 29.9771 11.5H31.8674Z" fill="#FFBB37"/>
<path d="M6.5 20.75C6.5 20.3358 6.83579 20 7.25 20H11.25C11.6642 20 12 20.3358 12 20.75V22.75C12 23.1642 11.6642 23.5 11.25 23.5H7.25C6.83579 23.5 6.5 23.1642 6.5 22.75V20.75Z" fill="white"/>
<path d="M24 20.75C24 20.3358 24.3358 20 24.75 20H28.75C29.1642 20 29.5 20.3358 29.5 20.75V22.75C29.5 23.1642 29.1642 23.5 28.75 23.5H24.75C24.3358 23.5 24 23.1642 24 22.75V20.75Z" fill="white"/>
<path d="M35 28C35 31.866 31.866 35 28 35C24.134 35 21 31.866 21 28C21 24.134 24.134 21 28 21C31.866 21 35 24.134 35 28Z" fill="#0168FE"/>
<path fill-rule="evenodd" clip-rule="evenodd" d="M28.2166 25.6667C28.1169 25.5184 27.8984 25.5195 27.8002 25.6688L27.1369 26.6773L25.8837 25.8531L26.547 24.8445C27.2342 23.7997 28.7639 23.792 29.4615 24.8299L30.145 25.8468L28.9001 26.6836L28.2166 25.6667ZM26.2419 28.3381L25.5962 29.3672C25.4918 29.5337 25.6114 29.7501 25.808 29.7501H27.0123V31.2501H25.808C24.4321 31.2501 23.5944 29.7355 24.3256 28.57L24.9713 27.5409L26.2419 28.3381ZM30.4246 29.3692L29.7873 28.3322L31.0652 27.5467L31.7025 28.5837C32.4192 29.7497 31.5803 31.2501 30.2116 31.2501H29.0205V29.7501H30.2116C30.4071 29.7501 30.527 29.5357 30.4246 29.3692Z" fill="white"/>
</svg>
