<svg width="36" height="36" viewBox="0 0 36 36" fill="none" xmlns="http://www.w3.org/2000/svg">
<path d="M4 24H9.5V28.5C9.5 29.3284 8.88439 30 8.125 30H5.375C4.61561 30 4 29.3284 4 28.5V24Z" fill="#003582"/>
<path d="M26.5 24H32V28.5C32 29.3284 31.3844 30 30.625 30H27.875C27.1156 30 26.5 29.3284 26.5 28.5V24Z" fill="#003582"/>
<path fill-rule="evenodd" clip-rule="evenodd" d="M4.67768 17.133L6.80749 14.6015C7.55135 12.401 9.65816 8 12.1345 8H12.2065H15.3019H20.7701H23.9375H24.2254C24.9453 8 25.577 8.36424 25.9335 8.91221C27.4997 10.3204 28.7317 13.0254 29.2645 14.6015L31.4764 17.2402C31.4764 17.2402 32 17.8259 32 19.2654V26.4441C32 26.7511 32 27 32 27H4C4 27 4 26.7511 4 26.4441V19.2654C4 17.8259 4.63636 17.1962 4.67768 17.133Z" fill="#0168FE"/>
<path d="M7.63212 9.54572C8.06191 7.47564 9.81699 5.99854 11.8468 5.99854H24.1532C26.183 5.99854 27.9381 7.47564 28.3679 9.54572L29.5 14.9985H6.5L7.63212 9.54572Z" fill="#0168FE"/>
<path fill-rule="evenodd" clip-rule="evenodd" d="M4.13257 11.5C2.78907 11.5 1.69995 12.8645 1.69995 14.5476C1.69995 15.0736 2.0403 15.5 2.46014 15.5H5.35081H6.69515H7.70341V14.0263H6.69515V12.3421C6.69515 11.877 6.39421 11.5 6.02298 11.5H4.13257Z" fill="#0168FE"/>
<path fill-rule="evenodd" clip-rule="evenodd" d="M31.8674 11.5C33.2109 11.5 34.3 12.8645 34.3 14.5476C34.3 15.0736 33.9597 15.5 33.5399 15.5H30.6493H29.3049H28.2967V14.0263H29.3049V12.3421C29.3049 11.877 29.6059 11.5 29.9771 11.5H31.8674Z" fill="#0168FE"/>
<path fill-rule="evenodd" clip-rule="evenodd" d="M10.5 16.5C10.5 15.9477 10.9477 15.5 11.5 15.5L13.5 15.5C14.0523 15.5 14.5 15.9477 14.5 16.5C14.5 17.0523 14.0523 17.5 13.5 17.5L11.5 17.5C10.9477 17.5 10.5 17.0523 10.5 16.5Z" fill="white"/>
<path fill-rule="evenodd" clip-rule="evenodd" d="M21.5 16.5C21.5 15.9477 21.9477 15.5 22.5 15.5L24.5 15.5C25.0523 15.5 25.5 15.9477 25.5 16.5C25.5 17.0523 25.0523 17.5 24.5 17.5L22.5 17.5C21.9477 17.5 21.5 17.0523 21.5 16.5Z" fill="white"/>
<path fill-rule="evenodd" clip-rule="evenodd" d="M12.7073 12.0438C13.2354 11.8822 13.7946 12.1792 13.9562 12.7073L15.2776 17.0238L17.0742 12.6221C17.2277 12.2459 17.5937 12 18 12C18.4064 12 18.7723 12.2459 18.9259 12.6221L20.7225 17.0238L22.0438 12.7073C22.2055 12.1792 22.7646 11.8822 23.2927 12.0438C23.8208 12.2055 24.1179 12.7646 23.9562 13.2927L21.8134 20.2927C21.6896 20.6971 21.3248 20.9799 20.9024 20.999C20.4799 21.0181 20.0911 20.7694 19.9313 20.3779L18 15.6462L16.0687 20.3779C15.9089 20.7694 15.5201 21.0181 15.0977 20.999C14.6752 20.9799 14.3105 20.6971 14.1867 20.2927L12.0438 13.2927C11.8822 12.7646 12.1792 12.2055 12.7073 12.0438Z" fill="white"/>
</svg>
