<svg width="65" height="64" viewBox="0 0 65 64" fill="none" xmlns="http://www.w3.org/2000/svg">
<path d="M7.50781 43.1797H17.6649V50.7975C17.6649 52.1999 16.5281 53.3368 15.1257 53.3368H10.0471C8.64469 53.3368 7.50781 52.1999 7.50781 50.7975V43.1797Z" fill="#047C77"/>
<path d="M48.1406 43.1797H58.2978V50.7975C58.2978 52.1999 57.1609 53.3368 55.7585 53.3368H50.6799C49.2775 53.3368 48.1406 52.1999 48.1406 50.7975V43.1797Z" fill="#047C77"/>
<path fill-rule="evenodd" clip-rule="evenodd" d="M8.73697 29.7557L12.6 24.8488C13.9492 20.9669 17.7704 13.2031 22.262 13.2031H22.3925H28.007H37.9249H43.6699H44.1921C45.4978 13.2031 46.6435 13.8457 47.2902 14.8124C50.1309 17.2965 52.3655 22.0684 53.3319 24.8488L57.3437 29.9448C57.3437 29.9448 58.2935 30.9781 58.2935 33.5174V45.7404C58.2935 46.282 58.2935 46.7211 58.2935 46.7211H7.50781C7.50781 46.7211 7.50781 46.282 7.50781 45.7404V33.5174C7.50781 30.9781 8.66203 29.8672 8.73697 29.7557Z" fill="#00CBC1"/>
<path d="M25.8492 43.2162C25.953 42.8787 26.2648 42.6484 26.6179 42.6484H39.185C39.5381 42.6484 39.8499 42.8787 39.9537 43.2162L41.0295 46.7124H24.7734L25.8492 43.2162Z" fill="#9BEDE9"/>
<path d="M12.5781 35.0476C12.5781 33.9254 13.4879 33.0156 14.6101 33.0156H20.7061C21.8284 33.0156 22.7381 33.9254 22.7381 35.0476V37.0796C22.7381 38.2019 21.8284 39.1116 20.7061 39.1116H14.6101C13.4879 39.1116 12.5781 38.2019 12.5781 37.0796V35.0476Z" fill="white"/>
<path d="M43.0625 35.0476C43.0625 33.9254 43.9723 33.0156 45.0945 33.0156H51.1905C52.3128 33.0156 53.2225 33.9254 53.2225 35.0476V37.0796C53.2225 38.2019 52.3128 39.1116 51.1905 39.1116H45.0945C43.9723 39.1116 43.0625 38.2019 43.0625 37.0796V35.0476Z" fill="white"/>
<path d="M14.5858 16.6689C15.345 13.1646 18.4453 10.6641 22.0309 10.6641H43.7695C47.3551 10.6641 50.4554 13.1646 51.2146 16.6689L53.2145 25.8998H12.5859L14.5858 16.6689Z" fill="#00CBC1"/>
<path d="M17.6838 17.1516C18.1125 14.5801 20.3374 12.6953 22.9445 12.6953H42.8645C45.4715 12.6953 47.6965 14.5801 48.1252 17.1516L49.1605 23.362H16.6484L17.6838 17.1516Z" fill="#11A69F"/>
<path fill-rule="evenodd" clip-rule="evenodd" d="M8.77777 20.8203C6.38934 20.8203 4.45312 23.4189 4.45312 26.6244C4.45312 27.6261 5.05819 28.4382 5.80458 28.4382H10.9435H13.3335H15.1259V25.6316H13.3335V22.4241C13.3335 21.5383 12.7985 20.8203 12.1385 20.8203H8.77777Z" fill="#00CBC1"/>
<path fill-rule="evenodd" clip-rule="evenodd" d="M57.0269 20.8203C59.4154 20.8203 61.3516 23.4189 61.3516 26.6245C61.3516 27.6262 60.7465 28.4383 60.0001 28.4383H54.8613H52.4713H50.6789V25.6317H52.4713V22.4241C52.4713 21.5383 53.0063 20.8203 53.6663 20.8203H57.0269Z" fill="#00CBC1"/>
</svg>
