<svg width="65" height="64" viewBox="0 0 65 64" fill="none" xmlns="http://www.w3.org/2000/svg">
<path d="M9.41406 39.1953H18.2221V46.0989C18.2221 47.1507 17.3694 48.0034 16.3176 48.0034H11.3185C10.2667 48.0034 9.41406 47.1507 9.41406 46.0989V39.1953Z" fill="#003582"/>
<path d="M44.6484 39.1953H53.4565V46.0989C53.4565 47.1507 52.6038 48.0034 51.552 48.0034H46.5529C45.5011 48.0034 44.6484 47.1507 44.6484 46.0989V39.1953Z" fill="#003582"/>
<path fill-rule="evenodd" clip-rule="evenodd" d="M21.2894 11C18.6002 11 16.275 12.8754 15.7056 15.5037L14.2663 22.1468C14.099 22.5607 13.9533 22.9492 13.8311 23.301L13.8024 23.3375V20.9964C13.8024 20.3408 13.3784 19.8094 12.8555 19.8094H10.1924C8.29986 19.8094 6.76562 21.7327 6.76562 24.1051C6.76562 24.8465 7.24507 25.4475 7.83651 25.4475H11.9086H12.1412L10.4812 27.5562C10.4755 27.5647 10.4626 27.5798 10.4438 27.6019C10.2483 27.8314 9.41528 28.8094 9.41528 30.8182V41.4177V42.2682H53.4555V41.4177V30.8182C53.4555 28.6162 52.6319 27.7201 52.6319 27.7201L50.8427 25.4474H50.9559H55.0279C55.6193 25.4474 56.0988 24.8464 56.0988 24.105C56.0988 21.7326 54.5645 19.8094 52.6719 19.8094H50.009C49.486 19.8094 49.0621 20.3408 49.0621 20.9964V23.0449C48.9008 22.5988 48.7058 22.1029 48.4803 21.5775L47.1644 15.5037C46.595 12.8754 44.2698 11 41.5806 11H21.2894Z" fill="#0168FE"/>
<path d="M25.3362 39.1602C25.414 38.9071 25.6479 38.7344 25.9127 38.7344H36.9498C37.2146 38.7344 37.4485 38.9071 37.5263 39.1602L38.4797 42.2586H24.3828L25.3362 39.1602Z" fill="#A3C6F9"/>
<path d="M13.8125 31.9068C13.8125 31.0651 14.4948 30.3828 15.3365 30.3828H21.099C21.9407 30.3828 22.623 31.0651 22.623 31.9068V34.1451C22.623 34.9868 21.9407 35.6691 21.099 35.6691H15.3365C14.4948 35.6691 13.8125 34.9868 13.8125 34.1451V31.9068Z" fill="white"/>
<path d="M40.2422 31.9068C40.2422 31.0651 40.9245 30.3828 41.7662 30.3828H47.5287C48.3704 30.3828 49.0527 31.0651 49.0527 31.9068V34.1451C49.0527 34.9868 48.3704 35.6691 47.5287 35.6691H41.7662C40.9245 35.6691 40.2422 34.9868 40.2422 34.1451V31.9068Z" fill="white"/>
<path d="M18.3208 16.1079C18.6423 14.1792 20.3111 12.7656 22.2663 12.7656H40.5993C42.5546 12.7656 44.2233 14.1792 44.5448 16.1079L45.5297 22.0155H17.3359L18.3208 16.1079Z" fill="#004DBE"/>
<rect x="41" y="32" width="19" height="13" rx="2" fill="#2AD6CE"/>
<rect x="44" y="37" width="3" height="3" rx="0.5" fill="#8F8F8F"/>
</svg>
