<svg width="44" height="44" viewBox="0 0 44 44" fill="none" xmlns="http://www.w3.org/2000/svg">
<path d="M4.54297 29.6836H11.526V34.9209C11.526 35.885 10.7444 36.6666 9.78024 36.6666H6.28873C5.32457 36.6666 4.54297 35.885 4.54297 34.9209V29.6836Z" fill="#003582"/>
<path d="M32.4727 29.6836H39.4557V34.9209C39.4557 35.885 38.6741 36.6666 37.7099 36.6666H34.2184C33.2543 36.6666 32.4727 35.885 32.4727 34.9209V29.6836Z" fill="#003582"/>
<path fill-rule="evenodd" clip-rule="evenodd" d="M5.38802 20.458L8.04382 17.0845C8.97139 14.4157 11.5985 9.07812 14.6865 9.07812H14.7762H18.6361H25.4547H29.4044H29.7634C30.6611 9.07812 31.4488 9.51989 31.8934 10.1845C33.8464 11.8923 35.3826 15.173 36.047 17.0845L38.8051 20.588C38.8051 20.588 39.4581 21.2984 39.4581 23.0442V31.4475C39.4581 31.8198 39.4581 32.1217 39.4581 32.1217H4.54297C4.54297 32.1217 4.54297 31.8198 4.54297 31.4475V23.0442C4.54297 21.2984 5.33649 20.5347 5.38802 20.458Z" fill="#0168FE"/>
<path d="M17.1498 29.7116C17.2211 29.4796 17.4355 29.3213 17.6782 29.3213H26.3181C26.5608 29.3213 26.7752 29.4796 26.8466 29.7116L27.5862 32.1153H16.4102L17.1498 29.7116Z" fill="#A3C6F9"/>
<path d="M8.03125 24.0962C8.03125 23.3247 8.65671 22.6992 9.42825 22.6992H13.6193C14.3908 22.6992 15.0163 23.3247 15.0163 24.0962V25.4932C15.0163 26.2648 14.3908 26.8902 13.6193 26.8902H9.42825C8.65671 26.8902 8.03125 26.2648 8.03125 25.4932V24.0962Z" fill="white"/>
<path d="M28.9844 24.0962C28.9844 23.3247 29.6098 22.6992 30.3814 22.6992H34.5724C35.3439 22.6992 35.9694 23.3247 35.9694 24.0962V25.4932C35.9694 26.2648 35.3439 26.8902 34.5724 26.8902H30.3814C29.6098 26.8902 28.9844 26.2648 28.9844 25.4932V24.0962Z" fill="white"/>
<path d="M9.40614 11.4604C9.9281 9.05114 12.0595 7.33203 14.5247 7.33203H29.4699C31.9351 7.33203 34.0665 9.05114 34.5885 11.4604L35.9634 17.8066H8.03125L9.40614 11.4604Z" fill="#0168FE"/>
<path d="M11.536 11.7932C11.8307 10.0253 13.3604 8.72949 15.1528 8.72949H28.8477C30.6401 8.72949 32.1698 10.0253 32.4645 11.7932L33.1763 16.0628H10.8242L11.536 11.7932Z" fill="#004DBE"/>
<path fill-rule="evenodd" clip-rule="evenodd" d="M5.4146 14.3154C3.77255 14.3154 2.44141 16.1019 2.44141 18.3057C2.44141 18.9944 2.85739 19.5527 3.37053 19.5527H6.90357H8.54665H9.77896V17.6232H8.54665V15.418C8.54665 14.8091 8.17884 14.3154 7.72511 14.3154H5.4146Z" fill="#0168FE"/>
<path fill-rule="evenodd" clip-rule="evenodd" d="M38.5854 14.3154C40.2274 14.3154 41.5586 16.102 41.5586 18.3058C41.5586 18.9945 41.1426 19.5528 40.6295 19.5528H37.0965H35.4534H34.2211V17.6232H35.4534V15.418C35.4534 14.8091 35.8212 14.3154 36.275 14.3154H38.5854Z" fill="#0168FE"/>
</svg>
