<svg width="36" height="36" viewBox="0 0 36 36" fill="none" xmlns="http://www.w3.org/2000/svg">
<path d="M3.71631 24.2866H9.42969V28.5717C9.42969 29.3605 8.7902 30 8.00135 30H5.14466C4.3558 30 3.71631 29.3605 3.71631 28.5717V24.2866Z" fill="#003582"/>
<path d="M26.5703 24.2866H32.2837V28.5717C32.2837 29.3605 31.6442 30 30.8554 30H27.9987C27.2098 30 26.5703 29.3605 26.5703 28.5717V24.2866Z" fill="#003582"/>
<path fill-rule="evenodd" clip-rule="evenodd" d="M4.40771 16.7379L6.58064 13.9778C7.33956 11.7942 9.48904 7.42706 12.0155 7.42706H12.089H15.2471H20.8259H24.0575H24.3512C25.0857 7.42706 25.7301 7.7885 26.0939 8.33226C27.6918 9.72961 28.9488 12.4138 29.4923 13.9778L31.749 16.8442C31.749 16.8442 32.2832 17.4255 32.2832 18.8538V25.7293C32.2832 26.0339 32.2832 26.2809 32.2832 26.2809H3.71631C3.71631 26.2809 3.71631 26.0339 3.71631 25.7293V18.8538C3.71631 17.4255 4.36556 16.8006 4.40771 16.7379Z" fill="#0168FE"/>
<path d="M14.0331 24.3088C14.0915 24.119 14.2669 23.9894 14.4655 23.9894H21.5345C21.7331 23.9894 21.9085 24.119 21.9669 24.3088L22.572 26.2754H13.428L14.0331 24.3088Z" fill="#A3C6F9"/>
<path d="M6.57007 19.7146C6.57007 19.0833 7.08181 18.5716 7.71307 18.5716H11.1421C11.7733 18.5716 12.2851 19.0833 12.2851 19.7146V20.8576C12.2851 21.4889 11.7733 22.0006 11.1421 22.0006H7.71307C7.08181 22.0006 6.57007 21.4889 6.57007 20.8576V19.7146Z" fill="white"/>
<path d="M23.7151 19.7146C23.7151 19.0833 24.2268 18.5716 24.8581 18.5716H28.2871C28.9184 18.5716 29.4301 19.0833 29.4301 19.7146V20.8576C29.4301 21.4889 28.9184 22.0006 28.2871 22.0006H24.8581C24.2268 22.0006 23.7151 21.4889 23.7151 20.8576V19.7146Z" fill="white"/>
<path d="M7.69766 9.37634C8.12472 7.40514 9.86862 5.9986 11.8855 5.9986H24.1135C26.1304 5.9986 27.8743 7.40514 28.3014 9.37634L29.4263 14.5687H6.57275L7.69766 9.37634Z" fill="#0168FE"/>
<path d="M9.43833 9.64828C9.67947 8.20177 10.931 7.1416 12.3975 7.1416H23.6025C25.0689 7.1416 26.3205 8.20178 26.5616 9.64828L27.144 13.1416H8.85596L9.43833 9.64828Z" fill="#004DBE"/>
<path fill-rule="evenodd" clip-rule="evenodd" d="M4.43066 11.712C3.08717 11.712 1.99805 13.1737 1.99805 14.9768C1.99805 15.5403 2.3384 15.9971 2.75824 15.9971H5.64891H6.99325H8.0015V14.4184H6.99325V12.6141C6.99325 12.1159 6.69231 11.712 6.32108 11.712H4.43066Z" fill="#0168FE"/>
<path fill-rule="evenodd" clip-rule="evenodd" d="M31.5693 11.712C32.9128 11.712 34.002 13.1738 34.002 14.9769C34.002 15.5403 33.6616 15.9971 33.2418 15.9971H30.3512H29.0068H27.9986V14.4184H29.0068V12.6142C29.0068 12.1159 29.3078 11.712 29.679 11.712H31.5693Z" fill="#0168FE"/>
</svg>
