<svg width="44" height="44" viewBox="0 0 44 44" fill="none" xmlns="http://www.w3.org/2000/svg">
<path d="M5.5 13.4479C5.5 11.4229 7.14162 9.78125 9.16667 9.78125H34.8333C36.8584 9.78125 38.5 11.4229 38.5 13.4479V30.5588C38.5 32.5838 36.8584 34.2254 34.8333 34.2254H9.16667C7.14162 34.2254 5.5 32.5838 5.5 30.5588V13.4479Z" fill="#20C7BF"/>
<path d="M10.3906 20.4722C10.3906 19.7972 10.9378 19.25 11.6128 19.25H14.6684C15.3434 19.25 15.8906 19.7972 15.8906 20.4722V23.5277C15.8906 24.2027 15.3434 24.7499 14.6684 24.7499H11.6128C10.9378 24.7499 10.3906 24.2027 10.3906 23.5277V20.4722Z" fill="white"/>
</svg>
