<svg width="36" height="36" viewBox="0 0 36 36" fill="none" xmlns="http://www.w3.org/2000/svg">
<path d="M4.50049 11C4.50049 9.34315 5.84363 8 7.50049 8H28.5005C30.1573 8 31.5005 9.34315 31.5005 11V25C31.5005 26.6569 30.1573 28 28.5005 28H7.50049C5.84363 28 4.50049 26.6569 4.50049 25V11Z" fill="#2AD6CE"/>
<path d="M8.00049 16.75C8.00049 16.1977 8.4482 15.75 9.00049 15.75H11.5005C12.0528 15.75 12.5005 16.1977 12.5005 16.75V19.25C12.5005 19.8023 12.0528 20.25 11.5005 20.25H9.00049C8.4482 20.25 8.00049 19.8023 8.00049 19.25V16.75Z" fill="white"/>
</svg>
