<svg width="36" height="36" viewBox="0 0 36 36" fill="none" xmlns="http://www.w3.org/2000/svg">
<path fill-rule="evenodd" clip-rule="evenodd" d="M10 4C8.34315 4 7 5.34315 7 7V29C7 30.6569 8.34315 32 10 32H26C27.6569 32 29 30.6569 29 29V12L21 4H10Z" fill="#DCEAFC"/>
<path fill-rule="evenodd" clip-rule="evenodd" d="M23 12H29L21 4V10C21 11.1046 21.8954 12 23 12Z" fill="#B8CAE1"/>
<path d="M11 18C11 17.4477 11.4477 17 12 17H19.5C20.0523 17 20.5 17.4477 20.5 18C20.5 18.5523 20.0523 19 19.5 19H12C11.4477 19 11 18.5523 11 18Z" fill="#A1B3C9"/>
<path d="M11 13C11 12.4477 11.4477 12 12 12H18C18.5523 12 19 12.4477 19 13C19 13.5523 18.5523 14 18 14H12C11.4477 14 11 13.5523 11 13Z" fill="#A1B3C9"/>
<path d="M23.25 25.2C23.25 25.0895 23.3395 25 23.45 25H30.55C30.6605 25 30.75 25.0895 30.75 25.2V35.5839C30.75 35.7516 30.556 35.8448 30.4251 35.74L27.1249 33.1C27.0519 33.0415 26.9481 33.0415 26.8751 33.1L23.5749 35.74C23.444 35.8448 23.25 35.7516 23.25 35.5839V25.2Z" fill="#F64A4A"/>
<path d="M21 23.5C21 20.1863 23.6863 17.5 27 17.5C30.3137 17.5 33 20.1863 33 23.5C33 26.8137 30.3137 29.5 27 29.5C23.6863 29.5 21 26.8137 21 23.5Z" fill="#FED84A"/>
</svg>
