<svg width="44" height="45" viewBox="0 0 44 45" fill="none" xmlns="http://www.w3.org/2000/svg">
<path d="M7.94531 9.05729C7.94531 7.03225 9.58694 5.39062 11.612 5.39062H32.3898C34.4148 5.39062 36.0564 7.03225 36.0564 9.05729V35.9462C36.0564 37.9712 34.4148 39.6128 32.3898 39.6128H11.612C9.58694 39.6128 7.94531 37.9712 7.94531 35.9462V9.05729Z" fill="#CAD4E1"/>
<path d="M13.4453 13.9449C13.4453 13.2699 13.9925 12.7227 14.6675 12.7227H25.6675C26.3426 12.7227 26.8898 13.2699 26.8898 13.9449C26.8898 14.6199 26.3425 15.1671 25.6675 15.1671H14.6675C13.9925 15.1671 13.4453 14.6199 13.4453 13.9449Z" fill="white"/>
<path d="M13.4453 20.0543C13.4453 19.3792 13.9925 18.832 14.6675 18.832H20.7786C21.4537 18.832 22.0009 19.3792 22.0009 20.0543C22.0009 20.7293 21.4537 21.2765 20.7786 21.2765H14.6675C13.9925 21.2765 13.4453 20.7293 13.4453 20.0543Z" fill="white"/>
<path d="M26.8906 30.0765C26.8906 29.9415 27.0001 29.832 27.1351 29.832H36.424C36.559 29.832 36.6684 29.9415 36.6684 30.0765V42.7876C36.6684 42.989 36.4384 43.104 36.2773 42.9831L31.9262 39.7198C31.8393 39.6546 31.7198 39.6546 31.6328 39.7198L27.2817 42.9831C27.1206 43.104 26.8906 42.989 26.8906 42.7876V30.0765Z" fill="#F64A4A"/>
<path d="M23.2188 26.1649C23.2188 21.4398 27.0492 17.6094 31.7743 17.6094C36.4994 17.6094 40.3299 21.4398 40.3299 26.1649C40.3299 30.89 36.4994 34.7205 31.7743 34.7205C27.0492 34.7205 23.2188 30.89 23.2188 26.1649Z" fill="#FED84A"/>
</svg>
