<svg width="25" height="24" viewBox="0 0 25 24" fill="none" xmlns="http://www.w3.org/2000/svg">
<path d="M22.3718 12C22.3718 17.5228 17.8947 22 12.3718 22C6.84898 22 2.37183 17.5228 2.37183 12C2.37183 6.47715 6.84898 2 12.3718 2C17.8947 2 22.3718 6.47715 22.3718 12Z" fill="#2AD6CE"/>
<path fill-rule="evenodd" clip-rule="evenodd" d="M17.0548 8.51958C17.4582 8.89679 17.4795 9.5296 17.1023 9.933L11.9594 15.433C11.7703 15.6352 11.5058 15.75 11.229 15.75C10.9521 15.75 10.6876 15.6352 10.4985 15.433L7.64141 12.3774C7.2642 11.974 7.28543 11.3412 7.68884 10.964C8.09224 10.5868 8.72505 10.6081 9.10225 11.0115L11.229 13.2859L15.6414 8.56701C16.0186 8.16361 16.6514 8.14237 17.0548 8.51958Z" fill="white"/>
</svg>
