<svg width="24" height="24" viewBox="0 0 24 24" fill="none" xmlns="http://www.w3.org/2000/svg">
<path d="M22 12C22 17.5228 17.5228 22 12 22C6.47715 22 2 17.5228 2 12C2 6.47715 6.47715 2 12 2C17.5228 2 22 6.47715 22 12Z" fill="#2AD6CE"/>
<path fill-rule="evenodd" clip-rule="evenodd" d="M16.683 8.51958C17.0864 8.89679 17.1076 9.5296 16.7304 9.933L11.5876 15.433C11.3985 15.6352 11.134 15.75 10.8571 15.75C10.5803 15.75 10.3158 15.6352 10.1267 15.433L7.26958 12.3774C6.89237 11.974 6.91361 11.3412 7.31701 10.964C7.72041 10.5868 8.35322 10.6081 8.73043 11.0115L10.8571 13.2859L15.2696 8.56701C15.6468 8.16361 16.2796 8.14237 16.683 8.51958Z" fill="white"/>
</svg>
