<svg width="24" height="24" viewBox="0 0 24 24" fill="none" xmlns="http://www.w3.org/2000/svg">
<path d="M2 6C2 4.89543 2.89543 4 4 4H20C21.1046 4 22 4.89543 22 6V18C22 19.1046 21.1046 20 20 20H4C2.89543 20 2 19.1046 2 18V6Z" fill="#20C7BF"/>
<path fill-rule="evenodd" clip-rule="evenodd" d="M7.49957 8.54305C7.89002 8.40477 8.31865 8.60919 8.45693 8.99964L9.87496 13.0035L11.293 8.99964C11.399 8.70018 11.6823 8.50002 12 8.50002C12.3176 8.50002 12.6009 8.70018 12.7069 8.99964L14.125 13.0035L15.543 8.99964C15.6813 8.60919 16.1099 8.40477 16.5003 8.54305C16.8908 8.68133 17.0952 9.10996 16.9569 9.50041L14.8319 15.5004C14.7259 15.7999 14.4426 16 14.125 16C13.8073 16 13.524 15.7999 13.418 15.5004L12 11.4966L10.5819 15.5004C10.4759 15.7999 10.1926 16 9.87496 16C9.55727 16 9.27405 15.7999 9.16799 15.5004L7.04299 9.50041C6.90471 9.10996 7.10913 8.68133 7.49957 8.54305Z" fill="white"/>
<path fill-rule="evenodd" clip-rule="evenodd" d="M5.75 12C5.75 11.5858 6.08579 11.25 6.5 11.25L8 11.25C8.41421 11.25 8.75 11.5858 8.75 12C8.75 12.4142 8.41421 12.75 8 12.75L6.5 12.75C6.08579 12.75 5.75 12.4142 5.75 12Z" fill="white"/>
<path fill-rule="evenodd" clip-rule="evenodd" d="M15.25 12C15.25 11.5858 15.5858 11.25 16 11.25L17.5 11.25C17.9142 11.25 18.25 11.5858 18.25 12C18.25 12.4142 17.9142 12.75 17.5 12.75L16 12.75C15.5858 12.75 15.25 12.4142 15.25 12Z" fill="white"/>
</svg>
