<svg width="24" height="24" viewBox="0 0 24 24" fill="none" xmlns="http://www.w3.org/2000/svg">
<path d="M1.5 5.625C1.5 4.45139 2.4402 3.5 3.6 3.5H20.4C21.5598 3.5 22.5 4.45139 22.5 5.625V18.375C22.5 19.5486 21.5598 20.5 20.4 20.5H3.6C2.4402 20.5 1.5 19.5486 1.5 18.375V5.625Z" fill="#2AD6CE"/>
<path fill-rule="evenodd" clip-rule="evenodd" d="M7.49957 8.54299C7.89002 8.40471 8.31865 8.60913 8.45693 8.99957L9.87496 13.0034L11.293 8.99957C11.399 8.70011 11.6823 8.49996 12 8.49996C12.3176 8.49996 12.6009 8.70011 12.7069 8.99957L14.125 13.0034L15.543 8.99957C15.6813 8.60913 16.1099 8.40471 16.5003 8.54299C16.8908 8.68127 17.0952 9.1099 16.9569 9.50035L14.8319 15.5003C14.7259 15.7998 14.4426 16 14.125 16C13.8073 16 13.524 15.7998 13.418 15.5003L12 11.4965L10.5819 15.5003C10.4759 15.7998 10.1926 16 9.87496 16C9.55727 16 9.27405 15.7998 9.16799 15.5003L7.04299 9.50035C6.90471 9.1099 7.10913 8.68127 7.49957 8.54299Z" fill="white"/>
<path fill-rule="evenodd" clip-rule="evenodd" d="M5.75 12C5.75 11.5858 6.08579 11.25 6.5 11.25L8 11.25C8.41421 11.25 8.75 11.5858 8.75 12C8.75 12.4142 8.41421 12.75 8 12.75L6.5 12.75C6.08579 12.75 5.75 12.4142 5.75 12Z" fill="white"/>
<path fill-rule="evenodd" clip-rule="evenodd" d="M15.25 12C15.25 11.5858 15.5858 11.25 16 11.25L17.5 11.25C17.9142 11.25 18.25 11.5858 18.25 12C18.25 12.4142 17.9142 12.75 17.5 12.75L16 12.75C15.5858 12.75 15.25 12.4142 15.25 12Z" fill="white"/>
</svg>
