<svg width="48" height="48" viewBox="0 0 48 48" fill="none" xmlns="http://www.w3.org/2000/svg">
<path fill-rule="evenodd" clip-rule="evenodd" d="M13 5.99976C10.7909 5.99976 9 7.79062 9 9.99976V37.9998C9 40.2089 10.7909 41.9998 13 41.9998H35C37.2091 41.9998 39 40.2089 39 37.9998V15.9998L29 5.99976H13Z" fill="white"/>
<path fill-rule="evenodd" clip-rule="evenodd" d="M31.5 15.9998H39L29 5.99976V13.4998C29 14.8805 30.1193 15.9998 31.5 15.9998Z" fill="#D3E3F8"/>
<rect x="14" y="26.5" width="15" height="2.5" rx="1.25" fill="#AFC3DC"/>
<rect x="14" y="32.5" width="12" height="2.5" rx="1.25" fill="#AFC3DC"/>
<path d="M46 36.9998C46 41.9703 41.9706 45.9998 37 45.9998C32.0294 45.9998 28 41.9703 28 36.9998C28 32.0292 32.0294 27.9998 37 27.9998C41.9706 27.9998 46 32.0292 46 36.9998Z" fill="#2AD6CE"/>
<path d="M33 37.222L35.8571 39.9998L41 34.9998" stroke="white" stroke-width="2" stroke-linecap="round" stroke-linejoin="round"/>
</svg>
