<svg width="65" height="64" viewBox="0 0 65 64" fill="none" xmlns="http://www.w3.org/2000/svg">
<path d="M12.6719 13.3333C12.6719 10.3878 15.0597 8 18.0052 8H47.3385C50.2841 8 52.6719 10.3878 52.6719 13.3333V56H12.6719V13.3333Z" fill="#AFC3DC"/>
<path d="M23.3359 18.6663C23.3359 17.93 23.9329 17.333 24.6693 17.333H28.6693C29.4057 17.333 30.0026 17.93 30.0026 18.6663V22.6663C30.0026 23.4027 29.4057 23.9997 28.6693 23.9997H24.6693C23.9329 23.9997 23.3359 23.4027 23.3359 22.6663V18.6663Z" fill="white"/>
<path d="M23.3359 30.6663C23.3359 29.93 23.9329 29.333 24.6693 29.333H28.6693C29.4057 29.333 30.0026 29.93 30.0026 30.6663V34.6663C30.0026 35.4027 29.4057 35.9997 28.6693 35.9997H24.6693C23.9329 35.9997 23.3359 35.4027 23.3359 34.6663V30.6663Z" fill="white"/>
<path d="M27.3359 46.6663C27.3359 45.93 27.9329 45.333 28.6693 45.333H36.6693C37.4056 45.333 38.0026 45.93 38.0026 46.6663V55.9997H27.3359V46.6663Z" fill="#82A3D2"/>
<path d="M35.3359 18.6663C35.3359 17.93 35.9329 17.333 36.6693 17.333H40.6693C41.4056 17.333 42.0026 17.93 42.0026 18.6663V22.6663C42.0026 23.4027 41.4056 23.9997 40.6693 23.9997H36.6693C35.9329 23.9997 35.3359 23.4027 35.3359 22.6663V18.6663Z" fill="white"/>
<path d="M35.3359 30.6663C35.3359 29.93 35.9329 29.333 36.6693 29.333H40.6693C41.4056 29.333 42.0026 29.93 42.0026 30.6663V34.6663C42.0026 35.4027 41.4056 35.9997 40.6693 35.9997H36.6693C35.9329 35.9997 35.3359 35.4027 35.3359 34.6663V30.6663Z" fill="white"/>
<path d="M64.6719 49.333C64.6719 55.9604 59.2993 61.333 52.6719 61.333C46.0445 61.333 40.6719 55.9604 40.6719 49.333C40.6719 42.7056 46.0445 37.333 52.6719 37.333C59.2993 37.333 64.6719 42.7056 64.6719 49.333Z" fill="#00CBC1"/>
<path d="M51.3359 48.2669C51.3359 47.5305 51.9329 46.9336 52.6693 46.9336C53.4056 46.9336 54.0026 47.5305 54.0026 48.2669V53.6003C54.0026 54.3366 53.4056 54.9336 52.6693 54.9336C51.9329 54.9336 51.3359 54.3366 51.3359 53.6003V48.2669Z" fill="white"/>
<path d="M51.3359 44.2669C51.3359 43.5305 51.9329 42.9336 52.6693 42.9336C53.4056 42.9336 54.0026 43.5305 54.0026 44.2669C54.0026 45.0033 53.4056 45.6003 52.6693 45.6003C51.9329 45.6003 51.3359 45.0033 51.3359 44.2669Z" fill="white"/>
</svg>
