<svg width="48" height="48" viewBox="0 0 48 48" fill="none" xmlns="http://www.w3.org/2000/svg">
<path fill-rule="evenodd" clip-rule="evenodd" d="M33 19H38.5C39.8807 19 41 20.1193 41 21.5V42H33V19ZM35.5 23.5C35.5 23.2239 35.7239 23 36 23H38C38.2761 23 38.5 23.2239 38.5 23.5V25.5C38.5 25.7761 38.2761 26 38 26H36C35.7239 26 35.5 25.7761 35.5 25.5V23.5ZM36 29C35.7239 29 35.5 29.2239 35.5 29.5V31.5C35.5 31.7761 35.7239 32 36 32H38C38.2761 32 38.5 31.7761 38.5 31.5V29.5C38.5 29.2239 38.2761 29 38 29H36Z" fill="#B2C2D6"/>
<path fill-rule="evenodd" clip-rule="evenodd" d="M10 6C8.34315 6 7 7.34315 7 9V39C7 40.6569 8.34315 42 10 42H16V34C16 33.4477 16.4477 33 17 33H23C23.5523 33 24 33.4477 24 34V42H33V9C33 7.34315 31.6569 6 30 6H10ZM13 13C12.4477 13 12 13.4477 12 14V17.5C12 18.0523 12.4477 18.5 13 18.5H16.5C17.0523 18.5 17.5 18.0523 17.5 17.5V14C17.5 13.4477 17.0523 13 16.5 13H13ZM22.5 14C22.5 13.4477 22.9477 13 23.5 13H27C27.5523 13 28 13.4477 28 14V17.5C28 18.0523 27.5523 18.5 27 18.5H23.5C22.9477 18.5 22.5 18.0523 22.5 17.5V14ZM13 22.8276C12.4477 22.8276 12 23.2754 12 23.8276V27.3276C12 27.8799 12.4477 28.3276 13 28.3276H16.5C17.0523 28.3276 17.5 27.8799 17.5 27.3276V23.8276C17.5 23.2754 17.0523 22.8276 16.5 22.8276H13ZM22.5 23.8276C22.5 23.2754 22.9477 22.8276 23.5 22.8276H27C27.5523 22.8276 28 23.2754 28 23.8276V27.3276C28 27.8799 27.5523 28.3276 27 28.3276H23.5C22.9477 28.3276 22.5 27.8799 22.5 27.3276V23.8276Z" fill="#074093"/>
<path d="M46 36.9998C46 41.9703 41.9706 45.9998 37 45.9998C32.0294 45.9998 28 41.9703 28 36.9998C28 32.0292 32.0294 27.9998 37 27.9998C41.9706 27.9998 46 32.0292 46 36.9998Z" fill="#2AD6CE"/>
<path d="M36 37C36 36.4477 36.4477 36 37 36C37.5523 36 38 36.4477 38 37V41C38 41.5523 37.5523 42 37 42C36.4477 42 36 41.5523 36 41V37Z" fill="white"/>
<path d="M35.75 33.25C35.75 32.5596 36.3096 32 37 32C37.6904 32 38.25 32.5596 38.25 33.25C38.25 33.9404 37.6904 34.5 37 34.5C36.3096 34.5 35.75 33.9404 35.75 33.25Z" fill="white"/>
</svg>
