<svg width="48" height="48" viewBox="0 0 48 48" fill="none" xmlns="http://www.w3.org/2000/svg">
<path d="M9 10C9 7.79086 10.7909 6 13 6H35C37.2091 6 39 7.79086 39 10V38C39 40.2091 37.2091 42 35 42H13C10.7909 42 9 40.2091 9 38V10Z" fill="white"/>
<path d="M15 15.25C15 14.5596 15.5596 14 16.25 14H31.75C32.4404 14 33 14.5596 33 15.25C33 15.9404 32.4404 16.5 31.75 16.5H16.25C15.5596 16.5 15 15.9404 15 15.25Z" fill="#AFC3DC"/>
<path d="M15 21.25C15 20.5596 15.5596 20 16.25 20H26.75C27.4404 20 28 20.5596 28 21.25C28 21.9404 27.4404 22.5 26.75 22.5H16.25C15.5596 22.5 15 21.9404 15 21.25Z" fill="#AFC3DC"/>
<path d="M46 37C46 41.9706 41.9706 46 37 46C32.0294 46 28 41.9706 28 37C28 32.0294 32.0294 28 37 28C41.9706 28 46 32.0294 46 37Z" fill="#0168FE"/>
<path fill-rule="evenodd" clip-rule="evenodd" d="M41.4764 34.0627C41.856 34.4639 41.8385 35.0968 41.4373 35.4764L36.6812 39.9764C36.2901 40.3464 35.6763 40.3404 35.2925 39.9628L32.5486 37.2628C32.155 36.8754 32.1499 36.2423 32.5372 35.8486C32.9246 35.455 33.5577 35.4499 33.9514 35.8372L36.0075 37.8605L40.0627 34.0236C40.4639 33.644 41.0968 33.6615 41.4764 34.0627Z" fill="white"/>
</svg>
