<svg width="36" height="36" viewBox="0 0 36 36" fill="none" xmlns="http://www.w3.org/2000/svg">
<path fill-rule="evenodd" clip-rule="evenodd" d="M11 3C9.34315 3 8 4.34315 8 6V28C8 29.6569 9.34315 31 11 31H27C28.6569 31 30 29.6569 30 28V11L22 3H11Z" fill="#DCEAFC"/>
<path d="M15.4537 33.964C15.414 33.9554 15.373 33.9465 15.3334 33.9379C11.7225 32.8425 8.61224 30.4728 6.55979 27.2534C4.50735 24.0339 3.64678 20.175 4.13223 16.3679C4.16093 16.1526 4.23255 15.9455 4.34267 15.7594C4.4528 15.5733 4.5991 15.4122 4.7726 15.2859C4.9419 15.1625 5.13446 15.0763 5.33812 15.0327C5.54177 14.9891 5.75209 14.9891 5.95578 15.0326L9.07388 15.6844C9.40759 15.755 9.7085 15.9374 9.92864 16.2025C10.1488 16.4677 10.2755 16.8003 10.2885 17.1473L10.3891 19.9163C10.4004 20.2218 10.3223 20.524 10.1647 20.7842C10.007 21.0444 9.77694 21.2509 9.50376 21.3775L8.05898 22.05C8.72898 24.3213 10.0148 26.3537 11.7683 27.9131L13.0061 26.8156C13.2326 26.615 13.5121 26.4869 13.8096 26.4472C14.1071 26.4075 14.4095 26.458 14.6791 26.5924L17.1383 27.8125C17.4461 27.9631 17.6952 28.2149 17.8453 28.5275C17.9954 28.84 18.0378 29.1949 17.9657 29.5351L17.289 32.7776C17.2468 32.9851 17.1625 33.1812 17.0413 33.3533C16.9202 33.5255 16.765 33.6698 16.5857 33.777C16.2449 33.9823 15.8407 34.049 15.4537 33.964Z" fill="#00CBC1"/>
<path d="M13 19C13 18.4477 13.4477 18 14 18H25C25.5523 18 26 18.4477 26 19C26 19.5523 25.5523 20 25 20H14C13.4477 20 13 19.5523 13 19Z" fill="#A1B3C9"/>
<path d="M19 24C19 23.4477 19.4477 23 20 23H25C25.5523 23 26 23.4477 26 24C26 24.5523 25.5523 25 25 25H20C19.4477 25 19 24.5523 19 24Z" fill="#A1B3C9"/>
<path fill-rule="evenodd" clip-rule="evenodd" d="M23.5 11H30L22 3V9.5C22 10.3284 22.6716 11 23.5 11Z" fill="#B8CAE1"/>
</svg>
