<svg width="36" height="36" viewBox="0 0 36 36" fill="none" xmlns="http://www.w3.org/2000/svg">
<path d="M6 5.8C6 4.2536 7.34315 3 9 3H27C28.6569 3 30 4.2536 30 5.8V28.2C30 29.7464 28.6569 31 27 31H9C7.34315 31 6 29.7464 6 28.2V5.8Z" fill="white"/>
<path d="M10 11C10 10.4477 10.4477 10 11 10H25C25.5523 10 26 10.4477 26 11C26 11.5523 25.5523 12 25 12H11C10.4477 12 10 11.5523 10 11Z" fill="#AFC3DC"/>
<path d="M10 16C10 15.4477 10.4477 15 11 15H25C25.5523 15 26 15.4477 26 16C26 16.5523 25.5523 17 25 17H11C10.4477 17 10 16.5523 10 16Z" fill="#AFC3DC"/>
<path d="M10 21C10 20.4477 10.4477 20 11 20H19C19.5523 20 20 20.4477 20 21C20 21.5523 19.5523 22 19 22H11C10.4477 22 10 21.5523 10 21Z" fill="#AFC3DC"/>
<path d="M13.4537 33.964C13.414 33.9554 13.373 33.9465 13.3334 33.9379C9.72247 32.8425 6.61224 30.4728 4.55979 27.2534C2.50735 24.0339 1.64678 20.175 2.13223 16.3679C2.16093 16.1526 2.23255 15.9455 2.34267 15.7594C2.4528 15.5733 2.5991 15.4122 2.7726 15.2859C2.9419 15.1625 3.13446 15.0763 3.33812 15.0327C3.54177 14.9891 3.75209 14.9891 3.95578 15.0326L7.07388 15.6844C7.40759 15.755 7.7085 15.9374 7.92864 16.2025C8.14878 16.4677 8.27548 16.8003 8.28853 17.1473L8.38909 19.9163C8.40043 20.2218 8.32231 20.524 8.16465 20.7842C8.007 21.0444 7.77694 21.2509 7.50376 21.3775L6.05898 22.05C6.72898 24.3213 8.01476 26.3537 9.76831 27.9131L11.0061 26.8156C11.2326 26.615 11.5121 26.4869 11.8096 26.4472C12.1071 26.4075 12.4095 26.458 12.6791 26.5924L15.1383 27.8125C15.4461 27.9631 15.6952 28.2149 15.8453 28.5275C15.9954 28.84 16.0378 29.1949 15.9657 29.5351L15.289 32.7776C15.2468 32.9851 15.1625 33.1812 15.0413 33.3533C14.9202 33.5255 14.765 33.6698 14.5857 33.777C14.2449 33.9823 13.8407 34.049 13.4537 33.964Z" fill="#00CBC1"/>
</svg>
