<svg width="48" height="48" viewBox="0 0 48 48" fill="none" xmlns="http://www.w3.org/2000/svg">
<path fill-rule="evenodd" clip-rule="evenodd" d="M39 28C40.1046 28 41 28.8954 41 30V39L40.9996 41L39 39H27C25.8954 39 25 38.1046 25 37V30C25 28.8954 25.8954 28 27 28H39Z" fill="#00CBC1"/>
<path fill-rule="evenodd" clip-rule="evenodd" d="M11 9C8.79086 9 7 10.7909 7 13V31L7.00088 35L11 31H35C37.2091 31 39 29.2091 39 27V13C39 10.7909 37.2091 9 35 9H11Z" fill="white"/>
<path d="M18 21C18 22.1046 17.1046 23 16 23C14.8954 23 14 22.1046 14 21C14 19.8954 14.8954 19 16 19C17.1046 19 18 19.8954 18 21Z" fill="#AFC3DC"/>
<path d="M25 21C25 22.1046 24.1046 23 23 23C21.8954 23 21 22.1046 21 21C21 19.8954 21.8954 19 23 19C24.1046 19 25 19.8954 25 21Z" fill="#AFC3DC"/>
<path d="M32 21C32 22.1046 31.1046 23 30 23C28.8954 23 28 22.1046 28 21C28 19.8954 28.8954 19 30 19C31.1046 19 32 19.8954 32 21Z" fill="#AFC3DC"/>
</svg>
