<svg width="48" height="49" viewBox="0 0 48 49" fill="none" xmlns="http://www.w3.org/2000/svg">
<path fill-rule="evenodd" clip-rule="evenodd" d="M41 23.4998C42.1046 23.4998 43 24.3952 43 25.4998V38.4998L42.9996 41.4998L39 38.4998H24C22.8954 38.4998 22 37.6043 22 36.4998V25.4998C22 24.3952 22.8954 23.4998 24 23.4998H41Z" fill="#143B75"/>
<path fill-rule="evenodd" clip-rule="evenodd" d="M11 7.49976C8.79086 7.49976 7 9.29062 7 11.4998V31.4998L7.00088 35.4998L11 31.4998H35C37.2091 31.4998 39 29.7089 39 27.4998V11.4998C39 9.29062 37.2091 7.49976 35 7.49976H11Z" fill="#2AD6CE"/>
<path d="M17 19.4998C17 20.6043 16.1046 21.4998 15 21.4998C13.8954 21.4998 13 20.6043 13 19.4998C13 18.3952 13.8954 17.4998 15 17.4998C16.1046 17.4998 17 18.3952 17 19.4998Z" fill="white"/>
<path d="M25 19.4998C25 20.6043 24.1046 21.4998 23 21.4998C21.8954 21.4998 21 20.6043 21 19.4998C21 18.3952 21.8954 17.4998 23 17.4998C24.1046 17.4998 25 18.3952 25 19.4998Z" fill="white"/>
<path d="M33 19.4998C33 20.6043 32.1046 21.4998 31 21.4998C29.8954 21.4998 29 20.6043 29 19.4998C29 18.3952 29.8954 17.4998 31 17.4998C32.1046 17.4998 33 18.3952 33 19.4998Z" fill="white"/>
</svg>
