<svg width="48" height="48" viewBox="0 0 48 48" fill="none" xmlns="http://www.w3.org/2000/svg">
<path fill-rule="evenodd" clip-rule="evenodd" d="M41 23C42.1046 23 43 23.8954 43 25V38L42.9996 41L39 38H24C22.8954 38 22 37.1046 22 36V25C22 23.8954 22.8954 23 24 23H41Z" fill="#074093"/>
<path fill-rule="evenodd" clip-rule="evenodd" d="M11 7C8.79086 7 7 8.79086 7 11V31L7.00088 35L11 31H35C37.2091 31 39 29.2091 39 27V11C39 8.79086 37.2091 7 35 7H11Z" fill="#2AD6CE"/>
<path d="M17 19C17 20.1046 16.1046 21 15 21C13.8954 21 13 20.1046 13 19C13 17.8954 13.8954 17 15 17C16.1046 17 17 17.8954 17 19Z" fill="white"/>
<path d="M25 19C25 20.1046 24.1046 21 23 21C21.8954 21 21 20.1046 21 19C21 17.8954 21.8954 17 23 17C24.1046 17 25 17.8954 25 19Z" fill="white"/>
<path d="M33 19C33 20.1046 32.1046 21 31 21C29.8954 21 29 20.1046 29 19C29 17.8954 29.8954 17 31 17C32.1046 17 33 17.8954 33 19Z" fill="white"/>
</svg>
