<svg width="48" height="48" viewBox="0 0 48 48" fill="none" xmlns="http://www.w3.org/2000/svg">
<path fill-rule="evenodd" clip-rule="evenodd" d="M13 6C10.7909 6 9 7.79086 9 10V38C9 40.2091 10.7909 42 13 42H35C37.2091 42 39 40.2091 39 38V16L29 6H13Z" fill="white"/>
<path fill-rule="evenodd" clip-rule="evenodd" d="M31.5 16H39L29 6V13.5C29 14.8807 30.1193 16 31.5 16Z" fill="#D3E3F8"/>
<path d="M14 27.7502C14 27.0599 14.5596 26.5002 15.25 26.5002H27.75C28.4404 26.5002 29 27.0599 29 27.7502C29 28.4406 28.4404 29.0002 27.75 29.0002H15.25C14.5596 29.0002 14 28.4406 14 27.7502Z" fill="#AFC3DC"/>
<path d="M14 33.7502C14 33.0599 14.5596 32.5002 15.25 32.5002H24.75C25.4404 32.5002 26 33.0599 26 33.7502C26 34.4406 25.4404 35.0002 24.75 35.0002H15.25C14.5596 35.0002 14 34.4406 14 33.7502Z" fill="#AFC3DC"/>
<path d="M41.9393 19.0607C42.5251 18.4749 43.4749 18.4749 44.0607 19.0607L45.8284 20.8284C46.4142 21.4142 46.4142 22.364 45.8284 22.9497L33.8921 34.8861C33.7288 35.0494 33.5299 35.1728 33.311 35.2467L29.3819 36.5724C28.7632 36.723 28.2174 36.1401 28.4082 35.5327L29.6444 31.5963C29.7169 31.3657 29.8439 31.1561 30.0149 30.9851L41.9393 19.0607Z" fill="#143B75"/>
</svg>
