<svg width="48" height="48" viewBox="0 0 48 48" fill="none" xmlns="http://www.w3.org/2000/svg">
<path fill-rule="evenodd" clip-rule="evenodd" d="M13 5.99976C10.7909 5.99976 9 7.79062 9 9.99976V37.9998C9 40.2089 10.7909 41.9998 13 41.9998H35C37.2091 41.9998 39 40.2089 39 37.9998V15.9998L29 5.99976H13Z" fill="#CAD4E1"/>
<path fill-rule="evenodd" clip-rule="evenodd" d="M32 15.9998H39L29 5.99976V12.9998C29 14.6566 30.3431 15.9998 32 15.9998Z" fill="#A8B7CB"/>
<path d="M14 27.25C14 26.5596 14.5596 26 15.25 26H27.75C28.4404 26 29 26.5596 29 27.25V27.25C29 27.9404 28.4404 28.5 27.75 28.5H15.25C14.5596 28.5 14 27.9404 14 27.25V27.25Z" fill="white"/>
<path d="M14 33.75C14 33.0596 14.5596 32.5 15.25 32.5H24.75C25.4404 32.5 26 33.0596 26 33.75V33.75C26 34.4404 25.4404 35 24.75 35H15.25C14.5596 35 14 34.4404 14 33.75V33.75Z" fill="white"/>
<path d="M41.9393 19.0604C42.5251 18.4746 43.4749 18.4746 44.0607 19.0604L45.8284 20.8282C46.4142 21.414 46.4142 22.3637 45.8284 22.9495L33.8921 34.8858C33.7288 35.0492 33.5299 35.1726 33.311 35.2464L29.3819 36.5722V36.5722C28.7632 36.7228 28.2174 36.1399 28.4082 35.5324L29.6444 31.5961C29.7169 31.3655 29.8439 31.1558 30.0149 30.9849L41.9393 19.0604Z" fill="#143B75"/>
</svg>
