<svg width="44" height="45" viewBox="0 0 44 45" fill="none" xmlns="http://www.w3.org/2000/svg">
<path fill-rule="evenodd" clip-rule="evenodd" d="M12.2222 5.38889C10.1972 5.38889 8.55554 7.03051 8.55554 9.05555V35.9444C8.55554 37.9695 10.1972 39.6111 12.2222 39.6111H31.7778C33.8028 39.6111 35.4444 37.9695 35.4444 35.9444V15.1667L25.6667 5.38889H12.2222Z" fill="#CAD4E1"/>
<path d="M42.1667 34.4164C42.1667 38.9728 38.4731 42.6664 33.9167 42.6664C29.3604 42.6664 25.6667 38.9728 25.6667 34.4164C25.6667 29.8601 29.3604 26.1664 33.9167 26.1664C38.4731 26.1664 42.1667 29.8601 42.1667 34.4164Z" fill="#2AD6CE"/>
<path d="M30.25 34.6202L32.869 37.1665L37.5833 32.5831" stroke="white" stroke-width="2" stroke-linecap="round" stroke-linejoin="round"/>
<rect x="12.8333" y="24.7917" width="13.75" height="2.29167" rx="1.14583" fill="white"/>
<rect x="12.8333" y="30.2917" width="11" height="2.29167" rx="1.14583" fill="white"/>
<path d="M6.25 10.2C6.25 10.0895 6.33954 10 6.45 10H13.55C13.6605 10 13.75 10.0895 13.75 10.2V20.5839C13.75 20.7516 13.556 20.8448 13.4251 20.74L10.1249 18.1C10.0519 18.0415 9.9481 18.0415 9.87506 18.1L6.57494 20.74C6.44399 20.8448 6.25 20.7516 6.25 20.5839V10.2Z" fill="#092E63"/>
<path d="M4 8.5C4 5.18629 6.68629 2.5 10 2.5C13.3137 2.5 16 5.18629 16 8.5C16 11.8137 13.3137 14.5 10 14.5C6.68629 14.5 4 11.8137 4 8.5Z" fill="#FED84A"/>
<path fill-rule="evenodd" clip-rule="evenodd" d="M28.1111 15.1667H35.4444L25.6666 5.38889V12.7222C25.6666 14.0722 26.761 15.1667 28.1111 15.1667Z" fill="#A8B7CB"/>
</svg>
