<svg width="36" height="36" viewBox="0 0 36 36" fill="none" xmlns="http://www.w3.org/2000/svg">
<path d="M6.75 7.5C6.75 5.84315 8.09315 4.5 9.75 4.5H26.25C27.9069 4.5 29.25 5.84315 29.25 7.5V31.5H6.75V7.5Z" fill="#AFC3DC"/>
<path d="M12.75 10.5C12.75 10.0858 13.0858 9.75 13.5 9.75H15.75C16.1642 9.75 16.5 10.0858 16.5 10.5V12.75C16.5 13.1642 16.1642 13.5 15.75 13.5H13.5C13.0858 13.5 12.75 13.1642 12.75 12.75V10.5Z" fill="white"/>
<path d="M12.75 17.25C12.75 16.8358 13.0858 16.5 13.5 16.5H15.75C16.1642 16.5 16.5 16.8358 16.5 17.25V19.5C16.5 19.9142 16.1642 20.25 15.75 20.25H13.5C13.0858 20.25 12.75 19.9142 12.75 19.5V17.25Z" fill="white"/>
<path d="M15 26.25C15 25.8358 15.3358 25.5 15.75 25.5H20.25C20.6642 25.5 21 25.8358 21 26.25V31.5H15V26.25Z" fill="#82A3D2"/>
<path d="M19.5 10.5C19.5 10.0858 19.8358 9.75 20.25 9.75H22.5C22.9142 9.75 23.25 10.0858 23.25 10.5V12.75C23.25 13.1642 22.9142 13.5 22.5 13.5H20.25C19.8358 13.5 19.5 13.1642 19.5 12.75V10.5Z" fill="white"/>
<path d="M19.5 17.25C19.5 16.8358 19.8358 16.5 20.25 16.5H22.5C22.9142 16.5 23.25 16.8358 23.25 17.25V19.5C23.25 19.9142 22.9142 20.25 22.5 20.25H20.25C19.8358 20.25 19.5 19.9142 19.5 19.5V17.25Z" fill="white"/>
<path d="M35.5 27.75C35.5 31.4779 32.4779 34.5 28.75 34.5C25.0221 34.5 22 31.4779 22 27.75C22 24.0221 25.0221 21 28.75 21C32.4779 21 35.5 24.0221 35.5 27.75Z" fill="#00CBC1"/>
<path fill-rule="evenodd" clip-rule="evenodd" d="M25.8925 25.7146C26.1882 25.6196 26.5051 25.7823 26.6001 26.078L27.3286 28.3444L28.3211 26.0286C28.4098 25.8217 28.6131 25.6877 28.8381 25.6877C29.0632 25.6877 29.2665 25.8217 29.3552 26.0286L30.3477 28.3444L31.0762 26.078C31.1712 25.7823 31.488 25.6196 31.7838 25.7146C32.0796 25.8097 32.2423 26.1265 32.1472 26.4223L30.9585 30.1203C30.8867 30.3437 30.6838 30.4991 30.4494 30.5101C30.215 30.5211 29.9984 30.3855 29.906 30.1698L28.8381 27.6781L27.7703 30.1698C27.6779 30.3855 27.4613 30.5211 27.2269 30.5101C26.9925 30.4991 26.7895 30.3437 26.7177 30.1203L25.5291 26.4223C25.434 26.1265 25.5967 25.8097 25.8925 25.7146Z" fill="white"/>
<path d="M24.4004 27.9521C24.4004 27.6249 24.6657 27.3596 24.9929 27.3596H26.0267C26.3539 27.3596 26.6192 27.6249 26.6192 27.9521C26.6192 28.2794 26.3539 28.5447 26.0267 28.5447H24.9929C24.6657 28.5447 24.4004 28.2794 24.4004 27.9521Z" fill="white"/>
<path d="M30.8721 27.9521C30.8721 27.6249 31.1374 27.3596 31.4646 27.3596H32.4984C32.8256 27.3596 33.0909 27.6249 33.0909 27.9521C33.0909 28.2794 32.8256 28.5447 32.4984 28.5447H31.4646C31.1374 28.5447 30.8721 28.2794 30.8721 27.9521Z" fill="white"/>
</svg>
