<svg width="36" height="36" viewBox="0 0 36 36" fill="none" xmlns="http://www.w3.org/2000/svg">
<path fill-rule="evenodd" clip-rule="evenodd" d="M25 14.7891H28.5C29.8807 14.7891 31 15.9084 31 17.2891V30.7891H25V14.7891ZM27 18.2891C27 18.0129 27.2239 17.7891 27.5 17.7891H28.5C28.7761 17.7891 29 18.0129 29 18.2891V19.2891C29 19.5652 28.7761 19.7891 28.5 19.7891H27.5C27.2239 19.7891 27 19.5652 27 19.2891V18.2891ZM27.5 21.7891C27.2239 21.7891 27 22.0129 27 22.2891V23.2891C27 23.5652 27.2239 23.7891 27.5 23.7891H28.5C28.7761 23.7891 29 23.5652 29 23.2891V22.2891C29 22.0129 28.7761 21.7891 28.5 21.7891H27.5Z" fill="#B2C2D6"/>
<path fill-rule="evenodd" clip-rule="evenodd" d="M7.5 4.28906C6.11929 4.28906 5 5.40835 5 6.78906V28.2891C5 29.6698 6.11929 30.7891 7.5 30.7891H12V25.2891C12 24.7368 12.4477 24.2891 13 24.2891H17C17.5523 24.2891 18 24.7368 18 25.2891V30.7891H25V6.78906C25 5.40835 23.8807 4.28906 22.5 4.28906H7.5ZM10 9.28906C9.44772 9.28906 9 9.73678 9 10.2891V12.2891C9 12.8413 9.44772 13.2891 10 13.2891H12C12.5523 13.2891 13 12.8413 13 12.2891V10.2891C13 9.73678 12.5523 9.28906 12 9.28906H10ZM9 17.2891C9 16.7368 9.44772 16.2891 10 16.2891H12C12.5523 16.2891 13 16.7368 13 17.2891V19.2891C13 19.8413 12.5523 20.2891 12 20.2891H10C9.44772 20.2891 9 19.8413 9 19.2891V17.2891ZM17 10.2891C17 9.73678 17.4477 9.28906 18 9.28906H20C20.5523 9.28906 21 9.73678 21 10.2891V12.2891C21 12.8413 20.5523 13.2891 20 13.2891H18C17.4477 13.2891 17 12.8413 17 12.2891V10.2891ZM18 16.2891C17.4477 16.2891 17 16.7368 17 17.2891V19.2891C17 19.8413 17.4477 20.2891 18 20.2891H20C20.5523 20.2891 21 19.8413 21 19.2891V17.2891C21 16.7368 20.5523 16.2891 20 16.2891H18Z" fill="#074093"/>
</svg>
