<svg width="36" height="36" viewBox="0 0 36 36" fill="none" xmlns="http://www.w3.org/2000/svg">
<path fill-rule="evenodd" clip-rule="evenodd" d="M18 4.5C14.9497 4.5 12.0245 5.71044 9.86789 7.8647C8.84 8.89147 7.99015 10.4334 7.39751 12.1629C6.80761 13.8844 6.5 15.7122 6.5 17.2477H4.5C4.5 15.4717 4.85087 13.425 5.5055 11.5146C6.15739 9.61215 7.13812 7.76462 8.45444 6.44972C10.9863 3.92063 14.4199 2.5 18 2.5C21.5801 2.5 25.0137 3.92063 27.5456 6.44972C30.0774 8.97884 31.5 12.4093 31.5 15.9865V24.1368C31.5 25.2352 31.2834 26.3228 30.8626 27.3376C30.4419 28.3523 29.8251 29.2743 29.0477 30.0508C28.2704 30.8274 27.3475 31.4433 26.332 31.8635C25.3164 32.2837 24.228 32.5 23.1288 32.5V30.5C23.9656 30.5 24.7942 30.3354 25.5673 30.0155C26.3404 29.6956 27.0427 29.2268 27.6343 28.6359C28.2259 28.0449 28.6951 27.3435 29.0152 26.5715C29.3353 25.7996 29.5 24.9722 29.5 24.1368V15.9865C29.5 12.9404 28.2887 10.0189 26.1321 7.8647C23.9755 5.71044 21.0503 4.5 18 4.5Z" fill="#ADBCD0"/>
<path d="M8.75 14.5H7.25C5.59315 14.5 4.25 15.8431 4.25 17.5V22C4.25 23.6569 5.59315 25 7.25 25H8.75C10.4069 25 11.75 23.6569 11.75 22V17.5C11.75 15.8431 10.4069 14.5 8.75 14.5Z" fill="#074093"/>
<path d="M28.75 14.5H27.25C25.5931 14.5 24.25 15.8431 24.25 17.5V22C24.25 23.6569 25.5931 25 27.25 25H28.75C30.4069 25 31.75 23.6569 31.75 22V17.5C31.75 15.8431 30.4069 14.5 28.75 14.5Z" fill="#074093"/>
<path d="M18 31C18 29.8954 18.8954 29 20 29H22C23.1046 29 24 29.8954 24 31C24 32.1046 23.1046 33 22 33H20C18.8954 33 18 32.1046 18 31Z" fill="#ADBCD0"/>
</svg>
