<svg width="40" height="40" viewBox="0 0 40 40" fill="none" xmlns="http://www.w3.org/2000/svg">
<path d="M25.5554 12.2223C25.5554 15.2906 23.0681 17.7779 19.9999 17.7779C16.9316 17.7779 14.4443 15.2906 14.4443 12.2223C14.4443 9.15405 16.9316 6.66675 19.9999 6.66675C23.0681 6.66675 25.5554 9.15405 25.5554 12.2223Z" fill="#5A92F4"/>
<path d="M7.77783 29.4337C7.77783 24.2236 12.3854 20 18.0691 20H21.931C27.6147 20 32.2223 24.2236 32.2223 29.4337C32.2223 29.907 31.9764 30.3475 31.5103 30.5512C30.1687 31.1376 26.7717 32.2222 20.0001 32.2222C13.2284 32.2222 9.83144 31.1376 8.48979 30.5512C8.02374 30.3475 7.77783 29.907 7.77783 29.4337Z" fill="#0168FE"/>
<path d="M38.3335 28C38.3335 32.1421 34.9756 35.5 30.8335 35.5C26.6914 35.5 23.3335 32.1421 23.3335 28C23.3335 23.8579 26.6914 20.5 30.8335 20.5C34.9756 20.5 38.3335 23.8579 38.3335 28Z" fill="#00CBC1"/>
<path fill-rule="evenodd" clip-rule="evenodd" d="M34.5637 25.5521C34.88 25.8864 34.8654 26.4139 34.5311 26.7302L30.5677 30.4802C30.2418 30.7885 29.7302 30.7835 29.4104 30.4688L27.1238 28.2188C26.7958 27.896 26.7915 27.3684 27.1143 27.0404C27.4371 26.7123 27.9648 26.708 28.2928 27.0309L30.0063 28.7169L33.3856 25.5195C33.7199 25.2032 34.2473 25.2178 34.5637 25.5521Z" fill="white"/>
</svg>
