<svg width="24" height="24" viewBox="0 0 24 24" fill="none" xmlns="http://www.w3.org/2000/svg">
<path d="M3 6.5C3 5.39543 3.89543 4.5 5 4.5L19 4.5C20.1046 4.5 21 5.39543 21 6.5V19.5C21 20.6046 20.1046 21.5 19 21.5H5C3.89543 21.5 3 20.6046 3 19.5L3 6.5Z" fill="#CFDAE8"/>
<path d="M6 4C6 3.44772 6.44772 3 7 3C7.55228 3 8 3.44772 8 4V6.5C8 7.05228 7.55228 7.5 7 7.5C6.44772 7.5 6 7.05228 6 6.5V4Z" fill="#09203E"/>
<path d="M16 4C16 3.44772 16.4477 3 17 3C17.5523 3 18 3.44772 18 4V6.5C18 7.05228 17.5523 7.5 17 7.5C16.4477 7.5 16 7.05228 16 6.5V4Z" fill="#09203E"/>
<path fill-rule="evenodd" clip-rule="evenodd" d="M16.717 10.3029C17.102 10.6989 17.0931 11.332 16.6971 11.717L11.5542 16.717C11.1661 17.0943 10.5482 17.0943 10.1601 16.717L7.30292 13.9392C6.90694 13.5542 6.89802 12.9211 7.28301 12.5251C7.66799 12.1292 8.30109 12.1202 8.69708 12.5052L10.8571 14.6053L15.3029 10.283C15.6989 9.89802 16.332 9.90694 16.717 10.3029Z" fill="#F64A4A"/>
</svg>
