<svg width="36" height="36" viewBox="0 0 36 36" fill="none" xmlns="http://www.w3.org/2000/svg">
<path d="M5.04673 6.57154C7.31596 3.33774 12.5195 2.75684 14.5416 4.36247C15.4997 5.12329 16.6914 4.68992 18.2143 4.03295C20.118 3.21174 24.652 3.04546 27.6645 7.32666C30.4807 11.3289 28.1727 15.9832 26.8392 19.0597C26.016 20.9588 25.1059 23.3412 23.9092 28.5284C22.6966 33.7844 18.5445 33.9626 18.2143 28.0755C17.9476 23.3191 17.3144 21.3651 16.1922 21.3651C15.0701 21.3651 14.488 22.2266 13.6749 28.5284C12.6296 36.6298 8.24278 30.48 7.52614 26.4288C7.28164 25.0466 7.18768 22.8838 5.25685 19.0597C2.40913 13.4196 2.16533 10.6777 5.04673 6.57154Z" fill="#AFC3DC"/>
<path fill-rule="evenodd" clip-rule="evenodd" d="M19.3827 6.16775C19.5573 6.36971 19.5344 6.67435 19.3315 6.84819C18.3629 7.67822 17.0695 8.02377 15.8555 7.99874C14.6473 7.97382 13.4403 7.57971 12.6507 6.83214C12.4567 6.64852 12.449 6.34312 12.6334 6.15001C12.8179 5.95691 13.1246 5.94923 13.3186 6.13286C13.8871 6.67109 14.8371 7.01254 15.8756 7.03396C16.9082 7.05525 17.9511 6.7579 18.6992 6.11681C18.9021 5.94298 19.2081 5.96578 19.3827 6.16775Z" fill="white" fill-opacity="0.8"/>
<path d="M34 26C34 29.866 30.866 33 27 33C23.134 33 20 29.866 20 26C20 22.134 23.134 19 27 19C30.866 19 34 22.134 34 26Z" fill="#20C7BF"/>
<path d="M25.75 22.5C25.75 22.2239 25.9739 22 26.25 22H27.75C28.0261 22 28.25 22.2239 28.25 22.5V29.5C28.25 29.7761 28.0261 30 27.75 30H26.25C25.9739 30 25.75 29.7761 25.75 29.5V22.5Z" fill="white"/>
<path d="M23 25.25C23 24.9739 23.2239 24.75 23.5 24.75H30.5C30.7761 24.75 31 24.9739 31 25.25V26.75C31 27.0261 30.7761 27.25 30.5 27.25H23.5C23.2239 27.25 23 27.0261 23 26.75V25.25Z" fill="white"/>
</svg>
