<svg width="36" height="36" viewBox="0 0 36 36" fill="none" xmlns="http://www.w3.org/2000/svg">
<path d="M6.93028 6.51748C9.19219 3.28636 14.3789 2.70594 16.3945 4.31024C17.3496 5.07044 18.5374 4.63742 20.0554 3.981C21.953 3.16047 26.4724 2.99432 29.4752 7.27198C32.2823 11.2709 29.9818 15.9213 28.6525 18.9953C27.8319 20.8928 26.9248 23.2732 25.732 28.4561C24.5232 33.7078 20.3845 33.8858 20.0554 28.0036C19.7896 23.2511 19.1584 21.2988 18.0399 21.2988C16.9213 21.2988 16.3412 22.1596 15.5307 28.4561C14.4887 36.5508 10.116 30.4061 9.4017 26.3583C9.15798 24.9772 9.06432 22.8162 7.13971 18.9953C4.30117 13.3599 4.05815 10.6203 6.93028 6.51748Z" fill="#DCEAFC"/>
<path fill-rule="evenodd" clip-rule="evenodd" d="M12.3635 31.9765C13.6699 32.986 15.0124 32.4829 15.5307 28.4562C16.2715 22.7011 16.8199 21.4871 17.7628 21.3209C17.7454 21.3135 17.7279 21.3061 17.7103 21.2989C16.0395 21.2989 14.3328 22.1597 13.5223 28.4562C13.2833 30.3135 12.8689 31.4211 12.3635 31.9765ZM21.9677 32.2733C23.3283 32.854 25.0276 31.5166 25.732 28.4562C26.9249 23.2733 27.8319 20.8929 28.6525 18.9954C28.7258 18.8258 28.8021 18.6514 28.8803 18.4726C30.2201 15.4103 32.1274 11.0504 29.4752 7.27212C27.1122 3.90586 23.8099 3.29154 21.5853 3.58244C23.5243 3.82745 25.7449 4.81916 27.4668 7.27211C30.1191 11.0504 28.2117 15.4103 26.872 18.4726C26.7937 18.6514 26.7174 18.8258 26.6441 18.9954C25.8236 20.8929 24.9165 23.2733 23.7236 28.4562C23.2347 30.5804 22.5872 31.8745 21.9677 32.2733Z" fill="#A8C3E7"/>
<path d="M14.7224 6.31592C16.1236 7.64838 19.1733 7.84042 20.9445 6.31592" stroke="white" stroke-linecap="round"/>
<path d="M35.5 25.75C35.5 29.4779 32.4779 32.5 28.75 32.5C25.0221 32.5 22 29.4779 22 25.75C22 22.0221 25.0221 19 28.75 19C32.4779 19 35.5 22.0221 35.5 25.75Z" fill="#20C7BF"/>
<rect x="27.5" y="21.75" width="2.5" height="8" rx="0.5" fill="white"/>
<rect x="24.75" y="24.5" width="8" height="2.5" rx="0.5" fill="white"/>
</svg>
