<svg width="36" height="36" viewBox="0 0 36 36" fill="none" xmlns="http://www.w3.org/2000/svg">
<path d="M6.93028 6.51748C9.19219 3.28636 14.3789 2.70594 16.3945 4.31024C17.3496 5.07044 18.5374 4.63742 20.0554 3.981C21.953 3.16047 26.4724 2.99432 29.4752 7.27198C32.2823 11.2709 29.9818 15.9213 28.6525 18.9953C27.8319 20.8928 26.9248 23.2732 25.732 28.4561C24.5232 33.7078 20.3845 33.8858 20.0554 28.0036C19.7896 23.2511 19.1584 21.2988 18.0399 21.2988C16.9213 21.2988 16.3412 22.1596 15.5307 28.4561C14.4887 36.5508 10.116 30.4061 9.4017 26.3583C9.15798 24.9772 9.06432 22.8162 7.13971 18.9953C4.30117 13.3599 4.05815 10.6203 6.93028 6.51748Z" fill="#AFC3DC"/>
<path fill-rule="evenodd" clip-rule="evenodd" d="M21.3235 5.98975C21.5036 6.19904 21.48 6.51474 21.2707 6.69488C20.2713 7.55504 18.9369 7.91312 17.6844 7.88718C16.4378 7.86136 15.1925 7.45295 14.3779 6.67826C14.1778 6.48797 14.1698 6.17148 14.3601 5.97137C14.5504 5.77126 14.8669 5.7633 15.067 5.9536C15.6535 6.51136 16.6336 6.8652 17.7051 6.8874C18.7705 6.90946 19.8465 6.60132 20.6183 5.93697C20.8276 5.75683 21.1433 5.78046 21.3235 5.98975Z" fill="white" fill-opacity="0.8"/>
<path d="M35.5 25.75C35.5 29.4779 32.4779 32.5 28.75 32.5C25.0221 32.5 22 29.4779 22 25.75C22 22.0221 25.0221 19 28.75 19C32.4779 19 35.5 22.0221 35.5 25.75Z" fill="#20C7BF"/>
<rect x="27.5" y="21.75" width="2.5" height="8" rx="0.5" fill="white"/>
<rect x="24.75" y="24.5" width="8" height="2.5" rx="0.5" fill="white"/>
</svg>
