<svg width="36" height="36" viewBox="0 0 36 36" fill="none" xmlns="http://www.w3.org/2000/svg">
<path d="M6.93028 6.51748C9.19219 3.28636 14.3789 2.70594 16.3945 4.31024C17.3496 5.07044 18.5374 4.63742 20.0554 3.981C21.953 3.16047 26.4724 2.99432 29.4752 7.27198C32.2823 11.2709 29.9818 15.9213 28.6525 18.9953C27.8319 20.8928 26.9248 23.2732 25.732 28.4561C24.5232 33.7078 20.3845 33.8858 20.0554 28.0036C19.7896 23.2511 19.1584 21.2988 18.0399 21.2988C16.9213 21.2988 16.3412 22.1596 15.5307 28.4561C14.4887 36.5508 10.116 30.4061 9.4017 26.3583C9.15798 24.9772 9.06432 22.8162 7.13971 18.9953C4.30117 13.3599 4.05815 10.6203 6.93028 6.51748Z" fill="#DCEAFC"/>
<path fill-rule="evenodd" clip-rule="evenodd" d="M12.3635 31.9765C13.6699 32.986 15.0124 32.4829 15.5307 28.4562C16.2715 22.7011 16.8199 21.4871 17.7628 21.3209C17.7454 21.3135 17.7279 21.3061 17.7103 21.2989C16.0395 21.2989 14.3328 22.1597 13.5223 28.4562C13.2833 30.3135 12.8689 31.4211 12.3635 31.9765ZM21.9676 32.2733C23.3283 32.854 25.0276 31.5166 25.7319 28.4562C26.9248 23.2733 27.8319 20.8929 28.6525 18.9954C28.7258 18.8258 28.8021 18.6514 28.8803 18.4726C30.22 15.4103 32.1274 11.0504 29.4751 7.27212C27.1121 3.90586 23.8099 3.29154 21.5853 3.58244C23.5243 3.82745 25.7449 4.81916 27.4668 7.27211C30.119 11.0504 28.2117 15.4103 26.8719 18.4726C26.7937 18.6514 26.7174 18.8258 26.6441 18.9954C25.8235 20.8929 24.9165 23.2733 23.7236 28.4562C23.2347 30.5804 22.5872 31.8745 21.9676 32.2733Z" fill="#A8C3E7"/>
<path fill-rule="evenodd" clip-rule="evenodd" d="M21.3235 5.98975C21.5036 6.19904 21.48 6.51474 21.2707 6.69488C20.2713 7.55504 18.9369 7.91312 17.6844 7.88718C16.4378 7.86136 15.1925 7.45295 14.3779 6.67826C14.1778 6.48797 14.1698 6.17148 14.3601 5.97137C14.5504 5.77126 14.8669 5.7633 15.067 5.9536C15.6535 6.51136 16.6336 6.8652 17.7051 6.8874C18.7705 6.90946 19.8465 6.60132 20.6183 5.93697C20.8276 5.75683 21.1433 5.78046 21.3235 5.98975Z" fill="white"/>
<path d="M34 26C34 29.866 30.866 33 27 33C23.134 33 20 29.866 20 26C20 22.134 23.134 19 27 19C30.866 19 34 22.134 34 26Z" fill="#20C7BF"/>
<path d="M25.75 22.5C25.75 22.2239 25.9739 22 26.25 22H27.75C28.0261 22 28.25 22.2239 28.25 22.5V29.5C28.25 29.7761 28.0261 30 27.75 30H26.25C25.9739 30 25.75 29.7761 25.75 29.5V22.5Z" fill="white"/>
<path d="M23 25.25C23 24.9739 23.2239 24.75 23.5 24.75H30.5C30.7761 24.75 31 24.9739 31 25.25V26.75C31 27.0261 30.7761 27.25 30.5 27.25H23.5C23.2239 27.25 23 27.0261 23 26.75V25.25Z" fill="white"/>
</svg>
