<svg width="48" height="48" viewBox="0 0 48 48" fill="none" xmlns="http://www.w3.org/2000/svg">
<path d="M8 10C8 7.79086 9.79086 6 12 6H34C36.2091 6 38 7.79086 38 10V25H8V10Z" fill="white"/>
<path d="M12 16.25C12 15.5596 12.5596 15 13.25 15H26.75C27.4404 15 28 15.5596 28 16.25C28 16.9404 27.4404 17.5 26.75 17.5H13.25C12.5596 17.5 12 16.9404 12 16.25Z" fill="#AFC3DC"/>
<path d="M12 21.25C12 20.5596 12.5596 20 13.25 20H23.75C24.4404 20 25 20.5596 25 21.25C25 21.9404 24.4404 22.5 23.75 22.5H13.25C12.5596 22.5 12 21.9404 12 21.25Z" fill="#AFC3DC"/>
<path d="M8 10C8 7.79086 9.79086 6 12 6H34C36.2091 6 38 7.79086 38 10H8Z" fill="#0168FE"/>
<path d="M8.26663 25H37.7333L39.2488 34.3607C39.6427 36.7933 37.7645 39 35.3003 39H10.6997C8.23542 39 6.35724 36.7933 6.75109 34.3607L8.26663 25Z" fill="url(#paint0_linear_299_24414)"/>
<path d="M8.00005 25H38L39.3962 35.4713C39.716 37.8693 37.8505 40 35.4313 40H10.5688C8.14962 40 6.28414 37.8693 6.60387 35.4713L8.00005 25Z" fill="#F5FAFF"/>
<path d="M6.64069 35.5H39.3802C39.7079 37.8792 37.8592 40 35.4576 40H10.5454C8.14602 40 6.30252 37.8755 6.64069 35.5Z" fill="#0168FE"/>
<path d="M24 30.5C24 29.3954 24.8954 28.5 26 28.5H44C45.1046 28.5 46 29.3954 46 30.5V42.5C46 43.6046 45.1046 44.5 44 44.5H26C24.8954 44.5 24 43.6046 24 42.5V30.5Z" fill="#00CBC1"/>
<path fill-rule="evenodd" clip-rule="evenodd" d="M30.194 32.548C30.7198 32.379 31.283 32.6682 31.4521 33.194L32.5625 36.6489L34.0809 33.1061C34.2385 32.7384 34.6 32.5 35 32.5C35.4001 32.5 35.7616 32.7384 35.9192 33.1061L37.4375 36.6489L38.548 33.194C38.717 32.6682 39.2802 32.379 39.806 32.548C40.3318 32.717 40.6211 33.2802 40.4521 33.806L38.5235 39.806C38.3958 40.2032 38.0351 40.4793 37.6184 40.4989C37.2017 40.5185 36.8166 40.2774 36.6523 39.8939L35 36.0386L33.3477 39.8939C33.1834 40.2774 32.7984 40.5185 32.3817 40.4989C31.965 40.4793 31.6042 40.2032 31.4766 39.806L29.548 33.806C29.379 33.2802 29.6682 32.717 30.194 32.548Z" fill="white"/>
<path d="M28 36C28 35.4477 28.4477 35 29 35H30.5C31.0523 35 31.5 35.4477 31.5 36C31.5 36.5523 31.0523 37 30.5 37H29C28.4477 37 28 36.5523 28 36Z" fill="white"/>
<path d="M38.5 36C38.5 35.4477 38.9477 35 39.5 35H41C41.5523 35 42 35.4477 42 36C42 36.5523 41.5523 37 41 37H39.5C38.9477 37 38.5 36.5523 38.5 36Z" fill="white"/>
<defs>
<linearGradient id="paint0_linear_299_24414" x1="18.2778" y1="25" x2="19.0948" y2="39.2243" gradientUnits="userSpaceOnUse">
<stop stop-color="#FBFBFB"/>
<stop offset="1" stop-color="#DFE3E3"/>
</linearGradient>
</defs>
</svg>
