<svg width="48" height="48" viewBox="0 0 48 48" fill="none" xmlns="http://www.w3.org/2000/svg">
<path d="M8 10.2105C8 7.88512 9.79086 6 12 6H34C36.2091 6 38 7.88512 38 10.2105V26H8V10.2105Z" fill="white"/>
<path d="M12 15.25C12 14.5596 12.5596 14 13.25 14H26.75C27.4404 14 28 14.5596 28 15.25C28 15.9404 27.4404 16.5 26.75 16.5H13.25C12.5596 16.5 12 15.9404 12 15.25Z" fill="#AFC3DC"/>
<path d="M12 20.25C12 19.5596 12.5596 19 13.25 19H23.75C24.4404 19 25 19.5596 25 20.25C25 20.9404 24.4404 21.5 23.75 21.5H13.25C12.5596 21.5 12 20.9404 12 20.25Z" fill="#AFC3DC"/>
<path d="M8 10C8 7.79086 9.79086 6 12 6H34C36.2091 6 38 7.79086 38 10H8Z" fill="#074093"/>
<path d="M8 26H38L39.9651 35.7733C40.2769 38.0113 38.4577 40 36.0985 40H9.90153C7.54232 40 5.72306 38.0113 6.03487 35.7733L8 26Z" fill="#DCEAFC"/>
<path d="M37.9772 26.0039H7.95898L38.6177 29.6998L37.9772 26.0039Z" fill="#D3E2F5"/>
<path d="M6.09386 35.5H40.4602C40.809 37.8792 38.8412 40 36.2847 40H9.76727C7.21323 40 5.73389 37.8755 6.09386 35.5Z" fill="#074093"/>
<path d="M24 30.5C24 29.3954 24.8954 28.5 26 28.5H44C45.1046 28.5 46 29.3954 46 30.5V42.5C46 43.6046 45.1046 44.5 44 44.5H26C24.8954 44.5 24 43.6046 24 42.5V30.5Z" fill="#FFC737"/>
<path fill-rule="evenodd" clip-rule="evenodd" d="M30.194 32.5482C30.7198 32.3792 31.283 32.6685 31.4521 33.1943L32.5625 36.6491L34.0809 33.1064C34.2385 32.7387 34.6 32.5003 35 32.5003C35.4001 32.5003 35.7616 32.7387 35.9192 33.1064L37.4375 36.6491L38.548 33.1943C38.717 32.6685 39.2802 32.3792 39.806 32.5482C40.3318 32.7172 40.6211 33.2805 40.4521 33.8063L38.5235 39.8063C38.3958 40.2034 38.0351 40.4796 37.6184 40.4992C37.2017 40.5187 36.8166 40.2776 36.6523 39.8942L35 36.0389L33.3477 39.8942C33.1834 40.2776 32.7984 40.5187 32.3817 40.4992C31.965 40.4796 31.6042 40.2034 31.4766 39.8063L29.548 33.8063C29.379 33.2805 29.6682 32.7172 30.194 32.5482Z" fill="white"/>
<path d="M28 36.25C28 35.6977 28.4477 35.25 29 35.25H30.5C31.0523 35.25 31.5 35.6977 31.5 36.25C31.5 36.8023 31.0523 37.25 30.5 37.25H29C28.4477 37.25 28 36.8023 28 36.25Z" fill="white"/>
<path d="M38.5 36.25C38.5 35.6977 38.9477 35.25 39.5 35.25H41C41.5523 35.25 42 35.6977 42 36.25C42 36.8023 41.5523 37.25 41 37.25H39.5C38.9477 37.25 38.5 36.8023 38.5 36.25Z" fill="white"/>
</svg>
