<svg width="48" height="49" viewBox="0 0 48 49" fill="none" xmlns="http://www.w3.org/2000/svg">
<path d="M8 10.7103C8 8.38487 9.79086 6.49976 12 6.49976H34C36.2091 6.49976 38 8.38487 38 10.7103V26.4998H8V10.7103Z" fill="white"/>
<path d="M12 15.7498C12 15.0594 12.5596 14.4998 13.25 14.4998H26.75C27.4404 14.4998 28 15.0594 28 15.7498C28 16.4401 27.4404 16.9998 26.75 16.9998H13.25C12.5596 16.9998 12 16.4401 12 15.7498Z" fill="#AFC3DC"/>
<path d="M12 20.7498C12 20.0594 12.5596 19.4998 13.25 19.4998H23.75C24.4404 19.4998 25 20.0594 25 20.7498C25 21.4401 24.4404 21.9998 23.75 21.9998H13.25C12.5596 21.9998 12 21.4401 12 20.7498Z" fill="#AFC3DC"/>
<path d="M8 10.4998C8 8.29062 9.79086 6.49976 12 6.49976H34C36.2091 6.49976 38 8.29062 38 10.4998H8Z" fill="#143B75"/>
<path d="M8 26.4998H38L39.9651 36.273C40.2769 38.5111 38.4577 40.4998 36.0985 40.4998H9.90153C7.54232 40.4998 5.72306 38.5111 6.03487 36.273L8 26.4998Z" fill="#DCEAFC"/>
<path d="M37.9772 26.5037H7.95898L38.6177 30.1996L37.9772 26.5037Z" fill="#D3E2F5"/>
<path d="M6.09386 35.9998H40.4602C40.809 38.379 38.8412 40.4998 36.2847 40.4998H9.76727C7.21323 40.4998 5.73389 38.3752 6.09386 35.9998Z" fill="#143B75"/>
<path d="M24 30.9998C24 29.8952 24.8954 28.9998 26 28.9998H44C45.1046 28.9998 46 29.8952 46 30.9998V42.9998C46 44.1043 45.1046 44.9998 44 44.9998H26C24.8954 44.9998 24 44.1043 24 42.9998V30.9998Z" fill="#FFC737"/>
<path fill-rule="evenodd" clip-rule="evenodd" d="M30.194 33.0478C30.7198 32.8787 31.283 33.168 31.4521 33.6938L32.5625 37.1486L34.0809 33.6059C34.2385 33.2382 34.6 32.9998 35 32.9998C35.4001 32.9998 35.7616 33.2382 35.9192 33.6059L37.4375 37.1486L38.548 33.6938C38.717 33.168 39.2802 32.8787 39.806 33.0478C40.3318 33.2168 40.6211 33.78 40.4521 34.3058L38.5235 40.3058C38.3958 40.7029 38.0351 40.9791 37.6184 40.9987C37.2017 41.0183 36.8166 40.7771 36.6523 40.3937L35 36.5384L33.3477 40.3937C33.1834 40.7771 32.7984 41.0183 32.3817 40.9987C31.965 40.9791 31.6042 40.7029 31.4766 40.3058L29.548 34.3058C29.379 33.78 29.6682 33.2168 30.194 33.0478Z" fill="white"/>
<path d="M28 36.4998C28 35.9475 28.4477 35.4998 29 35.4998H30.5C31.0523 35.4998 31.5 35.9475 31.5 36.4998C31.5 37.052 31.0523 37.4998 30.5 37.4998H29C28.4477 37.4998 28 37.052 28 36.4998Z" fill="white"/>
<path d="M38.5 36.4998C38.5 35.9475 38.9477 35.4998 39.5 35.4998H41C41.5523 35.4998 42 35.9475 42 36.4998C42 37.052 41.5523 37.4998 41 37.4998H39.5C38.9477 37.4998 38.5 37.052 38.5 36.4998Z" fill="white"/>
</svg>
