<svg width="40" height="41" viewBox="0 0 40 41" fill="none" xmlns="http://www.w3.org/2000/svg">
<path d="M6.66675 7.16665C6.66675 5.3257 8.15913 3.83331 10.0001 3.83331H30.0001C31.841 3.83331 33.3334 5.3257 33.3334 7.16665V33.8333C33.3334 35.6743 31.841 37.1666 30.0001 37.1666H10.0001C8.15913 37.1666 6.66675 35.6743 6.66675 33.8333V7.16665Z" fill="white"/>
<path d="M11.1111 12.7222C11.1111 12.1085 11.6085 11.6111 12.2222 11.6111H27.7778C28.3914 11.6111 28.8889 12.1085 28.8889 12.7222C28.8889 13.3358 28.3914 13.8333 27.7778 13.8333H12.2222C11.6085 13.8333 11.1111 13.3358 11.1111 12.7222Z" fill="#AFC3DC"/>
<path d="M11.1111 18.2778C11.1111 17.6641 11.6085 17.1667 12.2222 17.1667H27.7778C28.3914 17.1667 28.8889 17.6641 28.8889 18.2778C28.8889 18.8914 28.3914 19.3889 27.7778 19.3889H12.2222C11.6085 19.3889 11.1111 18.8914 11.1111 18.2778Z" fill="#AFC3DC"/>
<path d="M11.1111 23.8333C11.1111 23.2197 11.6085 22.7222 12.2222 22.7222H21.1111C21.7247 22.7222 22.2222 23.2197 22.2222 23.8333C22.2222 24.447 21.7247 24.9445 21.1111 24.9445H12.2222C11.6085 24.9445 11.1111 24.447 11.1111 23.8333Z" fill="#AFC3DC"/>
<path fill-rule="evenodd" clip-rule="evenodd" d="M35.4154 25.0833C35.4154 27.8448 33.1768 30.0833 30.4154 30.0833C27.6539 30.0833 25.4154 27.8448 25.4154 25.0833C25.4154 22.3219 27.6539 20.0833 30.4154 20.0833C33.1768 20.0833 35.4154 22.3219 35.4154 25.0833ZM34.7173 30.7111C33.5247 31.6242 32.0334 32.1667 30.4154 32.1667C26.5033 32.1667 23.332 28.9954 23.332 25.0833C23.332 21.1713 26.5033 18 30.4154 18C34.3274 18 37.4987 21.1713 37.4987 25.0833C37.4987 26.6258 37.0057 28.0531 36.1686 29.2162L39.0951 32.1427C39.5019 32.5495 39.5019 33.2091 39.0951 33.6159C38.6883 34.0227 38.0288 34.0227 37.622 33.6159L34.7173 30.7111Z" fill="#4E627D"/>
</svg>
