<svg width="48" height="48" viewBox="0 0 48 48" fill="none" xmlns="http://www.w3.org/2000/svg">
<path fill-rule="evenodd" clip-rule="evenodd" d="M13 5.99976C10.7909 5.99976 9 7.79062 9 9.99976V37.9998C9 40.2089 10.7909 41.9998 13 41.9998H35C37.2091 41.9998 39 40.2089 39 37.9998V15.9998L29 5.99976H13Z" fill="white"/>
<path fill-rule="evenodd" clip-rule="evenodd" d="M31.5 15.9998H39L29 5.99976V13.4998C29 14.8805 30.1193 15.9998 31.5 15.9998Z" fill="#D3E3F8"/>
<path d="M14 27.75C14 27.0596 14.5596 26.5 15.25 26.5H25.75C26.4404 26.5 27 27.0596 27 27.75C27 28.4404 26.4404 29 25.75 29H15.25C14.5596 29 14 28.4404 14 27.75Z" fill="#AFC3DC"/>
<path d="M14 33.75C14 33.0596 14.5596 32.5 15.25 32.5H25.75C26.4404 32.5 27 33.0596 27 33.75C27 34.4404 26.4404 35 25.75 35H15.25C14.5596 35 14 34.4404 14 33.75Z" fill="#AFC3DC"/>
<path fill-rule="evenodd" clip-rule="evenodd" d="M39.7097 33.3339C38.8412 34.0618 37.7218 34.5 36.5 34.5C33.7386 34.5 31.5 32.2614 31.5 29.5C31.5 26.7386 33.7386 24.5 36.5 24.5C39.2614 24.5 41.5 26.7386 41.5 29.5C41.5 30.817 40.9908 32.0152 40.1585 32.9082C40.0601 32.9632 39.9675 33.0325 39.8839 33.1161C39.8165 33.1835 39.7585 33.2566 39.7097 33.3339ZM40.7087 35.7087C39.5087 36.5237 38.06 37 36.5 37C32.3579 37 29 33.6421 29 29.5C29 25.3579 32.3579 22 36.5 22C40.6421 22 44 25.3579 44 29.5C44 31.1794 43.448 32.7299 42.5155 33.98L45.5407 37.0052C46.0289 37.4934 46.0289 38.2848 45.5407 38.773C45.0526 39.2611 44.2611 39.2611 43.773 38.773L40.7087 35.7087Z" fill="#3E4C60"/>
</svg>
