<svg width="24" height="24" viewBox="0 0 24 24" fill="none" xmlns="http://www.w3.org/2000/svg">
<path fill-rule="evenodd" clip-rule="evenodd" d="M13 6.00003L13 11.8912L15.2307 9.71406C15.6259 9.32831 16.2591 9.33599 16.6448 9.73123C17.0306 10.1265 17.0229 10.7596 16.6276 11.1453L12.8446 14.8376C12.4663 15.2068 11.8662 15.2179 11.4746 14.863L7.40049 11.1707C6.99126 10.7998 6.96018 10.1674 7.33106 9.75816C7.70194 9.34894 8.33434 9.31785 8.74357 9.68873L11 11.7337L11 6.00003C11 5.44774 11.4477 5.00003 12 5.00003C12.5523 5.00003 13 5.44774 13 6.00003ZM6.5 17C5.94772 17 5.5 17.4477 5.5 18C5.5 18.5523 5.94772 19 6.5 19H17.5C18.0523 19 18.5 18.5523 18.5 18C18.5 17.4477 18.0523 17 17.5 17H6.5Z" fill="#9E9E9E"/>
</svg>
