<svg width="14" height="14" viewBox="0 0 14 14" fill="none" xmlns="http://www.w3.org/2000/svg">
<path fill-rule="evenodd" clip-rule="evenodd" d="M8 1.00003L8 6.89124L10.2307 4.71406C10.6259 4.32831 11.2591 4.33599 11.6448 4.73123C12.0306 5.12647 12.0229 5.75959 11.6276 6.14534L7.84457 9.83765C7.46635 10.2068 6.86618 10.2179 6.47457 9.86298L2.40049 6.17067C1.99126 5.79979 1.96018 5.16739 2.33106 4.75816C2.70194 4.34894 3.33434 4.31785 3.74357 4.68873L6 6.73372L6 1.00003C6 0.447744 6.44772 2.86286e-05 7 2.86513e-05C7.55229 2.8674e-05 8 0.447744 8 1.00003ZM1.5 12C0.947715 12 0.5 12.4477 0.5 13C0.5 13.5523 0.947715 14 1.5 14H12.5C13.0523 14 13.5 13.5523 13.5 13C13.5 12.4477 13.0523 12 12.5 12H1.5Z" fill="#9E9E9E"/>
</svg>
