<svg width="36" height="36" viewBox="0 0 36 36" fill="none" xmlns="http://www.w3.org/2000/svg">
<path fill-rule="evenodd" clip-rule="evenodd" d="M6.00049 13.25C6.69084 13.25 7.25049 13.8096 7.25049 14.5L7.25049 26.5C7.25049 27.1904 6.69084 27.75 6.00049 27.75C5.31013 27.75 4.75049 27.1904 4.75049 26.5L4.75049 14.5C4.75049 13.8096 5.31013 13.25 6.00049 13.25Z" fill="#FFC737"/>
<path d="M8.50049 18C8.50049 16.3431 9.84363 15 11.5005 15H24.5005C26.1573 15 27.5005 16.3431 27.5005 18V28C27.5005 29.6569 26.1573 31 24.5005 31H11.5005C9.84363 31 8.50049 29.6569 8.50049 28V18Z" fill="#15181F"/>
<path d="M17.2825 5.77613C17.7446 5.59839 18.2562 5.59839 18.7184 5.77613L32.647 11.1333C34.3564 11.7908 34.3564 14.2092 32.647 14.8667L18.7184 20.2239C18.2562 20.4016 17.7446 20.4016 17.2825 20.2239L3.35382 14.8667C1.64443 14.2092 1.64443 11.7908 3.35382 11.1333L17.2825 5.77613Z" fill="#424242"/>
</svg>
