<svg width="44" height="44" viewBox="0 0 44 44" fill="none" xmlns="http://www.w3.org/2000/svg">
<path fill-rule="evenodd" clip-rule="evenodd" d="M7.33247 16.1953C8.17623 16.1953 8.86024 16.8793 8.86024 17.7231L8.86024 32.3896C8.86024 33.2333 8.17623 33.9173 7.33247 33.9173C6.4887 33.9173 5.80469 33.2333 5.80469 32.3896L5.80469 17.7231C5.80469 16.8793 6.4887 16.1953 7.33247 16.1953Z" fill="#FFC737"/>
<path d="M10.3906 22.0026C10.3906 19.9775 12.0322 18.3359 14.0573 18.3359H29.9462C31.9712 18.3359 33.6128 19.9775 33.6128 22.0026V34.2246C33.6128 36.2497 31.9712 37.8913 29.9462 37.8913H14.0573C12.0322 37.8913 10.3906 36.2497 10.3906 34.2246V22.0026Z" fill="#15181F"/>
<path d="M21.1221 7.06137C21.6869 6.84413 22.3123 6.84413 22.8771 7.06137L39.901 13.6089C41.9902 14.4125 41.9902 17.3684 39.901 18.1719L22.8771 24.7195C22.3123 24.9367 21.6869 24.9367 21.1221 24.7195L4.09819 18.1719C2.00894 17.3684 2.00894 14.4125 4.09819 13.6089L21.1221 7.06137Z" fill="#424242"/>
</svg>
