<svg width="36" height="36" viewBox="0 0 36 36" fill="none" xmlns="http://www.w3.org/2000/svg">
<path fill-rule="evenodd" clip-rule="evenodd" d="M9 3C7.34315 3 6 4.34315 6 6V30C6 31.6569 7.34315 33 9 33H27C28.6569 33 30 31.6569 30 30V11L22 3H9Z" fill="#DCEAFC"/>
<path fill-rule="evenodd" clip-rule="evenodd" d="M24 11H30L22 3V9C22 10.1046 22.8954 11 24 11Z" fill="#B8CAE1"/>
<path d="M15.5 13C15.5 11.6193 16.6193 10.5 18 10.5C19.3807 10.5 20.5 11.6193 20.5 13C20.5 14.3807 19.3807 15.5 18 15.5C16.6193 15.5 15.5 14.3807 15.5 13Z" fill="#00CBC1"/>
<path d="M13 20.4474C13 18.2673 14.7673 16.5 16.9474 16.5H19.0526C21.2327 16.5 23 18.2673 23 20.4474C23 21.0287 22.5287 21.5 21.9474 21.5H14.0526C13.4713 21.5 13 21.0287 13 20.4474Z" fill="#05B0A8"/>
<path d="M12.2796 24.1474C12.3664 23.9509 12.6336 23.9509 12.7204 24.1474L13.1278 25.0704C13.1632 25.1505 13.2358 25.2056 13.3196 25.216L14.2856 25.3357C14.4912 25.3611 14.5738 25.6267 14.4218 25.7737L13.7076 26.4638C13.6456 26.5237 13.6179 26.6129 13.6344 26.6994L13.8239 27.6963C13.8643 27.9086 13.6481 28.0727 13.4674 27.967L12.6185 27.4706C12.5449 27.4275 12.4551 27.4275 12.3815 27.4706L11.5326 27.967C11.3519 28.0727 11.1357 27.9086 11.1761 27.6963L11.3656 26.6994C11.3821 26.6129 11.3544 26.5237 11.2924 26.4638L10.5782 25.7737C10.4262 25.6267 10.5088 25.3611 10.7144 25.3357L11.6804 25.216C11.7642 25.2056 11.8368 25.1505 11.8722 25.0704L12.2796 24.1474Z" fill="#FFA514"/>
<path d="M17.7796 24.1474C17.8664 23.9509 18.1336 23.9509 18.2204 24.1474L18.6278 25.0704C18.6632 25.1505 18.7358 25.2056 18.8196 25.216L19.7856 25.3357C19.9912 25.3611 20.0738 25.6267 19.9218 25.7737L19.2076 26.4638C19.1456 26.5237 19.1179 26.6129 19.1344 26.6994L19.3239 27.6963C19.3643 27.9086 19.1481 28.0727 18.9674 27.967L18.1185 27.4706C18.0449 27.4275 17.9551 27.4275 17.8815 27.4706L17.0326 27.967C16.8519 28.0727 16.6357 27.9086 16.6761 27.6963L16.8656 26.6994C16.8821 26.6129 16.8544 26.5237 16.7924 26.4638L16.0782 25.7737C15.9262 25.6267 16.0088 25.3611 16.2144 25.3357L17.1804 25.216C17.2642 25.2056 17.3368 25.1505 17.3722 25.0704L17.7796 24.1474Z" fill="#FFA514"/>
<path d="M23.2796 24.1474C23.3664 23.9509 23.6336 23.9509 23.7204 24.1474L24.1278 25.0704C24.1632 25.1505 24.2358 25.2056 24.3196 25.216L25.2856 25.3357C25.4912 25.3611 25.5738 25.6267 25.4218 25.7737L24.7076 26.4638C24.6456 26.5237 24.6179 26.6129 24.6344 26.6994L24.8239 27.6963C24.8643 27.9086 24.6481 28.0727 24.4674 27.967L23.6185 27.4706C23.5449 27.4275 23.4551 27.4275 23.3815 27.4706L22.5326 27.967C22.3519 28.0727 22.1357 27.9086 22.1761 27.6963L22.3656 26.6994C22.3821 26.6129 22.3544 26.5237 22.2924 26.4638L21.5782 25.7737C21.4262 25.6267 21.5088 25.3611 21.7144 25.3357L22.6804 25.216C22.7642 25.2056 22.8368 25.1505 22.8722 25.0704L23.2796 24.1474Z" fill="#FFA514"/>
</svg>
