<svg width="36" height="36" viewBox="0 0 36 36" fill="none" xmlns="http://www.w3.org/2000/svg">
<path fill-rule="evenodd" clip-rule="evenodd" d="M7.99951 4.00146C6.34266 4.00146 4.99951 5.34461 4.99951 7.00147V29.0015C4.99951 30.6583 6.34266 32.0015 7.99951 32.0015H23.9995C25.6564 32.0015 26.9995 30.6583 26.9995 29.0015V12.0015L18.9995 4.00146H7.99951Z" fill="#DCEAFC"/>
<path fill-rule="evenodd" clip-rule="evenodd" d="M20.9995 12.0015H26.9995L18.9995 4.00146V10.0015C18.9995 11.106 19.8949 12.0015 20.9995 12.0015Z" fill="#B8CAE1"/>
<path fill-rule="evenodd" clip-rule="evenodd" d="M21.2066 14.7944C21.5971 15.1849 21.5971 15.818 21.2066 16.2086L12.2066 25.2086C11.8161 25.5991 11.1829 25.5991 10.7924 25.2086C10.4019 24.818 10.4019 24.1849 10.7924 23.7944L19.7924 14.7944C20.1829 14.4038 20.8161 14.4038 21.2066 14.7944Z" fill="#A1B3C9"/>
<path fill-rule="evenodd" clip-rule="evenodd" d="M12.2495 15.5015C11.8353 15.5015 11.4995 15.8373 11.4995 16.2515C11.4995 16.6657 11.8353 17.0015 12.2495 17.0015C12.6637 17.0015 12.9995 16.6657 12.9995 16.2515C12.9995 15.8373 12.6637 15.5015 12.2495 15.5015ZM9.49951 16.2515C9.49951 14.7327 10.7307 13.5015 12.2495 13.5015C13.7683 13.5015 14.9995 14.7327 14.9995 16.2515C14.9995 17.7702 13.7683 19.0015 12.2495 19.0015C10.7307 19.0015 9.49951 17.7702 9.49951 16.2515Z" fill="#A1B3C9"/>
<path fill-rule="evenodd" clip-rule="evenodd" d="M19.7495 23.0015C19.3353 23.0015 18.9995 23.3373 18.9995 23.7515C18.9995 24.1657 19.3353 24.5015 19.7495 24.5015C20.1637 24.5015 20.4995 24.1657 20.4995 23.7515C20.4995 23.3373 20.1637 23.0015 19.7495 23.0015ZM16.9995 23.7515C16.9995 22.2327 18.2307 21.0015 19.7495 21.0015C21.2683 21.0015 22.4995 22.2327 22.4995 23.7515C22.4995 25.2702 21.2683 26.5015 19.7495 26.5015C18.2307 26.5015 16.9995 25.2702 16.9995 23.7515Z" fill="#A1B3C9"/>
<path fill-rule="evenodd" clip-rule="evenodd" d="M30.9995 24.0015C30.9995 26.2106 29.2087 28.0015 26.9995 28.0015C24.7904 28.0015 22.9995 26.2106 22.9995 24.0015C22.9995 21.7923 24.7904 20.0015 26.9995 20.0015C29.2087 20.0015 30.9995 21.7923 30.9995 24.0015ZM30.1232 29.1252C29.2133 29.6811 28.1438 30.0015 26.9995 30.0015C23.6858 30.0015 20.9995 27.3152 20.9995 24.0015C20.9995 20.6878 23.6858 18.0015 26.9995 18.0015C30.3132 18.0015 32.9995 20.6878 32.9995 24.0015C32.9995 25.4474 32.4881 26.7738 31.6362 27.8097L33.9493 30.1228C34.3398 30.5133 34.3398 31.1465 33.9493 31.537C33.5587 31.9275 32.9256 31.9275 32.535 31.537L30.1232 29.1252Z" fill="#3E4C60"/>
</svg>
