<svg width="24" height="24" viewBox="0 0 24 24" fill="none" xmlns="http://www.w3.org/2000/svg">
<path fill-rule="evenodd" clip-rule="evenodd" d="M5.67387 4C4.3352 4 3.25 5.08511 3.25 6.42367V17.5763L3.25053 20L5.67387 17.5763H18.3261C19.6648 17.5763 20.75 16.4912 20.75 15.1527V6.42367C20.75 5.08511 19.6648 4 18.3261 4H5.67387Z" fill="#074093"/>
<path d="M8.75 11C8.75 11.6904 8.19036 12.25 7.5 12.25C6.80964 12.25 6.25 11.6904 6.25 11C6.25 10.3096 6.80964 9.75 7.5 9.75C8.19036 9.75 8.75 10.3096 8.75 11Z" fill="white"/>
<path d="M13.25 11C13.25 11.6904 12.6904 12.25 12 12.25C11.3096 12.25 10.75 11.6904 10.75 11C10.75 10.3096 11.3096 9.75 12 9.75C12.6904 9.75 13.25 10.3096 13.25 11Z" fill="white"/>
<path d="M17.75 11C17.75 11.6904 17.1904 12.25 16.5 12.25C15.8096 12.25 15.25 11.6904 15.25 11C15.25 10.3096 15.8096 9.75 16.5 9.75C17.1904 9.75 17.75 10.3096 17.75 11Z" fill="white"/>
</svg>
