<svg width="44" height="45" viewBox="0 0 44 45" fill="none" xmlns="http://www.w3.org/2000/svg">
<path fill-rule="evenodd" clip-rule="evenodd" d="M7.91319 7.83203C5.31621 7.83203 3.21094 9.9373 3.21094 12.5343V33.6944L3.21197 38.3967L7.91319 33.6944H36.1267C38.7237 33.6944 40.829 31.5892 40.829 28.9922V12.5343C40.829 9.9373 38.7237 7.83203 36.1267 7.83203H7.91319Z" fill="#DCEAFC"/>
<path d="M16.1398 20.8355C16.1398 22.134 15.0871 23.1866 13.7886 23.1866C12.4901 23.1866 11.4375 22.134 11.4375 20.8355C11.4375 19.537 12.4901 18.4844 13.7886 18.4844C15.0871 18.4844 16.1398 19.537 16.1398 20.8355Z" fill="#AFC3DC"/>
<path d="M24.3741 20.8355C24.3741 22.134 23.3215 23.1866 22.023 23.1866C20.7245 23.1866 19.6719 22.134 19.6719 20.8355C19.6719 19.537 20.7245 18.4844 22.023 18.4844C23.3215 18.4844 24.3741 19.537 24.3741 20.8355Z" fill="#AFC3DC"/>
<path d="M32.5929 20.8355C32.5929 22.134 31.5402 23.1866 30.2418 23.1866C28.9433 23.1866 27.8906 22.134 27.8906 20.8355C27.8906 19.537 28.9433 18.4844 30.2418 18.4844C31.5402 18.4844 32.5929 19.537 32.5929 20.8355Z" fill="#AFC3DC"/>
</svg>
