<svg width="24" height="24" viewBox="0 0 24 24" fill="none" xmlns="http://www.w3.org/2000/svg">
<path fill-rule="evenodd" clip-rule="evenodd" d="M18 7.88474L13.7268 4H6V20H18V7.88474ZM5.5 2C4.67157 2 4 2.67157 4 3.5V20.5C4 21.3284 4.67157 22 5.5 22H18.5C19.3284 22 20 21.3284 20 20.5V7.66355C20 7.24094 19.8217 6.83793 19.509 6.55364L14.9291 2.39009C14.653 2.13908 14.2932 2 13.9201 2H5.5Z" fill="#8F8F8F"/>
<path fill-rule="evenodd" clip-rule="evenodd" d="M16 10.5C16 11.0523 15.5523 11.5 15 11.5L9 11.5C8.44772 11.5 8 11.0523 8 10.5C8 9.94771 8.44772 9.5 9 9.5L15 9.5C15.5523 9.5 16 9.94772 16 10.5Z" fill="#8F8F8F"/>
<path fill-rule="evenodd" clip-rule="evenodd" d="M16 15C16 15.5523 15.5523 16 15 16L9 16C8.44772 16 8 15.5523 8 15C8 14.4477 8.44772 14 9 14L15 14C15.5523 14 16 14.4477 16 15Z" fill="#8F8F8F"/>
</svg>
