<svg width="48" height="48" viewBox="0 0 48 48" fill="none" xmlns="http://www.w3.org/2000/svg">
<path fill-rule="evenodd" clip-rule="evenodd" d="M24.0026 35.6654C30.4459 35.6654 35.6693 30.442 35.6693 23.9987C35.6693 17.5554 30.4459 12.332 24.0026 12.332C17.5593 12.332 12.3359 17.5554 12.3359 23.9987C12.3359 30.442 17.5593 35.6654 24.0026 35.6654ZM24.0026 42.6654C34.3119 42.6654 42.6693 34.308 42.6693 23.9987C42.6693 13.6894 34.3119 5.33203 24.0026 5.33203C13.6933 5.33203 5.33594 13.6894 5.33594 23.9987C5.33594 34.308 13.6933 42.6654 24.0026 42.6654Z" fill="#BFD2EC"/>
<path fill-rule="evenodd" clip-rule="evenodd" d="M39.1693 19.332H8.83594V26.332H17.4754C18.7397 27.0181 19.8961 28.4217 20.4275 29.2307L20.4275 39.8135H27.5775V29.2309C28.1088 28.422 29.2654 27.0182 30.5298 26.332H39.1693V19.332Z" fill="#BFD2EC"/>
<path d="M26.9193 24.5807C26.9193 26.1916 25.6134 27.4974 24.0026 27.4974C22.3918 27.4974 21.0859 26.1916 21.0859 24.5807C21.0859 22.9699 22.3918 21.6641 24.0026 21.6641C25.6134 21.6641 26.9193 22.9699 26.9193 24.5807Z" fill="white"/>
</svg>
