<svg width="64" height="64" viewBox="0 0 64 64" fill="none" xmlns="http://www.w3.org/2000/svg">
<rect x="9.33594" y="12" width="45.3333" height="38.6667" rx="1" fill="#BDBDBD"/>
<rect x="12" y="14.666" width="40" height="29.3333" rx="1" fill="#15181F"/>
<path d="M12 30.6673H22.6667L27.3333 19.334L32.6667 38.0006L37.3333 25.334L39.3333 34.0007L40.6667 30.6673H52" stroke="#2AD6CE" stroke-linejoin="round"/>
<rect x="28" y="50.666" width="8" height="5.33333" fill="#BDBDBD"/>
<path d="M22.3698 56.4453C22.5553 56.1671 22.8675 56 23.2019 56H40.7982C41.1325 56 41.4447 56.1671 41.6302 56.4453L42.9635 58.4453C43.4066 59.1099 42.9302 60 42.1315 60H21.8685C21.0698 60 20.5934 59.1099 21.0365 58.4453L22.3698 56.4453Z" fill="#BDBDBD"/>
<circle cx="49.3333" cy="46.6673" r="1.33333" fill="#757575"/>
<circle cx="45.3333" cy="46.6673" r="1.33333" fill="#757575"/>
<circle cx="41.3333" cy="46.6673" r="1.33333" fill="#757575"/>
</svg>
