<svg width="36" height="36" viewBox="0 0 36 36" fill="none" xmlns="http://www.w3.org/2000/svg">
<path d="M5.5 13C5.5 11.3431 6.84315 10 8.5 10H27.5C29.1569 10 30.5 11.3431 30.5 13V29C30.5 30.6569 29.1569 32 27.5 32H8.5C6.84315 32 5.5 30.6569 5.5 29V13Z" fill="#FFCB29"/>
<path d="M4 12C4 10.3431 5.34315 9 7 9H29C30.6569 9 32 10.3431 32 12V15C32 15.5523 31.5523 16 31 16H5C4.44771 16 4 15.5523 4 15V12Z" fill="#FFA514"/>
<path d="M12.2838 3.99609C12.126 3.99609 11.998 4.12401 11.998 4.28181V8.99604H17.998C17.998 6.23464 15.7595 3.99609 12.9981 3.99609H12.2838Z" fill="#F64A4A"/>
<path d="M23.7162 3.99609C23.874 3.99609 24.002 4.12401 24.002 4.28181V8.99604H18.002C18.002 6.23464 20.2405 3.99609 23.0019 3.99609H23.7162Z" fill="#F64A4A"/>
<path d="M16 9H20V32H16V9Z" fill="#F64A4A"/>
</svg>
