<svg width="44" height="44" viewBox="0 0 44 44" fill="none" xmlns="http://www.w3.org/2000/svg">
<path d="M6.71875 14.6666C6.71875 12.6416 8.36036 11 10.3854 11H33.6077C35.6327 11 37.2743 12.6416 37.2743 14.6666V34.2219C37.2743 36.247 35.6327 37.8886 33.6077 37.8886H10.3854C8.36036 37.8886 6.71875 36.247 6.71875 34.2219V14.6666Z" fill="#FFC737"/>
<path d="M5.5 14.6666C5.5 12.6416 7.14161 11 9.16665 11H34.8334C36.8584 11 38.5 12.6416 38.5 14.6666V18.3332C38.5 19.0083 37.9528 19.5555 37.2778 19.5555H6.72222C6.0472 19.5555 5.5 19.0083 5.5 18.3332V14.6666Z" fill="#FFA514"/>
<path d="M15.0133 4.88281C14.8204 4.88281 14.6641 5.03916 14.6641 5.23202V10.9939H21.9974C21.9974 7.61882 19.2614 4.88281 15.8864 4.88281H15.0133Z" fill="#20C7BF"/>
<path d="M28.9863 4.88281C29.1792 4.88281 29.3355 5.03916 29.3355 5.23202V10.9939H22.0022C22.0022 7.61882 24.7382 4.88281 28.1132 4.88281H28.9863Z" fill="#20C7BF"/>
<rect x="19.5547" y="11" width="4.88889" height="26.8886" fill="#20C7BF"/>
</svg>
