<svg width="36" height="36" viewBox="0 0 36 36" fill="none" xmlns="http://www.w3.org/2000/svg">
<path d="M32 18C32 25.732 25.732 32 18 32C10.268 32 4 25.732 4 18C4 10.268 10.268 4 18 4C25.732 4 32 10.268 32 18Z" fill="#20C7BF"/>
<mask id="mask0_4608_42727" style="mask-type:alpha" maskUnits="userSpaceOnUse" x="4" y="4" width="28" height="28">
<circle cx="18" cy="18" r="13.25" fill="#D9D9D9" stroke="#F3F3F3" stroke-width="1.5"/>
</mask>
<g mask="url(#mask0_4608_42727)">
<path fill-rule="evenodd" clip-rule="evenodd" d="M27.248 9.17182C29.6432 8.01701 30.5 6.71094 30.5 5.75C30.5 4.78906 29.6432 3.48299 27.248 2.32818C24.9589 1.22447 21.691 0.5 18 0.5C14.309 0.5 11.0411 1.22447 8.75195 2.32818C6.35679 3.48299 5.5 4.78906 5.5 5.75C5.5 6.71094 6.35679 8.01701 8.75195 9.17182C11.0411 10.2755 14.309 11 18 11C21.691 11 24.9589 10.2755 27.248 9.17182ZM18 12.5C25.732 12.5 32 9.47792 32 5.75C32 2.02208 25.732 -1 18 -1C10.268 -1 4 2.02208 4 5.75C4 9.47792 10.268 12.5 18 12.5Z" fill="#9BEDE9"/>
<path fill-rule="evenodd" clip-rule="evenodd" d="M27.248 33.6718C29.6432 32.517 30.5 31.2109 30.5 30.25C30.5 29.2891 29.6432 27.983 27.248 26.8282C24.9589 25.7245 21.691 25 18 25C14.309 25 11.0411 25.7245 8.75195 26.8282C6.35679 27.983 5.5 29.2891 5.5 30.25C5.5 31.2109 6.35679 32.517 8.75195 33.6718C11.0411 34.7755 14.309 35.5 18 35.5C21.691 35.5 24.9589 34.7755 27.248 33.6718ZM18 37C25.732 37 32 33.9779 32 30.25C32 26.5221 25.732 23.5 18 23.5C10.268 23.5 4 26.5221 4 30.25C4 33.9779 10.268 37 18 37Z" fill="#9BEDE9"/>
<path fill-rule="evenodd" clip-rule="evenodd" d="M21.6081 27.2287C22.7503 24.9444 23.5 21.6836 23.5 18C23.5 14.3164 22.7503 11.0556 21.6081 8.77133C20.4211 6.39728 19.0588 5.5 18 5.5C16.9412 5.5 15.5789 6.39728 14.3919 8.77133C13.2497 11.0556 12.5 14.3164 12.5 18C12.5 21.6836 13.2497 24.9444 14.3919 27.2287C15.5789 29.6027 16.9412 30.5 18 30.5C19.0588 30.5 20.4211 29.6027 21.6081 27.2287ZM18 32C21.866 32 25 25.732 25 18C25 10.268 21.866 4 18 4C14.134 4 11 10.268 11 18C11 25.732 14.134 32 18 32Z" fill="#9BEDE9"/>
<path fill-rule="evenodd" clip-rule="evenodd" d="M32 19.25H4V17.75H32V19.25Z" fill="#9BEDE9"/>
</g>
</svg>
