<svg width="36" height="36" viewBox="0 0 36 36" fill="none" xmlns="http://www.w3.org/2000/svg">
<circle cx="18" cy="18" r="12.75" fill="#20C7BF" stroke="#20C7BF" stroke-width="1.5"/>
<mask id="mask0_2085_326374" style="mask-type:alpha" maskUnits="userSpaceOnUse" x="4" y="4" width="28" height="28">
<circle cx="18" cy="18" r="12.75" fill="#D9D9D9" stroke="#F3F3F3" stroke-width="1.5"/>
</mask>
<g mask="url(#mask0_2085_326374)">
<path d="M32.25 6.75C32.25 8.15542 31.0202 9.65385 28.5052 10.8452C26.0474 12.0094 22.5993 12.75 18.75 12.75C14.9007 12.75 11.4526 12.0094 8.99479 10.8452C6.47979 9.65385 5.25 8.15542 5.25 6.75C5.25 5.34458 6.47979 3.84615 8.99479 2.65483C11.4526 1.49061 14.9007 0.75 18.75 0.75C22.5993 0.75 26.0474 1.49061 28.5052 2.65483C31.0202 3.84615 32.25 5.34458 32.25 6.75Z" stroke="#9BEDE9" stroke-width="1.5"/>
<path d="M32.25 29.25C32.25 30.6554 31.0202 32.1538 28.5052 33.3452C26.0474 34.5094 22.5993 35.25 18.75 35.25C14.9007 35.25 11.4526 34.5094 8.99479 33.3452C6.47979 32.1538 5.25 30.6554 5.25 29.25C5.25 27.8446 6.47979 26.3462 8.99479 25.1548C11.4526 23.9906 14.9007 23.25 18.75 23.25C22.5993 23.25 26.0474 23.9906 28.5052 25.1548C31.0202 26.3462 32.25 27.8446 32.25 29.25Z" stroke="#9BEDE9" stroke-width="1.5"/>
</g>
<path d="M24 18C24 21.6367 23.2614 24.8921 22.1021 27.2105C20.9205 29.5738 19.4268 30.75 18 30.75C16.5732 30.75 15.0795 29.5738 13.8978 27.2105C12.7386 24.8921 12 21.6367 12 18C12 14.3633 12.7386 11.1079 13.8978 8.78947C15.0795 6.42618 16.5732 5.25 18 5.25C19.4268 5.25 20.9205 6.42618 22.1021 8.78947C23.2614 11.1079 24 14.3633 24 18Z" stroke="#9BEDE9" stroke-width="1.5"/>
<path d="M4.5 18H31.5" stroke="#9BEDE9" stroke-width="1.5"/>
<path d="M34.5 24.75C34.5 28.4779 31.4779 31.5 27.75 31.5C24.0221 31.5 21 28.4779 21 24.75C21 21.0221 24.0221 18 27.75 18C31.4779 18 34.5 21.0221 34.5 24.75Z" fill="#0168FE"/>
<path fill-rule="evenodd" clip-rule="evenodd" d="M24.8925 22.7146C25.1882 22.6196 25.5051 22.7823 25.6001 23.078L26.3286 25.3444L27.3211 23.0286C27.4098 22.8217 27.6131 22.6877 27.8381 22.6877C28.0632 22.6877 28.2665 22.8217 28.3552 23.0286L29.3477 25.3444L30.0762 23.078C30.1712 22.7823 30.488 22.6196 30.7838 22.7146C31.0796 22.8097 31.2423 23.1265 31.1472 23.4223L29.9585 27.1203C29.8867 27.3437 29.6838 27.4991 29.4494 27.5101C29.215 27.5211 28.9984 27.3855 28.906 27.1698L27.8381 24.6781L26.7703 27.1698C26.6779 27.3855 26.4613 27.5211 26.2269 27.5101C25.9925 27.4991 25.7895 27.3437 25.7177 27.1203L24.5291 23.4223C24.434 23.1265 24.5967 22.8097 24.8925 22.7146Z" fill="white"/>
<path d="M23.4004 24.9521C23.4004 24.6249 23.6657 24.3596 23.9929 24.3596H25.0267C25.3539 24.3596 25.6192 24.6249 25.6192 24.9521C25.6192 25.2794 25.3539 25.5447 25.0267 25.5447H23.9929C23.6657 25.5447 23.4004 25.2794 23.4004 24.9521Z" fill="white"/>
<path d="M29.8721 24.9521C29.8721 24.6249 30.1374 24.3596 30.4646 24.3596H31.4984C31.8256 24.3596 32.0909 24.6249 32.0909 24.9521C32.0909 25.2794 31.8256 25.5447 31.4984 25.5447H30.4646C30.1374 25.5447 29.8721 25.2794 29.8721 24.9521Z" fill="white"/>
</svg>
