<svg width="36" height="36" viewBox="0 0 36 36" fill="none" xmlns="http://www.w3.org/2000/svg">
<path d="M6.48492 10.4685C6.61877 9.62413 7.37811 9 8.27158 9H21.7284C22.6219 9 23.3812 9.62413 23.5151 10.4685L25.9792 26.014C26.1449 27.0591 25.2984 28 24.1926 28H5.80742C4.70157 28 3.85511 27.0591 4.02077 26.014L6.48492 10.4685Z" fill="#11A69F"/>
<path fill-rule="evenodd" clip-rule="evenodd" d="M15 4C12.2386 4 10 6.23858 10 9V11V11.2H10.02C10.1127 11.6564 10.5162 12 11 12C11.4838 12 11.8874 11.6564 11.98 11.2H12V11V9C12 7.34315 13.3432 6 15 6C16.6569 6 18.0001 7.34315 18.0001 9V11V11.2H18.0201C18.1127 11.6564 18.5163 12 19.0001 12C19.4839 12 19.8874 11.6564 19.9801 11.2H20.0001V11V9C20.0001 6.23858 17.7615 4 15 4Z" fill="#143B75"/>
<path d="M18.6148 20.5603C18.7687 19.6609 19.5896 19 20.5526 19H29.4474C30.4104 19 31.2313 19.6609 31.3852 20.5603L32.9743 29.846C33.1676 30.9755 32.2459 32 31.0365 32H18.9635C17.7541 32 16.8324 30.9755 17.0257 29.846L18.6148 20.5603Z" fill="#FFC737"/>
<path fill-rule="evenodd" clip-rule="evenodd" d="M25 15C23.067 15 21.5 16.567 21.5 18.5V20.5C21.5 20.9142 21.8358 21.25 22.25 21.25C22.6642 21.25 23 20.9142 23 20.5V18.5C23 17.3954 23.8954 16.5 25 16.5C26.1046 16.5 27 17.3954 27 18.5V20.5C27 20.9142 27.3358 21.25 27.75 21.25C28.1642 21.25 28.5 20.9142 28.5 20.5V18.5C28.5 16.567 26.933 15 25 15Z" fill="#FF8514"/>
</svg>
