<svg width="36" height="36" viewBox="0 0 36 36" fill="none" xmlns="http://www.w3.org/2000/svg">
<path d="M4.0757 8.70039C4.22384 7.72268 5.06426 7 6.05313 7H20.9469C21.9357 7 22.7762 7.72268 22.9243 8.70039L25.6516 26.7004C25.8349 27.9105 24.8981 29 23.6741 29H3.32586C2.10193 29 1.16507 27.9105 1.34843 26.7004L4.0757 8.70039Z" fill="#11A69F"/>
<path d="M19.9946 19.6804C20.1514 18.7118 20.9877 18 21.9689 18H31.0311C32.0123 18 32.8486 18.7118 33.0054 19.6804L34.6244 29.6804C34.8213 30.8966 33.8823 32 32.6501 32H20.3498C19.1177 32 18.1786 30.8966 18.3755 29.6804L19.9946 19.6804Z" fill="#FFC737"/>
<path fill-rule="evenodd" clip-rule="evenodd" d="M8.5 7C8.5 4.23858 10.7386 2 13.5 2C16.2614 2 18.5 4.23858 18.5 7V8C18.5 8.55228 18.0523 9 17.5 9C16.9477 9 16.5 8.55228 16.5 8V7C16.5 5.34315 15.1569 4 13.5 4C11.8431 4 10.5 5.34315 10.5 7V8C10.5 8.55228 10.0523 9 9.5 9C8.94772 9 8.5 8.55228 8.5 8V7Z" fill="#143B75"/>
<path fill-rule="evenodd" clip-rule="evenodd" d="M23.25 17.5C23.25 15.7051 24.7051 14.25 26.5 14.25C28.2949 14.25 29.75 15.7051 29.75 17.5V19C29.75 19.4142 29.4142 19.75 29 19.75C28.5858 19.75 28.25 19.4142 28.25 19V17.5C28.25 16.5335 27.4665 15.75 26.5 15.75C25.5335 15.75 24.75 16.5335 24.75 17.5V19C24.75 19.4142 24.4142 19.75 24 19.75C23.5858 19.75 23.25 19.4142 23.25 19V17.5Z" fill="#FF8514"/>
</svg>
