<svg width="65" height="64" viewBox="0 0 65 64" fill="none" xmlns="http://www.w3.org/2000/svg">
<path d="M12.3157 18.7429C12.445 17.7461 13.294 17 14.2991 17H36.4509C37.456 17 38.305 17.7461 38.4343 18.7429L42.5824 50.7429C42.7375 51.9395 41.8057 53 40.599 53H10.151C8.94434 53 8.01247 51.9395 8.16759 50.7429L12.3157 18.7429Z" fill="#088E88"/>
<path d="M35.8515 29.7461C35.9793 28.7478 36.8289 28 37.8353 28H51.9147C52.9211 28 53.7707 28.7478 53.8985 29.7461L56.5865 50.7461C56.7395 51.9417 55.808 53 54.6027 53H35.1473C33.942 53 33.0105 51.9417 33.1635 50.7461L35.8515 29.7461Z" fill="#FFD35D"/>
<path d="M30.875 19V16.5C30.875 13.4624 28.4126 11 25.375 11V11C22.3374 11 19.875 13.4624 19.875 16.5V19" stroke="#06316F" stroke-width="2" stroke-linecap="round"/>
<path d="M48.875 30V28C48.875 25.7909 47.0841 24 44.875 24V24C42.6659 24 40.875 25.7909 40.875 28V30" stroke="#FF8C5A" stroke-width="1.5" stroke-linecap="round"/>
</svg>
