<svg width="36" height="36" viewBox="0 0 36 36" fill="none" xmlns="http://www.w3.org/2000/svg">
<g clip-path="url(#clip0_521_86322)">
<path d="M0 12C0 5.37258 5.37258 0 12 0H24C30.6274 0 36 5.37258 36 12V24C36 30.6274 30.6274 36 24 36H12C5.37258 36 0 30.6274 0 24V12Z" fill="#F5F6F6"/>
<path d="M16.2057 18.174C16.2057 18.2629 16.2027 18.352 16.2084 18.4408C16.2132 18.6969 16.3048 18.9438 16.4682 19.1411C16.6317 19.3384 16.8572 19.4744 17.108 19.5268C17.3788 19.5824 17.659 19.5739 17.926 19.502C19.5529 19.0943 21.1815 18.6925 22.8072 18.2795C22.882 18.2458 22.9667 18.241 23.0449 18.2661C23.123 18.2912 23.1891 18.3444 23.2303 18.4154C23.4171 18.6853 23.6317 18.936 23.8366 19.1933C23.9781 19.3666 24.1726 19.4886 24.3902 19.5405C24.6079 19.5923 24.8365 19.5712 25.0409 19.4802C25.2144 19.3972 25.3573 19.2618 25.4495 19.093C25.5416 18.9242 25.5783 18.7308 25.5544 18.54C25.5321 18.3087 25.4377 18.0902 25.2844 17.9156C24.1742 16.4712 23.0644 15.0265 21.955 13.5815C21.847 13.4281 21.6966 13.3095 21.5221 13.2403C21.3121 13.1617 21.082 13.1547 20.8677 13.2204C20.6533 13.2861 20.4666 13.4208 20.3367 13.6036C20.2039 13.7788 20.1345 13.994 20.1399 14.2138C20.1453 14.4337 20.2251 14.6452 20.3663 14.8138C20.7648 15.3253 21.1733 15.8301 21.576 16.3386C21.7589 16.5693 21.7583 16.5743 21.4592 16.6372C20.6515 16.8073 19.8405 16.9625 19.0367 17.1502C18.7922 17.2073 18.7641 17.1477 18.7641 16.9244C18.7711 14.2117 18.7711 11.4991 18.7641 8.78649C18.7641 8.5604 18.8039 8.50398 19.0348 8.55348C20.3191 8.82823 21.6055 9.0939 22.894 9.35048C23.0941 9.39054 23.1612 9.46374 23.16 9.67746C23.1491 11.2337 23.1539 12.7902 23.1543 14.3467C23.1371 14.4525 23.1582 14.561 23.2137 14.6527C23.7783 15.383 24.3417 16.1143 24.9038 16.8465L24.9581 16.8275V16.5657C24.9581 14.1111 24.9581 11.6563 24.9581 9.20157C24.9581 9.11285 24.9595 9.0235 24.9522 8.93499C24.9441 8.65714 24.8491 8.38883 24.6806 8.16776C24.5121 7.9467 24.2786 7.78401 24.0128 7.70257C21.9573 7.14823 19.9019 6.58864 17.8402 6.0601C17.0627 5.86085 16.1849 6.12155 16.1954 7.33951C16.2254 10.952 16.2055 14.5629 16.2057 18.174Z" fill="#04B2A6"/>
<path d="M10.6612 10.8515C10.8634 10.9671 11.0973 11.0149 11.3287 10.9878C11.56 10.9607 11.7765 10.8601 11.9465 10.7009C12.1619 10.5058 12.3767 10.3103 12.6407 10.0716V10.4301C12.6407 12.947 12.6398 15.4634 12.638 17.9794C12.6327 18.1664 12.6686 18.3523 12.7432 18.5238C12.8178 18.6953 12.9293 18.8483 13.0697 18.9719C13.3325 19.2135 13.6468 19.3922 13.9887 19.4946C14.7138 19.7131 15.1784 19.3702 15.1784 18.616C15.1784 14.7747 15.1784 10.9333 15.1784 7.09168C15.1784 7.01177 15.1813 6.93165 15.1763 6.85174C15.1797 6.65301 15.1045 6.46096 14.967 6.31742C14.8295 6.17388 14.6409 6.09047 14.4422 6.08535C14.1885 6.0668 13.9338 6.10301 13.6954 6.19152C13.457 6.28004 13.2403 6.41879 13.0602 6.59838C12.2452 7.31442 11.4402 8.04159 10.6214 8.75302C10.3332 8.99573 10.1462 9.33738 10.097 9.7109C10.0578 9.93629 10.0913 10.1683 10.1927 10.3734C10.2942 10.5785 10.4583 10.7459 10.6612 10.8515Z" fill="#EF4567"/>
<path d="M9.76134 25.2518H8.32673V24.5723H9.95766C9.97779 24.4515 9.99289 24.3307 10.003 24.2099C10.0181 24.0891 10.0256 23.9632 10.0256 23.8323V23.553H8.32673V22.8734H11.0827V23.636C11.0777 24.1042 11.0122 24.5522 10.8864 24.98C10.7605 25.4079 10.5768 25.7955 10.3352 26.1428C10.0936 26.4901 9.79658 26.7871 9.44421 27.0338C9.09689 27.2754 8.69922 27.4465 8.25122 27.5472V26.8601C8.60358 26.7091 8.90561 26.4952 9.15729 26.2183C9.41401 25.9364 9.61536 25.6143 9.76134 25.2518ZM12.7061 25.2896V29.3292H11.7245V22.4959H12.7061V24.61H13.1969V22.4959H14.1784V29.3292H13.1969V25.2896H12.7061Z" fill="#04B2A6"/>
<path d="M20.1992 22.4808V29.3292H19.1799V27.1244C18.9936 27.22 18.7772 27.2855 18.5305 27.3207C18.2839 27.3509 18.0347 27.366 17.783 27.366H14.6722V26.6865H15.2762V23.5379H14.7099V22.8583H18.4626V23.5379H17.8812V25.3576C17.8812 25.6394 17.8686 25.9012 17.8434 26.1428C17.8183 26.3844 17.7855 26.5656 17.7453 26.6865H17.9567C18.1882 26.6865 18.4022 26.6764 18.5985 26.6563C18.7998 26.6311 18.9936 26.5656 19.1799 26.4599V22.4808H20.1992ZM16.2956 26.6865H16.7259C16.7763 26.5556 16.8115 26.3744 16.8316 26.1428C16.8518 25.9062 16.8618 25.6445 16.8618 25.3576V23.5379H16.2956V26.6865Z" fill="#04B2A6"/>
<path d="M26.8527 29.4047H23.1076C23.0019 29.4047 22.9012 29.3795 22.8056 29.3292C22.7099 29.2839 22.6269 29.2184 22.5564 29.1328C22.4859 29.0473 22.4281 28.9491 22.3827 28.8384C22.3425 28.7276 22.3223 28.6093 22.3223 28.4835V27.5774H25.7503V27.1319H22.3223V26.4524H26.7772V27.6152C26.7772 27.7863 26.7269 27.9373 26.6262 28.0682C26.5255 28.1941 26.4097 28.257 26.2789 28.257H23.3417V28.4608C23.3417 28.5414 23.3668 28.6043 23.4172 28.6496C23.4726 28.6999 23.5506 28.7251 23.6512 28.7251H26.8527V29.4047ZM21.4465 22.6469H24.6555V23.3264H22.4658V23.8927H24.58V24.5723H22.4658V24.897C22.4658 24.9876 22.4935 25.058 22.5489 25.1084C22.6042 25.1537 22.6873 25.1763 22.798 25.1763H24.5875C24.809 25.1763 25.0078 25.1688 25.184 25.1537C25.3652 25.1386 25.554 25.0807 25.7503 24.98V22.4959H26.7696V23.7417H27.7512V24.4213H26.7696V26.0824H25.7503V25.6369C25.5691 25.7225 25.3803 25.7804 25.184 25.8106C24.9927 25.8408 24.7864 25.8559 24.5649 25.8559H22.2317C22.0052 25.8559 21.8165 25.7653 21.6654 25.5841C21.5195 25.3978 21.4465 25.1763 21.4465 24.9196V22.6469Z" fill="#04B2A6"/>
</g>
<defs>
<clipPath id="clip0_521_86322">
<rect width="36" height="36" fill="white"/>
</clipPath>
</defs>
</svg>
