<svg width="60" height="60" viewBox="0 0 60 60" fill="none" xmlns="http://www.w3.org/2000/svg">
<g clip-path="url(#clip0_8239_260637)">
<path d="M0 20C0 8.9543 8.95431 0 20 0H40C51.0457 0 60 8.95431 60 20V40C60 51.0457 51.0457 60 40 60H20C8.9543 60 0 51.0457 0 40V20Z" fill="#00A69E"/>
<path d="M27.0017 30.2905C27.0017 30.4387 26.9968 30.5873 27.0062 30.7351C27.0142 31.162 27.1669 31.5736 27.4392 31.9024C27.7116 32.2312 28.0875 32.4578 28.5055 32.5452C28.9569 32.6378 29.4238 32.6237 29.8688 32.5039C32.5804 31.8244 35.2947 31.1546 38.0042 30.4663C38.1289 30.4101 38.2701 30.4022 38.4003 30.444C38.5305 30.4858 38.6406 30.5745 38.7093 30.6928C39.0207 31.1427 39.3783 31.5604 39.7199 31.9894C39.9556 32.2783 40.2798 32.4816 40.6426 32.568C41.0053 32.6544 41.3864 32.6191 41.7271 32.4676C42.0161 32.3292 42.2543 32.1034 42.4079 31.8222C42.5615 31.5409 42.6227 31.2184 42.5828 30.9005C42.5457 30.515 42.3883 30.1509 42.1329 29.8598C40.2825 27.4525 38.4329 25.0447 36.5839 22.6364C36.4038 22.3807 36.1531 22.183 35.8624 22.0677C35.5124 21.9367 35.1289 21.925 34.7716 22.0345C34.4143 22.144 34.1032 22.3685 33.8867 22.6731C33.6654 22.9652 33.5497 23.3238 33.5587 23.6902C33.5676 24.0566 33.7006 24.4091 33.936 24.6901C34.6001 25.5427 35.2811 26.3841 35.9523 27.2314C36.2571 27.616 36.256 27.6243 35.7576 27.7292C34.4114 28.0127 33.0596 28.2714 31.7201 28.5842C31.3125 28.6793 31.2656 28.5801 31.2656 28.2078C31.2773 23.6867 31.2773 19.1657 31.2656 14.6447C31.2656 14.2678 31.3321 14.1738 31.7169 14.2563C33.8574 14.7142 36.0014 15.157 38.1489 15.5846C38.4824 15.6514 38.5943 15.7734 38.5922 16.1296C38.574 18.7234 38.582 21.3175 38.5827 23.9116C38.5541 24.088 38.5891 24.2688 38.6817 24.4216C39.6227 25.6388 40.5616 26.8576 41.4984 28.0781L41.589 28.0463V27.61C41.589 23.5189 41.589 19.4278 41.589 15.3365C41.589 15.1886 41.5914 15.0397 41.5792 14.8922C41.5657 14.4291 41.4074 13.9819 41.1265 13.6134C40.8457 13.245 40.4564 12.9739 40.0135 12.8381C36.5878 11.9142 33.162 10.9816 29.7258 10.1007C28.43 9.76859 26.9671 10.2031 26.9845 12.233C27.0345 18.2539 27.0013 24.272 27.0017 30.2905Z" fill="white"/>
<path d="M17.7638 18.0842C18.1008 18.2769 18.4907 18.3566 18.8762 18.3114C19.2618 18.2662 19.6227 18.0986 19.906 17.8332C20.265 17.5081 20.6229 17.1823 21.063 16.7845V17.3819C21.063 21.5767 21.0615 25.7708 21.0585 29.9641C21.0496 30.2758 21.1095 30.5855 21.2338 30.8714C21.3581 31.1573 21.5439 31.4123 21.7779 31.6183C22.2159 32.0209 22.7397 32.3188 23.3097 32.4894C24.5181 32.8536 25.2924 32.2821 25.2924 31.0251C25.2924 24.6229 25.2924 18.2205 25.2924 11.8179C25.2924 11.6847 25.2973 11.5512 25.2889 11.418C25.2947 11.0868 25.1693 10.7667 24.9401 10.5275C24.711 10.2882 24.3966 10.1492 24.0654 10.1407C23.6427 10.1098 23.2182 10.1701 22.8208 10.3176C22.4234 10.4652 22.0623 10.6964 21.7622 10.9957C20.4038 12.1891 19.0621 13.4011 17.6974 14.5868C17.2172 14.9913 16.9055 15.5607 16.8235 16.1833C16.7581 16.5589 16.8139 16.9456 16.983 17.2874C17.1521 17.6292 17.4256 17.9083 17.7638 18.0842Z" fill="white"/>
<path d="M16.2669 42.0872H13.8758V40.9546H16.5941C16.6276 40.7533 16.6528 40.5519 16.6696 40.3506C16.6947 40.1492 16.7073 39.9395 16.7073 39.7213V39.2557H13.8758V38.1231H18.4691V39.3942C18.4607 40.1744 18.3517 40.921 18.1419 41.6342C17.9322 42.3473 17.626 42.9933 17.2233 43.5721C16.8206 44.151 16.3256 44.646 15.7383 45.0571C15.1594 45.4598 14.4967 45.745 13.75 45.9128V44.7677C14.3373 44.516 14.8406 44.1594 15.2601 43.698C15.688 43.2282 16.0236 42.6912 16.2669 42.0872ZM21.1748 42.1501V48.8827H19.5388V37.4939H21.1748V41.0175H21.9927V37.4939H23.6287V48.8827H21.9927V42.1501H21.1748Z" fill="white"/>
<path d="M33.6633 37.4688V48.8827H31.9644V45.2081C31.654 45.3675 31.2933 45.4766 30.8822 45.5353C30.4711 45.5856 30.0558 45.6108 29.6363 45.6108H24.4516V44.4782H25.4583V39.2306H24.5145V38.098H30.7689V39.2306H29.7999V42.2634C29.7999 42.7332 29.779 43.1694 29.737 43.5721C29.6951 43.9748 29.6405 44.2769 29.5734 44.4782H29.9258C30.3117 44.4782 30.6682 44.4614 30.9954 44.4279C31.331 44.3859 31.654 44.2769 31.9644 44.1007V37.4688H33.6633ZM27.1572 44.4782H27.8745C27.9584 44.2601 28.0171 43.9581 28.0507 43.5721C28.0843 43.1778 28.101 42.7416 28.101 42.2634V39.2306H27.1572V44.4782Z" fill="white"/>
<path d="M44.7525 49.0086H38.5106C38.3345 49.0086 38.1667 48.9666 38.0073 48.8827C37.8479 48.8072 37.7094 48.6982 37.592 48.5555C37.4745 48.4129 37.3781 48.2493 37.3025 48.0648C37.2354 47.8802 37.2019 47.683 37.2019 47.4733V45.9632H42.9152V45.2207H37.2019V44.0881H44.6266V46.0261C44.6266 46.3113 44.5427 46.563 44.3749 46.7811C44.2071 46.9909 44.0142 47.0958 43.7961 47.0958H38.9008V47.4355C38.9008 47.5698 38.9427 47.6746 39.0266 47.7501C39.1189 47.834 39.2489 47.876 39.4167 47.876H44.7525V49.0086ZM35.7421 37.7456H41.0904V38.8782H37.441V39.822H40.9646V40.9546H37.441V41.4957C37.441 41.6467 37.4871 41.7642 37.5794 41.8481C37.6717 41.9236 37.8101 41.9614 37.9947 41.9614H40.9772C41.3463 41.9614 41.6777 41.9488 41.9713 41.9236C42.2733 41.8984 42.588 41.802 42.9152 41.6342V37.4939H44.614V39.5703H46.25V40.7029H44.614V43.4715H42.9152V42.729C42.6131 42.8716 42.2985 42.9681 41.9713 43.0184C41.6525 43.0688 41.3086 43.0939 40.9394 43.0939H37.0509C36.6733 43.0939 36.3587 42.9429 36.107 42.6409C35.8637 42.3305 35.7421 41.9614 35.7421 41.5335V37.7456Z" fill="white"/>
</g>
<defs>
<clipPath id="clip0_8239_260637">
<rect width="60" height="60" fill="white"/>
</clipPath>
</defs>
</svg>
