<svg width="48" height="48" viewBox="0 0 48 48" fill="none" xmlns="http://www.w3.org/2000/svg">
<g clip-path="url(#clip0_8351_22632)">
<path d="M0 16C0 7.16344 7.16344 0 16 0H32C40.8366 0 48 7.16344 48 16V32C48 40.8366 40.8366 48 32 48H16C7.16344 48 0 40.8366 0 32V16Z" fill="#00A69E"/>
<path d="M21.6076 24.2324C21.6076 24.351 21.6037 24.4698 21.6112 24.5881C21.6176 24.9296 21.7397 25.2589 21.9576 25.5219C22.1755 25.785 22.4763 25.9663 22.8106 26.0361C23.1718 26.1103 23.5453 26.099 23.9013 26.0031C26.0705 25.4595 28.242 24.9237 30.4096 24.373C30.5094 24.3281 30.6223 24.3217 30.7265 24.3552C30.8307 24.3887 30.9188 24.4596 30.9737 24.5543C31.2228 24.9142 31.5089 25.2484 31.7821 25.5915C31.9707 25.8226 32.2301 25.9853 32.5203 26.0544C32.8105 26.1235 33.1154 26.0953 33.3879 25.974C33.6192 25.8634 33.8097 25.6827 33.9326 25.4577C34.0555 25.2327 34.1044 24.9747 34.0725 24.7204C34.0428 24.412 33.9169 24.1207 33.7126 23.8878C32.2323 21.962 30.7526 20.0357 29.2734 18.1091C29.1293 17.9046 28.9287 17.7464 28.6962 17.6541C28.4162 17.5493 28.1094 17.54 27.8235 17.6276C27.5377 17.7152 27.2888 17.8948 27.1156 18.1385C26.9385 18.3722 26.846 18.6591 26.8532 18.9522C26.8604 19.2453 26.9668 19.5273 27.155 19.7521C27.6864 20.4341 28.2311 21.1073 28.7681 21.7851C29.0119 22.0928 29.0111 22.0995 28.6123 22.1834C27.5354 22.4102 26.4539 22.6171 25.3823 22.8674C25.0562 22.9435 25.0188 22.864 25.0188 22.5662C25.0281 18.9494 25.0281 15.3326 25.0188 11.7157C25.0188 11.4143 25.0719 11.339 25.3798 11.405C27.0922 11.7714 28.8074 12.1256 30.5254 12.4677C30.7922 12.5211 30.8817 12.6187 30.88 12.9037C30.8654 14.9787 30.8719 17.054 30.8724 19.1293C30.8495 19.2704 30.8776 19.415 30.9516 19.5373C31.7044 20.5111 32.4555 21.4861 33.205 22.4625L33.2774 22.437V22.088C33.2774 18.8152 33.2774 15.5422 33.2774 12.2692C33.2774 12.1509 33.2794 12.0317 33.2696 11.9137C33.2588 11.5433 33.1322 11.1855 32.9075 10.8908C32.6828 10.596 32.3714 10.3791 32.0171 10.2705C29.2765 9.53137 26.5359 8.78526 23.7869 8.08054C22.7502 7.81487 21.5799 8.16248 21.5939 9.78642C21.6339 14.6031 21.6073 19.4176 21.6076 24.2324Z" fill="white"/>
<path d="M14.215 14.4705C14.4845 14.6247 14.7964 14.6884 15.1049 14.6523C15.4133 14.6161 15.7021 14.482 15.9287 14.2697C16.2159 14.0096 16.5022 13.749 16.8543 13.4307V13.9087C16.8543 17.2645 16.8531 20.6197 16.8507 23.9744C16.8436 24.2237 16.8915 24.4715 16.9909 24.7003C17.0904 24.929 17.239 25.133 17.4262 25.2978C17.7767 25.6198 18.1957 25.8581 18.6517 25.9946C19.6184 26.286 20.2378 25.8288 20.2378 24.8232C20.2378 19.7015 20.2378 14.5795 20.2378 9.45745C20.2378 9.3509 20.2418 9.24407 20.235 9.13752C20.2396 8.87255 20.1393 8.61648 19.956 8.4251C19.7727 8.23371 19.5212 8.1225 19.2563 8.11568C18.918 8.09094 18.5785 8.13921 18.2605 8.25724C17.9426 8.37526 17.6538 8.56026 17.4136 8.79971C16.3269 9.75444 15.2536 10.724 14.1618 11.6726C13.7776 11.9962 13.5283 12.4517 13.4627 12.9497C13.4104 13.2503 13.4551 13.5596 13.5903 13.8331C13.7256 14.1065 13.9443 14.3297 14.215 14.4705Z" fill="white"/>
<path d="M13.015 33.6713H11.1021V32.7652H13.2767C13.3036 32.6042 13.3237 32.4431 13.3371 32.282C13.3573 32.1209 13.3673 31.9531 13.3673 31.7786V31.4061H11.1021V30.5001H14.7768V31.5169C14.7701 32.1411 14.6828 32.7384 14.515 33.3089C14.3472 33.8794 14.1022 34.3962 13.7801 34.8593C13.4579 35.3224 13.0619 35.7184 12.5921 36.0472C12.129 36.3694 11.5988 36.5976 11.0015 36.7318V35.8157C11.4713 35.6143 11.874 35.3291 12.2096 34.96C12.5519 34.5841 12.8203 34.1546 13.015 33.6713ZM16.9413 33.7217V39.1077H15.6325V29.9967H16.9413V32.8156H17.5957V29.9967H18.9044V39.1077H17.5957V33.7217H16.9413Z" fill="white"/>
<path d="M26.9321 29.9766V39.1077H25.573V36.1681C25.3247 36.2956 25.0361 36.3828 24.7072 36.4298C24.3783 36.4701 24.0461 36.4902 23.7105 36.4902H19.5627V35.5841H20.3681V31.386H19.6131V30.4799H24.6166V31.386H23.8414V33.8123C23.8414 34.1881 23.8246 34.5371 23.7911 34.8593C23.7575 35.1814 23.7139 35.4231 23.6602 35.5841H23.9421C24.2508 35.5841 24.5361 35.5707 24.7978 35.5439C25.0663 35.5103 25.3247 35.4231 25.573 35.2821V29.9766H26.9321ZM21.7272 35.5841H22.3011C22.3682 35.4096 22.4152 35.168 22.442 34.8593C22.4689 34.5438 22.4823 34.1948 22.4823 33.8123V31.386H21.7272V35.5841Z" fill="white"/>
<path d="M35.8034 39.2084H30.81C30.669 39.2084 30.5348 39.1749 30.4073 39.1077C30.2798 39.0473 30.169 38.9601 30.0751 38.846C29.9811 38.7319 29.9039 38.601 29.8435 38.4534C29.7898 38.3057 29.763 38.148 29.763 37.9802V36.7721H34.3336V36.1781H29.763V35.272H35.7028V36.8224C35.7028 37.0506 35.6356 37.252 35.5014 37.4265C35.3672 37.5943 35.2128 37.6782 35.0383 37.6782H31.1221V37.95C31.1221 38.0574 31.1556 38.1413 31.2227 38.2017C31.2966 38.2688 31.4006 38.3024 31.5348 38.3024H35.8034V39.2084ZM28.5951 30.198H32.8738V31.1041H29.9542V31.8592H32.7731V32.7652H29.9542V33.1981C29.9542 33.319 29.9912 33.4129 30.065 33.48C30.1388 33.5404 30.2496 33.5706 30.3972 33.5706H32.7832C33.0785 33.5706 33.3436 33.5606 33.5785 33.5404C33.8201 33.5203 34.0718 33.4431 34.3336 33.3089V29.9967H35.6927V31.6578H37.0015V32.5639H35.6927V34.7787H34.3336V34.1848C34.092 34.2989 33.8403 34.376 33.5785 34.4163C33.3235 34.4566 33.0483 34.4767 32.753 34.4767H29.6422C29.3401 34.4767 29.0884 34.3559 28.8871 34.1143C28.6925 33.866 28.5951 33.5706 28.5951 33.2284V30.198Z" fill="white"/>
</g>
<defs>
<clipPath id="clip0_8351_22632">
<rect width="48" height="48" fill="white"/>
</clipPath>
</defs>
</svg>
