<svg width="44" height="44" viewBox="0 0 44 44" fill="none" xmlns="http://www.w3.org/2000/svg">
<path d="M7.34768 12.6822C7.38696 10.8302 8.62232 9.26271 10.3685 8.64434L19.6019 5.37456C21.1569 4.8239 22.8539 4.8239 24.4088 5.37457L33.6351 8.64183C35.3849 9.2615 36.6215 10.8339 36.6586 12.6898C36.7416 16.8304 36.4027 24.2776 33.3299 29.0165C30.2605 33.7502 23.8171 38.2564 22.0054 38.2564C20.1937 38.2564 13.6053 33.5456 10.6812 29.0165C7.59445 24.2354 7.26017 16.8091 7.34768 12.6822Z" fill="#F64A4A"/>
<path d="M23.8307 15.2786C23.8307 14.2661 23.0099 13.4453 21.9974 13.4453C20.9849 13.4453 20.1641 14.2661 20.1641 15.2786V18.9452H16.4974C15.4849 18.9452 14.6641 19.7661 14.6641 20.7786C14.6641 21.7911 15.4849 22.6119 16.4974 22.6119H20.1641V26.2785C20.1641 27.291 20.9849 28.1118 21.9974 28.1118C23.0099 28.1118 23.8307 27.291 23.8307 26.2785V22.6119H27.4974C28.5099 22.6119 29.3307 21.7911 29.3307 20.7786C29.3307 19.7661 28.5099 18.9453 27.4974 18.9453H23.8307V15.2786Z" fill="white"/>
</svg>
