<svg width="48" height="48" viewBox="0 0 48 48" fill="none" xmlns="http://www.w3.org/2000/svg">
<path d="M8 9C8 7.34315 9.34315 6 11 6H33C34.6569 6 36 7.34315 36 9V42H8V9Z" fill="#AFC3DC"/>
<path d="M14 14C14 13.4477 14.4477 13 15 13H18.5C19.0523 13 19.5 13.4477 19.5 14V17.5C19.5 18.0523 19.0523 18.5 18.5 18.5H15C14.4477 18.5 14 18.0523 14 17.5V14Z" fill="white"/>
<path d="M24.5 14C24.5 13.4477 24.9477 13 25.5 13H29C29.5523 13 30 13.4477 30 14V17.5C30 18.0523 29.5523 18.5 29 18.5H25.5C24.9477 18.5 24.5 18.0523 24.5 17.5V14Z" fill="white"/>
<path d="M14 24C14 23.4477 14.4477 23 15 23H18.5C19.0523 23 19.5 23.4477 19.5 24V27.5C19.5 28.0523 19.0523 28.5 18.5 28.5H15C14.4477 28.5 14 28.0523 14 27.5V24Z" fill="white"/>
<path d="M24.5 24C24.5 23.4477 24.9477 23 25.5 23H29C29.5523 23 30 23.4477 30 24V27.5C30 28.0523 29.5523 28.5 29 28.5H25.5C24.9477 28.5 24.5 28.0523 24.5 27.5V24Z" fill="white"/>
<path d="M18 35C18 34.4477 18.4477 34 19 34H25C25.5523 34 26 34.4477 26 35V42H18V35Z" fill="#7891B5"/>
<path d="M46 37C46 41.9706 41.9706 46 37 46C32.0294 46 28 41.9706 28 37C28 32.0294 32.0294 28 37 28C41.9706 28 46 32.0294 46 37Z" fill="#F64A4A"/>
<path d="M35.5 32.5C35.5 32.2239 35.7239 32 36 32H38C38.2761 32 38.5 32.2239 38.5 32.5V41.5C38.5 41.7761 38.2761 42 38 42H36C35.7239 42 35.5 41.7761 35.5 41.5V32.5Z" fill="white"/>
<path d="M32 36.25C32 35.9739 32.2239 35.75 32.5 35.75H41.5C41.7761 35.75 42 35.9739 42 36.25V38.25C42 38.5261 41.7761 38.75 41.5 38.75H32.5C32.2239 38.75 32 38.5261 32 38.25V36.25Z" fill="white"/>
</svg>
