<svg width="36" height="36" viewBox="0 0 36 36" fill="none" xmlns="http://www.w3.org/2000/svg">
<path d="M4.75498 10.6003C4.78099 8.74232 6.02705 7.17501 7.78164 6.56334L15.6329 3.82632C17.1677 3.29129 18.8383 3.29129 20.3731 3.82633L28.2171 6.56083C29.9754 7.17379 31.2226 8.74622 31.2466 10.6081C31.2948 14.3473 30.9249 20.6969 28.2337 24.7827C25.4608 28.9926 19.6397 33.0001 18.003 33.0001C16.3663 33.0001 10.4143 28.8106 7.77266 24.7827C5.06919 20.6605 4.7028 14.3274 4.75498 10.6003Z" fill="#F64A4A"/>
<path d="M16.0005 12C16.0005 11.4477 16.4482 11 17.0005 11H19.0005C19.5528 11 20.0005 11.4477 20.0005 12V23C20.0005 23.5523 19.5528 24 19.0005 24H17.0005C16.4482 24 16.0005 23.5523 16.0005 23V12Z" fill="white"/>
<path d="M11.5005 16.5C11.5005 15.9477 11.9482 15.5 12.5005 15.5H23.5005C24.0528 15.5 24.5005 15.9477 24.5005 16.5V18.5C24.5005 19.0523 24.0528 19.5 23.5005 19.5H12.5005C11.9482 19.5 11.5005 19.0523 11.5005 18.5V16.5Z" fill="white"/>
</svg>
