<svg width="36" height="36" viewBox="0 0 36 36" fill="none" xmlns="http://www.w3.org/2000/svg">
<path d="M7 18.2456C7 12.0324 12.0368 6.99561 18.25 6.99561C24.4632 6.99561 29.5 12.0324 29.5 18.2456V26.9956C29.5 29.2047 27.7091 30.9956 25.5 30.9956H11C8.79086 30.9956 7 29.2047 7 26.9956V18.2456Z" fill="#BDD4F1"/>
<path d="M15.25 18.5C15.25 16.8431 16.5931 15.5 18.25 15.5C19.9069 15.5 21.25 16.8431 21.25 18.5C21.25 20.1569 19.9069 21.5 18.25 21.5C16.5931 21.5 15.25 20.1569 15.25 18.5Z" fill="#9EB5D1"/>
<path fill-rule="evenodd" clip-rule="evenodd" d="M16.4474 3.03624C17.357 2.31539 18.6432 2.31539 19.5528 3.03624L32.8028 13.5362C33.8849 14.3938 34.067 15.9662 33.2095 17.0483C32.3519 18.1304 30.7795 18.3125 29.6974 17.455L18.0001 8.18541L6.3028 17.455C5.22068 18.3125 3.64827 18.1304 2.79073 17.0483C1.9332 15.9662 2.11527 14.3938 3.1974 13.5362L16.4474 3.03624Z" fill="#074093"/>
<path fill-rule="evenodd" clip-rule="evenodd" d="M25.2805 19.6609C26.2591 18.7797 27.741 18.7797 28.7195 19.6609L29.8574 20.6856C30.1287 20.9299 30.4484 21.1136 30.7956 21.2246L32.2048 21.6753C33.438 22.0696 34.1886 23.3219 33.9587 24.6014L33.6274 26.4459C33.5683 26.7748 33.5731 27.112 33.6417 27.439L33.9136 28.7363C34.1719 29.9687 33.5098 31.209 32.345 31.6746L30.6235 32.3626C30.3884 32.4566 30.1684 32.5849 29.9705 32.7433L28.6053 33.836C27.666 34.588 26.334 34.588 25.3947 33.836L24.0295 32.7433C23.8316 32.5849 23.6116 32.4566 23.3765 32.3626L21.655 31.6746C20.4902 31.209 19.8281 29.9687 20.0864 28.7363L20.3583 27.439C20.4268 27.112 20.4317 26.7748 20.3726 26.4459L20.0413 24.6014C19.8114 23.3219 20.562 22.0696 21.7952 21.6753L23.2044 21.2246C23.5515 21.1136 23.8713 20.9299 24.1426 20.6856L25.2805 19.6609ZM27.0001 29.5001C28.5465 29.5001 29.8001 28.2465 29.8001 26.7001C29.8001 25.1537 28.5465 23.9001 27.0001 23.9001C25.4537 23.9001 24.2001 25.1537 24.2001 26.7001C24.2001 28.2465 25.4537 29.5001 27.0001 29.5001Z" fill="#4E627D"/>
</svg>
