<svg width="65" height="64" viewBox="0 0 65 64" fill="none" xmlns="http://www.w3.org/2000/svg">
<path d="M12.625 34.6641C12.625 23.6184 21.5793 14.6641 32.625 14.6641V14.6641C43.6707 14.6641 52.625 23.6184 52.625 34.6641V51.9974C52.625 54.2065 50.8341 55.9974 48.625 55.9974H16.625C14.4159 55.9974 12.625 54.2065 12.625 51.9974V34.6641Z" fill="#DCEAFC"/>
<path d="M27.293 49.3333C27.293 46.3878 29.6808 44 32.6263 44V44C35.5718 44 37.9596 46.3878 37.9596 49.3333V56H27.293V49.3333Z" fill="#AFC3DC"/>
<path d="M29.513 13.5002C27.9509 11.9381 27.9509 9.40546 29.513 7.84336V7.84336C31.0751 6.28126 33.6077 6.28126 35.1698 7.84336L57.7972 30.4708C59.3593 32.0329 59.3593 34.5655 57.7972 36.1276V36.1276C56.2351 37.6897 53.7025 37.6897 52.1404 36.1276L29.513 13.5002Z" fill="#295697"/>
<path d="M35.1693 13.4979C36.7314 11.9358 36.7314 9.40313 35.1693 7.84103V7.84103C33.6072 6.27893 31.0746 6.27893 29.5125 7.84103L6.88507 30.4684C5.32297 32.0305 5.32297 34.5632 6.88507 36.1253V36.1253C8.44717 37.6874 10.9798 37.6874 12.5419 36.1253L35.1693 13.4979Z" fill="#295697"/>
</svg>
