<svg width="36" height="36" viewBox="0 0 36 36" fill="none" xmlns="http://www.w3.org/2000/svg">
<path d="M6.5 18.7476C6.5 12.3963 11.6487 7.24756 18 7.24756C24.3513 7.24756 29.5 12.3963 29.5 18.7476V27.4976C29.5 29.1544 28.1569 30.4976 26.5 30.4976H9.5C7.84315 30.4976 6.5 29.1544 6.5 27.4976V18.7476Z" fill="#C0D2E9"/>
<path d="M16.2496 6.59289C15.3709 5.71421 15.3709 4.28959 16.2496 3.41091C17.1283 2.53223 18.5529 2.53223 19.4316 3.41091L32.1595 16.1388C33.0382 17.0175 33.0382 18.4421 32.1595 19.3208C31.2808 20.1995 29.8562 20.1995 28.9775 19.3208L16.2496 6.59289Z" fill="#295697"/>
<path d="M19.4313 6.59159C20.31 5.71291 20.31 4.28828 19.4313 3.4096C18.5526 2.53092 17.128 2.53092 16.2493 3.4096L3.52141 16.1375C2.64273 17.0162 2.64273 18.4408 3.52141 19.3195C4.40009 20.1982 5.82471 20.1982 6.70339 19.3195L19.4313 6.59159Z" fill="#295697"/>
<circle cx="18" cy="18" r="3" fill="#9EB5D1"/>
<path fill-rule="evenodd" clip-rule="evenodd" d="M24.8806 19.6609C25.8592 18.7797 27.3411 18.7797 28.3196 19.6609L29.4575 20.6856C29.7288 20.9299 30.0485 21.1136 30.3957 21.2246L31.8049 21.6753C33.0381 22.0696 33.7887 23.3219 33.5588 24.6014L33.2275 26.4459C33.1684 26.7747 33.1732 27.112 33.2418 27.439L33.5137 28.7363C33.772 29.9687 33.1099 31.209 31.9451 31.6746L30.2236 32.3626C29.9885 32.4566 29.7685 32.5849 29.5706 32.7433L28.2054 33.836C27.2661 34.588 25.9341 34.588 24.9948 33.836L23.6296 32.7433C23.4317 32.5849 23.2117 32.4566 22.9766 32.3626L21.2551 31.6746C20.0903 31.209 19.4282 29.9687 19.6865 28.7363L19.9584 27.439C20.0269 27.112 20.0318 26.7748 19.9727 26.4459L19.6414 24.6014C19.4115 23.3219 20.1621 22.0696 21.3953 21.6753L22.8045 21.2246C23.1516 21.1136 23.4714 20.9299 23.7427 20.6856L24.8806 19.6609ZM26.6002 29.5001C28.1466 29.5001 29.4002 28.2465 29.4002 26.7001C29.4002 25.1537 28.1466 23.9001 26.6002 23.9001C25.0538 23.9001 23.8002 25.1537 23.8002 26.7001C23.8002 28.2465 25.0538 29.5001 26.6002 29.5001Z" fill="#4E627D"/>
</svg>
