<svg width="36" height="36" viewBox="0 0 36 36" fill="none" xmlns="http://www.w3.org/2000/svg">
<path d="M7 18.25C7 12.0368 12.0368 7 18.25 7C24.4632 7 29.5 12.0368 29.5 18.25V27C29.5 29.2091 27.7091 31 25.5 31H11C8.79086 31 7 29.2091 7 27V18.25Z" fill="#BDD4F1"/>
<path d="M12.25 25.5C12.25 23.567 13.817 22 15.75 22C17.683 22 19.25 23.567 19.25 25.5V31H12.25V25.5Z" fill="#7597C9"/>
<path fill-rule="evenodd" clip-rule="evenodd" d="M16.6027 3.23657C17.4213 2.58781 18.5788 2.58781 19.3975 3.23657L32.6475 13.7366C33.6214 14.5084 33.7853 15.9235 33.0135 16.8974C32.2417 17.8713 30.8266 18.0352 29.8527 17.2634L18.0001 7.87083L6.14752 17.2634C5.17361 18.0352 3.75844 17.8713 2.98666 16.8974C2.21488 15.9235 2.37874 14.5084 3.35266 13.7366L16.6027 3.23657Z" fill="#074093"/>
<path d="M26.25 21.5714C26.25 21.2558 26.5058 21 26.8214 21H31.1786C31.4942 21 31.75 21.2558 31.75 21.5714V22.25C31.75 23.7688 30.5188 25 29 25C27.4812 25 26.25 23.7688 26.25 22.25V21.5714Z" fill="#FF9E00"/>
<path d="M23 30.5C23 27.1863 25.6863 24.5 29 24.5C32.3137 24.5 35 27.1863 35 30.5V32.1923C35 33.4668 33.9668 34.5 32.6923 34.5H25.3077C24.0332 34.5 23 33.4668 23 32.1923V30.5Z" fill="#FFC737"/>
</svg>
