<svg width="65" height="64" viewBox="0 0 65 64" fill="none" xmlns="http://www.w3.org/2000/svg">
<path d="M21.3932 26.5609C21.729 25.6382 22.7491 25.1625 23.6718 25.4983L33.6952 29.1465C34.6178 29.4823 35.0935 30.5025 34.7577 31.4251L24.9384 58.4035C24.3636 59.9826 22.1212 59.9564 21.5835 58.3642L20.2739 54.4863C19.9094 53.4069 18.638 52.9442 17.6649 53.5367L14.1691 55.6656C12.7338 56.5396 10.9991 55.1183 11.5739 53.5392L21.3932 26.5609Z" fill="#00A69E"/>
<path d="M26.4494 33.5394C25.9585 32.6891 26.2498 31.6018 27.1001 31.1109L36.3377 25.7775C37.188 25.2866 38.2753 25.578 38.7662 26.4282L53.1211 51.2916C53.9613 52.7469 52.4998 54.4479 50.9345 53.8364L47.1221 52.3469C46.061 51.9323 44.8892 52.6088 44.7177 53.7351L44.1014 57.7815C43.8484 59.4428 41.6445 59.8581 40.8043 58.4027L26.4494 33.5394Z" fill="#00A69E"/>
<path d="M28.0602 5.71436C30.718 3.44938 34.6272 3.44938 37.285 5.71436L38.5402 6.78405C39.6791 7.75465 41.0953 8.34122 42.5869 8.46025L44.2309 8.59144C47.7118 8.86922 50.476 11.6334 50.7538 15.1143L50.885 16.7583C51.004 18.25 51.5906 19.6661 52.5612 20.805L53.6308 22.0602C55.8958 24.718 55.8958 28.6272 53.6308 31.285L52.5612 32.5402C51.5906 33.6791 51.004 35.0953 50.885 36.5869L50.7538 38.2309C50.476 41.7118 47.7118 44.476 44.2309 44.7538L42.5869 44.885C41.0953 45.004 39.6791 45.5906 38.5402 46.5612L37.285 47.6308C34.6272 49.8958 30.718 49.8958 28.0602 47.6308L26.805 46.5612C25.6661 45.5906 24.25 45.004 22.7583 44.885L21.1143 44.7538C17.6334 44.476 14.8692 41.7118 14.5914 38.2309L14.4603 36.5869C14.3412 35.0953 13.7546 33.6791 12.784 32.5402L11.7144 31.285C9.44938 28.6272 9.44938 24.718 11.7144 22.0602L12.784 20.805C13.7546 19.6661 14.3412 18.25 14.4603 16.7583L14.5914 15.1143C14.8692 11.6334 17.6334 8.86922 21.1143 8.59144L22.7583 8.46025C24.25 8.34122 25.6661 7.75465 26.805 6.78405L28.0602 5.71436Z" fill="#D1E1F1"/>
<circle cx="32.6753" cy="26.6675" r="14.2222" fill="#AFC3DC"/>
<path fill-rule="evenodd" clip-rule="evenodd" d="M27.7266 20.6001C27.7266 19.7466 28.4185 19.0547 29.272 19.0547H33.6862C36.504 19.0547 38.7883 21.339 38.7883 24.1568C38.7883 26.9747 36.504 29.259 33.6862 29.259H30.492V32.8818C30.492 33.6455 29.8729 34.2646 29.1093 34.2646C28.3456 34.2646 27.7266 33.6455 27.7266 32.8818V20.6001ZM30.492 26.4935H33.6862C34.9767 26.4935 36.0229 25.4474 36.0229 24.1568C36.0229 22.8663 34.9767 21.8201 33.6862 21.8201H30.492V26.4935Z" fill="white"/>
</svg>
