<svg width="36" height="36" viewBox="0 0 36 36" fill="none" xmlns="http://www.w3.org/2000/svg">
<path d="M12.0869 14.6583C12.2758 14.1393 12.8496 13.8717 13.3686 14.0606L19.0067 16.1127C19.5257 16.3016 19.7933 16.8754 19.6044 17.3944L14.0811 32.5697C13.7578 33.458 12.4964 33.4432 12.1939 32.5476L11.4573 30.3663C11.2523 29.7592 10.5371 29.4989 9.98975 29.8322L8.02333 31.0297C7.21598 31.5213 6.24022 30.7218 6.56352 29.8336L12.0869 14.6583Z" fill="#00A69E"/>
<path d="M14.3541 18.5002C14.078 18.0219 14.2418 17.4103 14.7201 17.1341L19.9163 14.1341C20.3946 13.858 21.0062 14.0219 21.2823 14.5002L29.3569 28.4858C29.8296 29.3044 29.0075 30.2612 28.127 29.9172L25.9825 29.0794C25.3856 28.8462 24.7265 29.2267 24.63 29.8603L24.2833 32.1364C24.141 33.0709 22.9014 33.3044 22.4287 32.4858L14.3541 18.5002Z" fill="#00A69E"/>
<path d="M15.4553 2.93721C16.9217 1.6876 19.0783 1.6876 20.5447 2.93721L21.2372 3.52736C21.8656 4.06284 22.6468 4.38646 23.4698 4.45213L24.3768 4.52451C26.2972 4.67776 27.8222 6.20277 27.9755 8.12323L28.0479 9.03021C28.1135 9.85317 28.4372 10.6344 28.9726 11.2628L29.5628 11.9553C30.8124 13.4217 30.8124 15.5783 29.5628 17.0447L28.9726 17.7372C28.4372 18.3656 28.1135 19.1468 28.0479 19.9698L27.9755 20.8768C27.8222 22.7972 26.2972 24.3222 24.3768 24.4755L23.4698 24.5479C22.6468 24.6135 21.8656 24.9372 21.2372 25.4726L20.5447 26.0628C19.0783 27.3124 16.9217 27.3124 15.4553 26.0628L14.7628 25.4726C14.1344 24.9372 13.3532 24.6135 12.5302 24.5479L11.6232 24.4755C9.70277 24.3222 8.17776 22.7972 8.02451 20.8768L7.95213 19.9698C7.88646 19.1468 7.56284 18.3656 7.02736 17.7372L6.43721 17.0447C5.1876 15.5783 5.1876 13.4217 6.43721 11.9553L7.02736 11.2628C7.56284 10.6344 7.88646 9.85317 7.95213 9.03021L8.02451 8.12323C8.17776 6.20277 9.70277 4.67776 11.6232 4.52451L12.5302 4.45213C13.3532 4.38646 14.1344 4.06284 14.7628 3.52736L15.4553 2.93721Z" fill="#D1E1F1"/>
<path d="M26 14.5C26 18.9183 22.4183 22.5 18 22.5C13.5817 22.5 10 18.9183 10 14.5C10 10.0817 13.5817 6.5 18 6.5C22.4183 6.5 26 10.0817 26 14.5Z" fill="#AFC3DC"/>
<path fill-rule="evenodd" clip-rule="evenodd" d="M15.5 11.3693C15.5 10.8892 15.8892 10.5 16.3693 10.5H18.8523C20.4373 10.5 21.7222 11.7849 21.7222 13.37C21.7222 14.955 20.4373 16.2399 18.8523 16.2399H17.0556V18.2778C17.0556 18.7073 16.7073 19.0556 16.2778 19.0556C15.8482 19.0556 15.5 18.7073 15.5 18.2778V11.3693ZM17.0556 14.6843H18.8523C19.5782 14.6843 20.1667 14.0959 20.1667 13.37C20.1667 12.644 19.5782 12.0556 18.8523 12.0556H17.0556V14.6843Z" fill="white"/>
</svg>
