<svg width="48" height="48" viewBox="0 0 48 48" fill="none" xmlns="http://www.w3.org/2000/svg">
<g clip-path="url(#clip0_1385_196876)">
<path d="M27.7988 13H0V25.9411H27.7988V13Z" fill="#00917B"/>
<path d="M47.9952 13H34.4753V25.9411H47.9952V13Z" fill="#DB9900"/>
<path d="M34.598 13H27.6713V25.9411H34.598V13Z" fill="#231815"/>
<path d="M18.0763 20.6125C18.0763 21.0955 17.9383 21.4827 17.3557 21.4865C16.773 21.4865 16.635 21.0955 16.635 20.6125V17.1357H15.9949V20.6125C15.9949 21.3868 16.428 21.9963 17.3595 22.0001C18.2872 22.0001 18.7241 21.3868 18.7241 20.6125V17.1357H18.0802V20.6087L18.0763 20.6125Z" fill="white"/>
<path d="M6.05331 19.1757H4.60817V17.1402H3.96802V21.9586H4.60817V19.7123H6.05331V21.9586H6.69346V17.1402H6.05331V19.1757Z" fill="white"/>
<path d="M24.7619 20.5786L23.4778 17.1402H22.5233V21.9586H23.152V17.8877L24.7006 21.9586H25.3868V17.1402H24.7619V20.5786Z" fill="white"/>
<path d="M11.3265 19.1833L10.4717 17.1402H9.80469L11.0007 19.9231V21.9586H11.6408V19.9116L12.8253 17.1402H12.1545L11.3265 19.1833Z" fill="white"/>
<path d="M44.0475 17.1402H43.4265V21.9586H44.0475V17.1402Z" fill="white"/>
<path d="M30.8121 17.1403H29.7886V21.9587H30.8121C31.3487 21.9587 31.7895 21.8168 32.0924 21.4412C32.3952 21.0655 32.5562 20.4637 32.5562 19.5476C32.5562 18.6314 32.3952 18.0296 32.0924 17.6539C31.7895 17.2783 31.3487 17.1364 30.8121 17.1403ZM30.6894 21.4182H30.4172V17.6731H30.6894C31.4829 17.6769 31.9237 17.9223 31.9314 19.5514C31.9237 21.1805 31.4829 21.4144 30.6894 21.422" fill="white"/>
<path d="M37.4012 17.1402V17.1594L36.2512 21.9548H36.8952L37.198 20.6016H38.463L38.7658 21.9586H39.4098L38.2675 17.144H37.3974L37.4012 17.1402ZM37.2939 20.0573L37.8305 17.6462L38.371 20.0573H37.2939Z" fill="white"/>
<path d="M5.52832 30.8592H9.21974V31.4572H5.52832V30.8592ZM6.20681 33.7303C5.93081 33.5003 5.79281 33.2359 5.79281 32.9369C5.79281 32.6187 5.93081 32.3504 6.21064 32.1357C6.49047 31.921 6.88146 31.8137 7.37978 31.8137C7.8781 31.8137 8.29593 31.921 8.56426 32.1357C8.82875 32.3504 8.96291 32.6149 8.96291 32.9369C8.96291 33.2589 8.82875 33.5042 8.56042 33.7342C8.2921 33.9603 7.89727 34.0753 7.37595 34.0753C6.85463 34.0753 6.48663 33.9603 6.21064 33.7303M6.44063 29.7974H8.31893V30.3877H6.44063V29.7974ZM6.50963 36.2565V34.4395H7.21112V35.6355H11.0405V36.2565H6.50963ZM8.0276 32.5114C7.9011 32.4002 7.68644 32.3465 7.38745 32.3465C7.08845 32.3465 6.87379 32.4002 6.74346 32.5114C6.61313 32.6225 6.54797 32.7605 6.54797 32.9292C6.54797 33.0979 6.61313 33.2282 6.73963 33.3355C6.86613 33.4428 7.08462 33.4965 7.38745 33.4965C7.69028 33.4965 7.89727 33.4428 8.0276 33.3394C8.15793 33.2359 8.21926 33.0979 8.21926 32.9292C8.21926 32.7605 8.1541 32.6187 8.0276 32.5114ZM10.2356 34.6733V33.2972H9.17758V32.6609H10.2356V31.9287H9.31557V31.3001H10.2356V29.8281H10.9179V34.6733H10.2356Z" fill="#231815"/>
<path d="M14.317 34.8956C14.1023 34.9147 13.8033 34.9301 13.4238 34.9416L12.2125 34.9569V30.6368H14.3706V31.2808H12.891V34.2938L13.6768 34.2861C13.8915 34.2823 14.1023 34.2708 14.3131 34.2516C14.5201 34.2324 14.6811 34.2171 14.7923 34.1941V34.8381C14.6926 34.8572 14.5316 34.8764 14.317 34.8994M16.5939 36.4097V32.9943H15.8158V36.1107H15.1488V29.9813H15.8158V32.312H16.5939V29.8318H17.2609V36.4097H16.5939Z" fill="#231815"/>
<path d="M20.7867 33.8414C20.6142 33.8606 20.4187 33.8798 20.2002 33.8951C19.9012 33.9181 19.5333 33.9334 19.0886 33.9373C18.6478 33.9373 18.4101 33.9411 18.3756 33.9411V31.8021H19.9281V30.817H18.3756V30.196H20.6181V32.4155H19.0618V33.3201H19.4604C19.7096 33.3201 19.9587 33.3124 20.2156 33.2971C20.4264 33.2818 20.6142 33.2626 20.7752 33.2396C20.9362 33.2166 21.0551 33.1974 21.1279 33.1783V33.7839C21.0704 33.8031 20.9516 33.8223 20.7791 33.8453M19.1078 36.2602V34.3244H19.7901V35.6316H23.6962V36.2602H19.1078ZM21.6377 34.5621V32.1931H20.8404V31.5261H21.6377V29.943H22.3047V34.5621H21.6377ZM22.9103 29.8318H23.5773V34.7001H22.9103V29.8318Z" fill="#231815"/>
<path d="M27.7558 33.0367C27.4607 33.0635 27.108 33.0827 26.7017 33.0942L24.7544 33.1095V30.2001H27.8363V30.7827H25.4444V31.3807H27.7673V31.9327H25.4444V32.5383L26.832 32.5307C27.1425 32.5192 27.4492 32.5038 27.7482 32.477C28.0472 32.454 28.2887 32.4233 28.4726 32.3888V32.9485C28.2887 32.9792 28.051 33.006 27.752 33.0328M25.3677 36.3256V34.7118H28.856V34.2173H25.3562V33.6423H29.592V35.2715H26.1037V35.7583H29.7338V36.3256H25.3677ZM29.592 31.8637V33.2935H28.9058V29.8244H29.592V31.2389H30.4583V31.8675H29.592V31.8637Z" fill="#231815"/>
<path d="M32.8227 31.7602C32.8496 31.5762 32.8687 31.419 32.8764 31.2849H31.2473V30.6486H33.6354C33.6277 31.3845 33.4514 32.2087 33.1141 33.1172C32.7729 34.0256 32.1826 34.754 31.3316 35.3021L30.8218 34.8766C31.1399 34.6888 31.4696 34.3898 31.8223 33.9835C32.1711 33.5772 32.3934 33.213 32.4777 32.8948C32.3781 32.914 32.2554 32.9293 32.1174 32.9447C31.9794 32.9562 31.8376 32.9638 31.6958 32.9638H31.0633V32.3428H31.9718C32.0906 32.3428 32.2209 32.3352 32.3627 32.3199C32.5046 32.3045 32.6196 32.293 32.7077 32.2815C32.7576 32.1129 32.7959 31.9365 32.8266 31.7564M34.3522 36.1033V33.0175H33.4782V32.3237H34.3522V29.9777H35.0192V36.1071H34.3522V36.1033ZM35.6325 29.8244H36.2995V36.4023H35.6325V29.8244Z" fill="#231815"/>
<path d="M41.7545 36.4023V33.0175H40.5777C40.5393 33.673 40.3783 34.1981 40.087 34.593C39.7957 34.984 39.4123 35.1795 38.9409 35.1795C38.4425 35.1795 38.0439 34.961 37.7449 34.5163C37.4459 34.0755 37.2964 33.4852 37.2964 32.7492C37.2964 32.0132 37.4459 31.4152 37.7449 30.9782C38.0439 30.5412 38.4425 30.3189 38.9409 30.3189C39.3932 30.3189 39.765 30.5029 40.0525 30.8632C40.34 31.2274 40.5087 31.7219 40.5662 32.3428H41.7545V29.8244H42.4406V36.4023H41.7545ZM39.6577 31.5034C39.4928 31.1507 39.2552 30.9744 38.9485 30.9744C38.6419 30.9744 38.4042 31.1507 38.2355 31.5072C38.0669 31.8599 37.9825 32.2739 37.9825 32.7415C37.9825 33.2092 38.0669 33.6347 38.2355 33.9873C38.4042 34.34 38.6419 34.5163 38.9485 34.5163C39.2552 34.5163 39.4928 34.34 39.6577 33.9873C39.8225 33.6347 39.9068 33.2207 39.9068 32.7415C39.9068 32.2624 39.8263 31.856 39.6577 31.5034Z" fill="#231815"/>
</g>
<defs>
<clipPath id="clip0_1385_196876">
<rect width="48" height="23.4058" fill="white" transform="translate(0 13)"/>
</clipPath>
</defs>
</svg>
