<svg width="48" height="48" viewBox="0 0 48 48" fill="none" xmlns="http://www.w3.org/2000/svg">
<g clip-path="url(#clip0_1385_196876)">
<path d="M42.613 33.131C42.48 33.18 42.459 33.159 42.403 33.068L42.13 32.578C42.067 32.473 42.081 32.403 42.165 32.368C43.53 31.864 44.237 31.087 44.363 29.848C44.384 29.743 44.398 29.701 44.531 29.708L45.196 29.75C45.364 29.771 45.378 29.792 45.357 29.925C45.35 30.058 45.336 30.177 45.315 30.296C45.574 31.22 46.505 31.927 47.506 32.221C47.625 32.256 47.625 32.305 47.569 32.41L47.317 32.928C47.296 32.956 47.289 32.977 47.282 32.991C47.275 33.012 47.261 33.019 47.254 33.019C47.233 33.033 47.198 33.033 47.142 33.019C46.323 32.83 45.392 32.207 44.888 31.43C44.405 32.221 43.572 32.802 42.613 33.131ZM47.884 34.951H41.871C41.752 34.951 41.731 34.888 41.731 34.804V34.3C41.731 34.195 41.752 34.153 41.871 34.153H47.884C47.982 34.153 48.031 34.202 48.031 34.3V34.804C48.031 34.902 47.982 34.951 47.884 34.951Z" fill="#575656"/>
<path d="M40.3281 36.141H39.6281C39.5231 36.141 39.4951 36.12 39.4951 36.008V29.561C39.4951 29.456 39.5231 29.428 39.6281 29.428H40.3281C40.4331 29.428 40.4611 29.456 40.4611 29.561V36.008C40.4611 36.12 40.4331 36.141 40.3281 36.141ZM37.9761 34.195H35.8341C35.3791 34.195 35.2881 34.111 35.2881 33.691V29.932C35.2881 29.841 35.3301 29.799 35.4141 29.799H36.1211C36.2121 29.799 36.2611 29.841 36.2611 29.932V31.318H37.5421V29.925C37.5421 29.834 37.5841 29.785 37.6751 29.785H38.3751C38.4661 29.785 38.5151 29.834 38.5151 29.925V33.712C38.5151 34.076 38.4031 34.195 37.9761 34.195ZM37.5421 33.299V32.109H36.2611V33.299C36.2611 33.369 36.2961 33.404 36.3661 33.404H37.4371C37.5071 33.404 37.5421 33.369 37.5421 33.299Z" fill="#575656"/>
<path d="M33.514 36.141H32.8C32.695 36.141 32.667 36.12 32.667 36.008V32.389H31.393C31.309 32.389 31.26 32.368 31.26 32.263V31.724C31.26 31.619 31.309 31.591 31.393 31.591H32.667V29.561C32.667 29.456 32.695 29.428 32.8 29.428H33.514C33.619 29.428 33.64 29.456 33.64 29.561V36.008C33.64 36.12 33.619 36.141 33.514 36.141ZM31.792 34.097L31.456 34.517C31.393 34.594 31.309 34.587 31.204 34.503C30.861 34.272 30.28 33.565 29.986 32.956C29.657 33.628 29.167 34.251 28.712 34.622C28.579 34.727 28.537 34.734 28.446 34.643L28.061 34.244C27.984 34.167 27.977 34.111 28.096 33.999C28.628 33.488 29.097 32.767 29.342 32.032C29.538 31.437 29.629 30.737 29.629 29.918C29.629 29.813 29.643 29.764 29.776 29.764L30.448 29.785C30.581 29.792 30.588 29.841 30.588 29.953C30.588 30.646 30.532 31.22 30.399 31.78C30.644 32.543 31.33 33.46 31.764 33.824C31.897 33.929 31.876 33.992 31.792 34.097Z" fill="#575656"/>
<path d="M26.3709 36.176H22.5909C22.1849 36.176 22.1009 36.057 22.1009 35.721V34.804C22.1009 34.454 22.1709 34.356 22.5839 34.356H25.3139C25.3559 34.356 25.3769 34.328 25.3769 34.279V34.111C25.3769 34.055 25.3559 34.027 25.3069 34.027H22.2339C22.1289 34.027 22.0869 33.999 22.0869 33.887V33.404C22.0869 33.313 22.1359 33.271 22.2339 33.271H25.8319C26.2519 33.271 26.3289 33.39 26.3289 33.719V34.629C26.3289 35 26.2659 35.077 25.8459 35.077H23.1369C23.0879 35.077 23.0599 35.098 23.0599 35.147V35.343C23.0599 35.392 23.0879 35.42 23.1439 35.42H26.3639C26.4689 35.42 26.5039 35.434 26.5039 35.553V36.036C26.5039 36.127 26.4619 36.176 26.3709 36.176ZM24.2429 31.549C23.6269 31.584 23.0109 31.598 22.4159 31.598V31.997C22.4159 32.067 22.4509 32.102 22.5279 32.102C23.2069 32.102 23.9279 32.088 24.7329 31.941C24.8729 31.92 24.8869 31.962 24.9079 32.039L24.9849 32.459C25.0059 32.592 24.9849 32.613 24.8799 32.634C24.0889 32.802 22.7449 32.886 21.9399 32.851C21.6039 32.844 21.4429 32.767 21.4429 32.375V30.023C21.4429 29.645 21.5409 29.589 21.9259 29.589H24.3269C24.4179 29.589 24.4669 29.631 24.4669 29.708V30.233C24.4669 30.31 24.4179 30.352 24.3269 30.352H22.5139C22.4229 30.352 22.4159 30.394 22.4159 30.45V30.835C23.0319 30.835 23.6339 30.828 24.2009 30.8C24.2779 30.793 24.3549 30.807 24.3549 30.898V31.381C24.3549 31.521 24.3199 31.542 24.2429 31.549ZM27.1899 31.605H26.3219V32.795C26.3219 32.9 26.3009 32.928 26.1959 32.928H25.4889C25.3839 32.928 25.3489 32.9 25.3489 32.795V29.561C25.3489 29.456 25.3839 29.428 25.4889 29.428H26.1959C26.3009 29.428 26.3219 29.456 26.3219 29.561V30.807H27.1899C27.2669 30.807 27.3299 30.821 27.3299 30.933V31.472C27.3299 31.577 27.2739 31.605 27.1899 31.605Z" fill="#575656"/>
<path d="M17.1349 33.327C16.5609 33.453 15.5739 33.537 14.8319 33.502C14.4399 33.481 14.3069 33.362 14.3069 33.005V31.654C14.3069 31.353 14.4259 31.255 14.7269 31.255H15.6439C15.7279 31.255 15.7419 31.241 15.7419 31.157V30.688C15.7419 30.604 15.7279 30.59 15.6439 30.59H14.4889C14.3979 30.59 14.3489 30.548 14.3489 30.457V29.925C14.3489 29.82 14.3839 29.799 14.4889 29.799H16.1969C16.6099 29.799 16.6729 29.918 16.6729 30.282V31.5C16.6729 31.892 16.5259 32.004 16.1899 32.004H15.3289C15.2659 32.004 15.2379 32.032 15.2379 32.095V32.648C15.2379 32.711 15.2729 32.739 15.3429 32.739C15.9659 32.76 16.4559 32.711 17.0229 32.599C17.1279 32.578 17.1489 32.62 17.1699 32.697L17.2399 33.166C17.2609 33.257 17.2259 33.306 17.1349 33.327ZM19.9909 36.029H15.9589C15.5669 36.029 15.4759 35.917 15.4759 35.525V34.104C15.4759 34.006 15.5249 33.957 15.6159 33.957H16.3019C16.3999 33.957 16.4489 34.006 16.4489 34.104V35.126C16.4489 35.196 16.4839 35.231 16.5609 35.231H19.9909C20.0679 35.231 20.1309 35.252 20.1309 35.357V35.903C20.1309 36.036 20.0679 36.029 19.9909 36.029ZM17.6739 32.011H17.0649C16.9739 32.011 16.9249 31.983 16.9249 31.878V31.353C16.9249 31.234 16.9879 31.234 17.0649 31.234H17.6739V29.673C17.6739 29.568 17.7089 29.54 17.8139 29.54H18.4719C18.5769 29.54 18.6049 29.568 18.6049 29.673V33.929C18.6049 34.034 18.5769 34.055 18.4719 34.055H17.8139C17.7089 34.055 17.6739 34.034 17.6739 33.929V32.011ZM19.8299 34.223H19.1369C19.0319 34.223 19.0039 34.195 19.0039 34.09V29.561C19.0039 29.47 19.0529 29.428 19.1439 29.428H19.8299C19.9349 29.428 19.9629 29.456 19.9629 29.561V34.09C19.9629 34.195 19.9349 34.223 19.8299 34.223Z" fill="#575656"/>
<path d="M12.904 36.141H12.197C12.092 36.141 12.071 36.12 12.071 36.015V32.739H11.518V35.756C11.518 35.875 11.497 35.882 11.392 35.882H10.734C10.629 35.882 10.601 35.875 10.601 35.756V29.68C10.601 29.575 10.629 29.554 10.734 29.554H11.392C11.497 29.554 11.518 29.575 11.518 29.68V31.948H12.071V29.554C12.071 29.449 12.099 29.428 12.204 29.428H12.904C13.009 29.428 13.03 29.449 13.03 29.554V36.015C13.03 36.12 13.009 36.141 12.904 36.141ZM10.139 34.097C9.50903 34.265 8.55003 34.293 7.91303 34.258C7.52103 34.237 7.33203 34.09 7.33203 33.705V30.401C7.33203 30.03 7.42303 29.953 7.81503 29.953H9.75403C9.85903 29.953 9.89403 29.974 9.89403 30.079V30.632C9.89403 30.737 9.85903 30.751 9.75403 30.751H8.38903C8.29803 30.751 8.29103 30.793 8.29103 30.849V33.348C8.29103 33.453 8.31203 33.467 8.42403 33.474C8.90003 33.502 9.50203 33.46 9.99903 33.355C10.118 33.334 10.146 33.348 10.167 33.453L10.251 33.943C10.272 34.048 10.244 34.069 10.139 34.097Z" fill="#575656"/>
<path d="M4.83694 33.481H4.17894C4.08794 33.481 4.03894 33.432 4.03894 33.341V32.865C4.03894 32.732 4.09494 32.732 4.17894 32.732H4.83694V32.249H4.17894C4.08794 32.249 4.03894 32.221 4.03894 32.116V31.633C4.03894 31.514 4.09494 31.5 4.17894 31.5H4.83694V29.561C4.83694 29.47 4.87894 29.428 4.96294 29.428H5.66994C5.76094 29.428 5.80294 29.47 5.80294 29.561V34.384C5.80294 34.489 5.77494 34.517 5.66994 34.517H4.96294C4.85794 34.517 4.83694 34.489 4.83694 34.384V33.481ZM2.29594 33.901C1.48394 33.901 0.783938 33.39 0.783938 32.683C0.783938 31.983 1.46294 31.472 2.30294 31.472C3.13594 31.472 3.82894 31.983 3.82894 32.683C3.82894 33.39 3.13594 33.901 2.29594 33.901ZM5.90794 36.029H2.13494C1.74294 36.029 1.65194 35.917 1.65194 35.525V34.419C1.65194 34.328 1.70094 34.279 1.79194 34.279H2.48494C2.57594 34.279 2.62494 34.328 2.62494 34.419V35.154C2.62494 35.224 2.65994 35.259 2.73694 35.259H5.90794C5.98494 35.259 6.04794 35.28 6.04794 35.385V35.903C6.04794 36.036 5.98494 36.029 5.90794 36.029ZM4.08794 31.262H0.482938C0.384938 31.262 0.335938 31.213 0.335938 31.108V30.674C0.335938 30.576 0.384938 30.527 0.489938 30.527H4.08794C4.18594 30.527 4.23494 30.576 4.23494 30.674V31.115C4.23494 31.213 4.18594 31.262 4.08794 31.262ZM3.18494 30.254H1.43494C1.35794 30.254 1.28794 30.24 1.28794 30.107V29.659C1.28794 29.526 1.35794 29.512 1.43494 29.512H3.18494C3.28994 29.512 3.33894 29.561 3.33894 29.666V30.1C3.33894 30.205 3.31794 30.254 3.18494 30.254ZM2.30294 32.165C1.91794 32.165 1.68694 32.41 1.68694 32.683C1.68694 32.963 1.93194 33.222 2.30294 33.222C2.68794 33.222 2.91894 32.963 2.91894 32.683C2.91894 32.41 2.68794 32.165 2.30294 32.165Z" fill="#575656"/>
<path fill-rule="evenodd" clip-rule="evenodd" d="M0 21.6925V14H2.57241V20.7235L2.57395 21.5532C2.63122 23.8655 5.07052 24.0636 5.07052 24.0636C7.65066 23.7665 7.61042 21.5532 7.61042 21.5532V14H10.1395V21.6925C9.8222 26.6717 4.96217 26.5927 4.96217 26.5927C0 26.5138 0 21.6925 0 21.6925ZM25.1886 21.6925V14H25.1902H27.761V20.7235L27.7626 21.5532C27.8198 23.8655 30.2591 24.0636 30.2591 24.0636C32.8393 23.7665 32.799 21.5532 32.799 21.5532V14H35.3281V21.6925C35.0108 26.6717 30.1508 26.5927 30.1508 26.5927C25.1886 26.5138 25.1886 21.6925 25.1886 21.6925ZM46.6532 14V14.0015H41.1416C37.8015 14.3823 37.8324 17.7518 37.8324 17.7518C37.8324 21.516 41.5564 21.4758 41.5564 21.4758H44.2433C45.2896 21.4943 45.3887 22.6211 45.3887 22.6211C45.4289 23.8454 44.2433 23.9445 44.2433 23.9445H38.4933V26.5138H44.4213C47.8171 26.1191 47.8001 22.7001 47.8001 22.7001C47.8001 19.1835 44.3021 18.9854 44.3021 18.9854H41.2793C40.2315 18.9854 40.2516 17.84 40.2516 17.84C40.2516 16.6746 41.3583 16.4966 41.3583 16.4966H46.6532V14.0015H46.6548L46.6532 14ZM22.7166 17.4855C22.7166 19.5007 21.48 20.2576 21.48 20.2576C22.921 21.4308 22.7043 22.8006 22.7043 22.8006C22.5464 26.5153 19.1088 26.5153 19.1088 26.5153H12.687V14.0015H19.3657C22.6068 14.2058 22.7166 17.4855 22.7166 17.4855ZM15.1573 24.0435H18.9509V24.0419C18.9509 24.0419 20.1365 24.045 20.2154 22.8764C20.2154 22.8764 20.2356 21.5531 19.1088 21.5531H15.1573V24.0435ZM15.1573 18.9853H18.9509V18.9838C18.9509 18.9838 20.1164 18.9915 20.2154 17.8183C20.2154 17.8183 20.2356 16.4949 19.1088 16.4949H15.1573V18.9853Z" fill="#104F9E"/>
</g>
<defs>
<clipPath id="clip0_1385_196876">
<rect width="48" height="48" fill="white"/>
</clipPath>
</defs>
</svg>
