<svg width="65" height="64" viewBox="0 0 65 64" fill="none" xmlns="http://www.w3.org/2000/svg">
<path d="M8.67188 15C8.67188 12.7909 10.4627 11 12.6719 11H33.6719C35.881 11 37.6719 12.7909 37.6719 15V39H8.67188V15Z" fill="#82A3D2"/>
<path d="M15.6719 11H19.6719V39H15.6719V11Z" fill="#5478AC"/>
<path d="M25.6719 11H29.6719V39H25.6719V11Z" fill="#5478AC"/>
<path d="M8.67188 39H56.6719C57.2242 39 57.6719 39.4477 57.6719 40V44C57.6719 44.5523 57.2242 45 56.6719 45H9.67187C9.11959 45 8.67188 44.5523 8.67188 44V39Z" fill="#424242"/>
<path d="M37.6719 16H47.5815C49.4018 16 50.9925 17.229 51.452 18.9903L53.6719 27.5V39H37.6719V16Z" fill="#06316F"/>
<path d="M40.6719 20C40.6719 19.4477 41.1196 19 41.6719 19H47.8156C48.2708 19 48.6686 19.3075 48.7833 19.748L50.3458 25.748C50.5108 26.3815 50.0327 27 49.3781 27H41.6719C41.1196 27 40.6719 26.5523 40.6719 26V20Z" fill="#5478AC"/>
<circle cx="19.1719" cy="48.5" r="6.5" fill="#666666"/>
<circle cx="47.1719" cy="48.5" r="6.5" fill="#666666"/>
<circle cx="19.1719" cy="48.5" r="3.5" fill="#424242"/>
<circle cx="47.1719" cy="48.5" r="3.5" fill="#424242"/>
</svg>
