<svg width="24" height="24" viewBox="0 0 24 24" fill="none" xmlns="http://www.w3.org/2000/svg">
<path d="M22 12C22 17.5228 17.5228 22 12 22C6.47715 22 2 17.5228 2 12C2 6.47715 6.47715 2 12 2C17.5228 2 22 6.47715 22 12Z" fill="#2AD6CE"/>
<path d="M11 11.6667C11 11.0223 11.4477 10.5 12 10.5C12.5523 10.5 13 11.0223 13 11.6667V16.3333C13 16.9777 12.5523 17.5 12 17.5C11.4477 17.5 11 16.9777 11 16.3333V11.6667Z" fill="white"/>
<path d="M10.75 7.75C10.75 7.05964 11.3096 6.5 12 6.5C12.6904 6.5 13.25 7.05964 13.25 7.75C13.25 8.44036 12.6904 9 12 9C11.3096 9 10.75 8.44036 10.75 7.75Z" fill="white"/>
</svg>
