<svg width="60" height="60" viewBox="0 0 60 60" fill="none" xmlns="http://www.w3.org/2000/svg">
<rect width="60" height="60" rx="20" fill="#F5F6F6"/>
<path fill-rule="evenodd" clip-rule="evenodd" d="M20.2222 12.8887C18.1972 12.8887 16.5555 14.5303 16.5555 16.5553V43.4442C16.5555 45.4693 18.1972 47.1109 20.2222 47.1109H39.7778C41.8028 47.1109 43.4444 45.4693 43.4444 43.4442V22.6664L33.6667 12.8887H20.2222Z" fill="#DCEAFC"/>
<path fill-rule="evenodd" clip-rule="evenodd" d="M36.1111 22.6665H43.4444L33.6666 12.8887V20.222C33.6666 21.572 34.761 22.6665 36.1111 22.6665Z" fill="#B8CAE1"/>
<path d="M21 30C21 29.4477 21.5698 29 22.2727 29H33.7273C34.4302 29 35 29.4477 35 30C35 30.5523 34.4302 31 33.7273 31H22.2727C21.5698 31 21 30.5523 21 30Z" fill="#A1B3C9"/>
<path d="M21 24C21 23.4477 21.5596 23 22.25 23H29.75C30.4404 23 31 23.4477 31 24C31 24.5523 30.4404 25 29.75 25H22.25C21.5596 25 21 24.5523 21 24Z" fill="#A1B3C9"/>
<path d="M50 41C50 45.9706 45.9706 50 41 50C36.0294 50 32 45.9706 32 41C32 36.0294 36.0294 32 41 32C45.9706 32 50 36.0294 50 41Z" fill="#2AD6CE"/>
<path d="M40.4491 36.3684C40.6659 35.8772 41.3341 35.8772 41.5509 36.3684L42.5695 38.6759C42.6579 38.8761 42.8395 39.014 43.049 39.0399L45.464 39.3391C45.9781 39.4028 46.1846 40.0668 45.8045 40.4341L44.019 42.1595C43.8641 42.3091 43.7948 42.5322 43.8359 42.7485L44.3098 45.2409C44.4107 45.7715 43.8702 46.1818 43.4184 45.9176L41.2963 44.6764C41.1122 44.5687 40.8878 44.5687 40.7037 44.6764L38.5816 45.9176C38.1298 46.1818 37.5893 45.7715 37.6902 45.2409L38.1641 42.7485C38.2052 42.5322 38.1359 42.3091 37.981 42.1595L36.1955 40.4341C35.8154 40.0668 36.0219 39.4028 36.536 39.3391L38.951 39.0399C39.1605 39.014 39.3421 38.8761 39.4305 38.6759L40.4491 36.3684Z" fill="white"/>
</svg>
