<svg width="24" height="24" viewBox="0 0 24 24" fill="none" xmlns="http://www.w3.org/2000/svg">
<path d="M22 12C22 17.5228 17.5228 22 12 22C6.47715 22 2 17.5228 2 12C2 6.47715 6.47715 2 12 2C17.5228 2 22 6.47715 22 12Z" fill="#9E9E9E"/>
<path d="M13 17C13 17.5523 12.5523 18 12 18C11.4477 18 11 17.5523 11 17L11 11C11 10.4477 11.4477 10 12 10C12.5523 10 13 10.4477 13 11L13 17Z" fill="white"/>
<path d="M13.25 7.25C13.25 7.94036 12.6904 8.5 12 8.5C11.3096 8.5 10.75 7.94036 10.75 7.25C10.75 6.55964 11.3096 6 12 6C12.6904 6 13.25 6.55964 13.25 7.25Z" fill="white"/>
</svg>
