<svg width="24" height="24" viewBox="0 0 24 24" fill="none" xmlns="http://www.w3.org/2000/svg">
<path d="M10.7518 3.18262V7.77542H9.91668V3.18262H10.7518ZM8.81403 7.4726C7.97082 7.19501 7.35463 6.60619 7.03032 5.85755C6.70601 6.66507 6.08982 7.28754 5.21419 7.6156L4.77637 6.93425C5.93578 6.53048 6.5925 5.5379 6.5925 4.52008V4.37708H5.00338V3.67891H9.00861V4.37708H7.44382V4.52008C7.44382 5.49584 8.10865 6.42113 9.23563 6.79966L8.81403 7.4726ZM5.81416 8.15395H10.7518V10.7868H9.91668V8.85212H5.81416V8.15395Z" fill="#666666"/>
<path d="M19.2237 3.19103V7.33801H18.3805V5.6809H17.0914V4.9659H18.3805V3.19103H19.2237ZM17.0995 7.30436C16.2887 7.00154 15.705 6.41272 15.3888 5.67249C15.0645 6.48843 14.4564 7.15295 13.5807 7.46419L13.151 6.78284C14.2861 6.37907 14.951 5.36967 14.951 4.35185V4.30138H13.4024V3.59479H17.3184V4.30138H15.7942V4.34344C15.7942 5.29396 16.4104 6.21925 17.513 6.62301L17.0995 7.30436ZM18.3886 7.67448H19.2237V10.6943H14.4645V7.67448H15.2915V8.49883H18.3886V7.67448ZM18.3886 9.18018H15.2915V9.99612H18.3886V9.18018Z" fill="#666666"/>
<path d="M10.7518 13.205V17.2847H9.91668V13.205H10.7518ZM6.8033 13.5498C7.92217 13.5498 8.74106 14.2733 8.74106 15.3163C8.74106 16.3594 7.92217 17.0828 6.8033 17.0828C5.67633 17.0828 4.85744 16.3594 4.85744 15.3163C4.85744 14.2733 5.67633 13.5498 6.8033 13.5498ZM6.8033 14.2648C6.12225 14.2648 5.67633 14.677 5.67633 15.3163C5.67633 15.9556 6.12225 16.3678 6.8033 16.3678C7.46003 16.3678 7.93028 15.9556 7.93028 15.3163C7.93028 14.677 7.46003 14.2648 6.8033 14.2648ZM6.7952 17.6379V18.4791H9.92479V17.6379H10.7518V20.7082H5.96821V17.6379H6.7952ZM6.7952 20.0101H9.92479V19.1521H6.7952V20.0101Z" fill="#666666"/>
<path d="M19.2237 13.205V17.8819H18.3886V16.5865H17.0752V15.8883H18.3886V14.9967H17.0752V14.2985H18.3886V13.205H19.2237ZM17.0509 17.4192C16.1833 17.5791 15.405 17.6043 13.9861 17.6043H13.451V15.249H15.7861V14.3406H13.4348V13.6424H16.613V15.9135H14.2699V16.8977C15.5023 16.8977 16.1671 16.8557 16.9617 16.7211L17.0509 17.4192ZM14.2699 18.2604H19.2237V20.8176H18.3886V18.967H14.2699V18.2604Z" fill="#666666"/>
</svg>
