<svg width="48" height="49" viewBox="0 0 48 49" fill="none" xmlns="http://www.w3.org/2000/svg">
<mask id="mask0_4608_42379" style="mask-type:alpha" maskUnits="userSpaceOnUse" x="6" y="6" width="36" height="36">
<path d="M6 6.99976H42V41.9998H6V6.99976Z" fill="#D9D9D9"/>
</mask>
<g mask="url(#mask0_4608_42379)">
<path d="M40.1861 38.2128L36.2569 34.2837L33.8326 36.708L37.7617 40.6372C35.4766 41.8571 32.5409 41.4773 30.5783 39.5147C28.1856 37.122 28.1455 33.2829 30.4886 30.9397C32.8318 28.5966 36.6709 28.6367 39.0636 31.0294C41.0262 32.992 41.406 35.9277 40.1861 38.2128Z" fill="#AFC3DC"/>
<path d="M10.2369 8.26312L14.166 12.1923L11.7417 14.6166L7.81251 10.6875C6.5926 12.9726 6.97242 15.9083 8.93499 17.8709C11.3277 20.2636 15.1668 20.3037 17.51 17.9606C19.8531 15.6174 19.813 11.7783 17.4203 9.3856C15.4577 7.42304 12.522 7.04322 10.2369 8.26312Z" fill="#AFC3DC"/>
<path d="M18.6601 14.8689C17.4886 13.6973 15.5891 13.6973 14.4175 14.8689C13.2459 16.0405 13.2459 17.9399 14.4175 19.1115L29.2667 33.9608C30.4383 35.1323 32.3378 35.1323 33.5094 33.9608C34.681 32.7892 34.681 30.8897 33.5094 29.7181L18.6601 14.8689Z" fill="#AFC3DC"/>
<path d="M35.0193 8.14132C35.4157 7.87988 35.9413 7.93323 36.277 8.26899L39.3661 11.3581C39.7019 11.6938 39.7552 12.2194 39.4938 12.6158L35.1376 19.2202C34.789 19.7487 34.0433 19.8244 33.5957 19.3767L28.2584 14.0394C27.8107 13.5918 27.8864 12.8461 28.4149 12.4975L35.0193 8.14132Z" fill="#AFC3DC"/>
<path d="M22.8828 27.574L27.1172 23.3201L25.2684 29.9654L22.8828 27.574Z" fill="#93ACCA"/>
<path d="M32.3253 12.4816C33.1063 11.7005 34.3727 11.7005 35.1537 12.4816C35.9348 13.2626 35.9348 14.529 35.1537 15.31L18.1832 32.2806C17.4021 33.0616 16.1358 33.0616 15.3547 32.2806C14.5737 31.4995 14.5737 30.2332 15.3547 29.4522L32.3253 12.4816Z" fill="#AFC3DC"/>
<path d="M13.956 28.0223C14.3465 27.6318 14.9797 27.6318 15.3702 28.0223L19.6128 32.2649C20.0034 32.6555 20.0034 33.2886 19.6128 33.6791L13.2489 40.0431C11.6868 41.6052 9.15412 41.6052 7.59202 40.0431C6.02992 38.481 6.02992 35.9484 7.59202 34.3863L13.956 28.0223Z" fill="#2AD6CE"/>
</g>
</svg>
