<svg width="48" height="48" viewBox="0 0 48 48" fill="none" xmlns="http://www.w3.org/2000/svg">
<mask id="mask0_4608_42379" style="mask-type:alpha" maskUnits="userSpaceOnUse" x="6" y="6" width="36" height="36">
<path d="M6 6.5H42V41.5H6V6.5Z" fill="#D9D9D9"/>
</mask>
<g mask="url(#mask0_4608_42379)">
<path d="M40.1861 37.7131L36.2569 33.7839L33.8326 36.2083L37.7617 40.1374C35.4766 41.3573 32.5409 40.9775 30.5783 39.015C28.1856 36.6223 28.1455 32.7831 30.4886 30.44C32.8318 28.0968 36.6709 28.137 39.0636 30.5297C41.0262 32.4922 41.406 35.428 40.1861 37.7131Z" fill="#AFC3DC"/>
<path d="M10.2369 7.76337L14.166 11.6925L11.7417 14.1169L7.81251 10.1877C6.5926 12.4728 6.97242 15.4086 8.93499 17.3711C11.3277 19.7638 15.1668 19.804 17.51 17.4608C19.8531 15.1177 19.813 11.2785 17.4203 8.88585C15.4577 6.92328 12.522 6.54346 10.2369 7.76337Z" fill="#AFC3DC"/>
<path d="M18.6601 14.3691C17.4886 13.1976 15.5891 13.1976 14.4175 14.3691C13.2459 15.5407 13.2459 17.4402 14.4175 18.6118L29.2667 33.461C30.4383 34.6326 32.3378 34.6326 33.5094 33.461C34.681 32.2894 34.681 30.3899 33.5094 29.2184L18.6601 14.3691Z" fill="#AFC3DC"/>
<path d="M35.7264 8.3486C36.1227 8.08716 36.6483 8.1405 36.9841 8.47626L38.6589 10.1511C38.9947 10.4869 39.048 11.0124 38.7866 11.4088L34.4304 18.0133C34.0818 18.5417 33.3362 18.6174 32.8885 18.1698L28.9654 14.2467C28.5178 13.799 28.5935 13.0533 29.1219 12.7048L35.7264 8.3486Z" fill="#AFC3DC"/>
<path d="M32.325 11.9816C33.1061 11.2005 34.3724 11.2005 35.1535 11.9816C35.9345 12.7626 35.9345 14.029 35.1535 14.81L18.1829 31.7806C17.4019 32.5616 16.1355 32.5616 15.3545 31.7806C14.5734 30.9995 14.5734 29.7332 15.3545 28.9522L32.325 11.9816Z" fill="#AFC3DC"/>
<path d="M13.956 27.5225C14.3465 27.132 14.9797 27.132 15.3702 27.5225L19.6128 31.7652C20.0034 32.1557 20.0034 32.7889 19.6128 33.1794L13.2489 39.5434C11.6868 41.1054 9.15412 41.1054 7.59202 39.5434C6.02992 37.9813 6.02992 35.4486 7.59202 33.8865L13.956 27.5225Z" fill="#0168FE"/>
</g>
</svg>
