<svg width="48" height="48" viewBox="0 0 48 48" fill="none" xmlns="http://www.w3.org/2000/svg">
<path d="M40.1861 37.7131L36.2569 33.7839L33.8326 36.2083L37.7617 40.1374C35.4766 41.3573 32.5409 40.9775 30.5783 39.015C28.1856 36.6223 28.1455 32.7831 30.4886 30.44C32.8318 28.0968 36.6709 28.137 39.0636 30.5297C41.0262 32.4922 41.406 35.428 40.1861 37.7131Z" fill="#AFC3DC"/>
<path d="M10.2369 7.76337L14.166 11.6925L11.7417 14.1169L7.81251 10.1877C6.5926 12.4728 6.97242 15.4086 8.93499 17.3711C11.3277 19.7638 15.1668 19.804 17.51 17.4608C19.8531 15.1177 19.813 11.2785 17.4203 8.88585C15.4577 6.92328 12.522 6.54346 10.2369 7.76337Z" fill="#AFC3DC"/>
<path d="M18.6601 14.3691C17.4886 13.1976 15.5891 13.1976 14.4175 14.3691C13.2459 15.5407 13.2459 17.4402 14.4175 18.6118L29.2667 33.461C30.4383 34.6326 32.3378 34.6326 33.5094 33.461C34.681 32.2894 34.681 30.3899 33.5094 29.2184L18.6601 14.3691Z" fill="#AFC3DC"/>
<path d="M35.0193 7.64157C35.4157 7.38013 35.9413 7.43347 36.277 7.76923L39.3661 10.8583C39.7019 11.1941 39.7552 11.7196 39.4938 12.116L35.1376 18.7205C34.789 19.2489 34.0433 19.3246 33.5957 18.877L28.2584 13.5396C27.8107 13.092 27.8864 12.3463 28.4149 11.9978L35.0193 7.64157Z" fill="#AFC3DC"/>
<path d="M22.8828 27.0742L27.1172 22.8203L25.2684 29.4657L22.8828 27.0742Z" fill="#93ACCA"/>
<path d="M32.3253 11.9818C33.1063 11.2008 34.3727 11.2008 35.1537 11.9818C35.9348 12.7629 35.9348 14.0292 35.1537 14.8103L18.1832 31.7808C17.4021 32.5619 16.1358 32.5619 15.3547 31.7808C14.5737 30.9998 14.5737 29.7335 15.3547 28.9524L32.3253 11.9818Z" fill="#AFC3DC"/>
<path d="M13.956 27.5225C14.3465 27.132 14.9797 27.132 15.3702 27.5225L19.6128 31.7652C20.0034 32.1557 20.0034 32.7889 19.6128 33.1794L13.2489 39.5434C11.6868 41.1054 9.15412 41.1054 7.59202 39.5434C6.02992 37.9813 6.02992 35.4486 7.59202 33.8865L13.956 27.5225Z" fill="#2AD6CE"/>
</svg>
