<svg width="44" height="44" viewBox="0 0 44 44" fill="none" xmlns="http://www.w3.org/2000/svg">
<path fill-rule="evenodd" clip-rule="evenodd" d="M21.9948 16.8047C22.8386 16.8047 23.5226 17.4887 23.5226 18.3324V35.4434C23.5226 37.6371 21.7441 39.4155 19.5503 39.4155C17.3566 39.4155 15.5781 37.6371 15.5781 35.4434C15.5781 34.5996 16.2621 33.9156 17.1059 33.9156C17.9497 33.9156 18.6337 34.5996 18.6337 35.4434C18.6337 35.9496 19.0441 36.36 19.5503 36.36C20.0566 36.36 20.467 35.9496 20.467 35.4434V18.3324C20.467 17.4887 21.151 16.8047 21.9948 16.8047Z" fill="#82A3D2"/>
<path d="M21.9974 5.5C11.8722 5.5 3.66406 13.708 3.66406 23.8331C7.01889 21.008 11.9203 21.008 15.2752 23.8331L15.4356 23.731C19.4392 21.1833 24.5556 21.1833 28.5592 23.731L28.7196 23.8331C32.0744 21.008 36.9759 21.008 40.3307 23.8331C40.3307 13.708 32.1226 5.5 21.9974 5.5Z" fill="#D1E1F1"/>
<path d="M28.7222 23.8331C32.0771 21.008 36.9785 21.008 40.3333 23.8331C40.3333 13.708 32.1252 5.5 22 5.5C25.7126 5.5 28.7222 13.708 28.7222 23.8331Z" fill="#0168FE"/>
<path d="M15.2778 23.8331C11.9229 21.008 7.0215 21.008 3.66667 23.8331C3.66667 13.708 11.8748 5.5 22 5.5C18.2874 5.5 15.2778 13.708 15.2778 23.8331Z" fill="#89B1FE"/>
</svg>
