<svg width="36" height="36" viewBox="0 0 36 36" fill="none" xmlns="http://www.w3.org/2000/svg">
<path fill-rule="evenodd" clip-rule="evenodd" d="M18 13.75C18.6904 13.75 19.25 14.3096 19.25 15V29C19.25 30.7949 17.7949 32.25 16 32.25C14.2051 32.25 12.75 30.7949 12.75 29C12.75 28.3096 13.3096 27.75 14 27.75C14.6904 27.75 15.25 28.3096 15.25 29C15.25 29.4142 15.5858 29.75 16 29.75C16.4142 29.75 16.75 29.4142 16.75 29V15C16.75 14.3096 17.3096 13.75 18 13.75Z" fill="#7F96B7"/>
<g style="mix-blend-mode:multiply" opacity="0.2">
<mask id="mask0_4905_40273" style="mask-type:alpha" maskUnits="userSpaceOnUse" x="12" y="13" width="8" height="20">
<path fill-rule="evenodd" clip-rule="evenodd" d="M18 13.75C18.6904 13.75 19.25 14.3096 19.25 15V29C19.25 30.7949 17.7949 32.25 16 32.25C14.2051 32.25 12.75 30.7949 12.75 29C12.75 28.3096 13.3096 27.75 14 27.75C14.6904 27.75 15.25 28.3096 15.25 29C15.25 29.4142 15.5858 29.75 16 29.75C16.4142 29.75 16.75 29.4142 16.75 29V15C16.75 14.3096 17.3096 13.75 18 13.75Z" fill="#7F96B7"/>
</mask>
<g mask="url(#mask0_4905_40273)">
<path d="M20.5206 20.3105L16.2881 18.6127L15.8931 17.0166L20.5206 16.636V20.3105Z" fill="black"/>
</g>
</g>
<path d="M18 4.5C9.71573 4.5 3 11.2157 3 19.5C5.74486 17.1885 9.75514 17.1885 12.5 19.5L12.6312 19.4165C15.9069 17.332 20.0931 17.332 23.3688 19.4165L23.5 19.5C26.2449 17.1885 30.2551 17.1885 33 19.5C33 11.2157 26.2843 4.5 18 4.5Z" fill="#BED1EC"/>
<path d="M23.5 19.5C26.2449 17.1885 30.2551 17.1885 33 19.5C33 11.2157 26.2843 4.5 18 4.5C21.0376 4.5 23.5 11.2157 23.5 19.5Z" fill="#074093"/>
<path d="M12.5 19.5C9.75514 17.1885 5.74486 17.1885 3 19.5C3 11.2157 9.71573 4.5 18 4.5C14.9624 4.5 12.5 11.2157 12.5 19.5Z" fill="#295697"/>
</svg>
