<svg width="37" height="37" viewBox="0 0 37 37" fill="none" xmlns="http://www.w3.org/2000/svg">
<path d="M12.4229 4.96334C12.4229 4.34622 12.9426 3.84595 13.5838 3.84595H22.6391C23.2802 3.84595 23.8 4.34622 23.8 4.96334V6.19248C23.8 9.21638 21.2531 11.6677 18.1114 11.6677V11.6677C14.9697 11.6677 12.4229 9.21638 12.4229 6.19248V4.96334Z" fill="#00A69E"/>
<path d="M4.60107 22.9658C4.60107 15.5478 10.6499 9.53442 18.1114 9.53442V9.53442C25.573 9.53442 31.6218 15.5478 31.6218 22.9658V28.8756C31.6218 31.546 29.4442 33.7108 26.7581 33.7108H9.4648C6.77864 33.7108 4.60107 31.546 4.60107 28.8756V22.9658Z" fill="#00CBC1"/>
<path fill-rule="evenodd" clip-rule="evenodd" d="M10.2896 22.8076C10.2896 22.2258 10.7612 21.7542 11.343 21.7542L13.4498 21.7542C14.0316 21.7542 14.5032 22.2258 14.5032 22.8076C14.5032 23.3893 14.0316 23.861 13.4498 23.861L11.343 23.861C10.7612 23.861 10.2896 23.3893 10.2896 22.8076Z" fill="white"/>
<path fill-rule="evenodd" clip-rule="evenodd" d="M21.877 22.8076C21.877 22.2258 22.3486 21.7542 22.9304 21.7542L25.0372 21.7542C25.619 21.7542 26.0906 22.2258 26.0906 22.8076C26.0906 23.3893 25.619 23.861 25.0372 23.861L22.9304 23.861C22.3486 23.861 21.877 23.3893 21.877 22.8076Z" fill="white"/>
<path fill-rule="evenodd" clip-rule="evenodd" d="M12.615 18.1136C13.1713 17.9433 13.7603 18.2562 13.9306 18.8125L15.3225 23.3595L17.2151 18.7227C17.3768 18.3264 17.7623 18.0674 18.1903 18.0674C18.6184 18.0674 19.0039 18.3264 19.1656 18.7227L21.0582 23.3595L22.4501 18.8125C22.6204 18.2562 23.2094 17.9433 23.7657 18.1136C24.322 18.2839 24.6349 18.8729 24.4647 19.4292L22.2074 26.803C22.077 27.229 21.6927 27.5269 21.2477 27.547C20.8027 27.5671 20.3931 27.3052 20.2248 26.8928L18.1903 21.9084L16.1559 26.8928C15.9876 27.3052 15.578 27.5671 15.133 27.547C14.688 27.5269 14.3037 27.229 14.1733 26.803L11.916 19.4292C11.7458 18.8729 12.0587 18.2839 12.615 18.1136Z" fill="white"/>
</svg>
