<svg width="44" height="44" viewBox="0 0 44 44" fill="none" xmlns="http://www.w3.org/2000/svg">
<path d="M17.7227 9.95249C17.7227 9.18104 18.2015 8.55566 18.7921 8.55566H25.2088C25.7994 8.55566 26.2782 9.18104 26.2782 9.95249V36.4922C26.2782 37.2636 25.7994 37.889 25.2088 37.889H18.7921C18.2015 37.889 17.7227 37.2636 17.7227 36.4922V9.95249Z" fill="#428FFF"/>
<path d="M6.72266 24.4449C6.72266 23.7699 7.26986 23.2227 7.94488 23.2227H14.056C14.731 23.2227 15.2782 23.7699 15.2782 24.4449V36.6671C15.2782 37.3421 14.731 37.8893 14.056 37.8893H7.94488C7.26986 37.8893 6.72266 37.3421 6.72266 36.6671V24.4449Z" fill="#0168FE"/>
<path d="M28.7227 19.5552C28.7227 18.8802 29.2699 18.333 29.9449 18.333H36.056C36.731 18.333 37.2782 18.8802 37.2782 19.5552V36.6663C37.2782 37.3414 36.731 37.8886 36.056 37.8886H29.9449C29.2699 37.8886 28.7227 37.3414 28.7227 36.6663V19.5552Z" fill="#0168FE"/>
<path fill-rule="evenodd" clip-rule="evenodd" d="M35.1673 7.78183C35.5944 8.3045 35.517 9.07448 34.9944 9.50164L22.2825 19.8905C21.8125 20.2746 21.1319 20.2556 20.684 19.8459L15.5821 15.1776L9.43885 21.6209C8.97305 22.1094 8.19941 22.1279 7.71086 21.6621C7.22231 21.1963 7.20387 20.4226 7.66966 19.9341L14.6392 12.6241C15.0982 12.1427 15.858 12.1168 16.3488 12.5658L21.5542 17.3288L33.4475 7.60889C33.9702 7.18174 34.7401 7.25916 35.1673 7.78183Z" fill="#435062"/>
<path d="M36.3566 6.25121C36.7942 6.21578 37.1252 6.63953 36.985 7.05553L34.7645 13.6435C34.6091 14.1045 34.0034 14.2079 33.7039 13.8245L28.9952 7.79763C28.6956 7.41422 28.9424 6.85152 29.4274 6.81226L36.3566 6.25121Z" fill="#435062"/>
</svg>
