<svg width="36" height="36" viewBox="0 0 36 36" fill="none" xmlns="http://www.w3.org/2000/svg">
<path d="M12.75 4.82143C12.75 4.22969 13.2297 3.75 13.8214 3.75H22.1786C22.7703 3.75 23.25 4.22969 23.25 4.82143V6C23.25 8.89949 20.8995 11.25 18 11.25V11.25C15.1005 11.25 12.75 8.89949 12.75 6V4.82143Z" fill="#00A69E"/>
<path d="M5.5 22.25C5.5 15.3464 11.0964 9.75 18 9.75V9.75C24.9036 9.75 30.5 15.3464 30.5 22.25V27.75C30.5 30.2353 28.4853 32.25 26 32.25H10C7.51472 32.25 5.5 30.2353 5.5 27.75V22.25Z" fill="#00CBC1"/>
<path fill-rule="evenodd" clip-rule="evenodd" d="M10.5 21.75C10.5 21.1977 10.9477 20.75 11.5 20.75L13.5 20.75C14.0523 20.75 14.5 21.1977 14.5 21.75C14.5 22.3023 14.0523 22.75 13.5 22.75L11.5 22.75C10.9477 22.75 10.5 22.3023 10.5 21.75Z" fill="white"/>
<path fill-rule="evenodd" clip-rule="evenodd" d="M21.5 21.75C21.5 21.1977 21.9477 20.75 22.5 20.75L24.5 20.75C25.0523 20.75 25.5 21.1977 25.5 21.75C25.5 22.3023 25.0523 22.75 24.5 22.75L22.5 22.75C21.9477 22.75 21.5 22.3023 21.5 21.75Z" fill="white"/>
<path fill-rule="evenodd" clip-rule="evenodd" d="M12.7073 17.2938C13.2354 17.1322 13.7946 17.4292 13.9562 17.9573L15.2776 22.2738L17.0742 17.8721C17.2277 17.4959 17.5937 17.25 18 17.25C18.4064 17.25 18.7723 17.4959 18.9259 17.8721L20.7225 22.2738L22.0438 17.9573C22.2055 17.4292 22.7646 17.1322 23.2927 17.2938C23.8208 17.4555 24.1179 18.0146 23.9562 18.5427L21.8134 25.5427C21.6896 25.9471 21.3248 26.2299 20.9024 26.249C20.4799 26.2681 20.0911 26.0194 19.9313 25.6279L18 20.8962L16.0687 25.6279C15.9089 26.0194 15.5201 26.2681 15.0977 26.249C14.6752 26.2299 14.3105 25.9471 14.1867 25.5427L12.0438 18.5427C11.8822 18.0146 12.1792 17.4555 12.7073 17.2938Z" fill="white"/>
</svg>
