<svg width="64" height="64" viewBox="0 0 64 64" fill="none" xmlns="http://www.w3.org/2000/svg">
<path d="M4.66699 18.6666C4.66699 16.0893 6.75632 14 9.33364 14H47.6668C50.2441 14 52.3335 16.0893 52.3335 18.6666V46.6665C52.3335 49.2438 50.2441 51.3332 47.6668 51.3332H9.33364C6.75632 51.3332 4.66699 49.2438 4.66699 46.6665V18.6666Z" fill="#20C7BF"/>
<path fill-rule="evenodd" clip-rule="evenodd" d="M18.166 24.6014C19.077 24.2787 20.0772 24.7557 20.3998 25.6667L23.7085 35.009L27.0173 25.6667C27.2647 24.968 27.9256 24.501 28.6668 24.501C29.4081 24.501 30.069 24.968 30.3164 25.6667L33.6252 35.009L36.9339 25.6667C37.2565 24.7557 38.2567 24.2787 39.1677 24.6014C40.0787 24.924 40.5557 25.9241 40.2331 26.8352L35.2748 40.8351C35.0273 41.5339 34.3664 42.0009 33.6252 42.0009C32.8839 42.0009 32.223 41.5339 31.9756 40.8351L28.6668 31.4929L25.3581 40.8351C25.1107 41.5339 24.4498 42.0009 23.7085 42.0009C22.9673 42.0009 22.3064 41.5339 22.0589 40.8351L17.1006 26.8352C16.778 25.9241 17.255 24.924 18.166 24.6014Z" fill="white"/>
<path fill-rule="evenodd" clip-rule="evenodd" d="M14.0825 32.6672C14.0825 31.7007 14.866 30.9172 15.8325 30.9172L19.3325 30.9172C20.299 30.9172 21.0825 31.7007 21.0825 32.6672C21.0825 33.6337 20.299 34.4172 19.3325 34.4172L15.8325 34.4172C14.866 34.4172 14.0825 33.6337 14.0825 32.6672Z" fill="white"/>
<path fill-rule="evenodd" clip-rule="evenodd" d="M36.2495 32.6672C36.2495 31.7007 37.033 30.9172 37.9995 30.9172L41.4995 30.9172C42.466 30.9172 43.2495 31.7007 43.2495 32.6672C43.2495 33.6337 42.466 34.4172 41.4995 34.4172L37.9995 34.4172C37.033 34.4172 36.2495 33.6337 36.2495 32.6672Z" fill="white"/>
<path d="M40.667 40.8611C40.667 39.6338 41.6619 38.6389 42.8892 38.6389H58.4448C59.6721 38.6389 60.667 39.6338 60.667 40.8611V55.3056C60.667 56.5329 59.6721 57.5278 58.4448 57.5278H42.8892C41.6619 57.5278 40.667 56.5329 40.667 55.3056V40.8611Z" fill="white"/>
<path d="M44.0002 38.0833C44.0002 37.4696 44.4977 36.9722 45.1114 36.9722C45.725 36.9722 46.2225 37.4696 46.2225 38.0833V40.8611C46.2225 41.4747 45.725 41.9722 45.1114 41.9722C44.4977 41.9722 44.0002 41.4747 44.0002 40.8611V38.0833Z" fill="#09203E"/>
<path d="M55.1113 38.0833C55.1113 37.4696 55.6088 36.9722 56.2224 36.9722C56.8361 36.9722 57.3336 37.4696 57.3336 38.0833V40.8611C57.3336 41.4747 56.8361 41.9722 56.2224 41.9722C55.6088 41.9722 55.1113 41.4747 55.1113 40.8611V38.0833Z" fill="#09203E"/>
<path fill-rule="evenodd" clip-rule="evenodd" d="M55.908 45.6422C56.3358 46.0822 56.3258 46.7857 55.8859 47.2134L50.1716 52.769C49.7403 53.1883 49.0538 53.1883 48.6225 52.769L45.4479 49.6826C45.0079 49.2548 44.998 48.5514 45.4258 48.1114C45.8535 47.6714 46.557 47.6615 46.997 48.0893L49.397 50.4227L54.3368 45.6201C54.7768 45.1924 55.4802 45.2023 55.908 45.6422Z" fill="#F64A4A"/>
</svg>
