<svg width="65" height="65" viewBox="0 0 65 65" fill="none" xmlns="http://www.w3.org/2000/svg">
<path d="M5 19.1666C5 16.5893 7.08933 14.5 9.66665 14.5H47.9998C50.5771 14.5 52.6665 16.5893 52.6665 19.1666V47.1665C52.6665 49.7438 50.5771 51.8332 47.9998 51.8332H9.66665C7.08933 51.8332 5 49.7438 5 47.1665V19.1666Z" fill="#20C7BF"/>
<path fill-rule="evenodd" clip-rule="evenodd" d="M18.4944 25.1009C19.4054 24.7782 20.4055 25.2552 20.7282 26.1662L24.0369 35.5085L27.3456 26.1662C27.5931 25.4675 28.254 25.0005 28.9952 25.0005C29.7365 25.0005 30.3973 25.4675 30.6448 26.1662L33.9535 35.5085L37.2623 26.1662C37.5849 25.2552 38.585 24.7782 39.4961 25.1009C40.4071 25.4235 40.8841 26.4237 40.5614 27.3347L35.6031 41.3346C35.3556 42.0334 34.6948 42.5004 33.9535 42.5004C33.2123 42.5004 32.5514 42.0334 32.3039 41.3346L28.9952 31.9924L25.6865 41.3346C25.439 42.0334 24.7782 42.5004 24.0369 42.5004C23.2956 42.5004 22.6348 42.0334 22.3873 41.3346L17.429 27.3347C17.1063 26.4237 17.5833 25.4235 18.4944 25.1009Z" fill="white"/>
<path fill-rule="evenodd" clip-rule="evenodd" d="M14.4141 33.166C14.4141 32.1995 15.1976 31.416 16.1641 31.416L19.664 31.416C20.6305 31.416 21.414 32.1995 21.414 33.166C21.414 34.1325 20.6305 34.916 19.664 34.916L16.1641 34.916C15.1976 34.916 14.4141 34.1325 14.4141 33.166Z" fill="white"/>
<path fill-rule="evenodd" clip-rule="evenodd" d="M36.5781 33.166C36.5781 32.1995 37.3616 31.416 38.3281 31.416L41.8281 31.416C42.7946 31.416 43.5781 32.1995 43.5781 33.166C43.5781 34.1325 42.7946 34.916 41.8281 34.916L38.3281 34.916C37.3616 34.916 36.5781 34.1325 36.5781 33.166Z" fill="white"/>
<path d="M41 41.3609C41 40.1336 41.9949 39.1387 43.2222 39.1387H58.7778C60.0051 39.1387 61 40.1336 61 41.3609V55.8053C61 57.0326 60.0051 58.0276 58.7778 58.0276H43.2222C41.9949 58.0276 41 57.0326 41 55.8053V41.3609Z" fill="white"/>
<path d="M44.3359 38.5838C44.3359 37.9701 44.8334 37.4727 45.447 37.4727C46.0607 37.4727 46.5582 37.9701 46.5582 38.5838V41.3615C46.5582 41.9752 46.0607 42.4727 45.447 42.4727C44.8334 42.4727 44.3359 41.9752 44.3359 41.3615V38.5838Z" fill="#09203E"/>
<path d="M55.4453 38.5838C55.4453 37.9701 55.9428 37.4727 56.5564 37.4727C57.1701 37.4727 57.6675 37.9701 57.6675 38.5838V41.3615C57.6675 41.9752 57.1701 42.4727 56.5564 42.4727C55.9428 42.4727 55.4453 41.9752 55.4453 41.3615V38.5838Z" fill="#09203E"/>
<path fill-rule="evenodd" clip-rule="evenodd" d="M56.242 46.1432C56.6697 46.5832 56.6598 47.2867 56.2198 47.7144L50.5056 53.27C50.0743 53.6892 49.3877 53.6892 48.9565 53.27L45.7819 50.1835C45.3419 49.7558 45.332 49.0523 45.7598 48.6124C46.1875 48.1724 46.891 48.1625 47.331 48.5902L49.731 50.9236L54.6708 46.1211C55.1108 45.6933 55.8142 45.7032 56.242 46.1432Z" fill="#F64A4A"/>
</svg>
