<svg width="36" height="36" viewBox="0 0 36 36" fill="none" xmlns="http://www.w3.org/2000/svg">
<path fill-rule="evenodd" clip-rule="evenodd" d="M7 13.1166C7 7.25322 11.8532 2.5 17.8399 2.5H18.1601C24.1468 2.5 29 7.25322 29 13.1166C29 15.2797 28.3395 17.2917 27.2052 18.9697C26.5728 20.0284 25.9073 20.9834 25.3483 21.7856C25.0449 22.221 24.7729 22.6114 24.5546 22.9488C24.535 22.9791 24.5153 23.0094 24.4955 23.0397L19.2377 31.8065C18.6831 32.7311 17.318 32.7312 16.7634 31.8065L13.6832 26.6712C13.3911 26.2315 12.9399 25.5728 12.4236 24.8191C11.2184 23.0599 9.65861 20.783 8.94074 19.5664C8.59301 18.977 8.28692 18.2975 8.02967 17.6387C7.62176 16.7913 7.32493 15.8826 7.15758 14.9304C7.13083 14.8269 7.11711 14.7698 7.11711 14.7698C7.11711 14.7698 7.12154 14.769 7.13026 14.7674C7.04451 14.2295 7 13.6781 7 13.1166Z" fill="#F64A4A"/>
<path d="M24 13.5C24 16.8137 21.3137 19.5 18 19.5C14.6863 19.5 12 16.8137 12 13.5C12 10.1863 14.6863 7.5 18 7.5C21.3137 7.5 24 10.1863 24 13.5Z" fill="white"/>
</svg>
