<svg width="44" height="45" viewBox="0 0 44 45" fill="none" xmlns="http://www.w3.org/2000/svg">
<path fill-rule="evenodd" clip-rule="evenodd" d="M7.94531 16.7963C7.94531 9.14659 14.1466 2.94531 21.7962 2.94531H22.2055C29.8552 2.94531 36.0564 9.14659 36.0564 16.7963C36.0564 19.6183 35.2124 22.2433 33.7631 24.4324C32.955 25.8137 32.1046 27.0597 31.3904 28.1062C31.0027 28.6743 30.6551 29.1836 30.3762 29.6238C30.3511 29.6633 30.326 29.7029 30.3007 29.7423L23.5823 41.18C22.8737 42.3863 21.1294 42.3863 20.4208 41.18L16.485 34.4802C16.1117 33.9066 15.5352 33.0472 14.8754 32.0639C13.3354 29.7687 11.3424 26.7982 10.4251 25.2109C9.98083 24.442 9.58971 23.5555 9.261 22.696C8.73978 21.5904 8.3605 20.4048 8.14666 19.1626C8.11249 19.0276 8.09496 18.953 8.09496 18.953C8.09496 18.953 8.10061 18.952 8.11176 18.95C8.00219 18.2481 7.94531 17.5288 7.94531 16.7963Z" fill="#F64A4A"/>
<path d="M29.9436 16.9991C29.9436 21.3867 26.3867 24.9436 21.9991 24.9436C17.6115 24.9436 14.0547 21.3867 14.0547 16.9991C14.0547 12.6115 17.6115 9.05469 21.9991 9.05469C26.3867 9.05469 29.9436 12.6115 29.9436 16.9991Z" fill="white"/>
<path fill-rule="evenodd" clip-rule="evenodd" d="M21.9991 22.4991C25.0367 22.4991 27.4991 20.0367 27.4991 16.9991C27.4991 13.9616 25.0367 11.4991 21.9991 11.4991C18.9616 11.4991 16.4991 13.9616 16.4991 16.9991C16.4991 20.0367 18.9616 22.4991 21.9991 22.4991ZM21.9991 24.9436C26.3867 24.9436 29.9436 21.3867 29.9436 16.9991C29.9436 12.6115 26.3867 9.05469 21.9991 9.05469C17.6115 9.05469 14.0547 12.6115 14.0547 16.9991C14.0547 21.3867 17.6115 24.9436 21.9991 24.9436Z" fill="white"/>
</svg>
