<svg width="44" height="45" viewBox="0 0 44 45" fill="none" xmlns="http://www.w3.org/2000/svg">
<path fill-rule="evenodd" clip-rule="evenodd" d="M27.5026 16.9987V11.4987C27.5026 8.46113 25.0402 5.9987 22.0026 5.9987C18.965 5.9987 16.5026 8.46113 16.5026 11.4987V16.9987H27.5026ZM22.0026 2.33203C16.94 2.33203 12.8359 6.43609 12.8359 11.4987V20.6654H31.1693V11.4987C31.1693 6.43609 27.0652 2.33203 22.0026 2.33203Z" fill="#FFC737"/>
<path fill-rule="evenodd" clip-rule="evenodd" d="M11 15.168C7.96243 15.168 5.5 17.6304 5.5 20.668V35.3346C5.5 38.3722 7.96244 40.8346 11 40.8346H33C36.0376 40.8346 38.5 38.3722 38.5 35.3346V20.668C38.5 17.6304 36.0376 15.168 33 15.168H11ZM22 24.3346C20.9875 24.3346 20.1667 25.1554 20.1667 26.168V29.8346C20.1667 30.8472 20.9875 31.668 22 31.668C23.0125 31.668 23.8333 30.8472 23.8333 29.8346V26.168C23.8333 25.1554 23.0125 24.3346 22 24.3346Z" fill="#FFC737"/>
</svg>
