<svg width="24" height="24" viewBox="0 0 24 24" fill="none" xmlns="http://www.w3.org/2000/svg">
<path fill-rule="evenodd" clip-rule="evenodd" d="M6.25 8.25C4.86929 8.25 3.75 9.36929 3.75 10.75V18.25C3.75 19.6307 4.86929 20.75 6.25 20.75H17.75C19.1307 20.75 20.25 19.6307 20.25 18.25V10.75C20.25 9.36929 19.1307 8.25 17.75 8.25H6.25ZM12 12.5C11.4477 12.5 11 12.9477 11 13.5V15.5C11 16.0523 11.4477 16.5 12 16.5C12.5523 16.5 13 16.0523 13 15.5V13.5C13 12.9477 12.5523 12.5 12 12.5Z" fill="#FFC737"/>
<path fill-rule="evenodd" clip-rule="evenodd" d="M12 1.5C9.51472 1.5 7.5 3.51472 7.5 6V10.5H9.5V6C9.5 4.61929 10.6193 3.5 12 3.5C13.3807 3.5 14.5 4.61929 14.5 6V10.5H16.5V6C16.5 3.51472 14.4853 1.5 12 1.5Z" fill="#FFC737"/>
</svg>
