<svg width="160" height="37" viewBox="0 0 160 37" fill="none" xmlns="http://www.w3.org/2000/svg">
<path d="M26.7426 21.9385C26.653 21.3815 26.4934 20.8378 26.2676 20.3205C25.6095 18.7827 24.4859 17.4884 23.0538 16.6184C21.9253 15.9509 20.6359 15.6022 19.3237 15.6095C18.0115 15.6168 16.726 15.98 15.6051 16.6601C14.5584 17.2886 13.7093 18.1971 13.1542 19.2824C12.9697 19.6512 12.8145 20.0339 12.69 20.4269C12.3502 21.4521 12.2202 22.5349 12.3077 23.6111C12.3951 24.6874 12.6982 25.7352 13.1991 26.6925C13.5467 27.2789 14.0754 27.7372 14.7061 27.999C15.0205 28.1261 15.3603 28.1783 15.6985 28.1515C16.0366 28.1247 16.3639 28.0197 16.6542 27.8448C16.9765 27.5948 17.2174 27.2554 17.3466 26.8691C17.4757 26.4829 17.4873 26.0673 17.3799 25.6745C17.1279 24.6764 17.1519 23.629 17.4495 22.6435C17.5647 22.3204 17.749 22.0262 17.9895 21.7812C18.1419 21.6373 18.3164 21.5186 18.5063 21.4295C18.9023 21.2303 19.35 21.1571 19.789 21.2197C20.1679 21.3019 20.522 21.4721 20.8224 21.7166C21.1227 21.961 21.3609 22.2728 21.5174 22.6265C21.8229 23.335 21.9809 24.0981 21.9816 24.8693C21.9894 28.2722 21.4829 31.6569 20.4791 34.9095C20.3904 35.2416 20.2981 35.5727 20.2022 35.9028C20.131 36.1573 19.9995 36.4813 20.1619 36.7296C20.2371 36.8333 20.3416 36.9123 20.4621 36.9564C20.6886 37.0212 20.9299 37.0136 21.1519 36.9348C21.3739 36.8559 21.5656 36.7098 21.7 36.5167C23.6073 34.4849 25.0138 32.0381 25.8081 29.3703C26.1367 28.3921 26.3988 27.3928 26.5925 26.3794C26.8972 24.9187 26.9495 23.4168 26.7473 21.9385" fill="#00B2A6"/>
<path d="M40.8606 6.44594C40.8566 6.33042 40.8291 6.21692 40.7796 6.11238C40.7302 6.00784 40.6598 5.91445 40.5729 5.83793C40.486 5.76141 40.3844 5.70336 40.2742 5.66733C40.1641 5.63131 40.0477 5.61807 39.9322 5.62841C39.4496 5.69597 38.9816 5.84296 38.5474 6.0634C29.7144 9.21824 20.2282 10.1114 10.9589 8.66097C9.39456 8.43577 7.81321 8.12264 6.2396 7.87892C5.25706 7.72467 4.28535 7.50255 3.29044 7.42851C2.39917 7.25872 1.4765 7.43474 0.711077 7.92057C0.317429 8.35089 0.0730263 8.89599 0.0139587 9.47539C-0.0451088 10.0548 0.0842905 10.6378 0.383048 11.1382C1.05393 12.2775 2.02524 13.2117 3.19141 13.8392C4.26841 14.6046 5.54615 15.0399 6.86781 15.0917C10.3596 14.8685 13.8425 14.5328 17.3168 14.0844C23.2352 13.3132 29.4399 12.5944 35.0009 10.3068C36.8457 9.57747 38.5844 8.60529 40.1705 7.41617C40.4505 7.20639 40.859 6.85316 40.859 6.44285" fill="#00B2A6"/>
<path d="M15.9922 3.48867C15.9922 4.39011 16.3514 5.25464 16.9908 5.89206C17.6302 6.52948 18.4974 6.88757 19.4017 6.88757C20.3059 6.88757 21.1731 6.52948 21.8125 5.89206C22.452 5.25464 22.8112 4.39011 22.8112 3.48867C22.8106 3.2065 22.7478 2.92791 22.627 2.67268C22.3346 2.05568 22.0081 1.75489 22.0406 1.01449C22.0855 0.0164931 20.8012 0.00261051 20.1096 0.00261051C19.34 -0.0221761 18.575 0.129822 17.8737 0.446851C17.3192 0.723138 16.8508 1.14515 16.5192 1.66735C16.1876 2.18955 16.0054 2.79211 15.9922 3.41V3.48867Z" fill="#EF4567"/>
<path d="M52.0696 9.81336V7.46875H55.5355V9.81336H60.1651V12.0346H57.7389C58.2836 12.6927 58.7127 13.4742 59.0263 14.3792C59.3564 15.2841 59.5297 16.2713 59.5462 17.3408C59.5297 18.3938 59.3811 19.3645 59.1005 20.253C58.82 21.1415 58.4238 21.9066 57.9122 22.5483C57.4006 23.2064 56.7981 23.7165 56.105 24.0784C55.4118 24.4404 54.6443 24.6214 53.8026 24.6214C52.9278 24.6378 52.1356 24.4651 51.4259 24.1031C50.7162 23.7247 50.1138 23.2146 49.6186 22.5729C49.107 21.9148 48.7109 21.1415 48.4303 20.253C48.1662 19.3645 48.0342 18.3938 48.0342 17.3408C48.0342 16.2713 48.191 15.2841 48.5046 14.3792C48.8347 13.4742 49.272 12.6927 49.8167 12.0346H47.5391V9.81336H52.0696ZM53.8026 12.0839C53.1094 12.0839 52.5235 12.5693 52.0448 13.54C51.5827 14.4943 51.3599 15.7612 51.3764 17.3408C51.3599 18.8709 51.5827 20.0967 52.0448 21.0181C52.5069 21.9395 53.0846 22.4002 53.7778 22.4002C54.471 22.4002 55.0487 21.9477 55.5108 21.0428C55.9729 20.1214 56.204 18.8874 56.204 17.3408C56.204 15.679 55.9729 14.3874 55.5108 13.466C55.0652 12.5446 54.4958 12.0839 53.8026 12.0839ZM65.7354 16.477V29.8042H62.3932V7.46875H65.7354V14.2558H68.9538V16.477H65.7354Z" fill="#231F20"/>
<path d="M75.0041 21.1662H80.624C80.9871 21.1662 81.3337 21.1662 81.6637 21.1662C82.0103 21.1662 82.3487 21.1497 82.6788 21.1168C83.0089 21.0839 83.3307 21.0263 83.6443 20.9441C83.9744 20.8453 84.321 20.6973 84.6841 20.4998V7.46875H88.0263V14.2558H91.2447V16.477H88.0263V29.8042H84.6841V22.721C84.0899 22.9843 83.4215 23.1653 82.6788 23.264C81.9526 23.3462 81.2429 23.3874 80.5497 23.3874H73.1474C72.4047 23.3874 71.7857 23.0912 71.2906 22.4989C70.812 21.8901 70.5727 21.1662 70.5727 20.3271V8.45595H73.9148V20.253C73.9148 20.5492 74.0056 20.7795 74.1872 20.9441C74.3687 21.0921 74.641 21.1662 75.0041 21.1662Z" fill="#231F20"/>
<path d="M97.3198 16.477H92.616V14.2558H97.9635C98.0295 13.8609 98.079 13.466 98.112 13.0711C98.1615 12.6762 98.1863 12.2649 98.1863 11.8371V10.924H92.616V8.70275H101.652V11.1954C101.636 12.7256 101.421 14.19 101.009 15.5885C100.596 16.987 99.9935 18.2539 99.2013 19.3892C98.4091 20.5245 97.4353 21.4952 96.28 22.3015C95.1412 23.0912 93.8373 23.6506 92.3684 23.9797V21.7338C93.5237 21.2402 94.514 20.541 95.3392 19.636C96.181 18.7146 96.8411 17.6616 97.3198 16.477ZM106.975 16.6004V29.8042H103.757V7.46875H106.975V14.3792H108.584V7.46875H111.803V29.8042H108.584V16.6004H106.975Z" fill="#231F20"/>
<path d="M114.907 10.924V8.70275H127.162V10.924H125.305V16.8719C125.305 17.7932 125.263 18.6406 125.181 19.4139C125.098 20.1872 124.991 20.7713 124.859 21.1662H125.552V23.3874H114.783V21.1662H116.764V10.924H114.907ZM120.106 21.1662H121.517C121.682 20.7384 121.798 20.1543 121.864 19.4139C121.93 18.657 121.963 17.8097 121.963 16.8719V10.924H120.106V21.1662ZM123.2 21.1662H124.933C125.462 21.1662 125.957 21.1662 126.419 21.1662C126.897 21.1497 127.36 21.1004 127.805 21.0181C128.234 20.9358 128.655 20.8124 129.068 20.6479C129.48 20.4669 129.893 20.2037 130.306 19.8581V22.03C129.728 22.5729 128.944 22.9349 127.954 23.1159C126.98 23.2969 125.99 23.3874 124.983 23.3874H123.2V21.1662ZM132.856 7.46875V29.8042H129.513V7.46875H132.856Z" fill="#231F20"/>
<path d="M155.171 30.051H142.892C142.545 30.051 142.215 29.9687 141.902 29.8042C141.588 29.6561 141.316 29.4422 141.085 29.1625C140.853 28.8828 140.664 28.562 140.515 28.2C140.383 27.838 140.317 27.4514 140.317 27.04V24.0784H151.557V22.6223H140.317V20.4011H154.924V24.2018C154.924 24.7612 154.759 25.2548 154.429 25.6826C154.098 26.094 153.719 26.2996 153.29 26.2996H143.659V26.966C143.659 27.2292 143.742 27.4349 143.907 27.583C144.088 27.7475 144.344 27.8298 144.674 27.8298H155.171V30.051ZM137.445 7.96235H147.967V10.1836H140.787V12.0346H147.719V14.2558H140.787V15.317C140.787 15.6132 140.878 15.8435 141.06 16.008C141.241 16.1561 141.514 16.2302 141.877 16.2302H147.744C148.47 16.2302 149.122 16.2055 149.7 16.1561C150.294 16.1068 150.913 15.9176 151.557 15.5885V7.46875H154.899V11.541H158.117V13.7622H154.899V19.1918H151.557V17.7357C150.963 18.0154 150.344 18.2046 149.7 18.3033C149.073 18.402 148.396 18.4514 147.67 18.4514H140.02C139.277 18.4514 138.658 18.1552 138.163 17.5629C137.685 16.9541 137.445 16.2302 137.445 15.391V7.96235Z" fill="#231F20"/>
</svg>
