<svg width="36" height="36" viewBox="0 0 36 36" fill="none" xmlns="http://www.w3.org/2000/svg">
<path d="M7 6.5C7 5.11929 8.11929 4 9.5 4H26.5C27.8807 4 29 5.11929 29 6.5V32H7V6.5Z" fill="#AFC3DC"/>
<path d="M12 11C12 10.4477 12.4477 10 13 10H15.5C16.0523 10 16.5 10.4477 16.5 11V13.5C16.5 14.0523 16.0523 14.5 15.5 14.5H13C12.4477 14.5 12 14.0523 12 13.5V11Z" fill="white"/>
<path d="M19.5 11C19.5 10.4477 19.9477 10 20.5 10H23C23.5523 10 24 10.4477 24 11V13.5C24 14.0523 23.5523 14.5 23 14.5H20.5C19.9477 14.5 19.5 14.0523 19.5 13.5V11Z" fill="white"/>
<path d="M12 18C12 17.4477 12.4477 17 13 17H15.5C16.0523 17 16.5 17.4477 16.5 18V20.5C16.5 21.0523 16.0523 21.5 15.5 21.5H13C12.4477 21.5 12 21.0523 12 20.5V18Z" fill="white"/>
<path d="M15 27C15 26.4477 15.4477 26 16 26H20C20.5523 26 21 26.4477 21 27V30C21 31.1046 20.1046 32 19 32H15V27Z" fill="#7891B5"/>
<path d="M19.5 18C19.5 17.4477 19.9477 17 20.5 17H23C23.5523 17 24 17.4477 24 18V20.5C24 21.0523 23.5523 21.5 23 21.5H20.5C19.9477 21.5 19.5 21.0523 19.5 20.5V18Z" fill="white"/>
<path d="M20 27C20 23.134 23.134 20 27 20V20C30.866 20 34 23.134 34 27V27C34 30.866 30.866 34 27 34V34C23.134 34 20 30.866 20 27V27Z" fill="#2AD6CE"/>
<path fill-rule="evenodd" clip-rule="evenodd" d="M23.7705 24.5359C24.1648 24.4092 24.5872 24.6261 24.714 25.0205L25.3861 27.1116L26.3106 24.9545C26.4288 24.6788 26.6999 24.5 27 24.5C27.3 24.5 27.5711 24.6788 27.6893 24.9545L28.6138 27.1116L29.2859 25.0205C29.4127 24.6261 29.8351 24.4092 30.2295 24.5359C30.6238 24.6627 30.8407 25.0851 30.714 25.4795L29.4283 29.4795C29.3325 29.7773 29.062 29.9844 28.7494 29.9991C28.4369 30.0138 28.1481 29.833 28.0249 29.5454L27 27.1539L25.975 29.5454C25.8518 29.833 25.563 30.0138 25.2505 29.9991C24.938 29.9844 24.6674 29.7773 24.5717 29.4795L23.2859 25.4795C23.1592 25.0851 23.3761 24.6627 23.7705 24.5359Z" fill="white"/>
<path d="M22 27C22 26.5858 22.3198 26.25 22.7143 26.25H23.7857C24.1802 26.25 24.5 26.5858 24.5 27C24.5 27.4142 24.1802 27.75 23.7857 27.75H22.7143C22.3198 27.75 22 27.4142 22 27Z" fill="white"/>
<path d="M29.5 27C29.5 26.5858 29.8198 26.25 30.2143 26.25H31.2857C31.6802 26.25 32 26.5858 32 27C32 27.4142 31.6802 27.75 31.2857 27.75H30.2143C29.8198 27.75 29.5 27.4142 29.5 27Z" fill="white"/>
</svg>
