<svg width="36" height="36" viewBox="0 0 36 36" fill="none" xmlns="http://www.w3.org/2000/svg">
<path d="M6.5 9.50049C6.5 7.84363 7.84315 6.50049 9.5 6.50049H29.5C31.1569 6.50049 32.5 7.84363 32.5 9.50049V23.5005C32.5 25.1573 31.1569 26.5005 29.5 26.5005H9.5C7.84315 26.5005 6.5 25.1573 6.5 23.5005V9.50049Z" fill="#019992"/>
<path d="M3.5 12.5005C3.5 10.8436 4.84315 9.50049 6.5 9.50049H26.5C28.1569 9.50049 29.5 10.8436 29.5 12.5005V26.5005C29.5 28.1573 28.1569 29.5005 26.5 29.5005H6.5C4.84315 29.5005 3.5 28.1573 3.5 26.5005V12.5005Z" fill="#00CBC1"/>
<path fill-rule="evenodd" clip-rule="evenodd" d="M9 19.5005C9 18.9482 9.44772 18.5005 10 18.5005L12 18.5005C12.5523 18.5005 13 18.9482 13 19.5005C13 20.0528 12.5523 20.5005 12 20.5005L10 20.5005C9.44772 20.5005 9 20.0528 9 19.5005Z" fill="white"/>
<path fill-rule="evenodd" clip-rule="evenodd" d="M20 19.5005C20 18.9482 20.4477 18.5005 21 18.5005L23 18.5005C23.5523 18.5005 24 18.9482 24 19.5005C24 20.0528 23.5523 20.5005 23 20.5005L21 20.5005C20.4477 20.5005 20 20.0528 20 19.5005Z" fill="white"/>
<path fill-rule="evenodd" clip-rule="evenodd" d="M11.2071 15.0443C11.7352 14.8826 12.2943 15.1797 12.456 15.7078L13.7773 20.0243L15.5739 15.6226C15.7275 15.2464 16.0934 15.0005 16.4998 15.0005C16.9061 15.0005 17.2721 15.2464 17.4256 15.6226L19.2222 20.0243L20.5436 15.7078C20.7052 15.1797 21.2644 14.8826 21.7925 15.0443C22.3206 15.206 22.6176 15.7651 22.456 16.2932L20.3131 23.2932C20.1893 23.6976 19.8246 23.9804 19.4021 23.9995C18.9797 24.0186 18.5909 23.7699 18.4311 23.3784L16.4998 18.6467L14.5685 23.3784C14.4087 23.7699 14.0199 24.0186 13.5974 23.9995C13.175 23.9804 12.8102 23.6976 12.6864 23.2932L10.5436 16.2932C10.3819 15.7651 10.679 15.206 11.2071 15.0443Z" fill="white"/>
<path d="M35 27.5005C35 31.3665 31.866 34.5005 28 34.5005C24.134 34.5005 21 31.3665 21 27.5005C21 23.6345 24.134 20.5005 28 20.5005C31.866 20.5005 35 23.6345 35 27.5005Z" fill="#074093"/>
<path fill-rule="evenodd" clip-rule="evenodd" d="M24.25 27.5005C24.25 27.0863 24.5858 26.7505 25 26.7505H30C30.4142 26.7505 30.75 27.0863 30.75 27.5005C30.75 27.9147 30.4142 28.2505 30 28.2505H25C24.5858 28.2505 24.25 27.9147 24.25 27.5005Z" fill="white"/>
<path fill-rule="evenodd" clip-rule="evenodd" d="M28.2197 24.7202C28.5126 24.4273 28.9874 24.4273 29.2803 24.7202L31.5303 26.9702C31.671 27.1108 31.75 27.3016 31.75 27.5005C31.75 27.6994 31.671 27.8902 31.5303 28.0308L29.2803 30.2808C28.9874 30.5737 28.5126 30.5737 28.2197 30.2808C27.9268 29.9879 27.9268 29.5131 28.2197 29.2202L29.9393 27.5005L28.2197 25.7808C27.9268 25.4879 27.9268 25.0131 28.2197 24.7202Z" fill="white"/>
</svg>
