<svg width="36" height="36" viewBox="0 0 36 36" fill="none" xmlns="http://www.w3.org/2000/svg">
<path fill-rule="evenodd" clip-rule="evenodd" d="M9 3C7.34315 3 6 4.34315 6 6V30C6 31.6569 7.34315 33 9 33H27C28.6569 33 30 31.6569 30 30V11L22 3H9Z" fill="#DCEAFC"/>
<path fill-rule="evenodd" clip-rule="evenodd" d="M24 11H30L22 3V9C22 10.1046 22.8954 11 24 11Z" fill="#B8CAE1"/>
<path d="M15.25 14.75C15.25 13.2312 16.4812 12 18 12C19.5188 12 20.75 13.2312 20.75 14.75C20.75 16.2688 19.5188 17.5 18 17.5C16.4812 17.5 15.25 16.2688 15.25 14.75Z" fill="#00CBC1"/>
<path d="M11.5 24.5263C11.5 21.4742 13.7975 19 16.6316 19H19.3684C22.2025 19 24.5 21.4742 24.5 24.5263C24.5 25.3402 23.8873 26 23.1316 26H12.8684C12.1127 26 11.5 25.3402 11.5 24.5263Z" fill="#05B0A8"/>
</svg>
