<svg width="36" height="36" viewBox="0 0 36 36" fill="none" xmlns="http://www.w3.org/2000/svg">
<path fill-rule="evenodd" clip-rule="evenodd" d="M10 4C8.34315 4 7 5.34315 7 7V29C7 30.6569 8.34315 32 10 32H26C27.6569 32 29 30.6569 29 29V12L21 4H10Z" fill="#DCEAFC"/>
<path fill-rule="evenodd" clip-rule="evenodd" d="M23 12H29L21 4V10C21 11.1046 21.8954 12 23 12Z" fill="#B8CAE1"/>
<path d="M11 25.2646C11 24.7124 11.4477 24.2646 12 24.2646H24C24.5523 24.2646 25 24.7124 25 25.2646C25 25.8169 24.5523 26.2646 24 26.2646H12C11.4477 26.2646 11 25.8169 11 25.2646Z" fill="#074093" fill-opacity="0.5"/>
<path fill-rule="evenodd" clip-rule="evenodd" d="M10.75 18C10.75 17.4477 11.1977 17 11.75 17L13.75 17C14.3023 17 14.75 17.4477 14.75 18C14.75 18.5523 14.3023 19 13.75 19L11.75 19C11.1977 19 10.75 18.5523 10.75 18Z" fill="#074093"/>
<path fill-rule="evenodd" clip-rule="evenodd" d="M21.25 18C21.25 17.4477 21.6977 17 22.25 17L24.25 17C24.8023 17 25.25 17.4477 25.25 18C25.25 18.5523 24.8023 19 24.25 19L22.25 19C21.6977 19 21.25 18.5523 21.25 18Z" fill="#074093"/>
<path fill-rule="evenodd" clip-rule="evenodd" d="M13.194 13.548C13.7198 13.379 14.283 13.6682 14.4521 14.194L15.5625 17.6489L17.0809 14.1061C17.2385 13.7384 17.6 13.5 18 13.5C18.4001 13.5 18.7616 13.7384 18.9192 14.1061L20.4375 17.6489L21.548 14.194C21.717 13.6682 22.2802 13.379 22.806 13.548C23.3318 13.717 23.6211 14.2802 23.4521 14.806L21.5235 20.806C21.3958 21.2032 21.0351 21.4793 20.6184 21.4989C20.2017 21.5185 19.8166 21.2774 19.6523 20.8939L18 17.0386L16.3477 20.8939C16.1834 21.2774 15.7984 21.5185 15.3817 21.4989C14.965 21.4793 14.6042 21.2032 14.4766 20.806L12.548 14.806C12.379 14.2802 12.6682 13.717 13.194 13.548Z" fill="#074093"/>
<path fill-rule="evenodd" clip-rule="evenodd" d="M31 24C31 26.2091 29.2091 28 27 28C24.7909 28 23 26.2091 23 24C23 21.7909 24.7909 20 27 20C29.2091 20 31 21.7909 31 24ZM30.1237 29.1237C29.2138 29.6796 28.1443 30 27 30C23.6863 30 21 27.3137 21 24C21 20.6863 23.6863 18 27 18C30.3137 18 33 20.6863 33 24C33 25.4459 32.4886 26.7723 31.6367 27.8083L33.9497 30.1213C34.3403 30.5118 34.3403 31.145 33.9497 31.5355C33.5592 31.9261 32.9261 31.9261 32.5355 31.5355L30.1237 29.1237Z" fill="#3E4C60"/>
</svg>
