<svg width="36" height="36" viewBox="0 0 36 36" fill="none" xmlns="http://www.w3.org/2000/svg">
<path d="M4 24H9.5V28.5C9.5 29.3284 8.88439 30 8.125 30H5.375C4.61561 30 4 29.3284 4 28.5V24Z" fill="#003582"/>
<path d="M26.5 24H32V28.5C32 29.3284 31.3844 30 30.625 30H27.875C27.1156 30 26.5 29.3284 26.5 28.5V24Z" fill="#003582"/>
<path fill-rule="evenodd" clip-rule="evenodd" d="M4.67768 17.133L6.80749 14.6015C7.55135 12.401 9.65816 8 12.1345 8H12.2065H15.3019H20.7701H23.9375H24.2254C24.9453 8 25.577 8.36424 25.9335 8.91221C27.4997 10.3204 28.7317 13.0254 29.2645 14.6015L31.4764 17.2402C31.4764 17.2402 32 17.8259 32 19.2654V26.4441C32 26.7511 32 27 32 27H4C4 27 4 26.7511 4 26.4441V19.2654C4 17.8259 4.63636 17.1962 4.67768 17.133Z" fill="#0168FE"/>
<path d="M14.0956 25.2794C14.1531 25.1133 14.3257 25 14.5212 25H21.4788C21.6743 25 21.8469 25.1133 21.9044 25.2794L22.5 27H13.5L14.0956 25.2794Z" fill="#A3C6F9"/>
<path d="M7.63212 9.54572C8.06191 7.47564 9.81699 5.99854 11.8468 5.99854H24.1532C26.183 5.99854 27.9381 7.47564 28.3679 9.54572L29.5 14.9985H6.5L7.63212 9.54572Z" fill="#0168FE"/>
<path d="M9.10504 10.0067C9.35557 8.56017 10.6558 7.5 12.1794 7.5H23.8206C25.3442 7.5 26.6444 8.56017 26.895 10.0067L27.5 13.5H8.5L9.10504 10.0067Z" fill="#0048B1"/>
<path fill-rule="evenodd" clip-rule="evenodd" d="M4.13281 11.5C2.78931 11.5 1.7002 12.8645 1.7002 14.5476C1.7002 15.0736 2.04055 15.5 2.46039 15.5H5.35106H6.6954H7.70365V14.0263H6.6954V12.3421C6.6954 11.877 6.39445 11.5 6.02323 11.5H4.13281Z" fill="#0168FE"/>
<path fill-rule="evenodd" clip-rule="evenodd" d="M31.8672 11.5C33.2107 11.5 34.2998 12.8645 34.2998 14.5476C34.2998 15.0736 33.9595 15.5 33.5396 15.5H30.649H29.3047H28.2964V14.0263H29.3047V12.3421C29.3047 11.877 29.6056 11.5 29.9768 11.5H31.8672Z" fill="#0168FE"/>
<path d="M6.5 20.75C6.5 20.3358 6.83579 20 7.25 20H11.25C11.6642 20 12 20.3358 12 20.75V22.75C12 23.1642 11.6642 23.5 11.25 23.5H7.25C6.83579 23.5 6.5 23.1642 6.5 22.75V20.75Z" fill="white"/>
<path d="M24 20.75C24 20.3358 24.3358 20 24.75 20H28.75C29.1642 20 29.5 20.3358 29.5 20.75V22.75C29.5 23.1642 29.1642 23.5 28.75 23.5H24.75C24.3358 23.5 24 23.1642 24 22.75V20.75Z" fill="white"/>
<path d="M26.7767 21.6906C27.334 20.7698 28.666 20.7698 29.2233 21.6906L34.7899 30.8882C35.369 31.845 34.6824 33.069 33.5666 33.069H22.4334C21.3176 33.069 20.631 31.845 21.2101 30.8882L26.7767 21.6906Z" fill="#F64A4A"/>
<path d="M27.2759 30.4138C27.2759 30.0139 27.6001 29.6897 28 29.6897V29.6897C28.3999 29.6897 28.7242 30.0139 28.7242 30.4138V30.4138C28.7242 30.8138 28.3999 31.138 28 31.138V31.138C27.6001 31.138 27.2759 30.8138 27.2759 30.4138V30.4138Z" fill="white"/>
<path d="M27.3965 25.2241C27.3965 24.8908 27.6667 24.6206 27.9999 24.6206V24.6206C28.3332 24.6206 28.6034 24.8908 28.6034 25.2241V28.362C28.6034 28.6953 28.3332 28.9654 27.9999 28.9654V28.9654C27.6667 28.9654 27.3965 28.6953 27.3965 28.362V25.2241Z" fill="white"/>
</svg>
