<svg width="45" height="45" viewBox="0 0 45 45" fill="none" xmlns="http://www.w3.org/2000/svg">
<path fill-rule="evenodd" clip-rule="evenodd" d="M12.5573 5.55469C10.5322 5.55469 8.89062 7.19631 8.89062 9.22135V36.1102C8.89062 38.1353 10.5322 39.7769 12.5573 39.7769H32.1128C34.1379 39.7769 35.7795 38.1353 35.7795 36.1102V15.3325L26.0017 5.55469H12.5573Z" fill="#DCEAFC"/>
<path fill-rule="evenodd" clip-rule="evenodd" d="M28.4444 15.3325H35.7778L26 5.55469V12.888C26 14.2381 27.0944 15.3325 28.4444 15.3325Z" fill="#B8CAE1"/>
<path d="M13.7812 31.5425C13.7812 30.8675 14.3285 30.3203 15.0035 30.3203H29.6701C30.3452 30.3203 30.8924 30.8675 30.8924 31.5425C30.8924 32.2176 30.3452 32.7648 29.6701 32.7648H15.0035C14.3285 32.7648 13.7812 32.2176 13.7812 31.5425Z" fill="#074093" fill-opacity="0.5"/>
<path fill-rule="evenodd" clip-rule="evenodd" d="M13.4766 22.6675C13.4766 21.9925 14.0238 21.4453 14.6988 21.4453L17.1432 21.4453C17.8182 21.4453 18.3655 21.9925 18.3655 22.6675C18.3655 23.3425 17.8182 23.8898 17.1432 23.8898L14.6988 23.8898C14.0238 23.8898 13.4766 23.3425 13.4766 22.6675Z" fill="#074093"/>
<path fill-rule="evenodd" clip-rule="evenodd" d="M26.3047 22.6675C26.3047 21.9925 26.8519 21.4453 27.5269 21.4453L29.9714 21.4453C30.6464 21.4453 31.1936 21.9925 31.1936 22.6675C31.1936 23.3425 30.6464 23.8898 29.9714 23.8898L27.5269 23.8898C26.8519 23.8898 26.3047 23.3425 26.3047 22.6675Z" fill="#074093"/>
<path fill-rule="evenodd" clip-rule="evenodd" d="M16.4657 17.223C17.1084 17.0165 17.7968 17.37 18.0033 18.0126L19.3606 22.2352L21.2163 17.9052C21.4089 17.4558 21.8508 17.1644 22.3397 17.1644C22.8287 17.1644 23.2705 17.4558 23.4631 17.9052L25.3189 22.2352L26.6761 18.0126C26.8827 17.37 27.5711 17.0165 28.2137 17.223C28.8564 17.4296 29.2099 18.118 29.0033 18.7606L26.6462 26.094C26.4902 26.5793 26.0492 26.9169 25.54 26.9408C25.0307 26.9647 24.56 26.67 24.3592 26.2014L22.3397 21.4893L20.3203 26.2014C20.1194 26.67 19.6488 26.9647 19.1395 26.9408C18.6302 26.9169 18.1893 26.5793 18.0333 26.094L15.6761 18.7606C15.4696 18.118 15.8231 17.4296 16.4657 17.223Z" fill="#074093"/>
<path fill-rule="evenodd" clip-rule="evenodd" d="M38.2222 29.9974C38.2222 32.6975 36.0334 34.8863 33.3333 34.8863C30.6333 34.8863 28.4444 32.6975 28.4444 29.9974C28.4444 27.2973 30.6333 25.1085 33.3333 25.1085C36.0334 25.1085 38.2222 27.2973 38.2222 29.9974ZM37.1512 36.2597C36.0391 36.9392 34.732 37.3307 33.3333 37.3307C29.2832 37.3307 26 34.0475 26 29.9974C26 25.9473 29.2832 22.6641 33.3333 22.6641C37.3834 22.6641 40.6667 25.9473 40.6667 29.9974C40.6667 31.7646 40.0416 33.3858 39.0004 34.652L41.8275 37.479C42.3048 37.9563 42.3048 38.7302 41.8275 39.2075C41.3502 39.6848 40.5763 39.6848 40.099 39.2075L37.1512 36.2597Z" fill="#3E4C60"/>
</svg>
