<svg width="36" height="36" viewBox="0 0 36 36" fill="none" xmlns="http://www.w3.org/2000/svg">
<path d="M4.49829 9.50049C4.49829 7.84363 5.84144 6.50049 7.49829 6.50049H28.4983C30.1551 6.50049 31.4983 7.84363 31.4983 9.50049V28.5005C31.4983 30.1573 30.1551 31.5005 28.4983 31.5005H7.49829C5.84144 31.5005 4.49829 30.1573 4.49829 28.5005V9.50049Z" fill="#DCEAFC"/>
<path d="M4.5 9.50049C4.5 7.84363 5.84315 6.50049 7.5 6.50049H28.5C30.1569 6.50049 31.5 7.84363 31.5 9.50049V13.5005H4.5V9.50049Z" fill="#F64A4A"/>
<path d="M10 5.25049C10 4.56013 10.5596 4.00049 11.25 4.00049V4.00049C11.9404 4.00049 12.5 4.56013 12.5 5.25049V8.75049C12.5 9.44084 11.9404 10.0005 11.25 10.0005V10.0005C10.5596 10.0005 10 9.44084 10 8.75049V5.25049Z" fill="#09203E"/>
<path d="M23.5 5.25049C23.5 4.56013 24.0596 4.00049 24.75 4.00049V4.00049C25.4404 4.00049 26 4.56013 26 5.25049V8.75049C26 9.44084 25.4404 10.0005 24.75 10.0005V10.0005C24.0596 10.0005 23.5 9.44084 23.5 8.75049V5.25049Z" fill="#09203E"/>
<path d="M14 22.0005C14 23.1051 13.1046 24.0005 12 24.0005C10.8954 24.0005 10 23.1051 10 22.0005C10 20.8959 10.8954 20.0005 12 20.0005C13.1046 20.0005 14 20.8959 14 22.0005Z" fill="#A1B3C9"/>
<path d="M20 22.0005C20 23.1051 19.1046 24.0005 18 24.0005C16.8954 24.0005 16 23.1051 16 22.0005C16 20.8959 16.8954 20.0005 18 20.0005C19.1046 20.0005 20 20.8959 20 22.0005Z" fill="#A1B3C9"/>
<path d="M26 22.0005C26 23.1051 25.1046 24.0005 24 24.0005C22.8954 24.0005 22 23.1051 22 22.0005C22 20.8959 22.8954 20.0005 24 20.0005C25.1046 20.0005 26 20.8959 26 22.0005Z" fill="#A1B3C9"/>
<path d="M34 27.0005C34 30.8665 30.866 34.0005 27 34.0005C23.134 34.0005 20 30.8665 20 27.0005C20 23.1345 23.134 20.0005 27 20.0005C30.866 20.0005 34 23.1345 34 27.0005Z" fill="#FFC737"/>
<path fill-rule="evenodd" clip-rule="evenodd" d="M23.25 27.0005C23.25 26.5863 23.5858 26.2505 24 26.2505H29C29.4142 26.2505 29.75 26.5863 29.75 27.0005C29.75 27.4147 29.4142 27.7505 29 27.7505H24C23.5858 27.7505 23.25 27.4147 23.25 27.0005Z" fill="white"/>
<path fill-rule="evenodd" clip-rule="evenodd" d="M27.2197 24.2202C27.5126 23.9273 27.9874 23.9273 28.2803 24.2202L30.5303 26.4702C30.671 26.6108 30.75 26.8016 30.75 27.0005C30.75 27.1994 30.671 27.3902 30.5303 27.5308L28.2803 29.7808C27.9874 30.0737 27.5126 30.0737 27.2197 29.7808C26.9268 29.4879 26.9268 29.0131 27.2197 28.7202L28.9393 27.0005L27.2197 25.2808C26.9268 24.9879 26.9268 24.5131 27.2197 24.2202Z" fill="white"/>
</svg>
