<svg width="36" height="36" viewBox="0 0 36 36" fill="none" xmlns="http://www.w3.org/2000/svg">
<path d="M4.50049 8.00049C4.50049 6.89592 5.39592 6.00049 6.50049 6.00049H29.5005C30.6051 6.00049 31.5005 6.89592 31.5005 8.00049V26.0005C31.5005 27.6573 30.1573 29.0005 28.5005 29.0005H7.50049C5.84363 29.0005 4.50049 27.6573 4.50049 26.0005V8.00049Z" fill="#2AD6CE"/>
<path d="M8 16.001C8 15.4487 8.44772 15.001 9 15.001H21C21.5523 15.001 22 15.4487 22 16.001V16.001C22 16.5533 21.5523 17.001 21 17.001H9C8.44772 17.001 8 16.5533 8 16.001V16.001Z" fill="white"/>
<path d="M8 20C8 19.4477 8.44772 19 9 19H16C16.5523 19 17 19.4477 17 20V20C17 20.5523 16.5523 21 16 21H9C8.44772 21 8 20.5523 8 20V20Z" fill="white"/>
<path d="M4.50049 8.00049C4.50049 6.89592 5.39592 6.00049 6.50049 6.00049H29.5005C30.6051 6.00049 31.5005 6.89592 31.5005 8.00049V11.0005H4.50049V8.00049Z" fill="#019992"/>
<path d="M20 27C20 23.134 23.134 20 27 20V20C30.866 20 34 23.134 34 27V27C34 30.866 30.866 34 27 34V34C23.134 34 20 30.866 20 27V27Z" fill="#FFC737"/>
<path fill-rule="evenodd" clip-rule="evenodd" d="M23.7707 24.5359C24.165 24.4092 24.5875 24.6261 24.7142 25.0205L25.3864 27.1116L26.3108 24.9545C26.429 24.6788 26.7002 24.5 27.0002 24.5C27.3002 24.5 27.5714 24.6788 27.6896 24.9545L28.614 27.1116L29.2862 25.0205C29.4129 24.6261 29.8354 24.4092 30.2297 24.5359C30.6241 24.6627 30.841 25.0851 30.7142 25.4795L29.4285 29.4795C29.3328 29.7773 29.0622 29.9844 28.7497 29.9991C28.4372 30.0138 28.1484 29.833 28.0251 29.5454L27.0002 27.1539L25.9753 29.5454C25.852 29.833 25.5632 30.0138 25.2507 29.9991C24.9382 29.9844 24.6676 29.7773 24.5719 29.4795L23.2862 25.4795C23.1594 25.0851 23.3764 24.6627 23.7707 24.5359Z" fill="white"/>
<path d="M22 27C22 26.5858 22.3198 26.25 22.7143 26.25H23.7857C24.1802 26.25 24.5 26.5858 24.5 27C24.5 27.4142 24.1802 27.75 23.7857 27.75H22.7143C22.3198 27.75 22 27.4142 22 27Z" fill="white"/>
<path d="M29.5 27C29.5 26.5858 29.8198 26.25 30.2143 26.25H31.2857C31.6802 26.25 32 26.5858 32 27C32 27.4142 31.6802 27.75 31.2857 27.75H30.2143C29.8198 27.75 29.5 27.4142 29.5 27Z" fill="white"/>
</svg>
