<svg width="36" height="36" viewBox="0 0 36 36" fill="none" xmlns="http://www.w3.org/2000/svg">
<path d="M5 4H10.1147V9H5V4Z" fill="#CAD4E1"/>
<path fill-rule="evenodd" clip-rule="evenodd" d="M26 4H7V32H8.5C8.5 31.3096 9.05964 30.75 9.75 30.75C10.4404 30.75 11 31.3096 11 32H13C13 31.3096 13.5596 30.75 14.25 30.75C14.9404 30.75 15.5 31.3096 15.5 32H17.5C17.5 31.3096 18.0596 30.75 18.75 30.75C19.4404 30.75 20 31.3096 20 32H22C22 31.3096 22.5596 30.75 23.25 30.75C23.9404 30.75 24.5 31.3096 24.5 32H25.8819C25.6444 31.7346 25.5 31.3842 25.5 31C25.5 30.1716 26.1716 29.5 27 29.5C27.8284 29.5 28.5 30.1716 28.5 31C28.5 31.3842 28.3556 31.7346 28.1181 32H29V7C29 5.34315 27.6569 4 26 4Z" fill="#CAD4E1"/>
<path d="M3 6C3 4.89543 3.89543 4 5 4V4C6.10457 4 7 4.89543 7 6V14H4C3.44772 14 3 13.5523 3 13V6Z" fill="#AFC1D5"/>
<path d="M11 18.001C11 17.4487 11.4477 17.001 12 17.001H24C24.5523 17.001 25 17.4487 25 18.001V18.001C25 18.5533 24.5523 19.001 24 19.001H12C11.4477 19.001 11 18.5533 11 18.001V18.001Z" fill="white"/>
<path d="M11 23C11 22.4477 11.4477 22 12 22H19C19.5523 22 20 22.4477 20 23V23C20 23.5523 19.5523 24 19 24H12C11.4477 24 11 23.5523 11 23V23Z" fill="white"/>
<path d="M21 28C21 24.134 24.134 21 28 21V21C31.866 21 35 24.134 35 28V28C35 31.866 31.866 35 28 35V35C24.134 35 21 31.866 21 28V28Z" fill="#2AD6CE"/>
<path fill-rule="evenodd" clip-rule="evenodd" d="M24.7707 25.5359C25.165 25.4092 25.5875 25.6261 25.7142 26.0205L26.3864 28.1116L27.3108 25.9545C27.429 25.6788 27.7002 25.5 28.0002 25.5C28.3002 25.5 28.5714 25.6788 28.6896 25.9545L29.614 28.1116L30.2862 26.0205C30.4129 25.6261 30.8354 25.4092 31.2297 25.5359C31.6241 25.6627 31.841 26.0851 31.7142 26.4795L30.4285 30.4795C30.3328 30.7773 30.0622 30.9844 29.7497 30.9991C29.4372 31.0138 29.1484 30.833 29.0251 30.5454L28.0002 28.1539L26.9753 30.5454C26.852 30.833 26.5632 31.0138 26.2507 30.9991C25.9382 30.9844 25.6676 30.7773 25.5719 30.4795L24.2862 26.4795C24.1594 26.0851 24.3764 25.6627 24.7707 25.5359Z" fill="white"/>
<path d="M23 28C23 27.5858 23.3198 27.25 23.7143 27.25H24.7857C25.1802 27.25 25.5 27.5858 25.5 28C25.5 28.4142 25.1802 28.75 24.7857 28.75H23.7143C23.3198 28.75 23 28.4142 23 28Z" fill="white"/>
<path d="M30.5 28C30.5 27.5858 30.8198 27.25 31.2143 27.25H32.2857C32.6802 27.25 33 27.5858 33 28C33 28.4142 32.6802 28.75 32.2857 28.75H31.2143C30.8198 28.75 30.5 28.4142 30.5 28Z" fill="white"/>
</svg>
