<svg width="36" height="36" viewBox="0 0 36 36" fill="none" xmlns="http://www.w3.org/2000/svg">
<path d="M6.75 18.25C6.75 12.0368 11.7868 7 18 7V7C24.2132 7 29.25 12.0368 29.25 18.25V27C29.25 29.2091 27.4591 31 25.25 31H10.75C8.54086 31 6.75 29.2091 6.75 27V18.25Z" fill="#00CBC1"/>
<path fill-rule="evenodd" clip-rule="evenodd" d="M16.6027 3.23657C17.4213 2.58781 18.5788 2.58781 19.3975 3.23657L32.6475 13.7366C33.6214 14.5084 33.7853 15.9235 33.0135 16.8974C32.2417 17.8713 30.8266 18.0352 29.8527 17.2634L18.0001 7.87083L6.14752 17.2634C5.17361 18.0352 3.75844 17.8713 2.98666 16.8974C2.21488 15.9235 2.37874 14.5084 3.35266 13.7366L16.6027 3.23657Z" fill="#00A69E"/>
<path d="M23 26C23 24.8954 23.8954 24 25 24H33C34.1046 24 35 24.8954 35 26V31C35 32.1046 34.1046 33 33 33H25C23.8954 33 23 32.1046 23 31V26Z" fill="#074093"/>
<path d="M28.25 27.75C28.25 27.3358 28.5858 27 29 27V27C29.4142 27 29.75 27.3358 29.75 27.75V29.25C29.75 29.6642 29.4142 30 29 30V30C28.5858 30 28.25 29.6642 28.25 29.25V27.75Z" fill="white"/>
<path fill-rule="evenodd" clip-rule="evenodd" d="M29 19C27.067 19 25.5 20.567 25.5 22.5V24.5H27V22.5C27 21.3954 27.8954 20.5 29 20.5C30.1046 20.5 31 21.3954 31 22.5V24.5H32.5V22.5C32.5 20.567 30.933 19 29 19Z" fill="#074093"/>
<path d="M12 25.5C12 23.567 13.567 22 15.5 22V22C17.433 22 19 23.567 19 25.5V31H12V25.5Z" fill="#00A69E"/>
</svg>
