<svg width="24" height="25" viewBox="0 0 24 25" fill="none" xmlns="http://www.w3.org/2000/svg">
<path fill-rule="evenodd" clip-rule="evenodd" d="M6.44988 5.30918C7.64897 3.88949 9.44976 2.82425 11.7746 2.82425C14.3457 2.82425 16.26 3.93856 17.5147 5.39536C18.743 6.82149 19.3596 8.59793 19.3596 10.0179C19.3596 12.582 18.6397 14.1825 17.7431 15.8412C16.5891 17.976 16.0278 18.7723 14.2735 20.7C13.8368 21.1798 13.3518 21.5148 12.8219 21.6864C12.2871 21.8597 11.7695 21.846 11.307 21.7244C10.4239 21.4922 9.74849 20.8718 9.3517 20.42C7.90507 18.7728 7.34801 17.8741 6.42211 16.224C5.46957 14.5264 4.64038 12.3601 4.64038 10.0179C4.64038 8.48002 5.27027 6.7058 6.44988 5.30918ZM7.97781 6.5997C7.08607 7.65549 6.64038 8.9781 6.64038 10.0179C6.64038 11.9004 7.31306 13.7247 8.1663 15.2453C9.04618 16.8134 9.52589 17.5875 10.8545 19.1003C11.1502 19.4371 11.5011 19.7074 11.8156 19.7901C11.952 19.826 12.0761 19.8257 12.2056 19.7838C12.34 19.7402 12.5418 19.6313 12.7943 19.3539C14.4438 17.5414 14.9097 16.877 15.9837 14.8902C16.8055 13.3697 17.3596 12.1105 17.3596 10.0179C17.3596 9.10958 16.9369 7.78918 15.9993 6.70056C15.0881 5.64261 13.7099 4.82425 11.7746 4.82425C10.1164 4.82425 8.85005 5.56699 7.97781 6.5997Z" fill="#15181F"/>
<path fill-rule="evenodd" clip-rule="evenodd" d="M12 11.6481C12.8532 11.6481 13.5448 10.9564 13.5448 10.1032C13.5448 9.24999 12.8532 8.55832 12 8.55832C11.1467 8.55832 10.4551 9.24999 10.4551 10.1032C10.4551 10.9564 11.1467 11.6481 12 11.6481ZM12 13.6481C13.9577 13.6481 15.5448 12.061 15.5448 10.1032C15.5448 8.14542 13.9577 6.55832 12 6.55832C10.0422 6.55832 8.45508 8.14542 8.45508 10.1032C8.45508 12.061 10.0422 13.6481 12 13.6481Z" fill="#15181F"/>
</svg>
