<svg width="36" height="36" viewBox="0 0 36 36" fill="none" xmlns="http://www.w3.org/2000/svg">
<path fill-rule="evenodd" clip-rule="evenodd" d="M14.9998 23.8263C16.74 23.8263 18.3938 23.4559 19.8864 22.7896L24.5264 30.8263C24.9113 31.4929 24.4302 32.3263 23.6604 32.3263H17V29.8264C17 28.7218 16.1045 27.8264 15 27.8264C13.8954 27.8264 13 28.7218 13 29.8264V32.3263H6.34011C5.57031 32.3263 5.08919 31.4929 5.47409 30.8263L10.1139 22.7899C11.6064 23.456 13.2598 23.8263 14.9998 23.8263Z" fill="#00A69E"/>
<path fill-rule="evenodd" clip-rule="evenodd" d="M15 26.8264C21.6274 26.8264 27 21.4538 27 14.8264C27 8.199 21.6274 2.82642 15 2.82642C8.37258 2.82642 3 8.199 3 14.8264C3 21.4538 8.37258 26.8264 15 26.8264ZM15 22.8264C19.4183 22.8264 23 19.2447 23 14.8264C23 10.4081 19.4183 6.82642 15 6.82642C10.5817 6.82642 7 10.4081 7 14.8264C7 19.2447 10.5817 22.8264 15 22.8264Z" fill="#2AD6CE"/>
<path d="M27 22.6038H30V31.6038C30 32.156 29.5523 32.6038 29 32.6038H28C27.4477 32.6038 27 32.156 27 31.6038V22.6038Z" fill="#97B9DB"/>
<path fill-rule="evenodd" clip-rule="evenodd" d="M14.0693 22.8264H30.9999C32.6568 22.8264 33.9999 21.4833 33.9999 19.8264C33.9999 18.1696 32.6568 16.8264 30.9999 16.8264H7.25195C8.06504 19.9855 10.7592 22.3894 14.0693 22.7729V22.8264Z" fill="#415972"/>
<path d="M26 31.6038C26 31.0515 26.4477 30.6038 27 30.6038H30C30.5523 30.6038 31 31.0515 31 31.6038C31 32.156 30.5523 32.6038 30 32.6038H27C26.4477 32.6038 26 32.156 26 31.6038Z" fill="#6D8FB1"/>
</svg>
