<svg width="65" height="65" viewBox="0 0 65 65" fill="none" xmlns="http://www.w3.org/2000/svg">
<path d="M58.7504 32.6653C58.7504 46.9747 47.1503 58.5748 32.8409 58.5748C18.5315 58.5748 6.9314 46.9747 6.9314 32.6653C6.9314 18.3559 18.5315 6.7558 32.8409 6.7558C47.1503 6.7558 58.7504 18.3559 58.7504 32.6653Z" fill="#0F5BC8"/>
<path d="M40.8908 21.9906C41.6231 21.2583 42.8105 21.2583 43.5428 21.9906C44.2751 22.723 44.2751 23.9103 43.5428 24.6426L24.9792 43.2061C24.2469 43.9384 23.0596 43.9384 22.3273 43.2061C21.595 42.4738 21.595 41.2865 22.3273 40.5542L40.8908 21.9906Z" fill="#AACCFC"/>
<path fill-rule="evenodd" clip-rule="evenodd" d="M25.3399 26.4173C26.0303 26.4173 26.59 25.8576 26.59 25.1672C26.59 24.4767 26.0303 23.917 25.3399 23.917C24.6495 23.917 24.0898 24.4767 24.0898 25.1672C24.0898 25.8576 24.6495 26.4173 25.3399 26.4173ZM25.3399 30.1677C28.1016 30.1677 30.3404 27.9289 30.3404 25.1672C30.3404 22.4054 28.1016 20.1666 25.3399 20.1666C22.5782 20.1666 20.3394 22.4054 20.3394 25.1672C20.3394 27.9289 22.5782 30.1677 25.3399 30.1677Z" fill="#AACCFC"/>
<path fill-rule="evenodd" clip-rule="evenodd" d="M40.3414 41.4189C41.0318 41.4189 41.5915 40.8592 41.5915 40.1688C41.5915 39.4783 41.0318 38.9186 40.3414 38.9186C39.6509 38.9186 39.0912 39.4783 39.0912 40.1688C39.0912 40.8592 39.6509 41.4189 40.3414 41.4189ZM40.3414 45.1693C43.1031 45.1693 45.3419 42.9305 45.3419 40.1688C45.3419 37.407 43.1031 35.1682 40.3414 35.1682C37.5796 35.1682 35.3408 37.407 35.3408 40.1688C35.3408 42.9305 37.5796 45.1693 40.3414 45.1693Z" fill="#AACCFC"/>
</svg>
