<svg width="48" height="48" viewBox="0 0 48 48" fill="none" xmlns="http://www.w3.org/2000/svg">
<path d="M31.5 13.5C31.5 17.6421 28.1421 21 24 21C19.8579 21 16.5 17.6421 16.5 13.5C16.5 9.35786 19.8579 6 24 6C28.1421 6 31.5 9.35786 31.5 13.5Z" fill="#F17318"/>
<path d="M6.5 37.06C6.5 29.8472 12.4056 24 19.6905 24H28.3095C35.5944 24 41.5 29.8472 41.5 37.06C41.5 37.7522 41.1494 38.3901 40.5075 38.6644C38.6051 39.4772 33.7413 41 24 41C14.2587 41 9.39485 39.4772 7.49255 38.6644C6.85063 38.3901 6.5 37.7522 6.5 37.06Z" fill="#E26308"/>
<path d="M46 36C46 40.9706 41.9706 45 37 45C32.0294 45 28 40.9706 28 36C28 31.0294 32.0294 27 37 27C41.9706 27 46 31.0294 46 36Z" fill="#FFC058"/>
<path fill-rule="evenodd" clip-rule="evenodd" d="M32.6755 32.5541C33.1979 32.375 33.7666 32.6533 33.9457 33.1757L34.8469 35.8042L36.0903 33.0843C36.253 32.7283 36.6084 32.5 36.9998 32.5C37.3911 32.5 37.7465 32.7283 37.9093 33.0843L39.1526 35.8042L40.0538 33.1757C40.233 32.6533 40.8017 32.375 41.3241 32.5541C41.8465 32.7332 42.1248 33.3019 41.9457 33.8244L40.2314 38.8244C40.0987 39.2115 39.7435 39.4787 39.3347 39.4988C38.926 39.519 38.5462 39.288 38.376 38.9158L36.9998 35.9053L35.6235 38.9158C35.4534 39.288 35.0736 39.519 34.6648 39.4988C34.2561 39.4787 33.9009 39.2115 33.7681 38.8244L32.0538 33.8244C31.8747 33.3019 32.153 32.7332 32.6755 32.5541Z" fill="white"/>
<path d="M30.5 36.2498C30.5 35.6975 30.9477 35.2498 31.5 35.2498H33C33.5523 35.2498 34 35.6975 34 36.2498C34 36.802 33.5523 37.2498 33 37.2498H31.5C30.9477 37.2498 30.5 36.802 30.5 36.2498Z" fill="white"/>
<path d="M40 36.2498C40 35.6975 40.4477 35.2498 41 35.2498H42.5C43.0523 35.2498 43.5 35.6975 43.5 36.2498C43.5 36.802 43.0523 37.2498 42.5 37.2498H41C40.4477 37.2498 40 36.802 40 36.2498Z" fill="white"/>
</svg>
