<svg width="65" height="65" viewBox="0 0 65 65" fill="none" xmlns="http://www.w3.org/2000/svg">
<path fill-rule="evenodd" clip-rule="evenodd" d="M54.1741 28.2222H47.063V56.6666H54.1741C56.1378 56.6666 57.7297 55.0747 57.7297 53.1111V31.7777C57.7297 29.814 56.1378 28.2222 54.1741 28.2222ZM51.5074 33.5555C51.0165 33.5555 50.6185 33.9535 50.6185 34.4444V36.2222C50.6185 36.7131 51.0165 37.1111 51.5074 37.1111H53.2852C53.7761 37.1111 54.1741 36.7131 54.1741 36.2222V34.4444C54.1741 33.9535 53.7761 33.5555 53.2852 33.5555H51.5074Z" fill="#CEDEF3"/>
<path fill-rule="evenodd" clip-rule="evenodd" d="M15.0631 8.66663C13.0994 8.66663 11.5076 10.2585 11.5076 12.2222V53.1111C11.5076 55.0748 13.0994 56.6666 15.0631 56.6666H23.952V46C23.952 45.0181 24.748 44.2222 25.7298 44.2222H32.8409C33.8227 44.2222 34.6187 45.0181 34.6187 46V56.6666H47.0631V12.2222C47.0631 10.2585 45.4712 8.66663 43.5076 8.66663H15.0631ZM20.3965 17.5555C19.4146 17.5555 18.6187 18.3515 18.6187 19.3333V22.8888C18.6187 23.8707 19.4146 24.6666 20.3965 24.6666H23.952C24.9339 24.6666 25.7298 23.8707 25.7298 22.8888V19.3333C25.7298 18.3515 24.9339 17.5555 23.952 17.5555H20.3965ZM18.6187 31.7777C18.6187 30.7959 19.4146 30 20.3965 30H23.952C24.9339 30 25.7298 30.7959 25.7298 31.7777V35.3333C25.7298 36.3151 24.9339 37.1111 23.952 37.1111H20.3965C19.4146 37.1111 18.6187 36.3151 18.6187 35.3333V31.7777ZM32.8409 19.3333C32.8409 18.3515 33.6368 17.5555 34.6187 17.5555H38.1742C39.1561 17.5555 39.952 18.3515 39.952 19.3333V22.8888C39.952 23.8707 39.1561 24.6666 38.1742 24.6666H34.6187C33.6368 24.6666 32.8409 23.8707 32.8409 22.8888V19.3333ZM34.6187 30C33.6368 30 32.8409 30.7959 32.8409 31.7777V35.3333C32.8409 36.3151 33.6368 37.1111 34.6187 37.1111H38.1742C39.1561 37.1111 39.952 36.3151 39.952 35.3333V31.7777C39.952 30.7959 39.1561 30 38.1742 30H34.6187Z" fill="#82A3D2"/>
</svg>
