<svg width="65" height="65" viewBox="0 0 65 65" fill="none" xmlns="http://www.w3.org/2000/svg">
<path d="M31.0613 13.929C31.7609 12.8385 33.3545 12.8385 34.054 13.929L46.1974 32.8587C46.9565 34.0419 46.1068 35.5964 44.7011 35.5964H20.4142C19.0085 35.5964 18.1588 34.0419 18.9179 32.8587L31.0613 13.929Z" fill="#FFC058"/>
<path d="M11.5123 22.6907C11.4014 21.1553 13.1618 20.2142 14.3769 21.1593L39.1346 40.4153C40.4707 41.4545 39.7359 43.5963 38.0431 43.5963H14.6767C13.7446 43.5963 12.9707 42.8764 12.9035 41.9467L11.5123 22.6907Z" fill="#FFCD70"/>
<path d="M53.6007 22.6398C53.7137 21.1125 51.9714 20.1667 50.7521 21.0933L25.3445 40.4031C23.9888 41.4334 24.7175 43.5963 26.4202 43.5963H50.4001C51.331 43.5963 52.1043 42.878 52.173 41.9496L53.6007 22.6398Z" fill="#FFD35E"/>
<path d="M13.0022 48.0407C13.0022 47.0589 13.7981 46.2629 14.78 46.2629H50.3355C51.3174 46.2629 52.1133 47.0589 52.1133 48.0407V49.8185C52.1133 50.8003 51.3174 51.5963 50.3355 51.5963H14.78C13.7981 51.5963 13.0022 50.8003 13.0022 49.8185V48.0407Z" fill="#FFC463"/>
</svg>
