<svg width="48" height="48" viewBox="0 0 48 48" fill="none" xmlns="http://www.w3.org/2000/svg">
<path fill-rule="evenodd" clip-rule="evenodd" d="M39 19H9V25.8354H17.5445C18.7949 26.5054 19.9386 27.876 20.4642 28.6659L20.4642 39H27.5356V28.6662C28.0611 27.8763 29.2049 26.5055 30.4555 25.8354H39V19Z" fill="#046661"/>
<path d="M27 24C27 25.6569 25.6569 27 24 27C22.3431 27 21 25.6569 21 24C21 22.3431 22.3431 21 24 21C25.6569 21 27 22.3431 27 24Z" fill="#9FDEDB"/>
<path fill-rule="evenodd" clip-rule="evenodd" d="M24 37C31.1797 37 37 31.1797 37 24C37 16.8203 31.1797 11 24 11C16.8203 11 11 16.8203 11 24C11 31.1797 16.8203 37 24 37ZM24 43C34.4934 43 43 34.4934 43 24C43 13.5066 34.4934 5 24 5C13.5066 5 5 13.5066 5 24C5 34.4934 13.5066 43 24 43Z" fill="#046661"/>
<path d="M29.0198 29.1573C29.0488 28.3818 29.5695 27.7299 30.3034 27.4773L36.5253 25.3359C37.158 25.1182 37.8453 25.1182 38.4779 25.3359L44.6967 27.4762C45.4322 27.7293 45.9534 28.3834 45.9814 29.1607C46.061 31.368 45.9637 35.9492 44.0647 38.7956C42.2858 41.4618 38.5516 43.9999 37.5016 43.9999C36.4516 43.9999 32.6334 41.3466 30.9387 38.7956C29.0309 35.9236 28.9374 31.357 29.0198 29.1573Z" fill="#9BEDE9"/>
<path fill-rule="evenodd" clip-rule="evenodd" d="M41.7071 31.2929C42.0976 31.6834 42.0976 32.3166 41.7071 32.7071L37.2071 37.2071C36.8166 37.5976 36.1834 37.5976 35.7929 37.2071L33.2929 34.7071C32.9024 34.3166 32.9024 33.6834 33.2929 33.2929C33.6834 32.9024 34.3166 32.9024 34.7071 33.2929L36.5 35.0858L40.2929 31.2929C40.6834 30.9024 41.3166 30.9024 41.7071 31.2929Z" fill="#046661"/>
</svg>
