<svg width="65" height="65" viewBox="0 0 65 65" fill="none" xmlns="http://www.w3.org/2000/svg">
<path fill-rule="evenodd" clip-rule="evenodd" d="M32.8408 48.2222C41.4319 48.2222 48.3964 41.2577 48.3964 32.6666C48.3964 24.0755 41.4319 17.111 32.8408 17.111C24.2497 17.111 17.2852 24.0755 17.2852 32.6666C17.2852 41.2577 24.2497 48.2222 32.8408 48.2222ZM32.8408 57.5555C46.5865 57.5555 57.7297 46.4124 57.7297 32.6666C57.7297 18.9208 46.5865 7.77771 32.8408 7.77771C19.095 7.77771 7.9519 18.9208 7.9519 32.6666C7.9519 46.4124 19.095 57.5555 32.8408 57.5555Z" fill="#046661"/>
<path fill-rule="evenodd" clip-rule="evenodd" d="M53.0631 26.4445H12.6187V35.7778H24.1379C25.8237 36.6925 27.3656 38.564 28.0741 39.6426L28.0741 53.7531H37.6074L37.6074 39.643C38.3158 38.5644 39.8579 36.6927 41.5438 35.7778H53.0631V26.4445Z" fill="#046661"/>
<path d="M36.7297 33.4444C36.7297 35.5922 34.9886 37.3333 32.8408 37.3333C30.693 37.3333 28.9519 35.5922 28.9519 33.4444C28.9519 31.2967 30.693 29.5555 32.8408 29.5555C34.9886 29.5555 36.7297 31.2967 36.7297 33.4444Z" fill="#9FDEDB"/>
</svg>
