<svg width="48" height="48" viewBox="0 0 48 48" fill="none" xmlns="http://www.w3.org/2000/svg">
<path d="M5.5 29.7458H12.5V35.7455C12.5 36.85 11.7165 37.7454 10.75 37.7454H7.25C6.2835 37.7454 5.5 36.85 5.5 35.7455V29.7458Z" fill="#393465"/>
<path d="M35.5 29.7458H42.5V35.7455C42.5 36.85 41.7165 37.7454 40.75 37.7454H37.25C36.2835 37.7454 35.5 36.85 35.5 35.7455V29.7458Z" fill="#393465"/>
<path fill-rule="evenodd" clip-rule="evenodd" d="M6.39551 19.7644L9.20989 16.4335C10.1929 13.5381 12.9769 7.74731 16.2492 7.74731H16.3443H20.4347H27.6604H31.846H32.2264C33.1777 7.74731 34.0124 8.22658 34.4836 8.94759C36.5532 10.8005 38.1812 14.3596 38.8852 16.4335L41.8081 19.9054C41.8081 19.9054 42.5 20.6762 42.5 22.5701V32.0158C42.5 32.4198 42.5 32.7473 42.5 32.7473H5.5C5.5 32.7473 5.5 32.4198 5.5 32.0158V22.5701C5.5 20.6762 6.34091 19.8476 6.39551 19.7644Z" fill="#D6D1FF"/>
<path d="M18.7941 30.5966C18.8707 30.389 19.1009 30.2473 19.3615 30.2473H28.6378C28.8984 30.2473 29.1285 30.389 29.2052 30.5966L29.9993 32.7473H18L18.7941 30.5966Z" fill="#7D76BE"/>
<path d="M10.0259 10.4751C10.6052 7.7152 12.9707 5.74585 15.7066 5.74585H32.2934C35.0293 5.74585 37.3948 7.7152 37.9741 10.4751L39.5 17.7451H8.5L10.0259 10.4751Z" fill="#D6D1FF"/>
<path d="M12.2961 11.0893C12.6258 9.16079 14.3366 7.74731 16.3413 7.74731H31.6587C33.6634 7.74731 35.3742 9.16079 35.7039 11.0894L36.5 15.7468H11.5L12.2961 11.0893Z" fill="#7D76BE"/>
<path fill-rule="evenodd" clip-rule="evenodd" d="M5.49329 12.7473C3.70207 12.7473 2.25 14.4529 2.25 16.5568C2.25 17.2143 2.70377 17.7473 3.26353 17.7473H7.11752H8.90986H10.2541V15.9052H8.90986V13.7999C8.90986 13.2186 8.50863 12.7473 8.01369 12.7473H5.49329Z" fill="#D6D1FF"/>
<path fill-rule="evenodd" clip-rule="evenodd" d="M42.5067 12.7473C44.2979 12.7473 45.75 14.4529 45.75 16.5568C45.75 17.2143 45.2962 17.7473 44.7365 17.7473H40.8826H39.0902H37.746V15.9052H39.0902V13.7999C39.0902 13.2186 39.4915 12.7473 39.9864 12.7473H42.5067Z" fill="#D6D1FF"/>
<path d="M9 24.4706C9 24.0711 9.32054 23.7473 9.71595 23.7473H15.284C15.6795 23.7473 16 24.0711 16 24.4706V27.5241C16 27.9235 15.6795 28.2473 15.284 28.2473H9.71595C9.32054 28.2473 9 27.9235 9 27.5241V24.4706Z" fill="#7D76BE"/>
<path d="M32 24.4706C32 24.0711 32.3205 23.7473 32.716 23.7473H38.284C38.6795 23.7473 39 24.0711 39 24.4706V27.5241C39 27.9235 38.6795 28.2473 38.284 28.2473H32.716C32.3205 28.2473 32 27.9235 32 27.5241V24.4706Z" fill="#7D76BE"/>
<path d="M25 28.7473C25 27.6427 25.8954 26.7473 27 26.7473H44C45.1046 26.7473 46 27.6427 46 28.7473V40.7473C46 41.8519 45.1046 42.7473 44 42.7473H27C25.8954 42.7473 25 41.8519 25 40.7473V28.7473Z" fill="#B1AAEB"/>
<path fill-rule="evenodd" clip-rule="evenodd" d="M41.8829 31.3634C42.3711 31.8516 42.3711 32.643 41.8829 33.1312L37.8829 37.1312C37.4258 37.5883 36.6955 37.6215 36.1988 37.2076L34.0188 35.3909L30.8222 38.188C30.3026 38.6426 29.5129 38.59 29.0583 38.0704C28.6037 37.5509 28.6564 36.7612 29.1759 36.3066L33.1759 32.8066C33.6386 32.4017 34.327 32.3935 34.7993 32.787L36.9223 34.5563L40.1152 31.3634C40.6033 30.8753 41.3948 30.8753 41.8829 31.3634Z" fill="#524B90"/>
</svg>
