<svg width="65" height="65" viewBox="0 0 65 65" fill="none" xmlns="http://www.w3.org/2000/svg">
<path d="M7.44751 43.8428H17.6046V51.4606C17.6046 52.863 16.4678 53.9999 15.0654 53.9999H9.98679C8.58439 53.9999 7.44751 52.863 7.44751 51.4606V43.8428Z" fill="#393465"/>
<path d="M48.0767 43.8428H58.2338V51.4606C58.2338 52.863 57.0969 53.9999 55.6945 53.9999H50.6159C49.2135 53.9999 48.0767 52.863 48.0767 51.4606V43.8428Z" fill="#393465"/>
<path fill-rule="evenodd" clip-rule="evenodd" d="M8.67667 30.4228L12.5397 25.5159C13.8889 21.634 17.7101 13.8702 22.2017 13.8702H22.3322H27.9467H37.8646H43.6096H44.1318C45.4375 13.8702 46.5832 14.5128 47.2299 15.4795C50.0706 17.9637 52.3052 22.7355 53.2716 25.5159L57.2834 30.6119C57.2834 30.6119 58.2332 31.6452 58.2332 34.1845V46.4075C58.2332 46.9491 58.2332 47.3882 58.2332 47.3882H7.44751C7.44751 47.3882 7.44751 46.9491 7.44751 46.4075V34.1845C7.44751 31.6452 8.60173 30.5343 8.67667 30.4228Z" fill="#D6D1FF"/>
<path d="M25.7884 43.8822C25.8923 43.5447 26.204 43.3145 26.5571 43.3145H39.1242C39.4773 43.3145 39.7891 43.5447 39.8929 43.8822L40.9687 47.3785H24.7126L25.7884 43.8822Z" fill="#7D76BE"/>
<path d="M12.5205 35.7147C12.5205 34.5925 13.4303 33.6827 14.5525 33.6827H20.6485C21.7708 33.6827 22.6805 34.5925 22.6805 35.7147V37.7467C22.6805 38.869 21.7708 39.7788 20.6485 39.7788H14.5525C13.4303 39.7788 12.5205 38.869 12.5205 37.7467V35.7147Z" fill="#897EE6"/>
<path d="M43.0007 35.7147C43.0007 34.5925 43.9105 33.6827 45.0327 33.6827H51.1287C52.251 33.6827 53.1608 34.5925 53.1608 35.7147V37.7467C53.1608 38.869 52.251 39.7788 51.1287 39.7788H45.0327C43.9105 39.7788 43.0007 38.869 43.0007 37.7467V35.7147Z" fill="#897EE6"/>
<path d="M14.5255 17.3356C15.2847 13.8312 18.3849 11.3307 21.9706 11.3307H43.7092C47.2948 11.3307 50.3951 13.8312 51.1543 17.3356L53.1542 26.5664H12.5256L14.5255 17.3356Z" fill="#D6D1FF"/>
<path d="M17.62 17.819C18.0487 15.2474 20.2737 13.3627 22.8808 13.3627H42.8007C45.4078 13.3627 47.6328 15.2474 48.0615 17.819L49.0968 24.0293H16.5847L17.62 17.819Z" fill="#524B91"/>
<path fill-rule="evenodd" clip-rule="evenodd" d="M8.71723 21.488C6.32879 21.488 4.39258 24.0866 4.39258 27.2921C4.39258 28.2938 4.99764 29.1059 5.74403 29.1059H10.883H13.2729H15.0654V26.2993H13.2729V23.0918C13.2729 22.2061 12.7379 21.488 12.078 21.488H8.71723Z" fill="#D6D1FF"/>
<path fill-rule="evenodd" clip-rule="evenodd" d="M56.9639 21.488C59.3524 21.488 61.2886 24.0866 61.2886 27.2922C61.2886 28.2939 60.6835 29.106 59.9371 29.106H54.7983H52.4083H50.6159V26.2994H52.4083V23.0918C52.4083 22.2061 52.9433 21.488 53.6033 21.488H56.9639Z" fill="#D6D1FF"/>
</svg>
