<svg width="48" height="48" viewBox="0 0 48 48" fill="none" xmlns="http://www.w3.org/2000/svg">
<path fill-rule="evenodd" clip-rule="evenodd" d="M6.5 8.24731C4.29086 8.24731 2.5 10.0382 2.5 12.2473V35.2473C2.5 37.4565 4.29086 39.2473 6.5 39.2473H41.5C43.7091 39.2473 45.5 37.4565 45.5 35.2473V27.7164C45.3362 27.7368 45.1693 27.7473 45 27.7473C42.7909 27.7473 41 25.9565 41 23.7473C41 21.5382 42.7909 19.7473 45 19.7473C45.1693 19.7473 45.3362 19.7578 45.5 19.7783V12.2473C45.5 10.0382 43.7091 8.24731 41.5 8.24731H6.5Z" fill="#0F5BC8"/>
<path fill-rule="evenodd" clip-rule="evenodd" d="M24.5855 17.8634C25.0737 18.3515 25.0737 19.143 24.5855 19.6311L14.3839 29.8327C13.8958 30.3209 13.1043 30.3209 12.6162 29.8327C12.128 29.3446 12.128 28.5531 12.6162 28.065L22.8178 17.8634C23.3059 17.3752 24.0974 17.3752 24.5855 17.8634Z" fill="#AACCFC"/>
<path fill-rule="evenodd" clip-rule="evenodd" d="M14 20.2473C14.5523 20.2473 15 19.7996 15 19.2473C15 18.695 14.5523 18.2473 14 18.2473C13.4477 18.2473 13 18.695 13 19.2473C13 19.7996 13.4477 20.2473 14 20.2473ZM14 22.7473C15.933 22.7473 17.5 21.1803 17.5 19.2473C17.5 17.3143 15.933 15.7473 14 15.7473C12.067 15.7473 10.5 17.3143 10.5 19.2473C10.5 21.1803 12.067 22.7473 14 22.7473Z" fill="#AACCFC"/>
<path fill-rule="evenodd" clip-rule="evenodd" d="M23.2017 29.449C23.7539 29.449 24.2017 29.0013 24.2017 28.449C24.2017 27.8967 23.7539 27.449 23.2017 27.449C22.6494 27.449 22.2017 27.8967 22.2017 28.449C22.2017 29.0013 22.6494 29.449 23.2017 29.449ZM23.2017 31.949C25.1347 31.949 26.7017 30.382 26.7017 28.449C26.7017 26.516 25.1347 24.949 23.2017 24.949C21.2687 24.949 19.7017 26.516 19.7017 28.449C19.7017 30.382 21.2687 31.949 23.2017 31.949Z" fill="#AACCFC"/>
<path fill-rule="evenodd" clip-rule="evenodd" d="M35 9.24731C35.5523 9.24731 36 9.69503 36 10.2473V11.9348C36 12.4871 35.5523 12.9348 35 12.9348C34.4477 12.9348 34 12.4871 34 11.9348V10.2473C34 9.69503 34.4477 9.24731 35 9.24731ZM35 16.5598C35.5523 16.5598 36 17.0075 36 17.5598V20.9348C36 21.4871 35.5523 21.9348 35 21.9348C34.4477 21.9348 34 21.4871 34 20.9348V17.5598C34 17.0075 34.4477 16.5598 35 16.5598ZM35 25.5598C35.5523 25.5598 36 26.0075 36 26.5598V29.9348C36 30.4871 35.5523 30.9348 35 30.9348C34.4477 30.9348 34 30.4871 34 29.9348V26.5598C34 26.0075 34.4477 25.5598 35 25.5598ZM35 34.5598C35.5523 34.5598 36 35.0075 36 35.5598V37.2473C36 37.7996 35.5523 38.2473 35 38.2473C34.4477 38.2473 34 37.7996 34 37.2473V35.5598C34 35.0075 34.4477 34.5598 35 34.5598Z" fill="#AACCFC" fill-opacity="0.5"/>
</svg>
