<svg width="48" height="48" viewBox="0 0 48 48" fill="none" xmlns="http://www.w3.org/2000/svg">
<path d="M9 24C9 15.7157 15.7157 9 24 9V9C32.2843 9 39 15.7157 39 24V35.5C39 38.5376 36.5376 41 33.5 41H14.5C11.4624 41 9 38.5376 9 35.5V24Z" fill="#CEDEF3"/>
<path fill-rule="evenodd" clip-rule="evenodd" d="M22.126 4.65739C23.2217 3.78087 24.7785 3.78087 25.8742 4.65739L43.3742 18.6574C44.668 19.6924 44.8777 21.5803 43.8427 22.8741C42.8077 24.1679 40.9198 24.3776 39.626 23.3426L24.0001 10.8419L8.3742 23.3426C7.08041 24.3776 5.19253 24.1679 4.1575 22.8741C3.12248 21.5803 3.33224 19.6924 4.62603 18.6574L22.126 4.65739Z" fill="#82A3D2"/>
<path d="M25 29C25 27.8954 25.8954 27 27 27H44C45.1046 27 46 27.8954 46 29V41C46 42.1046 45.1046 43 44 43H27C25.8954 43 25 42.1046 25 41V29Z" fill="#A5B8D5"/>
<path fill-rule="evenodd" clip-rule="evenodd" d="M41.8829 31.6161C42.3711 32.1043 42.3711 32.8957 41.8829 33.3839L37.8829 37.3839C37.4258 37.841 36.6955 37.8742 36.1988 37.4603L34.0188 35.6436L30.8222 38.4407C30.3026 38.8953 29.5129 38.8427 29.0583 38.3231C28.6037 37.8036 28.6564 37.0139 29.1759 36.5593L33.1759 33.0593C33.6386 32.6544 34.327 32.6461 34.7993 33.0397L36.9223 34.8089L40.1152 31.6161C40.6033 31.128 41.3948 31.128 41.8829 31.6161Z" fill="#074093"/>
</svg>
