<svg width="24" height="24" viewBox="0 0 24 24" fill="none" xmlns="http://www.w3.org/2000/svg">
<path d="M8 2.28571C8 1.85178 8.35178 1.5 8.78571 1.5H15.2143C15.6482 1.5 16 1.85178 16 2.28571V3C16 5.20914 14.2091 7 12 7C9.79086 7 8 5.20914 8 3V2.28571Z" fill="#00A69E"/>
<path d="M2.5 15.5C2.5 10.2533 6.75329 6 12 6C17.2467 6 21.5 10.2533 21.5 15.5V18.6923C21.5 20.7952 19.7952 22.5 17.6923 22.5H6.30769C4.20476 22.5 2.5 20.7952 2.5 18.6923V15.5Z" fill="#00CBC1"/>
<path d="M8 12L9.71429 17.5L12 12L14.2857 17.5L16 12" stroke="white" stroke-width="1.5" stroke-linecap="round" stroke-linejoin="round"/>
<rect x="6" y="13.75" width="3" height="1.5" rx="0.75" fill="white"/>
<rect x="15" y="13.75" width="3" height="1.5" rx="0.75" fill="white"/>
</svg>
