<svg width="24" height="24" viewBox="0 0 24 24" fill="none" xmlns="http://www.w3.org/2000/svg">
<path d="M8 2.28571C8 1.85178 8.35178 1.5 8.78571 1.5H15.2143C15.6482 1.5 16 1.85178 16 2.28571V3C16 5.20914 14.2091 7 12 7C9.79086 7 8 5.20914 8 3V2.28571Z" fill="#00A69E"/>
<path d="M2.5 15C2.5 9.75329 6.75329 5.5 12 5.5C17.2467 5.5 21.5 9.75329 21.5 15V18.5769C21.5 20.7436 19.7436 22.5 17.5769 22.5H6.42308C4.25642 22.5 2.5 20.7436 2.5 18.5769V15Z" fill="#00CBC1"/>
<path fill-rule="evenodd" clip-rule="evenodd" d="M8.28444 12.0316C8.68119 11.9126 9.0993 12.1377 9.21832 12.5344L10.1012 15.4774L11.3036 12.4714C11.4175 12.1867 11.6933 12 12 12C12.3066 12 12.5824 12.1867 12.6963 12.4714L13.8987 15.4774L14.7816 12.5344C14.9006 12.1377 15.3187 11.9126 15.7155 12.0316C16.1122 12.1506 16.3373 12.5687 16.2183 12.9655L14.7183 17.9655C14.6267 18.2709 14.3519 18.485 14.0333 18.4992C13.7148 18.5134 13.422 18.3246 13.3036 18.0285L12 14.7694L10.6963 18.0285C10.5779 18.3246 10.2852 18.5134 9.96657 18.4992C9.64799 18.485 9.37322 18.2709 9.28158 17.9655L7.78158 12.9655C7.66256 12.5687 7.8877 12.1506 8.28444 12.0316Z" fill="white"/>
<path d="M6.25 15.25C6.25 14.8358 6.58579 14.5 7 14.5H8.5C8.91421 14.5 9.25 14.8358 9.25 15.25C9.25 15.6642 8.91421 16 8.5 16H7C6.58579 16 6.25 15.6642 6.25 15.25Z" fill="white"/>
<path d="M14.75 15.25C14.75 14.8358 15.0858 14.5 15.5 14.5H17C17.4142 14.5 17.75 14.8358 17.75 15.25C17.75 15.6642 17.4142 16 17 16H15.5C15.0858 16 14.75 15.6642 14.75 15.25Z" fill="white"/>
</svg>
