<svg width="24" height="24" viewBox="0 0 24 24" fill="none" xmlns="http://www.w3.org/2000/svg">
<path d="M8.25 2.85C8.25 2.24249 8.74249 1.75 9.35 1.75H14.65C15.2575 1.75 15.75 2.24249 15.75 2.85V3.5C15.75 5.57107 14.0711 7.25 12 7.25C9.92893 7.25 8.25 5.57107 8.25 3.5V2.85Z" fill="#11A69F"/>
<path d="M2.99805 15.2487C2.99805 10.2782 7.02748 6.24872 11.998 6.24872C16.9686 6.24872 20.998 10.2782 20.998 15.2487V18.5564C20.998 20.5956 19.3449 22.2487 17.3057 22.2487H6.69036C4.65115 22.2487 2.99805 20.5956 2.99805 18.5564V15.2487Z" fill="#20C7BF"/>
<path fill-rule="evenodd" clip-rule="evenodd" d="M8.22617 12.0497C8.61222 11.8996 9.04688 12.0909 9.19701 12.4769L10.248 15.1795L11.299 12.4769C11.4111 12.1886 11.6887 11.9987 11.998 11.9987C12.3073 11.9987 12.5849 12.1886 12.697 12.4769L13.748 15.1795L14.799 12.4769C14.9491 12.0909 15.3838 11.8996 15.7698 12.0497C16.1559 12.1999 16.3471 12.6345 16.197 13.0206L14.447 17.5206C14.3349 17.8089 14.0573 17.9987 13.748 17.9987C13.4387 17.9987 13.1611 17.8089 13.049 17.5206L11.998 14.818L10.947 17.5206C10.8349 17.8089 10.5573 17.9987 10.248 17.9987C9.93869 17.9987 9.66111 17.8089 9.549 17.5206L7.799 13.0206C7.64887 12.6345 7.84012 12.1999 8.22617 12.0497Z" fill="white"/>
<path fill-rule="evenodd" clip-rule="evenodd" d="M6.74805 14.7487C6.74805 14.3345 7.08383 13.9987 7.49805 13.9987L8.49805 13.9987C8.91226 13.9987 9.24805 14.3345 9.24805 14.7487C9.24805 15.1629 8.91226 15.4987 8.49805 15.4987L7.49805 15.4987C7.08383 15.4987 6.74805 15.1629 6.74805 14.7487Z" fill="white"/>
<path fill-rule="evenodd" clip-rule="evenodd" d="M14.748 14.7487C14.748 14.3345 15.0838 13.9987 15.498 13.9987L16.498 13.9987C16.9123 13.9987 17.248 14.3345 17.248 14.7487C17.248 15.1629 16.9123 15.4987 16.498 15.4987L15.498 15.4987C15.0838 15.4987 14.748 15.1629 14.748 14.7487Z" fill="white"/>
</svg>
