<svg width="65" height="64" viewBox="0 0 65 64" fill="none" xmlns="http://www.w3.org/2000/svg">
<path d="M38.4276 4H12.6749C11.4052 4 10.375 5.00599 10.375 6.2458V53.7542C10.375 54.994 11.4052 56 12.6749 56H49.0751C50.3448 56 51.375 54.994 51.375 53.7542V17L38.4276 4Z" fill="#9ADECB"/>
<path d="M40.76 17H51.375L38.375 4V14.6138C38.375 15.9311 39.444 17 40.7615 17H40.76Z" fill="#039C95"/>
<path d="M39 22L23 38" stroke="#039C95" stroke-width="3" stroke-miterlimit="10" stroke-linecap="round"/>
<path d="M36.5 39C38.433 39 40 37.433 40 35.5C40 33.567 38.433 32 36.5 32C34.567 32 33 33.567 33 35.5C33 37.433 34.567 39 36.5 39Z" stroke="#039C95" stroke-width="3" stroke-miterlimit="10"/>
<path d="M25.5 28C27.433 28 29 26.433 29 24.5C29 22.567 27.433 21 25.5 21C23.567 21 22 22.567 22 24.5C22 26.433 23.567 28 25.5 28Z" stroke="#039C95" stroke-width="3" stroke-miterlimit="10"/>
<path d="M62.375 48.5C62.375 55.4036 56.7786 61 49.875 61C42.9714 61 37.375 55.4036 37.375 48.5C37.375 41.5964 42.9714 36 49.875 36C56.7786 36 62.375 41.5964 62.375 48.5Z" fill="#F64A4A"/>
<path d="M54.0762 46.0866V45.3291C54.0762 42.942 52.1977 41 49.8889 41C47.5802 41 45.7017 42.942 45.7017 45.3292V46.0822C44.9526 46.1956 44.375 46.8624 44.375 47.6679V54.3954C44.375 55.2802 45.0711 56 45.9269 56H53.8231C54.6788 56 55.375 55.2803 55.375 54.3954V47.6679C55.375 46.8725 54.8117 46.2122 54.0762 46.0867V46.0866ZM50.4664 51.3036V52.275C50.4664 52.6127 50.2016 52.8864 49.875 52.8864C49.5484 52.8864 49.2836 52.6127 49.2836 52.275V51.3036C48.9701 51.0994 48.7608 50.7394 48.7608 50.3289C48.7608 49.6936 49.2607 49.1768 49.875 49.1768C50.4893 49.1768 50.9894 49.6936 50.9894 50.3289C50.9894 50.7394 50.78 51.0994 50.4665 51.3036H50.4664ZM52.8933 46.0633H46.8846V45.3292C46.8846 43.6164 48.2324 42.223 49.8889 42.223C51.5455 42.223 52.8933 43.6165 52.8933 45.3292V46.0633Z" fill="white"/>
</svg>
