<svg width="24" height="24" viewBox="0 0 24 24" fill="none" xmlns="http://www.w3.org/2000/svg">
<path fill-rule="evenodd" clip-rule="evenodd" d="M18.5 14.5V9.5C18.5 5.91015 15.5899 3 12 3C8.41015 3 5.5 5.91015 5.5 9.5V14.5C5.5 18.0899 8.41015 21 12 21C15.5899 21 18.5 18.0899 18.5 14.5ZM12 1C7.30558 1 3.5 4.80558 3.5 9.5V14.5C3.5 19.1944 7.30558 23 12 23C16.6944 23 20.5 19.1944 20.5 14.5V9.5C20.5 4.80558 16.6944 1 12 1Z" fill="#15181F"/>
<path fill-rule="evenodd" clip-rule="evenodd" d="M13 6.5C13 5.94772 12.5523 5.5 12 5.5C11.4477 5.5 11 5.94772 11 6.5V8.5C11 9.05228 11.4477 9.5 12 9.5C12.5523 9.5 13 9.05228 13 8.5V6.5Z" fill="#15181F"/>
</svg>
