<svg width="24" height="24" viewBox="0 0 24 24" fill="none" xmlns="http://www.w3.org/2000/svg">
<path d="M6.20394 2.01318H14.3496L20.527 7.89587V19.8524C20.5303 20.4403 20.3 21.0055 19.8867 21.4236C19.4734 21.8418 18.911 22.0787 18.3231 22.0823H6.20394C5.61603 22.0787 5.0536 21.8418 4.64032 21.4236C4.22704 21.0055 3.99673 20.4403 4.00003 19.8524V4.24308C3.99673 3.65517 4.22704 3.09001 4.64032 2.67185C5.0536 2.25369 5.61603 2.01678 6.20394 2.01318Z" fill="#DCEAFC"/>
<path d="M14.3503 2L20.5963 7.89896H14.3503V2Z" fill="#89B1FE"/>
<path d="M10.5466 10.4261C10.5466 9.40767 11.3723 8.58203 12.3907 8.58203C13.4092 8.58203 14.2349 9.40767 14.2349 10.4261C14.2349 11.4446 13.4092 12.2703 12.3907 12.2703C11.3723 12.2703 10.5466 11.4446 10.5466 10.4261Z" fill="#0168FE"/>
<path d="M8.70337 16.1041C8.70337 14.496 10.007 13.1924 11.6151 13.1924H13.1681C14.7762 13.1924 16.0798 14.496 16.0798 16.1041C16.0798 16.533 15.7322 16.8806 15.3034 16.8806H9.47984C9.05101 16.8806 8.70337 16.533 8.70337 16.1041Z" fill="#0168FE"/>
</svg>
