<svg width="24" height="24" viewBox="0 0 24 24" fill="none" xmlns="http://www.w3.org/2000/svg">
<path fill-rule="evenodd" clip-rule="evenodd" d="M5.5 1.5C4.39543 1.5 3.5 2.39543 3.5 3.5V20.5C3.5 21.6046 4.39543 22.5 5.5 22.5H18.5C19.6046 22.5 20.5 21.6046 20.5 20.5V7.5L14.5 1.5H5.5Z" fill="#2AD6CE"/>
<path d="M6.5 14.25C6.5 13.8358 6.83579 13.5 7.25 13.5H16.75C17.1642 13.5 17.5 13.8358 17.5 14.25C17.5 14.6642 17.1642 15 16.75 15H7.25C6.83579 15 6.5 14.6642 6.5 14.25Z" fill="white"/>
<path d="M6.5 17.75C6.5 17.3358 6.83579 17 7.25 17H12.75C13.1642 17 13.5 17.3358 13.5 17.75C13.5 18.1642 13.1642 18.5 12.75 18.5H7.25C6.83579 18.5 6.5 18.1642 6.5 17.75Z" fill="white"/>
<path fill-rule="evenodd" clip-rule="evenodd" d="M14.5 1.5V5.5C14.5 6.60457 15.3954 7.5 16.5 7.5H20.5L14.5 1.5Z" fill="#00A69E"/>
</svg>
