<svg width="48" height="48" viewBox="0 0 48 48" fill="none" xmlns="http://www.w3.org/2000/svg">
<path d="M11.2241 2.69531H28.0777L40.8588 14.8668V39.6052C40.8657 40.8216 40.3891 41.991 39.534 42.8561C38.679 43.7213 37.5153 44.2115 36.2989 44.2189H11.2241C10.0077 44.2115 8.84399 43.7213 7.9889 42.8561C7.13381 41.991 6.65731 40.8216 6.66413 39.6052V7.30904C6.65731 6.09263 7.13381 4.92329 7.9889 4.05811C8.84399 3.19294 10.0077 2.70275 11.2241 2.69531Z" fill="#DDDDDD"/>
<path d="M28.0781 2.66406L41.0012 14.8692H28.0781V2.66406Z" fill="#AEAEAE"/>
<path d="M13.4062 22.1484H16.2545C18.165 22.1484 19.6536 22.8048 19.6536 24.8677C19.6536 26.8486 18.165 27.7394 16.3014 27.7394H15.141V30.822H13.4062V22.1484ZM16.1841 26.368C17.368 26.368 17.954 25.864 17.954 24.8677C17.954 23.848 17.3328 23.5198 16.1255 23.5198H15.141V26.368H16.1841Z" fill="#FF5858"/>
<path d="M20.9897 22.1484H23.3691C26.0181 22.1484 27.659 23.5081 27.659 26.4501C27.659 29.3569 26.0181 30.822 23.4629 30.822H20.9897V22.1484ZM23.2636 29.4272C24.8928 29.4272 25.8891 28.5599 25.8891 26.4501C25.8891 24.3286 24.8928 23.5315 23.2636 23.5315H22.7244V29.4272H23.2636Z" fill="#FF5858"/>
<path d="M29.1226 22.1484H34.4674V23.5901H30.8573V25.8523H33.94V27.3057H30.8573V30.822H29.1226V22.1484Z" fill="#FF5858"/>
</svg>
