<svg width="60" height="60" viewBox="0 0 60 60" fill="none" xmlns="http://www.w3.org/2000/svg">
<rect width="60" height="60" rx="20" fill="#F5F6F6"/>
<path d="M17.7766 21.9451C17.9365 20.2709 19.2178 19 20.7457 19H39.2543C40.7822 19 42.0635 20.2709 42.2234 21.9451L43.9833 40.3662C44.1688 42.3084 42.7867 44 41.0142 44H18.9858C17.2133 44 15.8312 42.3084 16.0167 40.3662L17.7766 21.9451Z" fill="#DCEAFC"/>
<path fill-rule="evenodd" clip-rule="evenodd" d="M30 12C26.6863 12 24 14.4624 24 17.5V21C24 21.5523 24.4884 22 25.0909 22C25.6934 22 26.1818 21.5523 26.1818 21V17.5C26.1818 15.567 27.8913 14 30 14C32.1087 14 33.8182 15.567 33.8182 17.5V21C33.8182 21.5523 34.3066 22 34.9091 22C35.5116 22 36 21.5523 36 21V17.5C36 14.4624 33.3137 12 30 12Z" fill="#A1B3C9"/>
<path fill-rule="evenodd" clip-rule="evenodd" d="M44.7938 15C41.4801 15 38.7938 17.6863 38.7938 21V24.5001L37.1474 26.1464C36.8325 26.4614 37.0555 27 37.501 27H38.7938H43.0868H44.7938C48.1075 27 50.7938 24.3137 50.7938 21C50.7938 17.6863 48.1075 15 44.7938 15Z" fill="#2AD6CE"/>
<path d="M43.793 21C43.793 21.5523 43.3453 22 42.793 22C42.2407 22 41.793 21.5523 41.793 21C41.793 20.4477 42.2407 20 42.793 20C43.3453 20 43.793 20.4477 43.793 21Z" fill="white"/>
<path d="M47.793 21C47.793 21.5523 47.3453 22 46.793 22C46.2407 22 45.793 21.5523 45.793 21C45.793 20.4477 46.2407 20 46.793 20C47.3453 20 47.793 20.4477 47.793 21Z" fill="white"/>
</svg>
