<svg width="65" height="64" viewBox="0 0 65 64" fill="none" xmlns="http://www.w3.org/2000/svg">
<path d="M12.3359 13.3333C12.3359 10.3878 14.7238 8 17.6693 8H47.0026C49.9481 8 52.3359 10.3878 52.3359 13.3333V50.6667C52.3359 53.6122 49.9481 56 47.0026 56H17.6693C14.7238 56 12.3359 53.6122 12.3359 50.6667V13.3333Z" fill="#DCEAFC"/>
<path d="M27.6719 22.0026C27.6719 19.4253 29.7612 17.3359 32.3385 17.3359C34.9159 17.3359 37.0052 19.4253 37.0052 22.0026C37.0052 24.5799 34.9159 26.6693 32.3385 26.6693C29.7612 26.6693 27.6719 24.5799 27.6719 22.0026Z" fill="#0168FE"/>
<path d="M23 35.3684C23 31.299 26.299 28 30.3684 28H34.2982C38.3677 28 41.6667 31.299 41.6667 35.3684C41.6667 36.4536 40.7869 37.3333 39.7018 37.3333H24.9649C23.8797 37.3333 23 36.4536 23 35.3684Z" fill="#0168FE"/>
<path d="M21.6719 44.3307C21.6719 43.4103 22.4181 42.6641 23.3385 42.6641H41.3385C42.259 42.6641 43.0052 43.4103 43.0052 44.3307C43.0052 45.2512 42.259 45.9974 41.3385 45.9974H23.3385C22.4181 45.9974 21.6719 45.2512 21.6719 44.3307Z" fill="#89B1FE"/>
<path d="M56.0858 22.1252C56.8668 21.3441 58.1332 21.3441 58.9142 22.1252L61.0771 24.2881C61.8582 25.0691 61.8582 26.3354 61.0771 27.1165L46.8691 41.3246C46.6392 41.5544 46.3567 41.7248 46.0462 41.8209L41.2702 43.2992C40.4821 43.4677 39.7983 42.7361 40.0197 41.9612L41.3853 37.1815C41.4787 36.8547 41.6538 36.5571 41.8942 36.3168L56.0858 22.1252Z" fill="#4E627D"/>
</svg>
