<svg width="60" height="60" viewBox="0 0 60 60" fill="none" xmlns="http://www.w3.org/2000/svg">
<rect width="60" height="60" rx="20" fill="#F5F6F6"/>
<path d="M37 20C37 23.866 33.866 27 30 27C26.134 27 23 23.866 23 20C23 16.134 26.134 13 30 13C33.866 13 37 16.134 37 20Z" fill="#AFC3DC"/>
<path d="M13 41.2918C13 34.5032 18.3994 29 25.0599 29H32.9401C39.6006 29 45 34.5032 45 41.2918C45 41.9433 44.6794 42.5436 44.0925 42.8018C42.3533 43.5668 37.9063 45 29 45C20.0937 45 15.6467 43.5668 13.9075 42.8018C13.3206 42.5436 13 41.9433 13 41.2918Z" fill="#7990AD"/>
<path d="M37 37.2225C37 37.0996 37.1194 37 37.2667 37H46.7333C46.8806 37 47 37.0996 47 37.2225V48.777C47 48.9636 46.7414 49.0674 46.5667 48.9508L42.1666 46.0131C42.0692 45.9481 41.9308 45.9481 41.8334 46.0131L37.4333 48.9508C37.2586 49.0674 37 48.9636 37 48.777V37.2225Z" fill="#F64A4A"/>
<path d="M36 34C36 30.6863 38.6863 28 42 28C45.3137 28 48 30.6863 48 34C48 37.3137 45.3137 40 42 40C38.6863 40 36 37.3137 36 34Z" fill="#FED84A"/>
</svg>
