<svg width="36" height="36" viewBox="0 0 36 36" fill="none" xmlns="http://www.w3.org/2000/svg">
<path d="M24 10.5C24 13.8137 21.3137 16.5 18 16.5C14.6863 16.5 12 13.8137 12 10.5C12 7.18629 14.6863 4.5 18 4.5C21.3137 4.5 24 7.18629 24 10.5Z" fill="#5A92F4"/>
<path d="M5 28.9199C5 23.1652 9.90078 18.5 15.9462 18.5H20.0538C26.0992 18.5 31 23.1652 31 28.9199C31 29.4427 30.7384 29.9293 30.2427 30.1543C28.8157 30.802 25.2026 32 18 32C10.7974 32 7.1843 30.802 5.75727 30.1543C5.26155 29.9293 5 29.4427 5 28.9199Z" fill="#0168FE"/>
</svg>
