<svg width="48" height="48" viewBox="0 0 48 48" fill="none" xmlns="http://www.w3.org/2000/svg">
<path d="M9 10C9 7.79086 10.7909 6 13 6H35C37.2091 6 39 7.79086 39 10V38C39 40.2091 37.2091 42 35 42H13C10.7909 42 9 40.2091 9 38V10Z" fill="white"/>
<path d="M20.5 16.5C20.5 14.567 22.067 13 24 13C25.933 13 27.5 14.567 27.5 16.5C27.5 18.433 25.933 20 24 20C22.067 20 20.5 18.433 20.5 16.5Z" fill="#0168FE"/>
<path d="M17 26.5263C17 23.4742 19.4742 21 22.5263 21H25.4737C28.5258 21 31 23.4742 31 26.5263C31 27.3402 30.3402 28 29.5263 28H18.4737C17.6598 28 17 27.3402 17 26.5263Z" fill="#0168FE"/>
<path d="M16 33.25C16 32.5596 16.5596 32 17.25 32H30.75C31.4404 32 32 32.5596 32 33.25C32 33.9404 31.4404 34.5 30.75 34.5H17.25C16.5596 34.5 16 33.9404 16 33.25Z" fill="#8DADFF"/>
<path d="M41.8175 16.5901C42.4033 16.0043 43.353 16.0043 43.9388 16.5901L45.561 18.2123C46.1468 18.7981 46.1468 19.7478 45.561 20.3336L34.905 30.9896C34.7326 31.162 34.5207 31.2898 34.2878 31.3619L30.7058 32.4706C30.1147 32.597 29.6019 32.0483 29.768 31.4671L30.7922 27.8824C30.8622 27.6373 30.9935 27.414 31.1738 27.2338L41.8175 16.5901Z" fill="#4E627D"/>
</svg>
