<svg width="48" height="48" viewBox="0 0 48 48" fill="none" xmlns="http://www.w3.org/2000/svg">
<path fill-rule="evenodd" clip-rule="evenodd" d="M13 5C10.7909 5 9 6.79086 9 9V37C9 39.2091 10.7909 41 13 41H35C37.2091 41 39 39.2091 39 37V15L29 5H13Z" fill="white"/>
<path fill-rule="evenodd" clip-rule="evenodd" d="M31.5 15H39L29 5V12.5C29 13.8807 30.1193 15 31.5 15Z" fill="#D3E3F8"/>
<path d="M20.5 19.5C20.5 17.567 22.067 16 24 16C25.933 16 27.5 17.567 27.5 19.5C27.5 21.433 25.933 23 24 23C22.067 23 20.5 21.433 20.5 19.5Z" fill="#074093"/>
<path d="M16.5 30.3158C16.5 26.8277 19.1509 24 22.4211 24H25.5789C28.8491 24 31.5 26.8277 31.5 30.3158C31.5 31.246 30.7931 32 29.9211 32H18.0789C17.2069 32 16.5 31.246 16.5 30.3158Z" fill="#074093"/>
<path d="M41.9393 19.0607C42.5251 18.4749 43.4749 18.4749 44.0607 19.0607L45.8284 20.8284C46.4142 21.4142 46.4142 22.364 45.8284 22.9497L33.8921 34.8861C33.7288 35.0494 33.5299 35.1728 33.311 35.2467L29.3819 36.5724C28.7632 36.723 28.2174 36.1401 28.4082 35.5327L29.6444 31.5963C29.7169 31.3657 29.8439 31.1561 30.0149 30.9851L41.9393 19.0607Z" fill="#3E4C60"/>
</svg>
