<svg width="36" height="36" viewBox="0 0 36 36" fill="none" xmlns="http://www.w3.org/2000/svg">
<path d="M24 10.5C24 13.8137 21.3137 16.5 18 16.5C14.6863 16.5 12 13.8137 12 10.5C12 7.18629 14.6863 4.5 18 4.5C21.3137 4.5 24 7.18629 24 10.5Z" fill="#2AD6CE"/>
<path d="M4.75 28.7371C4.75 23.2214 9.22137 18.75 14.7371 18.75H21.2629C26.7786 18.75 31.25 23.2214 31.25 28.7371C31.25 29.2664 30.9845 29.7542 30.4985 29.9639C29.0582 30.5855 25.3756 31.75 18 31.75C10.6244 31.75 6.94182 30.5855 5.5015 29.9639C5.01548 29.7542 4.75 29.2664 4.75 28.7371Z" fill="#05B0A8"/>
</svg>
