<svg width="48" height="49" viewBox="0 0 48 49" fill="none" xmlns="http://www.w3.org/2000/svg">
<path d="M9 10.4998C9 8.29062 10.7909 6.49976 13 6.49976H35C37.2091 6.49976 39 8.29062 39 10.4998V38.4998C39 40.7089 37.2091 42.4998 35 42.4998H13C10.7909 42.4998 9 40.7089 9 38.4998V10.4998Z" fill="white"/>
<path d="M20.5 16.9998C20.5 15.0668 22.067 13.4998 24 13.4998C25.933 13.4998 27.5 15.0668 27.5 16.9998C27.5 18.9328 25.933 20.4998 24 20.4998C22.067 20.4998 20.5 18.9328 20.5 16.9998Z" fill="#074093"/>
<path d="M17 27.0261C17 23.974 19.4742 21.4998 22.5263 21.4998H25.4737C28.5258 21.4998 31 23.974 31 27.0261C31 27.84 30.3402 28.4998 29.5263 28.4998H18.4737C17.6598 28.4998 17 27.84 17 27.0261Z" fill="#074093"/>
<path d="M16 33.7498C16 33.0594 16.5596 32.4998 17.25 32.4998H30.75C31.4404 32.4998 32 33.0594 32 33.7498C32 34.4401 31.4404 34.9998 30.75 34.9998H17.25C16.5596 34.9998 16 34.4401 16 33.7498Z" fill="#AFC3DC"/>
<path d="M41.9393 19.5604C42.5251 18.9746 43.4749 18.9746 44.0607 19.5604L45.8284 21.3282C46.4142 21.914 46.4142 22.8637 45.8284 23.4495L33.8921 35.3858C33.7288 35.5492 33.5299 35.6726 33.311 35.7464L29.3819 37.0722C28.7632 37.2228 28.2174 36.6399 28.4082 36.0324L29.6444 32.0961C29.7169 31.8655 29.8439 31.6558 30.0149 31.4849L41.9393 19.5604Z" fill="#4E627D"/>
</svg>
