<svg width="36" height="36" viewBox="0 0 36 36" fill="none" xmlns="http://www.w3.org/2000/svg">
<path d="M22 9.5C22 12.5376 19.5376 15 16.5 15C13.4624 15 11 12.5376 11 9.5C11 6.46243 13.4624 4 16.5 4C19.5376 4 22 6.46243 22 9.5Z" fill="#5A92F4"/>
<path d="M5 26.2622C5 21.1468 9.33531 17 14.6832 17H18.3168C23.6647 17 28 21.1468 28 26.2622C28 26.7269 27.7686 27.1594 27.3301 27.3594C26.0677 27.9351 22.8715 29 16.5 29C10.1285 29 6.93226 27.9351 5.66989 27.3594C5.23137 27.1594 5 26.7269 5 26.2622Z" fill="#0168FE"/>
<path fill-rule="evenodd" clip-rule="evenodd" d="M26.8302 23.1731C27.0612 23.3994 27.0558 23.7611 26.8182 23.9811L23.7325 26.8383C23.4997 27.0539 23.1289 27.0539 22.896 26.8383L21.1818 25.251C20.9442 25.031 20.9388 24.6692 21.1698 24.4429C21.4008 24.2167 21.7807 24.2116 22.0182 24.4316L23.3143 25.6316L25.9818 23.1617C26.2193 22.9417 26.5992 22.9468 26.8302 23.1731Z" fill="white"/>
<path d="M34.5 24.75C34.5 28.4779 31.4779 31.5 27.75 31.5C24.0221 31.5 21 28.4779 21 24.75C21 21.0221 24.0221 18 27.75 18C31.4779 18 34.5 21.0221 34.5 24.75Z" fill="#00CBC1"/>
<path fill-rule="evenodd" clip-rule="evenodd" d="M24.8925 22.7146C25.1882 22.6196 25.5051 22.7823 25.6001 23.078L26.3286 25.3444L27.3211 23.0286C27.4098 22.8217 27.6131 22.6877 27.8381 22.6877C28.0632 22.6877 28.2665 22.8217 28.3552 23.0286L29.3477 25.3444L30.0762 23.078C30.1712 22.7823 30.488 22.6196 30.7838 22.7146C31.0796 22.8097 31.2423 23.1265 31.1472 23.4223L29.9585 27.1203C29.8867 27.3437 29.6838 27.4991 29.4494 27.5101C29.215 27.5211 28.9984 27.3855 28.906 27.1698L27.8381 24.6781L26.7703 27.1698C26.6779 27.3855 26.4613 27.5211 26.2269 27.5101C25.9925 27.4991 25.7895 27.3437 25.7177 27.1203L24.5291 23.4223C24.434 23.1265 24.5967 22.8097 24.8925 22.7146Z" fill="white"/>
<path d="M23.4004 24.9521C23.4004 24.6249 23.6657 24.3596 23.9929 24.3596H25.0267C25.3539 24.3596 25.6192 24.6249 25.6192 24.9521C25.6192 25.2794 25.3539 25.5447 25.0267 25.5447H23.9929C23.6657 25.5447 23.4004 25.2794 23.4004 24.9521Z" fill="white"/>
<path d="M29.8721 24.9521C29.8721 24.6249 30.1374 24.3596 30.4646 24.3596H31.4984C31.8256 24.3596 32.0909 24.6249 32.0909 24.9521C32.0909 25.2794 31.8256 25.5447 31.4984 25.5447H30.4646C30.1374 25.5447 29.8721 25.2794 29.8721 24.9521Z" fill="white"/>
</svg>
