<svg width="36" height="36" viewBox="0 0 36 36" fill="none" xmlns="http://www.w3.org/2000/svg">
<path d="M8 6C8 4.34315 9.34315 3 11 3H25C26.6569 3 28 4.34315 28 6V30C28 31.6569 26.6569 33 25 33H11C9.34315 33 8 31.6569 8 30V6Z" fill="#99ABC1"/>
<path d="M8 7H28V29H8V7Z" fill="#DCEAFC"/>
<path fill-rule="evenodd" clip-rule="evenodd" d="M22.717 14.3029C23.102 14.6989 23.0931 15.332 22.6971 15.717L17.5542 20.717C17.1661 21.0943 16.5482 21.0943 16.1601 20.717L13.3029 17.9392C12.9069 17.5542 12.898 16.9211 13.283 16.5251C13.668 16.1292 14.3011 16.1202 14.6971 16.5052L16.8571 18.6053L21.3029 14.283C21.6989 13.898 22.332 13.9069 22.717 14.3029Z" fill="#00A69E"/>
</svg>
