<svg width="36" height="36" viewBox="0 0 36 36" fill="none" xmlns="http://www.w3.org/2000/svg">
<path d="M8 7C8 4.79086 9.79086 3 12 3H24C26.2091 3 28 4.79086 28 7V29C28 31.2091 26.2091 33 24 33H12C9.79086 33 8 31.2091 8 29V7Z" fill="#A1B3C9"/>
<path d="M8 7H28V29H8V7Z" fill="#DCEAFC"/>
<path fill-rule="evenodd" clip-rule="evenodd" d="M23.3677 14.1002C23.8646 14.5794 23.879 15.3707 23.3998 15.8677L17.6141 21.8677C17.3785 22.112 17.0537 22.25 16.7143 22.25C16.3749 22.25 16.0501 22.112 15.8145 21.8677L12.6002 18.5343C12.121 18.0374 12.1354 17.2461 12.6323 16.7669C13.1293 16.2877 13.9206 16.302 14.3998 16.799L16.7143 19.1992L21.6002 14.1323C22.0794 13.6354 22.8707 13.621 23.3677 14.1002Z" fill="#00B6AD"/>
</svg>
