<svg width="36" height="36" viewBox="0 0 36 36" fill="none" xmlns="http://www.w3.org/2000/svg">
<path d="M23.5 9C23.5 11.7614 21.2614 14 18.5 14C15.7386 14 13.5 11.7614 13.5 9C13.5 6.23858 15.7386 4 18.5 4C21.2614 4 23.5 6.23858 23.5 9Z" fill="#FFC737"/>
<path fill-rule="evenodd" clip-rule="evenodd" d="M28.8421 12.2563C29.7403 13.1506 30.4601 14.2241 30.9435 15.4186H32.816C33.4699 15.4186 34 15.9488 34 16.6029V21.5539C34 22.1185 33.6017 22.6046 33.0482 22.7153L31.1688 23.0913C30.4401 25.3307 28.9002 27.2039 26.896 28.3636V30.8156C26.896 31.4697 26.3659 32 25.712 32H23.3439C22.69 32 22.1599 31.4697 22.1599 30.8156L22.1599 29.6312H15.0558H15.0557V30.8156C15.0557 31.4697 14.5256 32 13.8717 32H11.5036C10.8497 32 10.3196 31.4697 10.3196 30.8156V28.3636C7.48845 26.7253 5.58368 23.6632 5.58368 20.1562V19.881C4.92764 19.8027 4.34748 19.5946 3.8511 19.2677C3.21101 18.8461 2.78096 18.2735 2.50189 17.6849C1.96114 16.5444 1.93992 15.254 2.05916 14.419C2.15164 13.7715 2.75138 13.3215 3.39872 13.414C4.04607 13.5066 4.49587 14.1065 4.4034 14.754C4.32531 15.3008 4.36328 16.0831 4.64148 16.6698C4.77188 16.9449 4.94124 17.1495 5.1534 17.2893C5.28388 17.3752 5.4584 17.4551 5.69686 17.5026C6.40263 12.9673 10.324 9.49667 15.0558 9.49667H22.1599C22.4733 9.49667 22.7831 9.51189 23.0887 9.54164C23.8879 8.01301 25.4856 7 27.286 7H28.3505C29.0771 7 29.6323 7.64861 29.5204 8.36677L28.9752 11.8665C28.9533 12.0067 28.9074 12.1379 28.8421 12.2563Z" fill="#00CBC1"/>
<path d="M27 16.25C27 17.0784 26.3284 17.75 25.5 17.75C24.6716 17.75 24 17.0784 24 16.25C24 15.4216 24.6716 14.75 25.5 14.75C26.3284 14.75 27 15.4216 27 16.25Z" fill="#118883"/>
</svg>
