<svg width="44" height="44" viewBox="0 0 44 44" fill="none" xmlns="http://www.w3.org/2000/svg">
<path d="M28.9277 11.4072C28.9277 15.0073 26.0092 17.9257 22.4091 17.9257C18.8091 17.9257 15.8906 15.0073 15.8906 11.4072C15.8906 7.80711 18.8091 4.88867 22.4091 4.88867C26.0092 4.88867 28.9277 7.80711 28.9277 11.4072Z" fill="#FFC737"/>
<path fill-rule="evenodd" clip-rule="evenodd" d="M35.2524 15.4898C36.3502 16.5825 37.2299 17.8941 37.8207 19.3535H40.1094C40.9086 19.3535 41.5565 20.0015 41.5565 20.8007V26.85C41.5565 27.5398 41.0696 28.1337 40.3932 28.269L38.0961 28.7284C37.2055 31.4647 35.3233 33.7534 32.8738 35.1704V38.1664C32.8738 38.9656 32.2258 39.6135 31.4266 39.6135H28.5324C27.7331 39.6135 27.0852 38.9656 27.0852 38.1664L27.0852 36.7192H18.4024H18.4022V38.1664C18.4022 38.9656 17.7543 39.6135 16.9551 39.6135H14.0608C13.2616 39.6135 12.6137 38.9656 12.6137 38.1664V35.1703C9.15342 33.1686 6.82537 29.4272 6.82537 25.1422V24.806C6.02354 24.7102 5.31446 24.4561 4.70777 24.0566C3.92544 23.5414 3.39982 22.8419 3.05874 22.1227C2.39782 20.7292 2.37188 19.1525 2.51762 18.1323C2.63065 17.3411 3.36367 16.7913 4.15486 16.9044C4.94606 17.0174 5.49583 17.7504 5.3828 18.5416C5.28735 19.2097 5.33377 20.1655 5.67378 20.8824C5.83316 21.2185 6.04016 21.4686 6.29946 21.6393C6.45894 21.7443 6.67225 21.8419 6.9637 21.8999C7.8263 16.3585 12.6191 12.1179 18.4024 12.1179H27.0852C27.4682 12.1179 27.8469 12.1365 28.2204 12.1729C29.1973 10.3051 31.15 9.06738 33.3504 9.06738H34.6515C35.5396 9.06738 36.2181 9.85988 36.0814 10.7374L35.415 15.0135C35.3883 15.1848 35.3322 15.3451 35.2524 15.4898Z" fill="#20C7BF"/>
<path d="M32.9987 20.1663C32.9987 21.1789 32.1779 21.9997 31.1654 21.9997C30.1528 21.9997 29.332 21.1789 29.332 20.1663C29.332 19.1538 30.1528 18.333 31.1654 18.333C32.1779 18.333 32.9987 19.1538 32.9987 20.1663Z" fill="#118883"/>
</svg>
