<svg width="36" height="36" viewBox="0 0 36 36" fill="none" xmlns="http://www.w3.org/2000/svg">
<path d="M7.52714 4.04688C7.37301 4.09957 7.23928 4.19923 7.14473 4.33187C7.05018 4.4645 6.99956 4.62343 7 4.78631V30.6004C6.99955 30.7619 7.04934 30.9197 7.14248 31.0517C7.23563 31.1838 7.36752 31.2836 7.5199 31.3374L21.2339 17.6873L7.52714 4.04688Z" fill="#00D6FF"/>
<path d="M25.0954 13.841L8.1739 4.10526C8.07709 4.04854 7.96902 4.01374 7.85731 4.00332C7.7456 3.9929 7.63297 4.00711 7.52734 4.04494L21.2317 17.6866L25.0954 13.841Z" fill="#00F076"/>
<path d="M8.17453 31.2707L25.102 21.5313L21.2323 17.6797L7.51953 31.3261C7.62597 31.3662 7.73999 31.382 7.8533 31.3724C7.96661 31.3628 8.07635 31.328 8.17453 31.2707Z" fill="#FF3A44"/>
<path d="M25.1005 21.5397L30.6059 18.3733C30.7254 18.3047 30.8247 18.2058 30.8938 18.0866C30.9629 17.9673 30.9993 17.832 30.9993 17.6941C30.9993 17.5563 30.9629 17.421 30.8938 17.3017C30.8247 17.1825 30.7254 17.0836 30.6059 17.015L25.0944 13.8438L21.2344 17.6893L25.1005 21.5397Z" fill="#FFD000"/>
</svg>
