<svg width="36" height="36" viewBox="0 0 36 36" fill="none" xmlns="http://www.w3.org/2000/svg">
<path d="M7.52714 4.04492C7.37301 4.09762 7.23928 4.19728 7.14473 4.32991C7.05018 4.46254 6.99956 4.62148 7 4.78436V30.5984C6.99955 30.76 7.04934 30.9177 7.14248 31.0498C7.23563 31.1818 7.36752 31.2817 7.5199 31.3354L21.2339 17.6853L7.52714 4.04492Z" fill="#00D6FF"/>
<path d="M25.0951 13.841L8.17365 4.10526C8.07685 4.04854 7.96878 4.01374 7.85707 4.00332C7.74535 3.9929 7.63272 4.00711 7.5271 4.04494L21.2315 17.6866L25.0951 13.841Z" fill="#00F076"/>
<path d="M8.17478 31.2738L25.1023 21.5345L21.2326 17.6829L7.51978 31.3293C7.62621 31.3693 7.74023 31.3851 7.85354 31.3755C7.96685 31.3659 8.07659 31.3312 8.17478 31.2738Z" fill="#FF3A44"/>
<path d="M25.1012 21.537L30.6066 18.3706C30.7261 18.302 30.8255 18.2031 30.8945 18.0839C30.9636 17.9646 31 17.8293 31 17.6915C31 17.5536 30.9636 17.4183 30.8945 17.299C30.8255 17.1798 30.7261 17.0809 30.6066 17.0123L25.0952 13.8411L21.2351 17.6866L25.1012 21.537Z" fill="#FFD000"/>
</svg>
