<svg width="44" height="44" viewBox="0 0 44 44" fill="none" xmlns="http://www.w3.org/2000/svg">
<path d="M9.19897 4.94531C9.01059 5.00972 8.84714 5.13153 8.73158 5.29364C8.61602 5.45574 8.55415 5.64999 8.55469 5.84907V37.3996C8.55413 37.5971 8.61499 37.7899 8.72884 37.9512C8.84268 38.1126 9.00388 38.2346 9.19012 38.3004L25.9517 21.6169L9.19897 4.94531Z" fill="#00D6FF"/>
<path d="M30.6673 16.9185L9.98554 5.01927C9.86723 4.94995 9.73514 4.90741 9.59861 4.89468C9.46207 4.88194 9.32441 4.89931 9.19531 4.94555L25.9451 21.6187L30.6673 16.9185Z" fill="#00F076"/>
<path d="M9.98806 38.2284L30.6772 26.3247L25.9476 21.6172L9.1875 38.2962C9.31759 38.3451 9.45695 38.3644 9.59544 38.3527C9.73393 38.3409 9.86805 38.2985 9.98806 38.2284Z" fill="#FF3A44"/>
<path d="M30.6783 26.328L37.4072 22.4579C37.5533 22.3741 37.6747 22.2533 37.7591 22.1075C37.8435 21.9618 37.888 21.7963 37.888 21.6279C37.888 21.4595 37.8435 21.294 37.7591 21.1483C37.6747 21.0025 37.5533 20.8817 37.4072 20.7979L30.671 16.9219L25.9531 21.622L30.6783 26.328Z" fill="#FFD000"/>
</svg>
