<svg width="44" height="45" viewBox="0 0 44 45" fill="none" xmlns="http://www.w3.org/2000/svg">
<rect x="7" y="4.5" width="30" height="36.0001" rx="4.00001" fill="#DCEAFC"/>
<rect x="18.5" y="11.5" width="7" height="7.00002" rx="3.5" fill="#0168FE"/>
<path d="M15 25.0263C15 21.9742 17.4742 19.5 20.5263 19.5H23.4737C26.5258 19.5 29 21.9742 29 25.0263C29 25.8402 28.3402 26.5 27.5263 26.5H16.4737C15.6598 26.5 15 25.8402 15 25.0263Z" fill="#0168FE"/>
<rect x="14" y="30.5" width="16" height="2.50001" rx="1.25" fill="#8DADFF"/>
<path d="M28 29.768C28 28.3815 28.999 27.1967 30.3655 26.9625L34.7265 26.2149C34.9075 26.1838 35.0925 26.1838 35.2735 26.2149L39.6345 26.9625C41.001 27.1967 42 28.3815 42 29.768V34.7231C42 38.7929 39.0677 42.2706 35.0565 42.9583C35.0191 42.9647 34.9809 42.9647 34.9435 42.9583C30.9323 42.2706 28 38.7929 28 34.7231V29.768Z" fill="#00CBC1"/>
<path fill-rule="evenodd" clip-rule="evenodd" d="M38.9591 32.0119C39.2825 32.3287 39.275 32.8351 38.9424 33.1431L34.6224 37.1431C34.2964 37.445 33.7774 37.445 33.4513 37.1431L31.0513 34.9209C30.7187 34.6129 30.7112 34.1064 31.0346 33.7896C31.358 33.4729 31.8898 33.4657 32.2224 33.7737L34.0369 35.4538L37.7713 31.9959C38.104 31.6879 38.6358 31.6951 38.9591 32.0119Z" fill="white"/>
</svg>
