<svg width="24" height="24" viewBox="0 0 24 24" fill="none" xmlns="http://www.w3.org/2000/svg">
<path d="M3.75269 7.13171C3.76862 5.99748 4.53689 5.04308 5.61509 4.67586L10.5772 2.98585C11.5005 2.67138 12.5026 2.67138 13.426 2.98586L18.3835 4.67432C19.464 5.04233 20.233 5.9999 20.2477 7.13659C20.2771 9.41217 20.0453 13.2687 18.3716 15.7513C16.6451 18.3122 13.0207 20.75 12.0016 20.75C10.9825 20.75 7.27654 18.2015 5.63173 15.7513C3.95034 13.2466 3.72083 9.39995 3.75269 7.13171Z" fill="#20C7BF"/>
<path fill-rule="evenodd" clip-rule="evenodd" d="M3.75 7.51348C3.75 7.51404 3.75 7.5146 3.75 7.51517C3.75007 9.81422 4.04175 13.3827 5.63173 15.7513C7.27569 18.2003 10.9787 20.7474 12 20.75V2.75C11.5192 2.75017 11.0383 2.82879 10.5772 2.98585L5.61509 4.67586C4.53689 5.04308 3.76862 5.99748 3.75269 7.13171C3.75096 7.2545 3.75 7.38191 3.75 7.51348Z" fill="#00A69E"/>
</svg>
