<svg width="65" height="64" viewBox="0 0 65 64" fill="none" xmlns="http://www.w3.org/2000/svg">
<path d="M12.875 13.3333C12.875 10.3878 15.2628 8 18.2083 8H47.5417C50.4872 8 52.875 10.3878 52.875 13.3333V56H12.875V13.3333Z" fill="#AFC3DC"/>
<path d="M23.541 18.6693C23.541 17.9329 24.138 17.3359 24.8743 17.3359H28.8743C29.6107 17.3359 30.2077 17.9329 30.2077 18.6693V22.6693C30.2077 23.4057 29.6107 24.0026 28.8743 24.0026H24.8743C24.138 24.0026 23.541 23.4057 23.541 22.6693V18.6693Z" fill="white"/>
<path d="M23.541 30.6693C23.541 29.9329 24.138 29.3359 24.8743 29.3359H28.8743C29.6107 29.3359 30.2077 29.9329 30.2077 30.6693V34.6693C30.2077 35.4057 29.6107 36.0026 28.8743 36.0026H24.8743C24.138 36.0026 23.541 35.4057 23.541 34.6693V30.6693Z" fill="white"/>
<path d="M27.541 46.6693C27.541 45.9329 28.138 45.3359 28.8743 45.3359H36.8743C37.6107 45.3359 38.2077 45.9329 38.2077 46.6693V56.0026H27.541V46.6693Z" fill="#82A3D2"/>
<path d="M35.541 18.6693C35.541 17.9329 36.138 17.3359 36.8743 17.3359H40.8743C41.6107 17.3359 42.2077 17.9329 42.2077 18.6693V22.6693C42.2077 23.4057 41.6107 24.0026 40.8743 24.0026H36.8743C36.138 24.0026 35.541 23.4057 35.541 22.6693V18.6693Z" fill="white"/>
<path d="M35.541 30.6693C35.541 29.9329 36.138 29.3359 36.8743 29.3359H40.8743C41.6107 29.3359 42.2077 29.9329 42.2077 30.6693V34.6693C42.2077 35.4057 41.6107 36.0026 40.8743 36.0026H36.8743C36.138 36.0026 35.541 35.4057 35.541 34.6693V30.6693Z" fill="white"/>
</svg>
