<svg width="24" height="24" viewBox="0 0 24 24" fill="none" xmlns="http://www.w3.org/2000/svg">
<path d="M22 12C22 17.5228 17.5228 22 12 22C6.47715 22 2 17.5228 2 12C2 6.47715 6.47715 2 12 2C17.5228 2 22 6.47715 22 12Z" fill="#0168FE"/>
<path d="M15.2197 7.73034C15.5126 7.43745 15.9874 7.43745 16.2803 7.73034C16.5732 8.02324 16.5732 8.49811 16.2803 8.791L8.85571 16.2156C8.56282 16.5085 8.08794 16.5085 7.79505 16.2156C7.50216 15.9227 7.50216 15.4479 7.79505 15.155L15.2197 7.73034Z" fill="white"/>
<path fill-rule="evenodd" clip-rule="evenodd" d="M9 9.5C9.27614 9.5 9.5 9.27614 9.5 9C9.5 8.72386 9.27614 8.5 9 8.5C8.72386 8.5 8.5 8.72386 8.5 9C8.5 9.27614 8.72386 9.5 9 9.5ZM9 11C10.1046 11 11 10.1046 11 9C11 7.89543 10.1046 7 9 7C7.89543 7 7 7.89543 7 9C7 10.1046 7.89543 11 9 11Z" fill="white"/>
<path fill-rule="evenodd" clip-rule="evenodd" d="M15 15.5C15.2761 15.5 15.5 15.2761 15.5 15C15.5 14.7239 15.2761 14.5 15 14.5C14.7239 14.5 14.5 14.7239 14.5 15C14.5 15.2761 14.7239 15.5 15 15.5ZM15 17C16.1046 17 17 16.1046 17 15C17 13.8954 16.1046 13 15 13C13.8954 13 13 13.8954 13 15C13 16.1046 13.8954 17 15 17Z" fill="white"/>
</svg>
