<svg width="36" height="36" viewBox="0 0 36 36" fill="none" xmlns="http://www.w3.org/2000/svg">
<path d="M6.75 18.25C6.75 12.0368 11.7868 7 18 7C24.2132 7 29.25 12.0368 29.25 18.25V27C29.25 29.2091 27.4591 31 25.25 31H10.75C8.54086 31 6.75 29.2091 6.75 27V18.25Z" fill="#00CBC1"/>
<path fill-rule="evenodd" clip-rule="evenodd" d="M10.5 21.5C10.5 20.9477 10.9477 20.5 11.5 20.5L13.5 20.5C14.0523 20.5 14.5 20.9477 14.5 21.5C14.5 22.0523 14.0523 22.5 13.5 22.5L11.5 22.5C10.9477 22.5 10.5 22.0523 10.5 21.5Z" fill="white"/>
<path fill-rule="evenodd" clip-rule="evenodd" d="M21.5 21.5C21.5 20.9477 21.9477 20.5 22.5 20.5L24.5 20.5C25.0523 20.5 25.5 20.9477 25.5 21.5C25.5 22.0523 25.0523 22.5 24.5 22.5L22.5 22.5C21.9477 22.5 21.5 22.0523 21.5 21.5Z" fill="white"/>
<path fill-rule="evenodd" clip-rule="evenodd" d="M12.7073 17.0438C13.2354 16.8822 13.7946 17.1792 13.9562 17.7073L15.2776 22.0238L17.0742 17.6221C17.2277 17.2459 17.5937 17 18 17C18.4064 17 18.7723 17.2459 18.9259 17.6221L20.7225 22.0238L22.0438 17.7073C22.2055 17.1792 22.7646 16.8822 23.2927 17.0438C23.8208 17.2055 24.1179 17.7646 23.9562 18.2927L21.8134 25.2927C21.6896 25.6971 21.3248 25.9799 20.9024 25.999C20.4799 26.0181 20.0911 25.7694 19.9313 25.3779L18 20.6462L16.0687 25.3779C15.9089 25.7694 15.5201 26.0181 15.0977 25.999C14.6752 25.9799 14.3105 25.6971 14.1867 25.2927L12.0438 18.2927C11.8822 17.7646 12.1792 17.2055 12.7073 17.0438Z" fill="white"/>
<path fill-rule="evenodd" clip-rule="evenodd" d="M16.6027 3.23657C17.4213 2.58781 18.5788 2.58781 19.3975 3.23657L32.6475 13.7366C33.6214 14.5084 33.7853 15.9235 33.0135 16.8974C32.2417 17.8713 30.8266 18.0352 29.8527 17.2634L18.0001 7.87083L6.14752 17.2634C5.17361 18.0352 3.75844 17.8713 2.98666 16.8974C2.21488 15.9235 2.37874 14.5084 3.35266 13.7366L16.6027 3.23657Z" fill="#00A69E"/>
</svg>
