<svg width="36" height="36" viewBox="0 0 36 36" fill="none" xmlns="http://www.w3.org/2000/svg">
<path fill-rule="evenodd" clip-rule="evenodd" d="M13.5 4C12.1193 4 11 5.11929 11 6.5V27.1338C11.1471 27.0487 11.3179 27 11.5 27H13.5C14.0523 27 14.5 27.4477 14.5 28V32H28.5C29.8807 32 31 30.8807 31 29.5V6.5C31 5.11929 29.8807 4 28.5 4H13.5Z" fill="#AFC3DC"/>
<path d="M15 11C15 10.4477 15.4477 10 16 10H26C26.5523 10 27 10.4477 27 11V11C27 11.5523 26.5523 12 26 12H16C15.4477 12 15 11.5523 15 11V11Z" fill="white"/>
<path d="M15 17C15 16.4477 15.4477 16 16 16H26C26.5523 16 27 16.4477 27 17V17C27 17.5523 26.5523 18 26 18H16C15.4477 18 15 17.5523 15 17V17Z" fill="white"/>
<path fill-rule="evenodd" clip-rule="evenodd" d="M7.5 13C6.11929 13 5 14.1193 5 15.5V29.5C5 30.8807 6.11929 32 7.5 32H10.5V28C10.5 27.4477 10.9477 27 11.5 27H13.5C14.0523 27 14.5 27.4477 14.5 28V32H20V15.5C20 14.1193 18.8807 13 17.5 13H7.5Z" fill="#074093"/>
<path d="M7.5 20C7.5 19.4477 7.94772 19 8.5 19H16.5C17.0523 19 17.5 19.4477 17.5 20V20C17.5 20.5523 17.0523 21 16.5 21H8.5C7.94772 21 7.5 20.5523 7.5 20V20Z" fill="white"/>
</svg>
