<svg width="65" height="64" viewBox="0 0 65 64" fill="none" xmlns="http://www.w3.org/2000/svg">
<g clip-path="url(#clip0_4505_343305)">
<path d="M10.584 33.1406C10.584 22.0949 19.5383 13.1406 30.584 13.1406H32.8961C43.9418 13.1406 52.8962 22.0949 52.8962 33.1406V52.8632C52.8962 55.0723 51.1053 56.8632 48.8962 56.8632H14.584C12.3748 56.8632 10.584 55.0723 10.584 52.8632V33.1406Z" fill="#2BC9C3"/>
<path d="M28.2838 11.7471C26.7217 10.185 26.7217 7.65232 28.2838 6.09022L28.6108 5.76323C30.1729 4.20113 32.7056 4.20113 34.2677 5.76323L58.53 30.0256C60.0921 31.5877 60.0922 34.1204 58.5301 35.6825L58.2031 36.0094C56.641 37.5715 54.1083 37.5715 52.5462 36.0094L28.2838 11.7471Z" fill="#00A69E"/>
<path d="M34.5942 11.7446C36.1563 10.1825 36.1563 7.64986 34.5942 6.08776L34.2672 5.76077C32.7051 4.19867 30.1724 4.19867 28.6103 5.76077L4.34796 30.0231C2.78586 31.5852 2.78586 34.1179 4.34796 35.68L4.67495 36.007C6.23705 37.5691 8.76971 37.5691 10.3318 36.007L34.5942 11.7446Z" fill="#00A69E"/>
<path fill-rule="evenodd" clip-rule="evenodd" d="M23.7505 31.5579C24.4847 31.2978 25.2907 31.6822 25.5508 32.4165L28.2174 39.9457L30.884 32.4165C31.0835 31.8533 31.6161 31.4769 32.2135 31.4769C32.8109 31.4769 33.3435 31.8533 33.543 32.4165L36.2096 39.9457L38.8762 32.4165C39.1362 31.6822 39.9423 31.2978 40.6765 31.5579C41.4107 31.8179 41.7952 32.6239 41.5351 33.3582L37.539 44.6411C37.3396 45.2042 36.807 45.5806 36.2096 45.5806C35.6122 45.5806 35.0795 45.2042 34.8801 44.6411L32.2135 37.1119L29.5469 44.6411C29.3474 45.2042 28.8148 45.5806 28.2174 45.5806C27.62 45.5806 27.0874 45.2042 26.8879 44.6411L22.8918 33.3582C22.6318 32.6239 23.0162 31.8179 23.7505 31.5579Z" fill="white"/>
<path fill-rule="evenodd" clip-rule="evenodd" d="M20.457 38.0588C20.457 37.2799 21.0885 36.6484 21.8674 36.6484L24.6882 36.6484C25.4671 36.6484 26.0986 37.2799 26.0986 38.0588C26.0986 38.8377 25.4671 39.4692 24.6882 39.4692L21.8674 39.4692C21.0885 39.4692 20.457 38.8377 20.457 38.0588Z" fill="white"/>
<path fill-rule="evenodd" clip-rule="evenodd" d="M38.3184 38.0588C38.3184 37.2799 38.9498 36.6484 39.7287 36.6484L42.5495 36.6484C43.3284 36.6484 43.9599 37.2799 43.9599 38.0588C43.9599 38.8377 43.3284 39.4692 42.5495 39.4692L39.7287 39.4692C38.9498 39.4692 38.3184 38.8377 38.3184 38.0588Z" fill="white"/>
<path fill-rule="evenodd" clip-rule="evenodd" d="M57.8317 39.2306C57.8317 43.9043 54.043 47.6931 49.3693 47.6931C44.6956 47.6931 40.9069 43.9043 40.9069 39.2306C40.9069 34.557 44.6956 30.7682 49.3693 30.7682C54.043 30.7682 57.8317 34.557 57.8317 39.2306ZM56.6503 48.7556C54.6318 50.3009 52.1078 51.2191 49.3693 51.2191C42.7483 51.2191 37.3809 45.8517 37.3809 39.2306C37.3809 32.6096 42.7483 27.2422 49.3693 27.2422C55.9903 27.2422 61.3577 32.6096 61.3577 39.2306C61.3577 41.8412 60.5233 44.2569 59.1067 46.2255L64.0597 51.1786C64.7482 51.8671 64.7482 52.9833 64.0597 53.6718C63.3712 54.3603 62.2549 54.3603 61.5664 53.6718L56.6503 48.7556Z" fill="#435062"/>
</g>
<defs>
<clipPath id="clip0_4505_343305">
<rect width="64" height="64" fill="white" transform="translate(0.875)"/>
</clipPath>
</defs>
</svg>
