<svg width="36" height="36" viewBox="0 0 36 36" fill="none" xmlns="http://www.w3.org/2000/svg">
<path fill-rule="evenodd" clip-rule="evenodd" d="M8 4C6.34315 4 5 5.34315 5 7V29C5 30.6569 6.34315 32 8 32H24C25.6569 32 27 30.6569 27 29V12L19 4H8Z" fill="#DCEAFC"/>
<path fill-rule="evenodd" clip-rule="evenodd" d="M21 12H27L19 4V10C19 11.1046 19.8954 12 21 12Z" fill="#B8CAE1"/>
<path d="M9 18C9 17.4477 9.44772 17 10 17H17.5C18.0523 17 18.5 17.4477 18.5 18C18.5 18.5523 18.0523 19 17.5 19H10C9.44772 19 9 18.5523 9 18Z" fill="#A1B3C9"/>
<path d="M9 13C9 12.4477 9.44772 12 10 12H16C16.5523 12 17 12.4477 17 13C17 13.5523 16.5523 14 16 14H10C9.44772 14 9 13.5523 9 13Z" fill="#A1B3C9"/>
<path d="M21.25 25.2C21.25 25.0895 21.3395 25 21.45 25H28.55C28.6605 25 28.75 25.0895 28.75 25.2V35.5839C28.75 35.7516 28.556 35.8448 28.4251 35.74L25.1249 33.1C25.0519 33.0415 24.9481 33.0415 24.8751 33.1L21.5749 35.74C21.444 35.8448 21.25 35.7516 21.25 35.5839V25.2Z" fill="#F64A4A"/>
<path d="M19 23.5C19 20.1863 21.6863 17.5 25 17.5C28.3137 17.5 31 20.1863 31 23.5C31 26.8137 28.3137 29.5 25 29.5C21.6863 29.5 19 26.8137 19 23.5Z" fill="#FED84A"/>
</svg>
