<svg width="40" height="40" viewBox="0 0 40 40" fill="none" xmlns="http://www.w3.org/2000/svg">
<path d="M7.77783 7.22222C7.77783 5.99492 8.77275 5 10.0001 5H30.0001C31.2274 5 32.2223 5.99492 32.2223 7.22222V32.7778C32.2223 34.0051 31.2274 35 30.0001 35H10.0001C8.77275 35 7.77783 34.0051 7.77783 32.7778V7.22222Z" fill="#DCEAFC"/>
<path d="M12.2222 23.8889C12.2222 23.2753 12.7196 22.7778 13.3333 22.7778H27.7777C28.3914 22.7778 28.8888 23.2753 28.8888 23.8889C28.8888 24.5026 28.3914 25.0001 27.7777 25.0001H13.3333C12.7196 25.0001 12.2222 24.5026 12.2222 23.8889Z" fill="#AFC3DC"/>
<path d="M12.2222 28.3333C12.2222 27.7196 12.7196 27.2222 13.3333 27.2222H21.1111C21.7247 27.2222 22.2222 27.7196 22.2222 28.3333C22.2222 28.9469 21.7247 29.4444 21.1111 29.4444H13.3333C12.7196 29.4444 12.2222 28.9469 12.2222 28.3333Z" fill="#AFC3DC"/>
<path fill-rule="evenodd" clip-rule="evenodd" d="M25.2808 11.4905C25.6849 11.9524 25.6381 12.6543 25.1763 13.0584L19.462 18.0584C19.0431 18.425 18.4176 18.425 17.9986 18.0584L14.824 15.2806C14.3622 14.8765 14.3154 14.1746 14.7195 13.7128C15.1236 13.2509 15.8256 13.2041 16.2874 13.6082L18.7303 15.7458L23.7129 11.386C24.1747 10.9819 24.8767 11.0287 25.2808 11.4905Z" fill="#00A69E"/>
</svg>
