<svg width="36" height="36" viewBox="0 0 36 36" fill="none" xmlns="http://www.w3.org/2000/svg">
<path fill-rule="evenodd" clip-rule="evenodd" d="M10 4C8.34315 4 7 5.34315 7 7V29C7 30.6569 8.34315 32 10 32H26C27.6569 32 29 30.6569 29 29V12L21 4H10Z" fill="#DCEAFC"/>
<path fill-rule="evenodd" clip-rule="evenodd" d="M23 12H29L21 4V10C21 11.1046 21.8954 12 23 12Z" fill="#B8CAE1"/>
<path d="M10.5 18C10.5 17.4477 10.9477 17 11.5 17H20.5C21.0523 17 21.5 17.4477 21.5 18C21.5 18.5523 21.0523 19 20.5 19H11.5C10.9477 19 10.5 18.5523 10.5 18Z" fill="#A1B3C9"/>
<path d="M10.5 13C10.5 12.4477 10.9477 12 11.5 12H17.5C18.0523 12 18.5 12.4477 18.5 13C18.5 13.5523 18.0523 14 17.5 14H11.5C10.9477 14 10.5 13.5523 10.5 13Z" fill="#A1B3C9"/>
<path d="M34 27C34 30.866 30.866 34 27 34C23.134 34 20 30.866 20 27C20 23.134 23.134 20 27 20C30.866 20 34 23.134 34 27Z" fill="#2AD6CE"/>
<path d="M23 27C23 26.5858 23.3358 26.25 23.75 26.25H30.25C30.6642 26.25 31 26.5858 31 27C31 27.4142 30.6642 27.75 30.25 27.75H23.75C23.3358 27.75 23 27.4142 23 27Z" fill="white"/>
<path d="M26.25 23.75C26.25 23.3358 26.5858 23 27 23C27.4142 23 27.75 23.3358 27.75 23.75V30.25C27.75 30.6642 27.4142 31 27 31C26.5858 31 26.25 30.6642 26.25 30.25V23.75Z" fill="white"/>
</svg>
