<svg width="48" height="48" viewBox="0 0 48 48" fill="none" xmlns="http://www.w3.org/2000/svg">
<path d="M9 10C9 7.79086 10.7909 6 13 6H35C37.2091 6 39 7.79086 39 10V42H9V10Z" fill="#AFC3DC"/>
<path d="M17 14C17 13.4477 17.4477 13 18 13H21C21.5523 13 22 13.4477 22 14V17C22 17.5523 21.5523 18 21 18H18C17.4477 18 17 17.5523 17 17V14Z" fill="white"/>
<path d="M17 23C17 22.4477 17.4477 22 18 22H21C21.5523 22 22 22.4477 22 23V26C22 26.5523 21.5523 27 21 27H18C17.4477 27 17 26.5523 17 26V23Z" fill="white"/>
<path d="M20 35C20 34.4477 20.4477 34 21 34H27C27.5523 34 28 34.4477 28 35V42H20V35Z" fill="#82A3D2"/>
<path d="M26 14C26 13.4477 26.4477 13 27 13H30C30.5523 13 31 13.4477 31 14V17C31 17.5523 30.5523 18 30 18H27C26.4477 18 26 17.5523 26 17V14Z" fill="white"/>
<path d="M26 23C26 22.4477 26.4477 22 27 22H30C30.5523 22 31 22.4477 31 23V26C31 26.5523 30.5523 27 30 27H27C26.4477 27 26 26.5523 26 26V23Z" fill="white"/>
<path fill-rule="evenodd" clip-rule="evenodd" d="M42.5 32.5C42.5 35.8137 39.8137 38.5 36.5 38.5C33.1863 38.5 30.5 35.8137 30.5 32.5C30.5 29.1863 33.1863 26.5 36.5 26.5C39.8137 26.5 42.5 29.1863 42.5 32.5ZM41.6623 39.2534C40.2312 40.349 38.4416 41 36.5 41C31.8056 41 28 37.1944 28 32.5C28 27.8056 31.8056 24 36.5 24C41.1944 24 45 27.8056 45 32.5C45 34.3509 44.4084 36.0637 43.4039 37.4595L46.9157 40.9713C47.4039 41.4594 47.4039 42.2509 46.9157 42.739C46.4276 43.2272 45.6361 43.2272 45.148 42.739L41.6623 39.2534Z" fill="#4E627D"/>
</svg>
