<svg width="48" height="48" viewBox="0 0 48 48" fill="none" xmlns="http://www.w3.org/2000/svg">
<path d="M17 6.42857C17 5.63959 17.6396 5 18.4286 5H28.5714C29.3604 5 30 5.63959 30 6.42857V8.5C30 12.0899 27.0899 15 23.5 15C19.9101 15 17 12.0899 17 8.5V6.42857Z" fill="#00A69E"/>
<path d="M8 29C8 20.1634 15.1634 13 24 13C32.8366 13 40 20.1634 40 29V36C40 39.3137 37.3137 42 34 42H14C10.6863 42 8 39.3137 8 36V29Z" fill="#2AD6CE"/>
<path fill-rule="evenodd" clip-rule="evenodd" d="M17.1305 22.806C17.79 22.6019 18.4901 22.971 18.6942 23.6305L20.454 29.3159L22.8446 23.5232C23.0377 23.0553 23.4939 22.7501 24.0001 22.7501C24.5063 22.7501 24.9625 23.0553 25.1556 23.5232L27.5462 29.3159L29.306 23.6305C29.5101 22.971 30.2102 22.6019 30.8697 22.806C31.5292 23.0101 31.8983 23.7102 31.6942 24.3697L28.9085 33.3697C28.7527 33.8731 28.2978 34.2248 27.7714 34.2488C27.2449 34.2728 26.76 33.9641 26.5589 33.4769L24.0001 27.2767L21.4413 33.4769C21.2402 33.9641 20.7553 34.2728 20.2288 34.2488C19.7023 34.2248 19.2475 33.8731 19.0917 33.3697L16.306 24.3697C16.1019 23.7102 16.471 23.0101 17.1305 22.806Z" fill="white"/>
<path d="M13.5 28.25C13.5 27.5596 14.0596 27 14.75 27H17.25C17.9404 27 18.5 27.5596 18.5 28.25C18.5 28.9404 17.9404 29.5 17.25 29.5H14.75C14.0596 29.5 13.5 28.9404 13.5 28.25Z" fill="white"/>
<path d="M29.5 28.25C29.5 27.5596 30.0596 27 30.75 27H33.25C33.9404 27 34.5 27.5596 34.5 28.25C34.5 28.9404 33.9404 29.5 33.25 29.5H30.75C30.0596 29.5 29.5 28.9404 29.5 28.25Z" fill="white"/>
<path fill-rule="evenodd" clip-rule="evenodd" d="M39.7097 33.3339C38.8412 34.0618 37.7218 34.5 36.5 34.5C33.7386 34.5 31.5 32.2614 31.5 29.5C31.5 26.7386 33.7386 24.5 36.5 24.5C39.2614 24.5 41.5 26.7386 41.5 29.5C41.5 30.817 40.9908 32.0152 40.1585 32.9082C40.0601 32.9632 39.9675 33.0325 39.8839 33.1161C39.8165 33.1835 39.7585 33.2566 39.7097 33.3339ZM40.7087 35.7087C39.5087 36.5237 38.06 37 36.5 37C32.3579 37 29 33.6421 29 29.5C29 25.3579 32.3579 22 36.5 22C40.6421 22 44 25.3579 44 29.5C44 31.1794 43.448 32.7299 42.5155 33.98L45.5407 37.0052C46.0289 37.4934 46.0289 38.2848 45.5407 38.773C45.0526 39.2611 44.2611 39.2611 43.773 38.773L40.7087 35.7087Z" fill="#3E4C60"/>
</svg>
