<svg width="48" height="48" viewBox="0 0 48 48" fill="none" xmlns="http://www.w3.org/2000/svg">
<path d="M17.3747 9.21252C17.1752 7.50194 18.5121 6 20.2343 6H27.7656C29.4878 6 30.8247 7.50194 30.6252 9.21253L30.5093 10.206C30.1239 13.5091 27.3255 16 24 16C20.6744 16 17.876 13.5091 17.4907 10.206L17.3747 9.21252Z" fill="#00A69E"/>
<path d="M8 30C8 21.1634 15.1634 14 24 14C32.8366 14 40 21.1634 40 30V34C40 38.4183 36.4183 42 32 42H16C11.5817 42 8 38.4183 8 34V30Z" fill="#20C7BF"/>
<path fill-rule="evenodd" clip-rule="evenodd" d="M17.6175 23.81C18.2747 23.5987 18.9788 23.9603 19.19 24.6175L20.7389 29.4361L22.8511 24.5076C23.048 24.048 23.5 23.75 24 23.75C24.5 23.75 24.952 24.048 25.1489 24.5076L27.2611 29.4361L28.81 24.6175C29.0212 23.9603 29.7253 23.5987 30.3825 23.81C31.0397 24.0213 31.4013 24.7253 31.19 25.3825L30.6702 26.9999H32.25C32.9404 26.9999 33.5 27.5596 33.5 28.2499C33.5 28.9403 32.9404 29.4999 32.25 29.4999H30.25C30.1227 29.4999 29.9998 29.4809 29.8841 29.4455L28.6186 33.3825C28.459 33.879 28.0081 34.2242 27.4872 34.2487C26.9664 34.2731 26.485 33.9717 26.2796 33.4924L24 28.1733L21.7204 33.4924C21.515 33.9717 21.0336 34.2731 20.5128 34.2487C19.9919 34.2242 19.541 33.879 19.3814 33.3825L18.1159 29.4455C18.0002 29.4809 17.8773 29.4999 17.75 29.4999H15.75C15.0596 29.4999 14.5 28.9403 14.5 28.2499C14.5 27.5596 15.0596 26.9999 15.75 26.9999H17.3298L16.81 25.3825C16.5987 24.7253 16.9602 24.0213 17.6175 23.81Z" fill="white"/>
<path fill-rule="evenodd" clip-rule="evenodd" d="M42.5 29.5C42.5 32.8137 39.8137 35.5 36.5 35.5C33.1863 35.5 30.5 32.8137 30.5 29.5C30.5 26.1863 33.1863 23.5 36.5 23.5C39.8137 23.5 42.5 26.1863 42.5 29.5ZM41.6623 36.2534C40.2312 37.349 38.4416 38 36.5 38C31.8056 38 28 34.1944 28 29.5C28 24.8056 31.8056 21 36.5 21C41.1944 21 45 24.8056 45 29.5C45 31.3509 44.4084 33.0637 43.4039 34.4595L46.9157 37.9713C47.4039 38.4594 47.4039 39.2509 46.9157 39.739C46.4276 40.2272 45.6361 40.2272 45.148 39.739L41.6623 36.2534Z" fill="#4E627D"/>
</svg>
