<svg width="44" height="44" viewBox="0 0 44 44" fill="none" xmlns="http://www.w3.org/2000/svg">
<path d="M15.9283 8.44481C15.7453 6.87678 16.9708 5.5 18.5495 5.5H25.4533C27.0319 5.5 28.2574 6.87678 28.0745 8.44481L27.9682 9.35547C27.615 12.3834 25.0498 14.6667 22.0014 14.6667C18.9529 14.6667 16.3878 12.3834 16.0345 9.35547L15.9283 8.44481Z" fill="#00A69E"/>
<path d="M7.33203 27.4997C7.33203 19.3995 13.8985 12.833 21.9987 12.833C30.0989 12.833 36.6654 19.3995 36.6654 27.4997V31.1663C36.6654 35.2164 33.3821 38.4997 29.332 38.4997H14.6654C10.6153 38.4997 7.33203 35.2164 7.33203 31.1663V27.4997Z" fill="#20C7BF"/>
<path fill-rule="evenodd" clip-rule="evenodd" d="M16.1507 21.8258C16.7531 21.6321 17.3985 21.9635 17.5922 22.566L19.0119 26.983L20.9481 22.4653C21.1287 22.044 21.5429 21.7708 22.0013 21.7708C22.4597 21.7708 22.8739 22.044 23.0545 22.4653L24.9907 26.983L26.4104 22.566C26.6041 21.9635 27.2495 21.6321 27.8519 21.8258C28.4544 22.0194 28.7858 22.6648 28.5922 23.2673L28.1156 24.7499H29.5638C30.1966 24.7499 30.7096 25.2629 30.7096 25.8957C30.7096 26.5286 30.1966 27.0416 29.5638 27.0416H27.7305C27.6138 27.0416 27.5011 27.0241 27.395 26.9917L26.235 30.6006C26.0888 31.0557 25.6754 31.3721 25.1979 31.3946C24.7205 31.417 24.2793 31.1407 24.091 30.7013L22.0013 25.8255L19.9116 30.7013C19.7233 31.1407 19.2821 31.417 18.8047 31.3946C18.3272 31.3721 17.9138 31.0557 17.7676 30.6006L16.6076 26.9917C16.5015 27.0241 16.3888 27.0416 16.2721 27.0416H14.4388C13.806 27.0416 13.293 26.5286 13.293 25.8957C13.293 25.2629 13.806 24.7499 14.4388 24.7499H15.887L15.4104 23.2673C15.2168 22.6648 15.5482 22.0194 16.1507 21.8258Z" fill="white"/>
<path fill-rule="evenodd" clip-rule="evenodd" d="M38.9596 27.0417C38.9596 30.0792 36.4972 32.5417 33.4596 32.5417C30.4221 32.5417 27.9596 30.0792 27.9596 27.0417C27.9596 24.0041 30.4221 21.5417 33.4596 21.5417C36.4972 21.5417 38.9596 24.0041 38.9596 27.0417ZM38.1918 33.2323C36.8799 34.2366 35.2394 34.8333 33.4596 34.8333C29.1564 34.8333 25.668 31.3449 25.668 27.0417C25.668 22.7384 29.1564 19.25 33.4596 19.25C37.7629 19.25 41.2513 22.7384 41.2513 27.0417C41.2513 28.7384 40.709 30.3084 39.7883 31.5879L43.0074 34.807C43.4549 35.2545 43.4549 35.98 43.0074 36.4275C42.5599 36.8749 41.8344 36.8749 41.3869 36.4275L38.1918 33.2323Z" fill="#4E627D"/>
</svg>
