<svg width="48" height="48" viewBox="0 0 48 48" fill="none" xmlns="http://www.w3.org/2000/svg">
<path fill-rule="evenodd" clip-rule="evenodd" d="M33 19H38.5C39.8807 19 41 20.1193 41 21.5V42H33V19ZM35.5 23.5C35.5 23.2239 35.7239 23 36 23H38C38.2761 23 38.5 23.2239 38.5 23.5V25.5C38.5 25.7761 38.2761 26 38 26H36C35.7239 26 35.5 25.7761 35.5 25.5V23.5ZM36 29C35.7239 29 35.5 29.2239 35.5 29.5V31.5C35.5 31.7761 35.7239 32 36 32H38C38.2761 32 38.5 31.7761 38.5 31.5V29.5C38.5 29.2239 38.2761 29 38 29H36Z" fill="#D0DEF0"/>
<path fill-rule="evenodd" clip-rule="evenodd" d="M10 6C8.34315 6 7 7.34315 7 9V39C7 40.6569 8.34315 42 10 42H16V34C16 33.4477 16.4477 33 17 33H23C23.5523 33 24 33.4477 24 34V42H33V9C33 7.34315 31.6569 6 30 6H10ZM13 13C12.4477 13 12 13.4477 12 14V17.5C12 18.0523 12.4477 18.5 13 18.5H16.5C17.0523 18.5 17.5 18.0523 17.5 17.5V14C17.5 13.4477 17.0523 13 16.5 13H13ZM22.5 14C22.5 13.4477 22.9477 13 23.5 13H27C27.5523 13 28 13.4477 28 14V17.5C28 18.0523 27.5523 18.5 27 18.5H23.5C22.9477 18.5 22.5 18.0523 22.5 17.5V14ZM13 22.8276C12.4477 22.8276 12 23.2754 12 23.8276V27.3276C12 27.8799 12.4477 28.3276 13 28.3276H16.5C17.0523 28.3276 17.5 27.8799 17.5 27.3276V23.8276C17.5 23.2754 17.0523 22.8276 16.5 22.8276H13ZM22.5 23.8276C22.5 23.2754 22.9477 22.8276 23.5 22.8276H27C27.5523 22.8276 28 23.2754 28 23.8276V27.3276C28 27.8799 27.5523 28.3276 27 28.3276H23.5C22.9477 28.3276 22.5 27.8799 22.5 27.3276V23.8276Z" fill="#AEBDD1"/>
<path fill-rule="evenodd" clip-rule="evenodd" d="M39.7097 36.3339C38.8412 37.0618 37.7218 37.5 36.5 37.5C33.7386 37.5 31.5 35.2614 31.5 32.5C31.5 29.7386 33.7386 27.5 36.5 27.5C39.2614 27.5 41.5 29.7386 41.5 32.5C41.5 33.817 40.9908 35.0152 40.1585 35.9082C40.0601 35.9632 39.9675 36.0325 39.8839 36.1161C39.8165 36.1835 39.7585 36.2566 39.7097 36.3339ZM40.7087 38.7087C39.5087 39.5237 38.06 40 36.5 40C32.3579 40 29 36.6421 29 32.5C29 28.3579 32.3579 25 36.5 25C40.6421 25 44 28.3579 44 32.5C44 34.1794 43.448 35.7299 42.5155 36.98L45.5407 40.0052C46.0289 40.4934 46.0289 41.2848 45.5407 41.773C45.0526 42.2611 44.2611 42.2611 43.773 41.773L40.7087 38.7087Z" fill="#3E4C60"/>
</svg>
