<svg width="40" height="40" viewBox="0 0 40 40" fill="none" xmlns="http://www.w3.org/2000/svg">
<path d="M6.66675 6.66659C6.66675 4.82564 8.15913 3.33325 10.0001 3.33325H30.0001C31.841 3.33325 33.3334 4.82564 33.3334 6.66659V33.3333C33.3334 35.1742 31.841 36.6666 30.0001 36.6666H10.0001C8.15913 36.6666 6.66675 35.1742 6.66675 33.3333V6.66659Z" fill="#DCEAFC"/>
<path d="M11.1111 12.2222C11.1111 11.6085 11.6085 11.1111 12.2222 11.1111H27.7778C28.3914 11.1111 28.8889 11.6085 28.8889 12.2222C28.8889 12.8358 28.3914 13.3333 27.7778 13.3333H12.2222C11.6085 13.3333 11.1111 12.8358 11.1111 12.2222Z" fill="#AFC3DC"/>
<path d="M11.1111 17.7779C11.1111 17.1642 11.6085 16.6667 12.2222 16.6667H27.7778C28.3914 16.6667 28.8889 17.1642 28.8889 17.7779C28.8889 18.3915 28.3914 18.889 27.7778 18.889H12.2222C11.6085 18.889 11.1111 18.3915 11.1111 17.7779Z" fill="#AFC3DC"/>
<path d="M11.1111 23.3333C11.1111 22.7196 11.6085 22.2222 12.2222 22.2222H21.1111C21.7247 22.2222 22.2222 22.7196 22.2222 23.3333C22.2222 23.9469 21.7247 24.4444 21.1111 24.4444H12.2222C11.6085 24.4444 11.1111 23.9469 11.1111 23.3333Z" fill="#AFC3DC"/>
<path fill-rule="evenodd" clip-rule="evenodd" d="M35.4154 24.5833C35.4154 27.3448 33.1768 29.5833 30.4154 29.5833C27.6539 29.5833 25.4154 27.3448 25.4154 24.5833C25.4154 21.8219 27.6539 19.5833 30.4154 19.5833C33.1768 19.5833 35.4154 21.8219 35.4154 24.5833ZM34.7173 30.2111C33.5247 31.1242 32.0334 31.6667 30.4154 31.6667C26.5033 31.6667 23.332 28.4954 23.332 24.5833C23.332 20.6713 26.5033 17.5 30.4154 17.5C34.3274 17.5 37.4987 20.6713 37.4987 24.5833C37.4987 26.1258 37.0057 27.5531 36.1686 28.7162L39.0951 31.6427C39.5019 32.0495 39.5019 32.7091 39.0951 33.1159C38.6883 33.5227 38.0288 33.5227 37.622 33.1159L34.7173 30.2111Z" fill="#4E627D"/>
</svg>
