<svg width="36" height="36" viewBox="0 0 36 36" fill="none" xmlns="http://www.w3.org/2000/svg">
<path fill-rule="evenodd" clip-rule="evenodd" d="M10 4C8.34315 4 7 5.34315 7 7V29C7 30.6569 8.34315 32 10 32H26C27.6569 32 29 30.6569 29 29V12L21 4H10Z" fill="#DCEAFC"/>
<path fill-rule="evenodd" clip-rule="evenodd" d="M23 12H29L21 4V10C21 11.1046 21.8954 12 23 12Z" fill="#B8CAE1"/>
<path d="M14.5 18.5C14.5 19.3284 13.8284 20 13 20C12.1716 20 11.5 19.3284 11.5 18.5C11.5 17.6716 12.1716 17 13 17C13.8284 17 14.5 17.6716 14.5 18.5Z" fill="#A1B3C9"/>
<path d="M19.5 18.5C19.5 19.3284 18.8284 20 18 20C17.1716 20 16.5 19.3284 16.5 18.5C16.5 17.6716 17.1716 17 18 17C18.8284 17 19.5 17.6716 19.5 18.5Z" fill="#A1B3C9"/>
<path d="M24.5 18.5C24.5 19.3284 23.8284 20 23 20C22.1716 20 21.5 19.3284 21.5 18.5C21.5 17.6716 22.1716 17 23 17C23.8284 17 24.5 17.6716 24.5 18.5Z" fill="#A1B3C9"/>
<path fill-rule="evenodd" clip-rule="evenodd" d="M31 24C31 26.2091 29.2091 28 27 28C24.7909 28 23 26.2091 23 24C23 21.7909 24.7909 20 27 20C29.2091 20 31 21.7909 31 24ZM30.1237 29.1237C29.2138 29.6796 28.1443 30 27 30C23.6863 30 21 27.3137 21 24C21 20.6863 23.6863 18 27 18C30.3137 18 33 20.6863 33 24C33 25.4459 32.4886 26.7723 31.6367 27.8083L33.9497 30.1213C34.3403 30.5118 34.3403 31.145 33.9497 31.5355C33.5592 31.9261 32.9261 31.9261 32.5355 31.5355L30.1237 29.1237Z" fill="#3E4C60"/>
</svg>
