<svg width="48" height="49" viewBox="0 0 48 49" fill="none" xmlns="http://www.w3.org/2000/svg">
<path fill-rule="evenodd" clip-rule="evenodd" d="M41.4764 34.5625C41.856 34.9637 41.8385 35.5966 41.4373 35.9762L36.6812 40.4762C36.2901 40.8462 35.6763 40.8402 35.2925 40.4625L32.5486 37.7625C32.155 37.3752 32.1499 36.742 32.5372 36.3484C32.9246 35.9547 33.5577 35.9496 33.9514 36.337L36.0075 38.3602L40.0627 34.5234C40.4639 34.1438 41.0968 34.1613 41.4764 34.5625Z" fill="white"/>
<path d="M7 20.4998C7 18.2906 8.79086 16.4998 11 16.4998H37C39.2091 16.4998 41 18.2906 41 20.4998V36.4998C41 38.7089 39.2091 40.4998 37 40.4998H11C8.79086 40.4998 7 38.7089 7 36.4998V20.4998Z" fill="#AFC3DC"/>
<path d="M10 10.4998C10 8.29062 11.7909 6.49976 14 6.49976H33C35.2091 6.49976 37 8.29062 37 10.4998V31.4998C37 33.7089 35.2091 35.4998 33 35.4998H14C11.7909 35.4998 10 33.7089 10 31.4998V10.4998Z" fill="white"/>
<path d="M14 13.7498C14 13.0594 14.5596 12.4998 15.25 12.4998H30.75C31.4404 12.4998 32 13.0594 32 13.7498C32 14.4401 31.4404 14.9998 30.75 14.9998H15.25C14.5596 14.9998 14 14.4401 14 13.7498Z" fill="#AFC3DC"/>
<path d="M14 19.7498C14 19.0594 14.5596 18.4998 15.25 18.4998H25.75C26.4404 18.4998 27 19.0594 27 19.7498C27 20.4401 26.4404 20.9998 25.75 20.9998H15.25C14.5596 20.9998 14 20.4401 14 19.7498Z" fill="#AFC3DC"/>
<path d="M7 20.4998L22 31.0414V38.4998C22 40.7089 20.2091 42.4998 18 42.4998H11C8.79086 42.4998 7 40.7089 7 38.4998V20.4998Z" fill="#DCEAFC"/>
<path d="M41 20.4998L26 31.0414V38.4998C26 40.7089 27.7909 42.4998 30 42.4998H37C39.2091 42.4998 41 40.7089 41 38.4998V20.4998Z" fill="#DCEAFC"/>
<path d="M37 42.4999H11L23.2672 29.289C23.6628 28.863 24.3372 28.863 24.7328 29.289L37 42.4999Z" fill="#AFC3DC"/>
<path d="M46 37.4998C46 42.4703 41.9706 46.4998 37 46.4998C32.0294 46.4998 28 42.4703 28 37.4998C28 32.5292 32.0294 28.4998 37 28.4998C41.9706 28.4998 46 32.5292 46 37.4998Z" fill="#2AD6CE"/>
<path fill-rule="evenodd" clip-rule="evenodd" d="M41.4764 34.5625C41.856 34.9637 41.8385 35.5966 41.4373 35.9762L36.6812 40.4762C36.2901 40.8462 35.6763 40.8402 35.2925 40.4625L32.5486 37.7625C32.155 37.3752 32.1499 36.742 32.5372 36.3484C32.9246 35.9547 33.5577 35.9496 33.9514 36.337L36.0075 38.3602L40.0627 34.5234C40.4639 34.1438 41.0968 34.1613 41.4764 34.5625Z" fill="white"/>
</svg>
