<svg width="48" height="48" viewBox="0 0 48 48" fill="none" xmlns="http://www.w3.org/2000/svg">
<path d="M7 20C7 17.7909 8.79086 16 11 16H37C39.2091 16 41 17.7909 41 20V36C41 38.2091 39.2091 40 37 40H11C8.79086 40 7 38.2091 7 36V20Z" fill="#AFC3DC"/>
<path d="M10.5 10C10.5 7.79086 12.2909 6 14.5 6H33.5C35.7091 6 37.5 7.79086 37.5 10V31C37.5 33.2091 35.7091 35 33.5 35H14.5C12.2909 35 10.5 33.2091 10.5 31V10Z" fill="white"/>
<path d="M14.5 13.25C14.5 12.5596 15.0596 12 15.75 12H31.25C31.9404 12 32.5 12.5596 32.5 13.25C32.5 13.9404 31.9404 14.5 31.25 14.5H15.75C15.0596 14.5 14.5 13.9404 14.5 13.25Z" fill="#AFC3DC"/>
<path d="M14.5 19.25C14.5 18.5596 15.0596 18 15.75 18H26.25C26.9404 18 27.5 18.5596 27.5 19.25C27.5 19.9404 26.9404 20.5 26.25 20.5H15.75C15.0596 20.5 14.5 19.9404 14.5 19.25Z" fill="#AFC3DC"/>
<path d="M7 20L22 30.5417V38C22 40.2091 20.2091 42 18 42H11C8.79086 42 7 40.2091 7 38V20Z" fill="#DCEAFC"/>
<path d="M41 20L26 30.5417V38C26 40.2091 27.7909 42 30 42H37C39.2091 42 41 40.2091 41 38V20Z" fill="#DCEAFC"/>
<path d="M37 42.0001H11L23.2672 28.7893C23.6628 28.3632 24.3372 28.3632 24.7328 28.7893L37 42.0001Z" fill="#AFC3DC"/>
<path d="M46 37C46 41.9706 41.9706 46 37 46C32.0294 46 28 41.9706 28 37C28 32.0294 32.0294 28 37 28C41.9706 28 46 32.0294 46 37Z" fill="#2AD6CE"/>
<path fill-rule="evenodd" clip-rule="evenodd" d="M41.717 34.3029C42.102 34.6989 42.0931 35.332 41.6971 35.717L36.5542 40.717C36.1661 41.0943 35.5482 41.0943 35.1601 40.717L32.3029 37.9392C31.9069 37.5542 31.898 36.9211 32.283 36.5251C32.668 36.1292 33.3011 36.1202 33.6971 36.5052L35.8571 38.6053L40.3029 34.283C40.6989 33.898 41.332 33.9069 41.717 34.3029Z" fill="white"/>
</svg>
