<svg width="48" height="48" viewBox="0 0 48 48" fill="none" xmlns="http://www.w3.org/2000/svg">
<path fill-rule="evenodd" clip-rule="evenodd" d="M41.4764 34.0627C41.856 34.4639 41.8385 35.0968 41.4373 35.4764L36.6812 39.9764C36.2901 40.3464 35.6763 40.3404 35.2925 39.9628L32.5486 37.2628C32.155 36.8754 32.1499 36.2423 32.5372 35.8486C32.9246 35.455 33.5577 35.4499 33.9514 35.8372L36.0075 37.8605L40.0627 34.0236C40.4639 33.644 41.0968 33.6615 41.4764 34.0627Z" fill="white"/>
<path d="M7 20C7 17.7909 8.79086 16 11 16H37C39.2091 16 41 17.7909 41 20V36C41 38.2091 39.2091 40 37 40H11C8.79086 40 7 38.2091 7 36V20Z" fill="#AFC3DC"/>
<path d="M10 10C10 7.79086 11.7909 6 14 6H33C35.2091 6 37 7.79086 37 10V31C37 33.2091 35.2091 35 33 35H14C11.7909 35 10 33.2091 10 31V10Z" fill="white"/>
<path d="M14 13.25C14 12.5596 14.5596 12 15.25 12H30.75C31.4404 12 32 12.5596 32 13.25C32 13.9404 31.4404 14.5 30.75 14.5H15.25C14.5596 14.5 14 13.9404 14 13.25Z" fill="#AFC3DC"/>
<path d="M14 19.25C14 18.5596 14.5596 18 15.25 18H25.75C26.4404 18 27 18.5596 27 19.25C27 19.9404 26.4404 20.5 25.75 20.5H15.25C14.5596 20.5 14 19.9404 14 19.25Z" fill="#AFC3DC"/>
<path d="M7 20L22 30.5417V38C22 40.2091 20.2091 42 18 42H11C8.79086 42 7 40.2091 7 38V20Z" fill="#D1E1F1"/>
<path d="M41 20L26 30.5417V38C26 40.2091 27.7909 42 30 42H37C39.2091 42 41 40.2091 41 38V20Z" fill="#D1E1F1"/>
<path d="M37 42H11L23.2672 28.7892C23.6628 28.3631 24.3372 28.3631 24.7328 28.7892L37 42Z" fill="#AFC3DC"/>
<path d="M46 37C46 41.9706 41.9706 46 37 46C32.0294 46 28 41.9706 28 37C28 32.0294 32.0294 28 37 28C41.9706 28 46 32.0294 46 37Z" fill="#0168FE"/>
<path fill-rule="evenodd" clip-rule="evenodd" d="M41.4764 34.0627C41.856 34.4639 41.8385 35.0968 41.4373 35.4764L36.6812 39.9764C36.2901 40.3464 35.6763 40.3404 35.2925 39.9628L32.5486 37.2628C32.155 36.8754 32.1499 36.2423 32.5372 35.8486C32.9246 35.455 33.5577 35.4499 33.9514 35.8372L36.0075 37.8605L40.0627 34.0236C40.4639 33.644 41.0968 33.6615 41.4764 34.0627Z" fill="white"/>
</svg>
