<svg width="48" height="48" viewBox="0 0 48 48" fill="none" xmlns="http://www.w3.org/2000/svg">
<path fill-rule="evenodd" clip-rule="evenodd" d="M22 9C18.5379 9 15.2262 10.3147 12.7914 12.6414C11.6271 13.754 10.6716 15.4165 10.0071 17.2716C9.34506 19.1199 9 21.0815 9 22.7297V24.0714H7V22.7297C7 20.8298 7.39244 18.6402 8.12426 16.5972C8.85366 14.5608 9.9484 12.5918 11.4096 11.1955C14.2258 8.50433 18.036 7 22 7C25.964 7 29.7742 8.50433 32.5904 11.1955C35.4081 13.8881 37 17.55 37 21.3784V30.1108C37 31.2846 36.758 32.4458 36.2891 33.5276C35.8202 34.6093 35.1343 35.5891 34.2728 36.4123C33.4114 37.2354 32.3912 37.8861 31.2716 38.3293C30.1521 38.7724 28.9536 39 27.7442 39V37C28.7032 37 29.6518 36.8194 30.5355 36.4697C31.4192 36.1199 32.2192 35.6083 32.8911 34.9663C33.5628 34.3244 34.0931 33.5648 34.4541 32.7322C34.8149 31.8996 35 31.009 35 30.1108V21.3784C35 18.1105 33.6419 14.9667 31.2086 12.6414C28.7738 10.3147 25.4621 9 22 9Z" fill="#AFC3DC"/>
<path d="M11.2 21.5H9.8C8.2536 21.5 7 22.9071 7 24.6429V29.3571C7 31.0929 8.2536 32.5 9.8 32.5H11.2C12.7464 32.5 14 31.0929 14 29.3571V24.6429C14 22.9071 12.7464 21.5 11.2 21.5Z" fill="#0168FE"/>
<path d="M34.2 21.5H32.8C31.2536 21.5 30 22.9071 30 24.6429V29.3571C30 31.0929 31.2536 32.5 32.8 32.5H34.2C35.7464 32.5 37 31.0929 37 29.3571V24.6429C37 22.9071 35.7464 21.5 34.2 21.5Z" fill="#0168FE"/>
<path d="M23 38C23 36.8954 23.8954 36 25 36H27C28.1046 36 29 36.8954 29 38C29 39.1046 28.1046 40 27 40H25C23.8954 40 23 39.1046 23 38Z" fill="#AFC3DC"/>
<path d="M38.586 26.4141C38.1955 26.0236 38.1955 25.3904 38.586 24.9999L40.0002 23.5857C40.3908 23.1952 41.0239 23.1952 41.4144 23.5857C41.805 23.9762 41.805 24.6094 41.4144 24.9999L40.0002 26.4141C39.6097 26.8047 38.9765 26.8047 38.586 26.4141Z" fill="#4E627D"/>
<path d="M38.586 33.707C38.1955 34.0975 38.1955 34.7306 38.586 35.1212L40.0002 36.5354C40.3908 36.9259 41.0239 36.9259 41.4144 36.5354C41.805 36.1449 41.805 35.5117 41.4144 35.1212L40.0002 33.707C39.6097 33.3164 38.9765 33.3164 38.586 33.707Z" fill="#4E627D"/>
<path d="M38 30C38 29.4477 38.4477 29 39 29H41C41.5523 29 42 29.4477 42 30C42 30.5523 41.5523 31 41 31H39C38.4477 31 38 30.5523 38 30Z" fill="#4E627D"/>
</svg>
