<svg width="36" height="36" viewBox="0 0 36 36" fill="none" xmlns="http://www.w3.org/2000/svg">
<path d="M4 15.3333C4 13.4924 5.47483 12 7.29412 12H28.7059C30.5252 12 32 13.4924 32 15.3333V28.6667C32 30.5076 30.5252 32 28.7059 32H7.29412C5.47483 32 4 30.5076 4 28.6667V15.3333Z" fill="#F3A735"/>
<path d="M7 6.89655C7 5.29683 8.45922 4 10.2593 4H25.7407C27.5408 4 29 5.29683 29 6.89655V22.1034C29 23.7032 27.5408 25 25.7407 25H10.2593C8.45922 25 7 23.7032 7 22.1034V6.89655Z" fill="#DCEAFC"/>
<path d="M4 16L16 23.6667V29.0909C16 30.6976 14.5673 32 12.8 32H7.2C5.43269 32 4 30.6976 4 29.0909V16Z" fill="#FFC737"/>
<path d="M32 16L20 23.6667V29.0909C20 30.6976 21.4327 32 23.2 32H28.8C30.5673 32 32 30.6976 32 29.0909V16Z" fill="#FFC737"/>
<path d="M28 32H8L17.4363 22.2362C17.7406 21.9213 18.2594 21.9213 18.5637 22.2362L28 32Z" fill="#FED84A"/>
<circle cx="13" cy="13.5" r="1.5" fill="#AFC3DC"/>
<circle cx="18" cy="13.5" r="1.5" fill="#AFC3DC"/>
<circle cx="23" cy="13.5" r="1.5" fill="#AFC3DC"/>
</svg>
