<svg width="36" height="36" viewBox="0 0 36 36" fill="none" xmlns="http://www.w3.org/2000/svg">
<path d="M4 15.3333C4 13.4924 5.47483 12 7.29412 12H28.7059C30.5252 12 32 13.4924 32 15.3333V28.6667C32 30.5076 30.5252 32 28.7059 32H7.29412C5.47483 32 4 30.5076 4 28.6667V15.3333Z" fill="#F3A735"/>
<path d="M7 7C7 5.34315 8.34315 4 10 4H26C27.6569 4 29 5.34315 29 7V21C29 22.6569 27.6569 24 26 24H10C8.34315 24 7 22.6569 7 21V7Z" fill="#DCEAFC"/>
<path d="M4 16L16 23.6667V29.0909C16 30.6976 14.5673 32 12.8 32H7.2C5.43269 32 4 30.6976 4 29.0909V16Z" fill="#FFC737"/>
<path d="M32 16L20 23.6667V29.0909C20 30.6976 21.4327 32 23.2 32H28.8C30.5673 32 32 30.6976 32 29.0909V16Z" fill="#FFC737"/>
<path d="M28 32H8L17.4363 22.2362C17.7406 21.9213 18.2594 21.9213 18.5637 22.2362L28 32Z" fill="#FED84A"/>
<path d="M14.5 13.5C14.5 14.3284 13.8284 15 13 15C12.1716 15 11.5 14.3284 11.5 13.5C11.5 12.6716 12.1716 12 13 12C13.8284 12 14.5 12.6716 14.5 13.5Z" fill="#A1B3C9"/>
<path d="M19.5 13.5C19.5 14.3284 18.8284 15 18 15C17.1716 15 16.5 14.3284 16.5 13.5C16.5 12.6716 17.1716 12 18 12C18.8284 12 19.5 12.6716 19.5 13.5Z" fill="#A1B3C9"/>
<path d="M24.5 13.5C24.5 14.3284 23.8284 15 23 15C22.1716 15 21.5 14.3284 21.5 13.5C21.5 12.6716 22.1716 12 23 12C23.8284 12 24.5 12.6716 24.5 13.5Z" fill="#A1B3C9"/>
</svg>
