<svg width="36" height="36" viewBox="0 0 36 36" fill="none" xmlns="http://www.w3.org/2000/svg">
<path d="M4.5 20C4.5 19.4477 4.94772 19 5.5 19H10.5C11.0523 19 11.5 19.4477 11.5 20V30C11.5 30.5523 11.0523 31 10.5 31H5.5C4.94772 31 4.5 30.5523 4.5 30V20Z" fill="#0168FE"/>
<path d="M14.5 6C14.5 5.44772 14.9477 5 15.5 5H20.5C21.0523 5 21.5 5.44772 21.5 6V30C21.5 30.5523 21.0523 31 20.5 31H15.5C14.9477 31 14.5 30.5523 14.5 30V6Z" fill="#428FFF"/>
<path d="M24.5 16C24.5 15.4477 24.9477 15 25.5 15H30.5C31.0523 15 31.5 15.4477 31.5 16V30C31.5 30.5523 31.0523 31 30.5 31H25.5C24.9477 31 24.5 30.5523 24.5 30V16Z" fill="#0168FE"/>
<path fill-rule="evenodd" clip-rule="evenodd" d="M28.8366 7.45223C29.1392 7.91424 29.01 8.53408 28.548 8.83667L18.548 15.386C18.1562 15.6426 17.6388 15.5929 17.303 15.2665L13.8574 11.9164L8.59424 15.8044C8.15002 16.1326 7.52389 16.0385 7.19573 15.5943C6.86758 15.1501 6.96166 14.5239 7.40589 14.1958L13.3517 9.80344C13.7455 9.51255 14.292 9.54952 14.643 9.89079L18.1226 13.2738L27.4522 7.16356C27.9142 6.86097 28.534 6.99021 28.8366 7.45223Z" fill="#2B3748"/>
<path d="M30.0204 6.06107C30.5584 6.0759 30.9062 6.63586 30.6809 7.12469L29.1073 10.5393C28.8572 11.0819 28.1041 11.1286 27.789 10.6211L25.6042 7.10289C25.2891 6.59537 25.6649 5.94106 26.262 5.95751L30.0204 6.06107Z" fill="#2B3748"/>
</svg>
