<svg width="36" height="36" viewBox="0 0 36 36" fill="none" xmlns="http://www.w3.org/2000/svg">
<path d="M4.5 9C4.5 8.44772 4.94772 8 5.5 8H10.5C11.0523 8 11.5 8.44772 11.5 9V21C11.5 21.5523 11.0523 22 10.5 22H5.5C4.94772 22 4.5 21.5523 4.5 21V9Z" fill="#F64A4A"/>
<path d="M7.5 4.5C7.5 4.22386 7.72386 4 8 4C8.27614 4 8.5 4.22386 8.5 4.5V25.5C8.5 25.7761 8.27614 26 8 26C7.72386 26 7.5 25.7761 7.5 25.5V4.5Z" fill="#F64A4A"/>
<path d="M27.5 4.5C27.5 4.22386 27.7239 4 28 4C28.2761 4 28.5 4.22386 28.5 4.5V25.5C28.5 25.7761 28.2761 26 28 26C27.7239 26 27.5 25.7761 27.5 25.5V4.5Z" fill="#F64A4A"/>
<path d="M14.5 17C14.5 16.4477 14.9477 16 15.5 16H20.5C21.0523 16 21.5 16.4477 21.5 17V29C21.5 29.5523 21.0523 30 20.5 30H15.5C14.9477 30 14.5 29.5523 14.5 29V17Z" fill="#00CBC1"/>
<path d="M17.5 12.5C17.5 12.2239 17.7239 12 18 12C18.2761 12 18.5 12.2239 18.5 12.5V33.5C18.5 33.7761 18.2761 34 18 34C17.7239 34 17.5 33.7761 17.5 33.5V12.5Z" fill="#00CBC1"/>
<path d="M24.5 9C24.5 8.44772 24.9477 8 25.5 8H30.5C31.0523 8 31.5 8.44772 31.5 9V21C31.5 21.5523 31.0523 22 30.5 22H25.5C24.9477 22 24.5 21.5523 24.5 21V9Z" fill="#F64A4A"/>
</svg>
