<svg width="36" height="36" viewBox="0 0 36 36" fill="none" xmlns="http://www.w3.org/2000/svg">
<path d="M6.00049 28.5C6.00049 30.1569 7.34364 31.5 9.00049 31.5L26.0005 31.5C27.6573 31.5 29.0005 30.1569 29.0005 28.5L29.0005 7.5C29.0005 5.84315 27.6573 4.5 26.0005 4.5L9.00049 4.5C7.34363 4.5 6.00049 5.84315 6.00049 7.5L6.00049 28.5Z" fill="#FFA514"/>
<path d="M9.00049 26.5C9.00049 27.6046 9.89592 28.5 11.0005 28.5L27.0005 28.5C28.1051 28.5 29.0005 27.6046 29.0005 26.5V24.5C29.0005 23.3954 28.1051 22.5 27.0005 22.5L11.0005 22.5C9.89592 22.5 9.00049 23.3954 9.00049 24.5L9.00049 26.5Z" fill="#DCEAFC"/>
<path d="M13.965 4.50021L9.00049 4.50021C7.34363 4.50021 6.00049 5.84335 6.00049 7.50021L6.00049 28.5002C6.00049 28.543 6.00139 28.5856 6.00316 28.6279C6.06713 27.1659 7.27268 26.0002 8.75049 26.0002L26.0005 26C27.6573 26 29.0005 24.6569 29.0005 23L29.0005 7.5C29.0005 5.84315 27.6573 4.5 26.0005 4.5L14.0005 4.5C13.9886 4.5 13.9768 4.50007 13.965 4.50021Z" fill="#FFC737"/>
<path d="M10.0005 4.7C10.0005 4.58954 10.09 4.5 10.2005 4.5H17.8005C17.9109 4.5 18.0005 4.58954 18.0005 4.7V15.1C18.0005 15.2648 17.8123 15.3589 17.6805 15.26L14.1205 12.59C14.0494 12.5367 13.9516 12.5367 13.8805 12.59L10.3205 15.26C10.1886 15.3589 10.0005 15.2648 10.0005 15.1V4.7Z" fill="#2AD6CE"/>
</svg>
