<svg width="44" height="44" viewBox="0 0 44 44" fill="none" xmlns="http://www.w3.org/2000/svg">
<path d="M7.33594 34.833C7.33594 36.858 8.97756 38.4996 11.0026 38.4996L31.7804 38.4996C33.8054 38.4996 35.4471 36.858 35.4471 34.833L35.447 9.16662C35.447 7.1416 33.8054 5.5 31.7804 5.5L11.0026 5.5C8.97756 5.5 7.33594 7.14161 7.33594 9.16663L7.33594 34.833Z" fill="#FFA514"/>
<path d="M11 32.3888C11 33.7388 12.0944 34.8333 13.4444 34.8333L33 34.8333C34.35 34.8333 35.4444 33.7388 35.4444 32.3888V29.9444C35.4444 28.5944 34.35 27.5 33 27.5L13.4444 27.5C12.0944 27.5 11 28.5944 11 29.9444L11 32.3888Z" fill="#DCEAFC"/>
<path d="M17.0703 5.50025L11.0026 5.50025C8.97756 5.50025 7.33594 7.14186 7.33594 9.16688L7.33594 34.8333C7.33594 34.8856 7.33703 34.9376 7.3392 34.9894C7.41739 33.2024 8.89084 31.7777 10.6971 31.7777L31.7804 31.7775C33.8054 31.7775 35.447 30.1359 35.447 28.1109L35.447 9.16663C35.447 7.1416 33.8054 5.5 31.7804 5.5L17.1137 5.5C17.0992 5.5 17.0848 5.50009 17.0703 5.50025Z" fill="#FFC737"/>
<path d="M12.2188 5.74444C12.2188 5.60944 12.3282 5.5 12.4632 5.5H21.7521C21.8871 5.5 21.9965 5.60944 21.9965 5.74444V18.4554C21.9965 18.6568 21.7666 18.7718 21.6054 18.651L17.2543 15.3877C17.1674 15.3225 17.0479 15.3225 16.961 15.3877L12.6099 18.651C12.4487 18.7718 12.2188 18.6568 12.2188 18.4554V5.74444Z" fill="#2AD6CE"/>
</svg>
