<svg width="36" height="36" viewBox="0 0 36 36" fill="none" xmlns="http://www.w3.org/2000/svg">
<path fill-rule="evenodd" clip-rule="evenodd" d="M28.8839 8.88398L5.88388 31.884C5.39573 32.3721 4.60427 32.3721 4.11612 31.884C3.62796 31.3958 3.62796 30.6044 4.11612 30.1162L27.1161 7.11621L28.8839 8.88398Z" fill="#4E627D"/>
<path fill-rule="evenodd" clip-rule="evenodd" d="M24.1161 4.11612C24.6043 3.62796 25.3957 3.62796 25.8839 4.11612L31.8839 10.1161C32.372 10.6043 32.372 11.3957 31.8839 11.8839C31.3957 12.372 30.6043 12.372 30.1161 11.8839L24.1161 5.88388C23.628 5.39573 23.628 4.60427 24.1161 4.11612Z" fill="#4E627D"/>
<path d="M17.1399 7.54004L28.4536 18.8537L18.3424 28.9649C17.0036 30.3037 15.953 30.4669 14.8773 30.131L10.8601 28.8763C10.402 28.7333 9.89223 28.5766 9.55406 28.2385L7.75481 26.4392C7.41664 26.1011 7.25985 25.5912 7.11678 25.1331L5.86214 21.1159C5.52618 20.0402 5.70335 18.9766 7.02871 17.6512L17.1399 7.54004Z" fill="#20C7BF"/>
<path d="M15.7071 5.41421C16.4882 4.63317 17.7545 4.63317 18.5356 5.41421L30.5564 17.435C31.3374 18.2161 31.3374 19.4824 30.5564 20.2635C29.7753 21.0445 28.509 21.0445 27.7279 20.2635L15.7071 8.24264C14.9261 7.46159 14.9261 6.19526 15.7071 5.41421Z" fill="#2AD6CE"/>
</svg>
