<svg width="44" height="44" viewBox="0 0 44 44" fill="none" xmlns="http://www.w3.org/2000/svg">
<path d="M36.788 9.24008C37.504 9.95603 37.504 11.1168 36.788 11.8328L9.99685 38.6236C9.28089 39.3396 8.12011 39.3396 7.40415 38.6236C6.6882 37.9077 6.6882 36.7469 7.40415 36.031L34.1953 9.24008C34.9113 8.52414 36.0721 8.52414 36.788 9.24008Z" fill="#4E627D"/>
<path d="M40.148 14.3276C39.4321 15.0436 38.2713 15.0436 37.5553 14.3276L31.5057 8.27806C30.7898 7.56212 30.7898 6.40134 31.5057 5.6854C32.2217 4.96945 33.3825 4.96945 34.0984 5.6854L40.148 11.735C40.864 12.4509 40.864 13.6117 40.148 14.3276Z" fill="#4E627D"/>
<path d="M19.8358 12.1599C21.2677 10.728 23.5893 10.728 25.0212 12.1599L33.6635 20.8021C35.0954 22.234 35.0954 24.5555 33.6635 25.9874L24.0892 35.5615C23.1187 36.5321 21.6874 36.8793 20.38 36.4613L15.4976 34.9005C14.9409 34.7225 14.4347 34.414 14.0214 34.0007L11.8224 31.8017C11.4091 31.3884 11.1006 30.8823 10.9226 30.3255L9.36173 25.4432C8.94377 24.1358 9.29099 22.7045 10.2615 21.734L19.8358 12.1599Z" fill="#20C7BF"/>
<path d="M19.4106 5.68399C20.6038 4.49075 22.5385 4.49075 23.7317 5.68399L40.1521 22.1042C41.3454 23.2975 41.3454 25.2321 40.1521 26.4253C38.9589 27.6186 37.0242 27.6186 35.831 26.4253L19.4106 10.0051C18.2173 8.81186 18.2173 6.87724 19.4106 5.68399Z" fill="#2AD6CE"/>
</svg>
