<svg width="36" height="36" viewBox="0 0 36 36" fill="none" xmlns="http://www.w3.org/2000/svg">
<path d="M13 10C13 7.23858 15.2386 5 18 5C20.7614 5 23 7.23858 23 10C23 12.7614 20.7614 15 18 15C15.2386 15 13 12.7614 13 10Z" fill="#AFC3DC"/>
<path d="M5.5 28.6667C5.5 22.2233 10.7233 17 17.1667 17H18.8333C25.2767 17 30.5 22.2233 30.5 28.6667C30.5 29.9553 29.4553 31 28.1667 31H7.83333C6.54467 31 5.5 29.9553 5.5 28.6667Z" fill="#7990AD"/>
<path d="M35 28C35 31.866 31.866 35 28 35C24.134 35 21 31.866 21 28C21 24.134 24.134 21 28 21C31.866 21 35 24.134 35 28Z" fill="#00CBC1"/>
<path fill-rule="evenodd" clip-rule="evenodd" d="M31.5206 25.7101C31.8188 25.9976 31.8274 26.4724 31.5399 26.7706L27.6827 30.7706C27.5414 30.9172 27.3465 31 27.1429 31C26.9392 31 26.7443 30.9172 26.603 30.7706L24.4601 28.5484C24.1726 28.2502 24.1812 27.7754 24.4794 27.4879C24.7776 27.2004 25.2524 27.209 25.5399 27.5072L27.1429 29.1695L30.4601 25.7294C30.7476 25.4312 31.2224 25.4226 31.5206 25.7101Z" fill="white"/>
</svg>
