<svg width="36" height="36" viewBox="0 0 36 36" fill="none" xmlns="http://www.w3.org/2000/svg">
<rect x="12.25" y="6" width="9" height="9" rx="4.5" fill="#AFC3DC"/>
<path d="M7 26.25C7 20.8652 11.3652 16.5 16.75 16.5C22.1348 16.5 26.5 20.8652 26.5 26.25V26.5658C26.5 28.0482 25.2982 29.25 23.8158 29.25H9.68421C8.20176 29.25 7 28.0482 7 26.5658V26.25Z" fill="#AFC3DC"/>
<circle cx="24.25" cy="23.25" r="6" fill="#0168FE"/>
<path fill-rule="evenodd" clip-rule="evenodd" d="M27.2342 21.2917C27.4872 21.5592 27.4756 21.9811 27.2081 22.2342L24.0374 25.2342C23.7767 25.4809 23.3674 25.4769 23.1116 25.2251L21.2823 23.4251C21.0199 23.1669 21.0165 22.7448 21.2747 22.4823C21.533 22.2199 21.9551 22.2165 22.2175 22.4747L23.5883 23.8236L26.2917 21.2657C26.5592 21.0126 26.9811 21.0243 27.2342 21.2917Z" fill="white"/>
</svg>
