<svg width="24" height="24" viewBox="0 0 24 24" fill="none" xmlns="http://www.w3.org/2000/svg">
<path d="M22 12C22 17.5228 17.5228 22 12 22C6.47715 22 2 17.5228 2 12C2 6.47715 6.47715 2 12 2C17.5228 2 22 6.47715 22 12Z" fill="#15181F"/>
<path d="M7.40388 8.81801C7.01336 8.42748 7.01336 7.79432 7.40388 7.40379C7.79441 7.01327 8.42757 7.01327 8.8181 7.40379L16.5963 15.182C16.9868 15.5725 16.9868 16.2057 16.5963 16.5962C16.2057 16.9867 15.5726 16.9867 15.1821 16.5962L7.40388 8.81801Z" fill="white"/>
<path d="M15.1821 7.40382C15.5726 7.0133 16.2057 7.0133 16.5963 7.40382C16.9868 7.79435 16.9868 8.42751 16.5963 8.81804L8.81809 16.5962C8.42757 16.9867 7.7944 16.9867 7.40388 16.5962C7.01335 16.2057 7.01336 15.5725 7.40388 15.182L15.1821 7.40382Z" fill="white"/>
</svg>
