<svg width="24" height="24" viewBox="0 0 24 24" fill="none" xmlns="http://www.w3.org/2000/svg">
<path d="M22 12C22 17.5228 17.5228 22 12 22C6.47715 22 2 17.5228 2 12C2 6.47715 6.47715 2 12 2C17.5228 2 22 6.47715 22 12Z" fill="#9E9E9E"/>
<path d="M11.8911 6C12.4511 6 12.9541 6.07259 13.4 6.21778C13.8459 6.35259 14.2244 6.54963 14.5356 6.80889C14.8467 7.05778 15.0852 7.35852 15.2511 7.71111C15.417 8.0637 15.5 8.45259 15.5 8.87778V9.04889C15.5 9.29778 15.4689 9.5363 15.4067 9.76444C15.3548 9.98222 15.2563 10.2052 15.1111 10.4333C14.9763 10.6615 14.7844 10.9052 14.5356 11.1644C14.297 11.4237 13.9963 11.7193 13.6333 12.0511C13.4052 12.2585 13.2237 12.44 13.0889 12.5956C12.9541 12.7407 12.8504 12.8807 12.7778 13.0156C12.7052 13.14 12.6585 13.2696 12.6378 13.4044C12.617 13.5289 12.6067 13.6741 12.6067 13.84C12.6067 14.0785 12.5133 14.2652 12.3267 14.4C12.1504 14.5348 11.943 14.6022 11.7044 14.6022C11.4452 14.6022 11.2222 14.54 11.0356 14.4156C10.8489 14.2807 10.7556 14.0733 10.7556 13.7933C10.7556 13.5237 10.7711 13.28 10.8022 13.0622C10.8333 12.8444 10.8904 12.637 10.9733 12.44C11.0667 12.2326 11.1963 12.0304 11.3622 11.8333C11.5385 11.6259 11.7667 11.3978 12.0467 11.1489C12.3681 10.8689 12.6222 10.6356 12.8089 10.4489C13.0059 10.2519 13.1563 10.0756 13.26 9.92C13.3637 9.76444 13.4311 9.62444 13.4622 9.5C13.4933 9.36518 13.5089 9.22 13.5089 9.06444V8.98667C13.5089 8.82074 13.4778 8.66519 13.4156 8.52C13.3533 8.37481 13.2548 8.24518 13.12 8.13111C12.9956 8.01704 12.8244 7.92889 12.6067 7.86667C12.3993 7.79407 12.14 7.75778 11.8289 7.75778C11.4141 7.75778 11.0511 7.82 10.74 7.94444C10.4289 8.06889 10.1333 8.22963 9.85333 8.42667C9.64593 8.57185 9.43852 8.6237 9.23111 8.58222C9.03407 8.53037 8.86296 8.40593 8.71778 8.20889C8.57259 8.02222 8.5 7.81481 8.5 7.58667C8.51037 7.34815 8.61926 7.15111 8.82667 6.99555C9.21037 6.69481 9.65111 6.4563 10.1489 6.28C10.657 6.09333 11.2378 6 11.8911 6ZM11.6889 15.6444C12.0207 15.6444 12.3007 15.7585 12.5289 15.9867C12.757 16.2148 12.8711 16.4948 12.8711 16.8267C12.8711 17.1585 12.757 17.4385 12.5289 17.6667C12.3007 17.8948 12.0207 18.0089 11.6889 18.0089C11.357 18.0089 11.077 17.8948 10.8489 17.6667C10.6207 17.4385 10.5067 17.1585 10.5067 16.8267C10.5067 16.4948 10.6207 16.2148 10.8489 15.9867C11.077 15.7585 11.357 15.6444 11.6889 15.6444Z" fill="white"/>
</svg>
