<svg width="44" height="44" viewBox="0 0 44 44" fill="none" xmlns="http://www.w3.org/2000/svg">
<rect x="20.1641" y="18.3359" width="3.66667" height="17.1109" fill="#82A3D2"/>
<path d="M13.4453 37.2786C13.4453 36.2661 14.2661 35.4453 15.2786 35.4453H28.7231C29.7356 35.4453 30.5564 36.2661 30.5564 37.2786C30.5564 38.2911 29.7356 39.1119 28.7231 39.1119H15.2786C14.2661 39.1119 13.4453 38.2911 13.4453 37.2786Z" fill="#293547"/>
<path d="M7.59279 23.8331C5.4231 23.8331 3.62052 22.0536 4.07991 19.9332C5.86759 11.6816 13.2107 5.5 21.9976 5.5C16.9349 5.5 12.8309 13.708 12.8309 23.8331H7.59279Z" fill="#0168FE"/>
<path d="M36.4048 23.8331C38.5745 23.8331 40.377 22.0536 39.9176 19.9332C38.13 11.6816 30.7869 5.5 22 5.5C27.0626 5.5 31.1667 13.708 31.1667 23.8331H36.4048Z" fill="#DCEAFC"/>
<path d="M21.9948 5.5C16.9322 5.5 12.8281 13.708 12.8281 23.8331H21.9948V5.5Z" fill="#DCEAFC"/>
<path d="M22 5.5C27.0626 5.5 31.1667 13.708 31.1667 23.8331H22V5.5Z" fill="#0168FE"/>
</svg>
