<svg width="36" height="36" viewBox="0 0 36 36" fill="none" xmlns="http://www.w3.org/2000/svg">
<path d="M15.1458 28.6553C12.6862 21.3696 13.332 15.9767 14.3568 13.6553H18.3399C16.4953 19.2267 25.1383 25.6196 27.4441 28.6553H15.1458Z" fill="#FFA514"/>
<path d="M18.5051 9.3734C24.8941 9.57965 30.001 14.1948 30.001 19.8581C30.001 20.474 29.1795 20.5416 28.8929 20.0002C27.4313 17.2392 24.6426 15.1302 21.2467 14.3058C20.8828 14.2175 20.5173 14.3898 20.2006 14.5896L17.1084 16.5412C16.6102 16.8556 15.9854 16.8703 15.4738 16.5797L12.0379 14.6281C11.6791 14.4243 11.2725 14.2357 10.8751 14.3469C7.83773 15.1965 5.34686 17.2738 4.0262 19.9806C3.77502 20.4954 3.00098 20.4337 3.00098 19.8581C3.00098 14.2388 7.60997 9.6513 13.4028 9.37899C13.9111 9.3551 14.2004 9.3734 14.341 9.3734L17.2606 9.37395C17.3959 9.37395 18.216 9.36401 18.5051 9.3734Z" fill="#20C7BF"/>
<path d="M4.10554 8.55889C7.1168 4.1906 12.297 3.87947 16.0015 7.68414C19.7059 3.87947 24.8861 4.1906 27.8974 8.55889C28.2089 9.01075 27.7627 9.63843 27.3299 9.41823C24.7772 8.11943 21.7618 8.51229 19.2589 10.6128L18.7116 11.0584L18.1873 11.6545C18.09 11.7634 17.9938 11.8752 17.8988 11.99L17.876 12.0142C16.852 13.1069 15.1141 13.0958 14.1042 11.99C14.0092 11.8752 13.913 11.7634 13.8156 11.6545L13.2424 11.0584L12.6959 10.5727C10.2026 8.50734 7.20943 8.12773 4.67307 9.41823C4.24028 9.63843 3.79406 9.01075 4.10554 8.55889Z" fill="#00A69E"/>
<path d="M7.00049 29.4474C7.00049 25.6108 11.1473 22.5007 16.2627 22.5007H19.7383C24.8537 22.5007 29.0005 25.6108 29.0005 29.4474C29.0005 29.7959 28.7792 30.1203 28.3597 30.2703C27.1522 30.7021 24.095 31.5007 18.0005 31.5007C11.906 31.5007 8.84874 30.702 7.64125 30.2703C7.2218 30.1203 7.00049 29.7959 7.00049 29.4474Z" fill="#FFC737"/>
</svg>
