<svg width="44" height="45" viewBox="0 0 44 45" fill="none" xmlns="http://www.w3.org/2000/svg">
<path d="M18.5095 35.5284C15.5034 26.6238 16.2927 20.0326 17.5452 17.1953H22.4135C20.1589 24.0048 30.7226 31.8182 33.5408 35.5284H18.5095Z" fill="#FFA514"/>
<path d="M22.6135 11.9613C30.4223 12.2134 36.6641 17.8541 36.6641 24.7758C36.6641 25.5286 35.6601 25.6112 35.3098 24.9495C33.5233 21.575 30.115 18.9973 25.9644 17.9898C25.5196 17.8818 25.0729 18.0924 24.6859 18.3367L20.9064 20.7219C20.2976 21.1061 19.534 21.1241 18.9086 20.7689L14.7092 18.3836C14.2706 18.1345 13.7738 17.904 13.288 18.0399C9.57565 19.0784 6.53125 21.6173 4.91711 24.9256C4.61012 25.5548 3.66406 25.4793 3.66406 24.7758C3.66406 17.9078 9.29728 12.301 16.3774 11.9681C16.9986 11.9389 17.3522 11.9613 17.5241 11.9613L21.0925 11.962C21.2579 11.962 22.2602 11.9498 22.6135 11.9613Z" fill="#20C7BF"/>
<path d="M5.01783 10.9642C8.69826 5.62528 15.0296 5.24501 19.5573 9.89511C24.085 5.24501 30.4163 5.62528 34.0968 10.9642C34.4775 11.5165 33.9321 12.2837 33.4031 12.0145C30.2832 10.4271 26.5978 10.9073 23.5386 13.4746L22.8697 14.0191L22.2289 14.7478C22.1099 14.8808 21.9923 15.0174 21.8762 15.1577L21.8484 15.1873C20.5968 16.5229 18.4728 16.5092 17.2384 15.1577C17.1223 15.0174 17.0047 14.8808 16.8857 14.7478L16.1851 14.0191L15.5172 13.4256C12.4697 10.9012 8.81147 10.4373 5.71148 12.0145C5.18251 12.2837 4.63712 11.5165 5.01783 10.9642Z" fill="#00A69E"/>
<path d="M8.55469 36.498C8.55469 31.809 13.623 28.0078 19.8751 28.0078H24.1231C30.3752 28.0078 35.4436 31.809 35.4436 36.498C35.4436 36.924 35.1731 37.3205 34.6604 37.5038C33.1846 38.0315 29.448 39.0077 21.9991 39.0077C14.5503 39.0077 10.8137 38.0315 9.33784 37.5038C8.82518 37.3205 8.55469 36.924 8.55469 36.498Z" fill="#FFC737"/>
</svg>
