<svg width="36" height="36" viewBox="0 0 36 36" fill="none" xmlns="http://www.w3.org/2000/svg">
<path d="M6.99878 12.25H11.9988V29.25H6.99878V12.25Z" fill="#D1E1F1"/>
<path d="M15.5005 12.25H20.5005V29.25H15.5005V12.25Z" fill="#D1E1F1"/>
<path d="M23.9988 12.25H28.9988V29.25H23.9988V12.25Z" fill="#D1E1F1"/>
<path d="M16.9289 3.07115C17.5805 2.64425 18.4205 2.64425 19.0721 3.07115L32.1022 11.6075C33.7433 12.6826 32.9879 15.251 31.0306 15.251H4.97038C3.01305 15.251 2.25764 12.6826 3.89876 11.6075L16.9289 3.07115Z" fill="#F64A4A"/>
<path d="M4.00049 29.25C4.00049 28.6977 4.4482 28.25 5.00049 28.25H31.0005C31.5528 28.25 32.0005 28.6977 32.0005 29.25V31.25C32.0005 31.8023 31.5528 32.25 31.0005 32.25H5.00049C4.4482 32.25 4.00049 31.8023 4.00049 31.25V29.25Z" fill="#AFC3DC"/>
<path d="M5.99878 15.25H12.9988V16.25C12.9988 17.3546 12.1033 18.25 10.9988 18.25H7.99878C6.89421 18.25 5.99878 17.3546 5.99878 16.25V15.25Z" fill="#AFC3DC"/>
<path d="M14.5005 15.25H21.5005V16.25C21.5005 17.3546 20.6051 18.25 19.5005 18.25H16.5005C15.3959 18.25 14.5005 17.3546 14.5005 16.25V15.25Z" fill="#AFC3DC"/>
<path d="M22.9988 15.25H29.9988V16.25C29.9988 17.3546 29.1033 18.25 27.9988 18.25H24.9988C23.8942 18.25 22.9988 17.3546 22.9988 16.25V15.25Z" fill="#AFC3DC"/>
</svg>
