<svg width="60" height="60" viewBox="0 0 60 60" fill="none" xmlns="http://www.w3.org/2000/svg">
<rect width="60" height="60" rx="20" fill="#F5F6F6"/>
<path d="M14.8799 21.0749C14.9091 18.9955 16.3176 17.2457 18.2943 16.5725L27.3915 13.4741C29.0842 12.8976 30.9215 12.8976 32.6143 13.4742L41.7031 16.5697C43.684 17.2444 45.0939 18.9999 45.1208 21.0838C45.1747 25.2557 44.7498 32.326 41.6813 36.8774C38.516 41.5724 31.8712 46.0417 30.0029 46.0417C28.1345 46.0417 21.3403 41.3695 18.3248 36.8774C15.2423 32.2855 14.8215 25.2333 14.8799 21.0749Z" fill="#DCEAFC"/>
<path fill-rule="evenodd" clip-rule="evenodd" d="M14.875 21.7748C14.875 21.7758 14.875 21.7769 14.875 21.7779C14.8751 25.9928 15.4099 32.5351 18.3248 36.8774C21.3388 41.3672 28.1276 46.037 30 46.0417V13.0417C29.1184 13.0421 28.2369 13.1862 27.3915 13.4741L18.2943 16.5725C16.3176 17.2457 14.9091 18.9955 14.8799 21.0749C14.8768 21.3 14.875 21.5336 14.875 21.7748Z" fill="#DCEAFC"/>
<path d="M33.1812 35.9753C33.1529 35.9695 33.1236 35.9634 33.0953 35.9575C30.516 35.208 28.2945 33.5867 26.8284 31.3839C25.3624 29.1811 24.7477 26.5408 25.0944 23.9359C25.115 23.7886 25.1661 23.6469 25.2448 23.5196C25.3234 23.3923 25.4279 23.282 25.5519 23.1956C25.6728 23.1112 25.8103 23.0522 25.9558 23.0224C26.1013 22.9926 26.2515 22.9925 26.397 23.0223L28.6242 23.4683C28.8626 23.5166 29.0775 23.6414 29.2347 23.8228C29.392 24.0042 29.4825 24.2318 29.4918 24.4692L29.5636 26.3638C29.5717 26.5728 29.5159 26.7796 29.4033 26.9576C29.2907 27.1356 29.1264 27.2769 28.9313 27.3635L27.8993 27.8237C28.3778 29.3777 29.2963 30.7683 30.5488 31.8353L31.4329 31.0843C31.5947 30.9471 31.7943 30.8594 32.0069 30.8323C32.2194 30.8051 32.4354 30.8397 32.6279 30.9316L34.3845 31.7664C34.6044 31.8695 34.7823 32.0418 34.8895 32.2556C34.9967 32.4695 35.027 32.7123 34.9755 32.945L34.4921 35.1636C34.462 35.3056 34.4018 35.4397 34.3152 35.5575C34.2287 35.6753 34.1178 35.7741 33.9898 35.8474C33.7463 35.9879 33.4576 36.0335 33.1812 35.9753Z" fill="#7891B5"/>
<path d="M41.1992 41.8276C41.1992 41.3705 41.5697 41 42.0268 41C42.4839 41 42.8544 41.3705 42.8544 41.8276C42.8544 42.2846 42.4839 42.6552 42.0268 42.6552C41.5697 42.6552 41.1992 42.2846 41.1992 41.8276Z" fill="white"/>
<path d="M37 39C37 37.8954 37.8954 37 39 37H47C48.1046 37 49 37.8954 49 39V44C49 45.1046 48.1046 46 47 46H39C37.8954 46 37 45.1046 37 44V39Z" fill="#2AD6CE"/>
<path d="M42.25 40.75C42.25 40.3358 42.5858 40 43 40C43.4142 40 43.75 40.3358 43.75 40.75V42.25C43.75 42.6642 43.4142 43 43 43C42.5858 43 42.25 42.6642 42.25 42.25V40.75Z" fill="white"/>
<path fill-rule="evenodd" clip-rule="evenodd" d="M43 32C41.067 32 39.5 33.567 39.5 35.5V37.5H41V35.5C41 34.3954 41.8954 33.5 43 33.5C44.1046 33.5 45 34.3954 45 35.5V37.5H46.5V35.5C46.5 33.567 44.933 32 43 32Z" fill="#2AD6CE"/>
</svg>
