<svg width="44" height="44" viewBox="0 0 44 44" fill="none" xmlns="http://www.w3.org/2000/svg">
<path d="M10.0859 19.2487C10.0859 12.6673 15.4212 7.33203 22.0026 7.33203C28.584 7.33203 33.9193 12.6673 33.9193 19.2487V31.1654L10.0859 31.1654L10.0859 19.2487Z" fill="#F64A4A"/>
<path d="M22 7.33203C28.5814 7.33203 33.9167 12.6673 33.9167 19.2487V31.1654L22 31.1654L22 7.33203Z" fill="#FD5E5E"/>
<path d="M7.33594 33.918C7.33594 32.3992 8.56715 31.168 10.0859 31.168L33.9193 31.168C35.4381 31.168 36.6693 32.3992 36.6693 33.918C36.6693 35.4368 35.4381 36.668 33.9193 36.668L10.0859 36.668C8.56716 36.668 7.33594 35.4368 7.33594 33.918Z" fill="#4E627D"/>
<rect x="20.625" y="13.75" width="2.75" height="9.16667" rx="1.375" fill="white"/>
<rect x="20.625" y="24.75" width="2.75" height="2.75" rx="1.375" fill="white"/>
</svg>
