<svg width="24" height="24" viewBox="0 0 24 24" fill="none" xmlns="http://www.w3.org/2000/svg">
<path d="M5.5 10.5C5.5 6.91015 8.41015 4 12 4C15.5899 4 18.5 6.91015 18.5 10.5V17H5.5L5.5 10.5Z" fill="#F64A4A"/>
<path d="M12 4C15.5899 4 18.5 6.91015 18.5 10.5V17H12L12 4Z" fill="#FD5E5E"/>
<path d="M4 18.5C4 17.6716 4.67157 17 5.5 17L18.5 17C19.3284 17 20 17.6716 20 18.5C20 19.3284 19.3284 20 18.5 20L5.5 20C4.67157 20 4 19.3284 4 18.5Z" fill="#4E627D"/>
<rect x="11.25" y="7.5" width="1.5" height="5" rx="0.75" fill="white"/>
<rect x="11.25" y="13.5" width="1.5" height="1.5" rx="0.75" fill="white"/>
</svg>
