<svg width="24" height="24" viewBox="0 0 24 24" fill="none" xmlns="http://www.w3.org/2000/svg">
<path d="M4.5 10.5C4.5 6.35786 7.85786 3 12 3C16.1421 3 19.5 6.35786 19.5 10.5V18H4.5V10.5Z" fill="#F64A4A"/>
<path fill-rule="evenodd" clip-rule="evenodd" d="M12 18H19.5V10.5C19.5 6.35786 16.1421 3 12 3V18Z" fill="#FD5E5E"/>
<path d="M11 8C11 7.44772 11.4477 7 12 7C12.5523 7 13 7.44772 13 8V11.5C13 12.0523 12.5523 12.5 12 12.5C11.4477 12.5 11 12.0523 11 11.5V8Z" fill="white"/>
<path d="M3 18.75C3 18.0596 3.55964 17.5 4.25 17.5H19.75C20.4404 17.5 21 18.0596 21 18.75C21 19.4404 20.4404 20 19.75 20H4.25C3.55964 20 3 19.4404 3 18.75Z" fill="#4E627D"/>
<path d="M11 14.5C11 13.9477 11.4477 13.5 12 13.5C12.5523 13.5 13 13.9477 13 14.5C13 15.0523 12.5523 15.5 12 15.5C11.4477 15.5 11 15.0523 11 14.5Z" fill="white"/>
<path d="M3 18.75C3 18.0596 3.55964 17.5 4.25 17.5H19.75C20.4404 17.5 21 18.0596 21 18.75C21 19.4404 20.4404 20 19.75 20H4.25C3.55964 20 3 19.4404 3 18.75Z" fill="#4E627D"/>
</svg>
