<svg width="60" height="60" viewBox="0 0 60 60" fill="none" xmlns="http://www.w3.org/2000/svg">
<rect width="60" height="60" rx="20" fill="#F5F6F6"/>
<g clip-path="url(#clip0_2562_15606)">
<path d="M16.625 16.875C16.625 14.7004 18.3879 12.9375 20.5625 12.9375H35.4375C37.6121 12.9375 39.375 14.7004 39.375 16.875V43.125C39.375 45.2996 37.6121 47.0625 35.4375 47.0625H20.5625C18.3879 47.0625 16.625 45.2996 16.625 43.125V16.875Z" fill="#A1B3C9"/>
<path d="M16.625 17.3125H39.375V42.6875H16.625V17.3125Z" fill="#DCEAFC"/>
<path d="M31.5163 37.8451C31.4845 37.838 31.4515 37.8306 31.4197 37.8235C28.5181 36.9155 26.0188 34.9512 24.3695 32.2824C22.7202 29.6137 22.0287 26.4148 22.4188 23.2589C22.4418 23.0804 22.4994 22.9088 22.5879 22.7545C22.6764 22.6003 22.7939 22.4667 22.9333 22.362C23.0694 22.2597 23.2241 22.1883 23.3878 22.1521C23.5514 22.116 23.7204 22.116 23.8841 22.152L26.3897 22.6923C26.6579 22.7508 26.8997 22.902 27.0766 23.1218C27.2535 23.3416 27.3553 23.6173 27.3658 23.905L27.4466 26.2003C27.4557 26.4536 27.3929 26.7041 27.2662 26.9198C27.1396 27.1355 26.9547 27.3067 26.7352 27.4116L25.5742 27.9691C26.1126 29.8519 27.1458 31.5366 28.5549 32.8293L29.5495 31.9195C29.7316 31.7532 29.9561 31.647 30.1952 31.6141C30.4343 31.5812 30.6773 31.6231 30.8939 31.7345L32.87 32.7459C33.1174 32.8707 33.3176 33.0795 33.4382 33.3386C33.5588 33.5976 33.5929 33.8919 33.535 34.1738L32.9911 36.8617C32.9573 37.0337 32.8895 37.1962 32.7921 37.3389C32.6948 37.4816 32.5701 37.6013 32.426 37.6902C32.1521 37.8603 31.8273 37.9156 31.5163 37.8451Z" fill="#00CBC1"/>
<path d="M32.5 38.5C32.5 34.3579 35.8579 31 40 31C44.1421 31 47.5 34.3579 47.5 38.5V46H32.5V38.5Z" fill="#F64A4A"/>
<path fill-rule="evenodd" clip-rule="evenodd" d="M40 46H47.5V38.5C47.5 34.3579 44.1421 31 40 31V46Z" fill="#FD5E5E"/>
<path d="M39 36C39 35.4477 39.4477 35 40 35C40.5523 35 41 35.4477 41 36V39.5C41 40.0523 40.5523 40.5 40 40.5C39.4477 40.5 39 40.0523 39 39.5V36Z" fill="white"/>
<path d="M31 46.75C31 46.0596 31.5596 45.5 32.25 45.5H47.75C48.4404 45.5 49 46.0596 49 46.75C49 47.4404 48.4404 48 47.75 48H32.25C31.5596 48 31 47.4404 31 46.75Z" fill="#4E627D"/>
<path d="M39 42.5C39 41.9477 39.4477 41.5 40 41.5C40.5523 41.5 41 41.9477 41 42.5C41 43.0523 40.5523 43.5 40 43.5C39.4477 43.5 39 43.0523 39 42.5Z" fill="white"/>
<path d="M31 46.75C31 46.0596 31.5596 45.5 32.25 45.5H47.75C48.4404 45.5 49 46.0596 49 46.75C49 47.4404 48.4404 48 47.75 48H32.25C31.5596 48 31 47.4404 31 46.75Z" fill="#4E627D"/>
</g>
<defs>
<clipPath id="clip0_2562_15606">
<rect width="44" height="44" fill="white" transform="translate(8 8)"/>
</clipPath>
</defs>
</svg>
