<svg width="140" height="140" viewBox="0 0 140 140" fill="none" xmlns="http://www.w3.org/2000/svg">
<rect width="140" height="140" fill="#FF0000" fill-opacity="0.14"/>
<path d="M60.0655 72.0878C61.1455 72.0878 61.8137 71.433 61.8137 70.6432C61.8137 69.9142 61.3953 69.5497 60.8013 69.3L60.1195 69.0097C59.7213 68.8477 59.3163 68.6857 59.3163 68.2605C59.3163 67.8555 59.6403 67.6192 60.1533 67.6192C60.592 67.6192 60.9295 67.788 61.2468 68.0647L61.6585 67.5652C61.2805 67.1805 60.7473 66.9375 60.1533 66.9375C59.2083 66.9375 58.5198 67.5247 58.5198 68.3077C58.5198 69.0232 59.053 69.4147 59.5323 69.6105L60.2208 69.9075C60.6865 70.1032 61.0173 70.2517 61.0173 70.704C61.0173 71.136 60.6798 71.406 60.079 71.406C59.593 71.406 59.1138 71.1765 58.756 70.8187L58.297 71.3587C58.756 71.8177 59.3838 72.0878 60.0655 72.0878ZM63.4297 72.0878C63.8887 72.0878 64.2667 71.8852 64.6109 71.595H64.6312L64.6987 72H65.3332V69.7657C65.3332 68.76 64.9079 68.193 63.9832 68.193C63.3892 68.193 62.8829 68.409 62.4982 68.652L62.7277 69.219C63.0449 69.0097 63.4432 68.8275 63.8482 68.8275C64.3949 68.8275 64.5569 69.1987 64.5569 69.6375C63.7942 69.6915 63.2339 69.7522 62.8559 69.9615C62.4712 70.1977 62.3362 70.6027 62.3362 71.0145C62.3362 71.6692 62.7884 72.0878 63.4297 72.0878ZM63.6659 71.4735C63.3352 71.4735 63.0854 71.3385 63.0854 70.9605C63.0854 70.8052 63.0584 70.6297 63.2542 70.4475C63.4904 70.2315 63.8414 70.2315 64.5569 70.1437V71.0617C64.2532 71.3385 63.9899 71.4735 63.6659 71.4735ZM66.3065 68.2875V72H67.076V69.3675C67.3865 69.03 67.6633 68.8612 67.913 68.8612C68.345 68.8612 68.534 69.111 68.534 69.759V72H69.3103V69.3675C69.6208 69.03 69.8975 68.8612 70.1473 68.8612C70.5793 68.8612 70.7683 69.111 70.7683 69.759V72H71.5445V69.6645C71.5445 68.7127 71.1935 68.193 70.4038 68.193C69.938 68.193 69.5735 68.4697 69.1955 68.8747C69.0335 68.4427 68.7365 68.193 68.1695 68.193C67.7105 68.193 67.3393 68.463 67.022 68.8072H67.0018L66.941 68.2875H66.3065ZM72.5326 68.2875V73.5053H73.3021V72.3038L73.2818 71.6692C73.5991 71.9392 73.9298 72.0878 74.2606 72.0878C75.0976 72.0878 75.8603 71.352 75.8603 70.083C75.8603 68.9422 75.3338 68.193 74.3888 68.193C73.9771 68.193 73.5721 68.4225 73.2481 68.6925H73.2278L73.1671 68.2875H72.5326ZM74.1121 71.4465C73.8758 71.4465 73.5923 71.3587 73.3021 71.109V69.2932C73.6193 68.9895 73.8961 68.841 74.1863 68.841C74.8073 68.841 75.0571 69.3067 75.0571 70.0965C75.0571 70.9672 74.6521 71.4465 74.1121 71.4465ZM76.602 66.627V72H77.3715V66.627H76.602ZM79.899 72.0878C80.385 72.0878 80.8103 71.9325 81.1545 71.6962L80.8845 71.2035C80.6145 71.3857 80.331 71.4802 80.0003 71.4802C79.3523 71.4802 78.9135 71.055 78.8528 70.3462H81.2625C81.2828 70.245 81.2963 70.1167 81.2963 69.9547C81.2963 68.9017 80.7698 68.193 79.7843 68.193C78.9135 68.193 78.09 68.9355 78.09 70.1505C78.09 71.3722 78.8933 72.0878 79.899 72.0878ZM80.628 69.813H78.846C78.9203 69.165 79.3388 68.8005 79.7978 68.8005C80.3378 68.8005 80.628 69.165 80.628 69.813Z" fill="white"/>
</svg>
