<svg width="24" height="24" viewBox="0 0 24 24" fill="none" xmlns="http://www.w3.org/2000/svg">
<path fill-rule="evenodd" clip-rule="evenodd" d="M12.2037 16.9998C12.469 16.9949 12.7215 16.8848 12.9055 16.6936L17.7203 11.6936C18.1034 11.2958 18.0915 10.6628 17.6936 10.2797C17.2958 9.89659 16.6628 9.90854 16.2797 10.3064L12.159 14.5855L7.69414 10.2802C7.29658 9.8968 6.66352 9.90831 6.28016 10.3059C5.8968 10.7034 5.90831 11.3365 6.30587 11.7198L11.4911 16.7198C11.6821 16.904 11.9384 17.0047 12.2037 16.9998Z" fill="#15181F"/>
<path fill-rule="evenodd" clip-rule="evenodd" d="M12 16C12.5523 16 13 15.5523 13 15L13 5C13 4.44771 12.5523 4 12 4C11.4477 4 11 4.44771 11 5L11 15C11 15.5523 11.4477 16 12 16Z" fill="#15181F"/>
<path fill-rule="evenodd" clip-rule="evenodd" d="M4 20C4 19.4477 4.44772 19 5 19H19C19.5523 19 20 19.4477 20 20C20 20.5523 19.5523 21 19 21H5C4.44772 21 4 20.5523 4 20Z" fill="#15181F"/>
</svg>
