<svg width="48" height="48" viewBox="0 0 48 48" fill="none" xmlns="http://www.w3.org/2000/svg">
<path d="M4.3606 33.1445H12.216V39.0361C12.216 40.1207 11.3368 41 10.2522 41H6.32446C5.23985 41 4.3606 40.1207 4.3606 39.0361V33.1445Z" fill="#9E9E9E"/>
<path d="M35.783 33.1445H43.6384V39.0361C43.6384 40.1207 42.7591 41 41.6745 41H37.7468C36.6622 41 35.783 40.1207 35.783 39.0361V33.1445Z" fill="#9E9E9E"/>
<path fill-rule="evenodd" clip-rule="evenodd" d="M15.5925 8C12.8193 8 10.4216 9.93388 9.83445 12.6441L8.86604 17.1141V17.0957C8.86604 16.4107 8.45227 15.8554 7.94186 15.8554H5.34269C3.4955 15.8554 1.99805 17.8651 1.99805 20.3442C1.99805 21.1189 2.466 21.7469 3.04325 21.7469H6.11311L5.31118 22.7656C5.3061 22.7731 5.29459 22.7866 5.27782 22.8063C5.10346 23.011 4.36056 23.8833 4.36056 25.6748V35.128V35.8865H43.6378V35.128V25.6748C43.6378 23.711 42.9032 22.9118 42.9032 22.9118L41.9863 21.747H44.9555C45.5328 21.747 46.0007 21.119 46.0007 20.3442C46.0007 17.8651 44.5033 15.8554 42.6561 15.8554H40.057C39.5466 15.8554 39.1328 16.4107 39.1328 17.0957V17.1211L38.1629 12.6441C37.5757 9.93388 35.178 8 32.4049 8H15.5925Z" fill="#E0E0E0"/>
<path d="M18.5451 33.1749C18.6254 32.9139 18.8666 32.7358 19.1396 32.7358H28.8589C29.132 32.7358 29.3731 32.9139 29.4534 33.1749L30.2854 35.8789H17.7131L18.5451 33.1749Z" fill="#C9C9C9"/>
<path d="M8.28418 26.8584C8.28418 25.9905 8.98778 25.2869 9.85571 25.2869H14.5703C15.4383 25.2869 16.1419 25.9905 16.1419 26.8584V28.4299C16.1419 29.2979 15.4383 30.0015 14.5703 30.0015H9.85572C8.98778 30.0015 8.28418 29.2979 8.28418 28.4299V26.8584Z" fill="white"/>
<path d="M31.8572 26.8584C31.8572 25.9905 32.5608 25.2869 33.4287 25.2869H38.1433C39.0113 25.2869 39.7149 25.9905 39.7149 26.8584V28.4299C39.7149 29.2979 39.0113 30.0015 38.1433 30.0015H33.4287C32.5608 30.0015 31.8572 29.2979 31.8572 28.4299V26.8584Z" fill="white"/>
<path d="M12.2277 13.018C12.5593 11.0292 14.28 9.57153 16.2963 9.57153H31.7023C33.7185 9.57153 35.4393 11.0292 35.7709 13.018L36.5716 17.821H11.427L12.2277 13.018Z" fill="#C6C6C6"/>
</svg>
