<svg width="24" height="24" viewBox="0 0 24 24" fill="none" xmlns="http://www.w3.org/2000/svg">
<path d="M15.698 12.9432L16.139 10.0691H13.382V8.20414C13.3627 7.98951 13.392 7.7733 13.4676 7.5715C13.5432 7.3697 13.6633 7.18749 13.8188 7.03836C13.9744 6.88923 14.1615 6.777 14.3663 6.70997C14.5711 6.64295 14.7884 6.62284 15.002 6.65115H16.25V4.20414C15.5141 4.0853 14.7704 4.02046 14.025 4.01014C13.5121 3.97105 12.9969 4.04525 12.5158 4.22746C12.0348 4.40967 11.5997 4.69543 11.2414 5.06451C10.8831 5.43359 10.6103 5.87697 10.4425 6.3632C10.2746 6.84943 10.2157 7.36663 10.27 7.87815V10.0682H7.75V12.9422H10.274V19.8892C11.3034 20.0502 12.3516 20.0502 13.381 19.8892V12.9422L15.698 12.9432Z" fill="#F3F3F3"/>
</svg>
