<svg width="24" height="24" viewBox="0 0 24 24" fill="none" xmlns="http://www.w3.org/2000/svg">
<mask id="mask0_358_22545" style="mask-type:alpha" maskUnits="userSpaceOnUse" x="3" y="3" width="18" height="18">
<path d="M21 12C21 16.9706 16.9706 21 12 21C7.02944 21 3 16.9706 3 12C3 7.02944 7.02944 3 12 3C16.9706 3 21 7.02944 21 12Z" fill="#D9D9D9"/>
</mask>
<g mask="url(#mask0_358_22545)">
</g>
<mask id="mask1_358_22545" style="mask-type:alpha" maskUnits="userSpaceOnUse" x="3" y="3" width="18" height="18">
<path fill-rule="evenodd" clip-rule="evenodd" d="M12 19.5C16.1421 19.5 19.5 16.1421 19.5 12C19.5 7.85786 16.1421 4.5 12 4.5C7.85786 4.5 4.5 7.85786 4.5 12C4.5 16.1421 7.85786 19.5 12 19.5ZM12 21C16.9706 21 21 16.9706 21 12C21 7.02944 16.9706 3 12 3C7.02944 3 3 7.02944 3 12C3 16.9706 7.02944 21 12 21Z" fill="#F3F3F3"/>
</mask>
<g mask="url(#mask1_358_22545)">
<path fill-rule="evenodd" clip-rule="evenodd" d="M18.5754 6.32637C20.1671 5.57242 20.5 4.82556 20.5 4.5C20.5 4.17444 20.1671 3.42758 18.5754 2.67363C17.0981 1.97387 14.9518 1.5 12.5 1.5C10.0482 1.5 7.90188 1.97387 6.42462 2.67363C4.83293 3.42758 4.5 4.17444 4.5 4.5C4.5 4.82556 4.83293 5.57242 6.42462 6.32637C7.90188 7.02613 10.0482 7.5 12.5 7.5C14.9518 7.5 17.0981 7.02613 18.5754 6.32637ZM12.5 9C17.7467 9 22 6.98528 22 4.5C22 2.01472 17.7467 0 12.5 0C7.25329 0 3 2.01472 3 4.5C3 6.98528 7.25329 9 12.5 9Z" fill="#F3F3F3"/>
<path fill-rule="evenodd" clip-rule="evenodd" d="M18.5754 21.3264C20.1671 20.5724 20.5 19.8256 20.5 19.5C20.5 19.1744 20.1671 18.4276 18.5754 17.6736C17.0981 16.9739 14.9518 16.5 12.5 16.5C10.0482 16.5 7.90188 16.9739 6.42462 17.6736C4.83293 18.4276 4.5 19.1744 4.5 19.5C4.5 19.8256 4.83293 20.5724 6.42462 21.3264C7.90188 22.0261 10.0482 22.5 12.5 22.5C14.9518 22.5 17.0981 22.0261 18.5754 21.3264ZM12.5 24C17.7467 24 22 21.9853 22 19.5C22 17.0147 17.7467 15 12.5 15C7.25329 15 3 17.0147 3 19.5C3 21.9853 7.25329 24 12.5 24Z" fill="#F3F3F3"/>
</g>
<path fill-rule="evenodd" clip-rule="evenodd" d="M12 19.5C16.1421 19.5 19.5 16.1421 19.5 12C19.5 7.85786 16.1421 4.5 12 4.5C7.85786 4.5 4.5 7.85786 4.5 12C4.5 16.1421 7.85786 19.5 12 19.5ZM12 21C16.9706 21 21 16.9706 21 12C21 7.02944 16.9706 3 12 3C7.02944 3 3 7.02944 3 12C3 16.9706 7.02944 21 12 21Z" fill="#F3F3F3"/>
<path fill-rule="evenodd" clip-rule="evenodd" d="M13.8403 17.6931C14.5301 16.3136 15 14.3029 15 12C15 9.69709 14.5301 7.68636 13.8403 6.30686C13.1057 4.83764 12.3684 4.5 12 4.5C11.6316 4.5 10.8943 4.83764 10.1597 6.30686C9.46991 7.68636 9 9.69709 9 12C9 14.3029 9.46991 16.3136 10.1597 17.6931C10.8943 19.1624 11.6316 19.5 12 19.5C12.3684 19.5 13.1057 19.1624 13.8403 17.6931ZM12 21C14.4853 21 16.5 16.9706 16.5 12C16.5 7.02944 14.4853 3 12 3C9.51472 3 7.5 7.02944 7.5 12C7.5 16.9706 9.51472 21 12 21Z" fill="#F3F3F3"/>
<path fill-rule="evenodd" clip-rule="evenodd" d="M20 12.75H3V11.25H20V12.75Z" fill="#F3F3F3"/>
</svg>
