<svg width="96" height="48" viewBox="0 0 96 48" fill="none" xmlns="http://www.w3.org/2000/svg">
<path fill-rule="evenodd" clip-rule="evenodd" d="M78.2502 16H80.0807V16.4712H83.5526C84.6572 16.4712 85.5526 17.3666 85.5526 18.4712V23.406C86.3469 23.6708 86.9196 24.4204 86.9196 25.3037V30.2392C86.9196 32.4483 85.1287 34.2392 82.9196 34.2392H81.6854C81.6413 34.2406 81.5971 34.2414 81.5526 34.2414H67.0486C66.5572 34.2414 66.1072 34.0642 65.759 33.7702H11C9.89543 33.7702 9 32.8747 9 31.7702V28C9 21.3726 14.3726 16 21 16H30.7242C40.2337 10.1682 60.1123 3.70857 78.2502 16Z" fill="#D1D1D1"/>
<path d="M37.707 33.7402H60.8278C60.8278 34.6523 60.0884 35.3917 59.1764 35.3917H39.3585C38.4464 35.3917 37.707 34.6523 37.707 33.7402Z" fill="#BDBDBD"/>
<circle cx="29.0203" cy="32.1006" r="7.43169" fill="#9E9E9E"/>
<circle cx="28.9878" cy="32.074" r="3.30297" fill="#BDBDBD"/>
<circle cx="69.7383" cy="32.1006" r="7.43169" fill="#9E9E9E"/>
<circle cx="69.717" cy="32.074" r="3.30297" fill="#BDBDBD"/>
<path d="M77.3486 21.8119C77.3486 21.5382 77.5705 21.3164 77.8441 21.3164H85.5503V23.7936H79.3304C78.2359 23.7936 77.3486 22.9064 77.3486 21.8119Z" fill="#BDBDBD"/>
<path d="M10.9871 23.8645C10.9871 22.0403 12.4659 20.5615 14.29 20.5615H19.9952C20.4927 20.5615 20.896 20.9648 20.896 21.4623V22.213C20.896 23.1251 20.1566 23.8645 19.2445 23.8645H10.9871Z" fill="#BDBDBD"/>
<path d="M46.9873 21.3873C46.9873 20.9312 47.357 20.5615 47.813 20.5615H49.4645C49.9206 20.5615 50.2903 20.9312 50.2903 21.3873C50.2903 21.8433 49.9206 22.213 49.4645 22.213H47.813C47.357 22.213 46.9873 21.8433 46.9873 21.3873Z" fill="#BDBDBD"/>
<path d="M63.4946 21.3873C63.4946 20.9312 63.8643 20.5615 64.3204 20.5615H65.9719C66.4279 20.5615 66.7976 20.9312 66.7976 21.3873C66.7976 21.8433 66.4279 22.213 65.9719 22.213H64.3204C63.8643 22.213 63.4946 21.8433 63.4946 21.3873Z" fill="#BDBDBD"/>
<path d="M53.43 11.9028L52.7465 17.3706H34.9763C39.8973 14.0899 49.557 12.1307 53.43 11.9028Z" fill="#BDBDBD"/>
<path d="M54.7915 17.3706L55.475 11.9028C62.583 11.9028 67.5496 13.2698 69.1443 13.9532L67.7774 17.3706H54.7915Z" fill="#BDBDBD"/>
</svg>
