<svg width="24" height="24" viewBox="0 0 24 24" fill="none" xmlns="http://www.w3.org/2000/svg">
<path fill-rule="evenodd" clip-rule="evenodd" d="M9.03713 4.90001C6.75231 4.90001 4.9001 6.75222 4.9001 9.03704V14.963C4.9001 17.2478 6.75231 19.1 9.03713 19.1H14.9631C17.2479 19.1 19.1001 17.2478 19.1001 14.963V9.03704C19.1001 6.75222 17.2479 4.90001 14.9631 4.90001H9.03713ZM3.1001 9.03704C3.1001 5.75811 5.7582 3.10001 9.03713 3.10001H14.9631C18.242 3.10001 20.9001 5.75811 20.9001 9.03704V14.963C20.9001 18.2419 18.242 20.9 14.9631 20.9H9.03713C5.7582 20.9 3.1001 18.2419 3.1001 14.963V9.03704Z" fill="#F3F3F3"/>
<path fill-rule="evenodd" clip-rule="evenodd" d="M12.0001 9.40001C10.5879 9.40001 9.4001 10.5848 9.4001 12.1C9.4001 13.6152 10.5879 14.8 12.0001 14.8C13.4123 14.8 14.6001 13.6152 14.6001 12.1C14.6001 10.5848 13.4123 9.40001 12.0001 9.40001ZM7.6001 12.1C7.6001 9.63879 9.54631 7.60001 12.0001 7.60001C14.4539 7.60001 16.4001 9.63879 16.4001 12.1C16.4001 14.5612 14.4539 16.6 12.0001 16.6C9.54631 16.6 7.6001 14.5612 7.6001 12.1Z" fill="#F3F3F3"/>
<path d="M16.6001 8.6001C17.1524 8.6001 17.6001 8.15238 17.6001 7.6001C17.6001 7.04781 17.1524 6.6001 16.6001 6.6001C16.0478 6.6001 15.6001 7.04781 15.6001 7.6001C15.6001 8.15238 16.0478 8.6001 16.6001 8.6001Z" fill="#F3F3F3"/>
<path fill-rule="evenodd" clip-rule="evenodd" d="M17.6001 7.6001C17.6001 8.15238 17.1524 8.6001 16.6001 8.6001C16.0478 8.6001 15.6001 8.15238 15.6001 7.6001C15.6001 7.04781 16.0478 6.6001 16.6001 6.6001C17.1524 6.6001 17.6001 7.04781 17.6001 7.6001Z" fill="#F3F3F3"/>
</svg>
