<svg width="119" height="24" viewBox="0 0 119 24" fill="none" xmlns="http://www.w3.org/2000/svg">
<g clip-path="url(#clip0_3182_42811)">
<path d="M17.068 14.2235C17.013 13.8615 16.9107 13.5085 16.7639 13.1739C16.348 12.1735 15.6313 11.3313 14.7155 10.7668C13.9939 10.333 13.169 10.1066 12.3297 10.1118C11.4904 10.117 10.6684 10.3537 9.95203 10.7965C9.28321 11.2039 8.74005 11.7922 8.38373 12.4951C8.26735 12.7344 8.16934 12.9824 8.09059 13.2369C7.70218 14.4831 7.72417 16.1595 8.41671 17.2981C8.63788 17.6777 8.97475 17.9744 9.37674 18.1437C9.57727 18.225 9.79356 18.2585 10.0089 18.2418C10.2243 18.2251 10.433 18.1585 10.6189 18.0473C10.8251 17.885 10.979 17.6644 11.0612 17.4135C11.1434 17.1627 11.1501 16.8927 11.0806 16.6379C10.9214 15.9901 10.9391 15.3106 11.1319 14.6722C11.2012 14.4625 11.3179 14.272 11.4727 14.1159C11.5701 14.0223 11.6814 13.9448 11.8025 13.8859C12.0556 13.7558 12.3426 13.7091 12.6233 13.7524C12.8646 13.8046 13.0902 13.9143 13.2814 14.0723C13.4726 14.2303 13.6238 14.4321 13.7225 14.6611C13.9195 15.1199 14.0218 15.6147 14.023 16.115C14.1256 18.2884 13.6126 20.5396 13.0666 22.6277C13.0117 22.8428 12.953 23.0579 12.8908 23.2693C12.8285 23.4808 12.7625 23.6402 12.8651 23.8034C12.9136 23.8709 12.9795 23.9236 13.0556 23.9555C13.2006 23.9958 13.3543 23.99 13.4958 23.9389C13.6374 23.8878 13.76 23.7939 13.8471 23.6699C15.0644 22.3522 15.9604 20.7645 16.4634 19.0338C16.6744 18.4009 16.8421 17.754 16.9654 17.0978C17.1605 16.1512 17.1927 15.1775 17.0607 14.2197" fill="#008077"/>
<path d="M26.0785 4.17988C26.0763 4.10513 26.0591 4.03162 26.0278 3.96387C25.9965 3.89611 25.9519 3.83554 25.8966 3.78588C25.8414 3.73621 25.7767 3.6985 25.7065 3.67505C25.6364 3.6516 25.5622 3.64291 25.4886 3.64951C25.1801 3.69514 24.8807 3.7903 24.6019 3.93139C19.0652 6.06398 12.836 6.46824 6.9915 5.63375C5.99116 5.48911 4.98349 5.28512 3.97949 5.12564C3.34924 5.0255 2.72998 4.88457 2.09607 4.83635C1.55742 4.79555 0.883201 4.7733 0.447156 5.15531C-0.12813 5.65601 -0.0878237 6.60918 0.238294 7.23969C0.666829 7.97851 1.28633 8.58503 2.03011 8.99397C2.72632 9.41307 3.55443 9.85814 4.37889 9.80621C6.60919 9.6628 8.83339 9.44522 11.0515 9.15346C14.8293 8.65647 18.7904 8.18545 22.341 6.7019C23.5184 6.23025 24.6276 5.60026 25.6388 4.82893C25.8184 4.6917 26.0785 4.45805 26.0785 4.19843" fill="#008077"/>
<path d="M10.2012 2.25869C10.2242 2.82782 10.4638 3.36588 10.8698 3.76032C11.2758 4.15476 11.8168 4.37501 12.3796 4.37501C12.9423 4.37501 13.4833 4.15476 13.8893 3.76032C14.2953 3.36588 14.5349 2.82782 14.558 2.25869C14.5575 2.07656 14.5175 1.89677 14.4407 1.73203C14.2575 1.33148 14.045 1.13862 14.0743 0.656468C14.1036 0.0111277 13.2828 -4.58957e-07 12.8431 -4.58957e-07C12.3511 -0.0161474 11.8621 0.0828513 11.414 0.28929C11.0615 0.470548 10.7639 0.744666 10.5524 1.08277C10.3408 1.42087 10.2233 1.81045 10.2122 2.21048V2.25869" fill="#D11E37"/>
<path d="M40.4204 12.2503V21.8489H38.0496V5.75985H40.4204V10.6481H42.7032V12.2503H40.4204ZM31.9559 9.08669C30.9922 9.08669 30.2191 10.5702 30.2337 12.8734C30.2337 15.058 30.9666 16.5155 31.9413 16.5155C32.916 16.5155 33.6598 15.095 33.6598 12.8734C33.6598 10.4553 32.9599 9.08669 31.9559 9.08669ZM30.7284 7.45109V5.75985H33.1871V7.45109H36.4849V9.04961H34.7628C35.6101 10.138 36.0628 11.4878 36.0452 12.8734C36.0452 15.8739 34.3597 18.114 31.9706 18.114C29.5156 18.1326 27.8813 15.8887 27.8813 12.8734C27.8507 11.4888 28.2977 10.1367 29.1455 9.04961H27.5295V7.45109H30.7284Z" fill="#221E1F"/>
<path d="M46.547 15.6254H50.5337C51.6037 15.6254 52.4098 15.681 53.4138 15.147V5.75985H55.7809V10.6481H58.0674V12.2503H55.7809V21.8489H53.4138V16.7603C52.4777 17.1154 51.4814 17.2792 50.4824 17.2425H45.2315C44.1946 17.2425 43.3994 16.2299 43.3994 15.0394V6.47195H45.7702V14.9689C45.7702 15.3806 46.034 15.6254 46.5433 15.6254" fill="#221E1F"/>
<path d="M62.8088 17.1015V19.7867C62.8088 20.2466 63.0909 20.4284 63.494 20.4284H68.7815V17.0904L62.8088 17.1015ZM71.1523 15.503V22.0269H62.054C61.1746 22.0269 60.438 21.0292 60.438 19.8201V15.503H71.1523ZM68.4298 12.3097C68.7051 11.2602 68.8285 10.1758 68.7962 9.09041V7.7033H60.471V6.11591H71.1816V9.04961C71.1895 10.1528 71.0376 11.2511 70.7309 12.3097H72.9075V13.9082H58.6829V12.3097H68.4298Z" fill="#221E1F"/>
<path d="M82.9512 13.8489H79.3676V14.828C79.9395 14.6058 80.5468 14.4914 81.1594 14.4905C81.7748 14.495 82.3835 14.621 82.9512 14.8614V13.8489ZM81.1777 6.91702C80.0015 6.91702 79.1404 8.19657 79.1587 9.58368C79.1771 10.9708 80.0198 12.2503 81.1777 12.2503C82.3356 12.2503 83.1784 11.0042 83.1967 9.58368C83.1894 8.22995 82.266 6.91702 81.1777 6.91702ZM81.1594 16.089C80.8692 16.1051 80.5851 16.1792 80.3234 16.3071C80.0617 16.435 79.8276 16.6142 79.6347 16.8342C79.4419 17.0543 79.294 17.3108 79.1997 17.5891C79.1055 17.8673 79.0666 18.1617 79.0854 18.4553C79.0646 18.7457 79.1017 19.0374 79.1945 19.3129C79.2874 19.5885 79.4341 19.8424 79.6259 20.0594C79.8177 20.2764 80.0507 20.4521 80.311 20.576C80.5713 20.6999 80.8536 20.7695 81.1411 20.7807C81.4291 20.7689 81.712 20.6991 81.973 20.5752C82.234 20.4513 82.4679 20.2759 82.6611 20.0593C82.8543 19.8427 83.0028 19.5893 83.0979 19.3138C83.193 19.0384 83.2328 18.7465 83.2151 18.4553C83.2151 17.0311 82.1597 16.089 81.1594 16.089ZM81.1777 5.31479C82.3189 5.29487 83.4216 5.73247 84.2453 6.53216C85.069 7.33186 85.5469 8.42877 85.5748 9.58368C85.5804 10.5551 85.2513 11.4981 84.6441 12.2503H88.279V13.8489H85.3476V17.0496H85.311C85.4958 17.4947 85.5917 17.9725 85.5931 18.4553C85.5931 20.8883 83.347 22.3829 81.1667 22.3829C78.796 22.3829 76.722 20.8512 76.722 18.4553C76.7235 17.9725 76.8194 17.4947 77.0042 17.0496H76.9858V13.8489H74.0544V12.2503H77.7187C77.1115 11.4981 76.7823 10.5551 76.788 9.58368C76.8187 8.43103 77.2965 7.33694 78.118 6.53806C78.9394 5.73919 80.0386 5.29975 81.1777 5.31479Z" fill="#221E1F"/>
<path d="M98.8246 17.9397C99.4035 16.6231 99.5281 15.006 99.5281 13.2814V8.2522H91.1883V6.64998H101.899V13.2629C101.899 15.1989 101.635 16.7826 101.107 17.9397H103.636V19.5382H89.4185V17.9397H98.8246Z" fill="#221E1F"/>
<path d="M108.92 19.1822V19.6792C108.909 19.7751 108.919 19.8722 108.949 19.9639C108.979 20.0555 109.028 20.1395 109.093 20.21C109.158 20.2805 109.238 20.3359 109.326 20.3723C109.415 20.4087 109.51 20.4253 109.605 20.421H114.892V19.1785L108.92 19.1822ZM108.92 17.5837H114.892V16.1595H117.267V22.0269H108.363C107.414 22.0269 106.553 21.0478 106.553 19.8387V16.1595H108.923L108.92 17.5837ZM117.439 12.6583H108.377C107.41 12.6583 106.545 11.6458 106.545 10.4886V8.5007H114.889V7.5401H106.549V5.94159H117.267V8.60084C117.267 9.40195 116.721 10.1141 116.109 10.1141H108.92V10.4849C108.92 10.8373 109.183 11.0895 109.652 11.0895H117.45L117.439 12.6583ZM104.775 13.6708H119V15.2768H113.082V16.879H110.693V15.2768H104.775V13.6708Z" fill="#221E1F"/>
</g>
<defs>
<clipPath id="clip0_3182_42811">
<rect width="119" height="24" fill="white"/>
</clipPath>
</defs>
</svg>
