<svg width="163" height="38" viewBox="0 0 163 38" fill="none" xmlns="http://www.w3.org/2000/svg">
<path d="M27.2482 22.5148C27.1568 21.9455 26.9942 21.3899 26.7642 20.8612C26.0938 19.2898 24.9491 17.9671 23.4902 17.0781C22.3405 16.3959 21.0269 16.0395 19.6901 16.047C18.3533 16.0545 17.0438 16.4256 15.9018 17.1206C14.8354 17.763 13.9704 18.6913 13.4049 19.8004C13.217 20.1773 13.0589 20.5684 12.932 20.97C12.5859 22.0177 12.4535 23.1242 12.5426 24.2241C12.6316 25.3239 12.9404 26.3946 13.4506 27.373C13.8048 27.9722 14.3434 28.4406 14.986 28.7081C15.3063 28.838 15.6524 28.8913 15.9969 28.864C16.3414 28.8366 16.6748 28.7293 16.9706 28.5505C17.2989 28.2951 17.5444 27.9482 17.6759 27.5535C17.8075 27.1588 17.8193 26.734 17.7099 26.3326C17.4531 25.3127 17.4776 24.2423 17.7808 23.2352C17.8982 22.9051 18.0859 22.6044 18.3309 22.354C18.4862 22.207 18.6639 22.0857 18.8574 21.9946C19.2608 21.7911 19.7169 21.7162 20.1642 21.7802C20.5502 21.8641 20.9109 22.0381 21.2169 22.2879C21.5229 22.5378 21.7655 22.8564 21.9249 23.2178C22.2362 23.9419 22.3971 24.7217 22.3978 25.5098C22.4058 28.9873 21.8898 32.4462 20.8672 35.7701C20.7768 36.1095 20.6828 36.4479 20.5851 36.7852C20.5125 37.0453 20.3786 37.3763 20.5441 37.6301C20.6206 37.7361 20.7271 37.8168 20.8499 37.8618C21.0807 37.9281 21.3264 37.9204 21.5526 37.8398C21.7788 37.7592 21.974 37.6098 22.1109 37.4126C24.054 35.3361 25.4869 32.8358 26.2961 30.1095C26.6309 29.1098 26.8979 28.0886 27.0953 27.053C27.4056 25.5603 27.4589 24.0255 27.2529 22.5148" fill="#00B2A6"/>
<path d="M41.6267 6.68269C41.6227 6.56464 41.5946 6.44865 41.5442 6.34181C41.4939 6.23498 41.4222 6.13955 41.3337 6.06135C41.2452 5.98315 41.1416 5.92383 41.0294 5.88701C40.9171 5.8502 40.7986 5.83666 40.6809 5.84724C40.1893 5.91627 39.7125 6.06649 39.2701 6.29176C30.2715 9.51576 20.6074 10.4285 11.1644 8.94628C9.57071 8.71614 7.95971 8.39614 6.3566 8.14709C5.35563 7.98945 4.36571 7.76246 3.35213 7.6868C2.44415 7.51329 1.50418 7.69316 0.72441 8.18965C0.323381 8.6294 0.0743956 9.18645 0.0142205 9.77855C-0.0459546 10.3707 0.0858709 10.9664 0.39023 11.4778C1.07369 12.6421 2.06322 13.5967 3.25125 14.238C4.34845 15.0202 5.65015 15.465 6.99658 15.518C10.5538 15.2899 14.1021 14.9468 17.6415 14.4886C23.6709 13.7005 29.9919 12.9659 35.6572 10.6282C37.5366 9.88286 39.3078 8.88937 40.9237 7.67419C41.209 7.45981 41.6251 7.09883 41.6251 6.67953" fill="#00B2A6"/>
<path d="M16.2891 3.6589C16.2891 4.5801 16.655 5.46358 17.3064 6.11497C17.9578 6.76637 18.8413 7.13231 19.7625 7.13231C20.6837 7.13231 21.5672 6.76637 22.2186 6.11497C22.8699 5.46358 23.2359 4.5801 23.2359 3.6589C23.2353 3.37054 23.1713 3.08584 23.0483 2.82502C22.7504 2.1945 22.4178 1.88712 22.4509 1.13048C22.4966 0.110605 21.1883 0.0964177 20.4836 0.0964177C19.6996 0.0710878 18.9203 0.226418 18.2059 0.550397C17.6409 0.832741 17.1638 1.26401 16.826 1.79766C16.4882 2.3313 16.3025 2.94707 16.2891 3.5785V3.6589Z" fill="#EF4567"/>
<path d="M53.0451 10.1226V7.72656H56.5761V10.1226H61.2924V12.3925H58.8208C59.3756 13.065 59.8128 13.8637 60.1323 14.7885C60.4686 15.7132 60.6451 16.7221 60.6619 17.815C60.6451 18.8911 60.4938 19.8831 60.2079 20.7911C59.9221 21.699 59.5186 22.4809 58.9973 23.1367C58.4761 23.8092 57.8624 24.3305 57.1562 24.7004C56.45 25.0703 55.6681 25.2552 54.8106 25.2552C53.9195 25.272 53.1124 25.0955 52.3894 24.7256C51.6664 24.3389 51.0527 23.8176 50.5483 23.1619C50.027 22.4893 49.6235 21.699 49.3376 20.7911C49.0686 19.8831 48.9341 18.8911 48.9341 17.815C48.9341 16.7221 49.0938 15.7132 49.4133 14.7885C49.7496 13.8637 50.1952 13.065 50.75 12.3925H48.4297V10.1226H53.0451ZM54.8106 12.4429C54.1044 12.4429 53.5075 12.9389 53.0199 13.931C52.5491 14.9062 52.3221 16.2009 52.339 17.815C52.3221 19.3787 52.5491 20.6314 53.0199 21.5729C53.4907 22.5145 54.0792 22.9853 54.7854 22.9853C55.4916 22.9853 56.0801 22.5229 56.5509 21.5982C57.0217 20.6566 57.2571 19.3955 57.2571 17.815C57.2571 16.1168 57.0217 14.7969 56.5509 13.8553C56.0969 12.9137 55.5168 12.4429 54.8106 12.4429ZM66.9672 16.9323V30.5517H63.5623V7.72656H66.9672V14.6624H70.2459V16.9323H66.9672Z" fill="#231F20"/>
<path d="M76.4097 21.7243H82.1349C82.5048 21.7243 82.8579 21.7243 83.1942 21.7243C83.5473 21.7243 83.892 21.7075 84.2283 21.6738C84.5645 21.6402 84.8924 21.5814 85.2119 21.4973C85.5482 21.3964 85.9013 21.2451 86.2712 21.0433V7.72656H89.676V14.6624H92.9548V16.9323H89.676V30.5517H86.2712V23.3132C85.6659 23.5822 84.9849 23.7672 84.2283 23.8681C83.4884 23.9521 82.7654 23.9942 82.0593 23.9942H74.5181C73.7615 23.9942 73.131 23.6915 72.6266 23.0862C72.139 22.4641 71.8952 21.7243 71.8952 20.8668V8.73541H75.3V20.7911C75.3 21.0937 75.3925 21.3291 75.5774 21.4973C75.7624 21.6486 76.0398 21.7243 76.4097 21.7243Z" fill="#231F20"/>
<path d="M99.1438 16.9323H94.3518V14.6624H99.7995C99.8668 14.2588 99.9172 13.8553 99.9509 13.4518C100.001 13.0482 100.027 12.6279 100.027 12.1907V11.2575H94.3518V8.98762H103.557V11.5349C103.541 13.0987 103.322 14.5951 102.902 16.0243C102.481 17.4535 101.868 18.7482 101.061 19.9084C100.254 21.0685 99.2615 22.0606 98.0845 22.8844C96.9243 23.6915 95.596 24.2632 94.0996 24.5995V22.3044C95.2766 21.7999 96.2854 21.0853 97.1261 20.1606C97.9836 19.219 98.6562 18.1429 99.1438 16.9323ZM108.98 17.0584V30.5517H105.701V7.72656H108.98V14.7885H110.619V7.72656H113.898V30.5517H110.619V17.0584H108.98Z" fill="#231F20"/>
<path d="M117.061 11.2575V8.98762H129.545V11.2575H127.653V17.3358C127.653 18.2774 127.611 19.1433 127.527 19.9336C127.443 20.7238 127.334 21.3207 127.199 21.7243H127.906V23.9942H116.935V21.7243H118.952V11.2575H117.061ZM122.357 21.7243H123.795C123.963 21.2871 124.08 20.6902 124.148 19.9336C124.215 19.1601 124.249 18.2942 124.249 17.3358V11.2575H122.357V21.7243ZM125.51 21.7243H127.275C127.813 21.7243 128.318 21.7243 128.788 21.7243C129.276 21.7075 129.747 21.657 130.201 21.5729C130.638 21.4889 131.067 21.3628 131.487 21.1946C131.907 21.0097 132.328 20.7406 132.748 20.3876V22.607C132.16 23.1619 131.361 23.5318 130.352 23.7167C129.36 23.9017 128.351 23.9942 127.326 23.9942H125.51V21.7243ZM135.346 7.72656V30.5517H131.941V7.72656H135.346Z" fill="#231F20"/>
<path d="M158.08 30.8039H145.57C145.217 30.8039 144.881 30.7198 144.561 30.5517C144.242 30.4003 143.965 30.1817 143.729 29.8959C143.494 29.6101 143.3 29.2822 143.149 28.9123C143.015 28.5424 142.947 28.1472 142.947 27.7269V24.7004H154.398V23.2123H142.947V20.9424H157.828V24.8265C157.828 25.3981 157.66 25.9026 157.323 26.3397C156.987 26.7601 156.6 26.9703 156.163 26.9703H146.352V27.6512C146.352 27.9203 146.436 28.1304 146.604 28.2818C146.789 28.4499 147.05 28.534 147.386 28.534H158.08V30.8039ZM140.022 8.23099H150.741V10.5009H143.426V12.3925H150.488V14.6624H143.426V15.7469C143.426 16.0495 143.519 16.2849 143.704 16.4531C143.889 16.6044 144.166 16.6801 144.536 16.6801H150.514C151.253 16.6801 151.918 16.6548 152.506 16.6044C153.111 16.5539 153.742 16.3606 154.398 16.0243V7.72656H157.803V11.888H161.081V14.1579H157.803V19.7066H154.398V18.2185C153.792 18.5044 153.162 18.6977 152.506 18.7986C151.867 18.8995 151.178 18.9499 150.438 18.9499H142.645C141.888 18.9499 141.257 18.6473 140.753 18.042C140.265 17.4199 140.022 16.6801 140.022 15.8225V8.23099Z" fill="#231F20"/>
</svg>
