<svg width="24" height="24" viewBox="0 0 24 24" fill="none" xmlns="http://www.w3.org/2000/svg">
<path fill-rule="evenodd" clip-rule="evenodd" d="M11 17C14.5899 17 17.5 14.0899 17.5 10.5C17.5 6.91015 14.5899 4 11 4C7.41015 4 4.5 6.91015 4.5 10.5C4.5 14.0899 7.41015 17 11 17ZM11 19C15.6944 19 19.5 15.1944 19.5 10.5C19.5 5.80558 15.6944 2 11 2C6.30558 2 2.5 5.80558 2.5 10.5C2.5 15.1944 6.30558 19 11 19Z" fill="#15181F"/>
<path fill-rule="evenodd" clip-rule="evenodd" d="M20.7425 20.6568C20.352 21.0474 19.7188 21.0474 19.3283 20.6568L15.7928 17.1213C15.4022 16.7308 15.4022 16.0976 15.7928 15.7071C16.1833 15.3166 16.8164 15.3166 17.207 15.7071L20.7425 19.2426C21.133 19.6332 21.133 20.2663 20.7425 20.6568Z" fill="#15181F"/>
</svg>
