<svg width="24" height="24" viewBox="0 0 24 24" fill="none" xmlns="http://www.w3.org/2000/svg">
<path d="M12.0004 17.3393C9.91198 17.3634 7.82416 17.2555 5.74937 17.0163C5.41449 16.9315 5.1077 16.7603 4.8596 16.5199C4.61149 16.2796 4.43074 15.9783 4.33537 15.6463C4.10487 14.4182 3.99269 13.1708 4.00037 11.9213C3.99266 10.6714 4.10484 9.42373 4.33537 8.1953C4.43034 7.86317 4.61098 7.56185 4.85916 7.32156C5.10734 7.08128 5.41434 6.91048 5.74937 6.8263C7.82416 6.5871 9.91198 6.47922 12.0004 6.5033C14.0888 6.47922 16.1766 6.5871 18.2514 6.8263C18.5865 6.91029 18.8936 7.08103 19.1418 7.32134C19.39 7.56165 19.5706 7.86307 19.6654 8.1953C19.8955 9.42379 20.0077 10.6715 20.0004 11.9213C20.0076 13.1708 19.8955 14.4181 19.6654 15.6463C19.5699 15.9783 19.3891 16.2795 19.141 16.5198C18.893 16.7602 18.5862 16.9314 18.2514 17.0163C16.1766 17.2555 14.0888 17.3634 12.0004 17.3393ZM10.4004 9.6033V14.2423L14.5564 11.9203L10.4004 9.6033Z" fill="#F3F3F3"/>
</svg>
