<svg width="380" height="90" viewBox="0 0 380 90" fill="none" xmlns="http://www.w3.org/2000/svg">
<rect x="0.5" y="0.5" width="379" height="89" rx="9.5" fill="#FCFCFC"/>
<path d="M31.046 23.492V30.226H29.898V23.492H31.046ZM24.298 24.08C26.202 24.08 27.588 25.242 27.588 26.964C27.588 28.7 26.202 29.862 24.298 29.862C22.408 29.862 21.036 28.7 21.036 26.964C21.036 25.242 22.408 24.08 24.298 24.08ZM24.298 25.032C23.052 25.032 22.156 25.83 22.156 26.964C22.156 28.126 23.052 28.91 24.298 28.91C25.586 28.91 26.468 28.14 26.468 26.964C26.468 25.83 25.572 25.032 24.298 25.032ZM24.088 30.842V32.382H29.912V30.842H31.046V35.868H22.954V30.842H24.088ZM24.088 34.944H29.912V33.278H24.088V34.944ZM44.7369 28.77V29.694H33.3269V28.77H41.7689C42.1189 27.202 42.1329 26.068 42.1329 25.074H34.7829V24.15H43.2669V25.074C43.2669 26.068 43.2669 27.188 42.9309 28.77H44.7369ZM34.7409 31.402H43.3089V35.868H34.7409V31.402ZM35.8609 34.944H42.1749V32.326H35.8609V34.944ZM57.6718 29.512H55.5998V36.036H54.4518V23.492H55.5998V28.546H57.6718V29.512ZM50.1678 27.314C50.1678 29.316 51.5958 31.542 53.4158 32.396L52.7578 33.32C51.3578 32.606 50.1678 31.15 49.6078 29.47C49.0478 31.29 47.8018 32.928 46.4018 33.628L45.7298 32.718C47.5218 31.822 49.0338 29.442 49.0338 27.314V25.718H46.1638V24.766H52.9538V25.718H50.1678V27.314ZM64.8387 30.002H59.1127V24.43H64.8387V25.522H67.7227V23.492H68.8847V30.912H67.7227V28.924H64.8387V30.002ZM63.7187 25.354H60.2467V29.092H63.7187V25.354ZM64.8387 26.446V28H67.7227V26.446H64.8387ZM64.7267 31.29C67.3167 31.29 68.9127 32.144 68.9127 33.656C68.9127 35.154 67.3167 36.022 64.7267 36.022C62.1507 36.022 60.5547 35.154 60.5547 33.656C60.5547 32.144 62.1507 31.29 64.7267 31.29ZM64.7267 35.126C66.6447 35.126 67.7787 34.608 67.7787 33.656C67.7787 32.704 66.6447 32.186 64.7267 32.186C62.8087 32.186 61.7027 32.704 61.7027 33.656C61.7027 34.608 62.8087 35.126 64.7267 35.126Z" fill="#8F8F8F"/>
<path d="M36.038 57.214H33.536V65.404H31.664V49.132H33.536V55.666H36.038V57.214ZM26.552 51.634H30.35V53.146H20.828V51.634H24.698V49.366H26.552V51.634ZM25.652 54.298C27.956 54.298 29.684 55.864 29.684 58.096C29.684 60.328 27.956 61.894 25.652 61.894C23.294 61.894 21.62 60.328 21.62 58.096C21.62 55.864 23.294 54.298 25.652 54.298ZM25.652 60.364C26.966 60.364 27.92 59.464 27.92 58.096C27.92 56.728 26.966 55.828 25.652 55.828C24.338 55.828 23.384 56.728 23.384 58.096C23.384 59.464 24.338 60.364 25.652 60.364ZM52.1646 56.998H49.6986V65.386H47.8446V49.132H49.6986V55.468H52.1646V56.998ZM39.5286 59.788C41.7786 59.77 44.0646 59.59 46.5306 59.086L46.7466 60.616C43.9926 61.174 41.4906 61.336 39.0246 61.336H37.6746V50.716H39.5286V59.788Z" fill="#15181F"/>
<path d="M62.9999 50.5C63.7422 50.5 64.3439 51.1268 64.3439 51.9V55.0751L66.9834 53.4876C67.6262 53.101 68.4482 53.3304 68.8193 54C69.1904 54.6696 68.9702 55.5258 68.3274 55.9124L65.6879 57.4999L68.3278 59.0876C68.9706 59.4742 69.1908 60.3304 68.8197 61C68.4486 61.6696 67.6266 61.899 66.9838 61.5124L64.3439 59.9247V63.1C64.3439 63.8732 63.7422 64.5 62.9999 64.5C62.2577 64.5 61.6559 63.8732 61.6559 63.1V59.9248L59.0162 61.5124C58.3734 61.899 57.5514 61.6696 57.1803 61C56.8092 60.3304 57.0294 59.4742 57.6722 59.0876L60.3121 57.4999L57.6726 55.9124C57.0298 55.5258 56.8096 54.6696 57.1807 54C57.5518 53.3304 58.3738 53.101 59.0166 53.4876L61.6559 55.0749V51.9C61.6559 51.1268 62.2577 50.5 62.9999 50.5Z" fill="#00A69E"/>
<path d="M78.9999 50.5C79.7422 50.5 80.3439 51.1268 80.3439 51.9V55.0751L82.9834 53.4876C83.6262 53.101 84.4482 53.3304 84.8193 54C85.1904 54.6696 84.9702 55.5258 84.3274 55.9124L81.6879 57.4999L84.3278 59.0876C84.9706 59.4742 85.1908 60.3304 84.8197 61C84.4486 61.6696 83.6266 61.899 82.9838 61.5124L80.3439 59.9247V63.1C80.3439 63.8732 79.7422 64.5 78.9999 64.5C78.2577 64.5 77.6559 63.8732 77.6559 63.1V59.9248L75.0162 61.5124C74.3734 61.899 73.5514 61.6696 73.1803 61C72.8092 60.3304 73.0294 59.4742 73.6722 59.0876L76.3121 57.4999L73.6726 55.9124C73.0298 55.5258 72.8096 54.6696 73.1807 54C73.5518 53.3304 74.3738 53.101 75.0166 53.4876L77.6559 55.0749V51.9C77.6559 51.1268 78.2577 50.5 78.9999 50.5Z" fill="#00A69E"/>
<path d="M94.9999 50.5C95.7422 50.5 96.3439 51.1268 96.3439 51.9V55.0751L98.9834 53.4876C99.6262 53.101 100.448 53.3304 100.819 54C101.19 54.6696 100.97 55.5258 100.327 55.9124L97.6879 57.4999L100.328 59.0876C100.971 59.4742 101.191 60.3304 100.82 61C100.449 61.6696 99.6266 61.899 98.9838 61.5124L96.3439 59.9247V63.1C96.3439 63.8732 95.7422 64.5 94.9999 64.5C94.2577 64.5 93.6559 63.8732 93.6559 63.1V59.9248L91.0162 61.5124C90.3734 61.899 89.5514 61.6696 89.1803 61C88.8092 60.3304 89.0294 59.4742 89.6722 59.0876L92.3121 57.4999L89.6726 55.9124C89.0298 55.5258 88.8096 54.6696 89.1807 54C89.5518 53.3304 90.3738 53.101 91.0166 53.4876L93.6559 55.0749V51.9C93.6559 51.1268 94.2577 50.5 94.9999 50.5Z" fill="#00A69E"/>
<path d="M345.568 23.492V30.226H344.42V23.492H345.568ZM338.82 24.08C340.724 24.08 342.11 25.242 342.11 26.964C342.11 28.7 340.724 29.862 338.82 29.862C336.93 29.862 335.558 28.7 335.558 26.964C335.558 25.242 336.93 24.08 338.82 24.08ZM338.82 25.032C337.574 25.032 336.678 25.83 336.678 26.964C336.678 28.126 337.574 28.91 338.82 28.91C340.108 28.91 340.99 28.14 340.99 26.964C340.99 25.83 340.094 25.032 338.82 25.032ZM338.61 30.842V32.382H344.434V30.842H345.568V35.868H337.476V30.842H338.61ZM338.61 34.944H344.434V33.278H338.61V34.944ZM359.259 28.77V29.694H347.849V28.77H356.291C356.641 27.202 356.655 26.068 356.655 25.074H349.305V24.15H357.789V25.074C357.789 26.068 357.789 27.188 357.453 28.77H359.259ZM349.263 31.402H357.831V35.868H349.263V31.402ZM350.383 34.944H356.697V32.326H350.383V34.944Z" fill="#8F8F8F"/>
<path d="M335.923 55.072L334.825 53.74L338.425 50.662H340.045V62.272H342.547V64H335.293V62.272H338.065V54.154C338.065 53.866 338.065 53.56 338.083 53.254L335.923 55.072ZM355.969 58.672V49.114H357.823V61.48H355.969V59.968H352.783V58.672H355.969ZM349.543 55.468C347.167 55.468 345.511 54.334 345.511 52.606C345.511 50.878 347.167 49.744 349.543 49.744C351.919 49.744 353.557 50.878 353.557 52.606C353.557 54.334 351.919 55.468 349.543 55.468ZM349.543 51.112C348.175 51.112 347.275 51.688 347.275 52.606C347.275 53.524 348.175 54.1 349.543 54.1C350.911 54.1 351.793 53.524 351.793 52.606C351.793 51.688 350.911 51.112 349.543 51.112ZM348.805 57.934C347.221 58.006 345.799 58.024 344.503 58.024L344.269 56.512C347.257 56.512 351.235 56.458 354.691 56.026L354.835 57.358C353.467 57.592 352.045 57.754 350.659 57.826V60.958H348.805V57.934ZM358.201 63.568V65.08H346.465V60.274H348.319V63.568H358.201Z" fill="#15181F"/>
<rect x="0.5" y="0.5" width="379" height="89" rx="9.5" stroke="#EAEAEA"/>
</svg>
