<svg width="380" height="90" viewBox="0 0 380 90" fill="none" xmlns="http://www.w3.org/2000/svg">
<rect x="0.5" y="0.5" width="379" height="89" rx="9.5" fill="#FCFCFC"/>
<path d="M31.046 23.492V30.226H29.898V23.492H31.046ZM24.298 24.08C26.202 24.08 27.588 25.242 27.588 26.964C27.588 28.7 26.202 29.862 24.298 29.862C22.408 29.862 21.036 28.7 21.036 26.964C21.036 25.242 22.408 24.08 24.298 24.08ZM24.298 25.032C23.052 25.032 22.156 25.83 22.156 26.964C22.156 28.126 23.052 28.91 24.298 28.91C25.586 28.91 26.468 28.14 26.468 26.964C26.468 25.83 25.572 25.032 24.298 25.032ZM24.088 30.842V32.382H29.912V30.842H31.046V35.868H22.954V30.842H24.088ZM24.088 34.944H29.912V33.278H24.088V34.944ZM44.7369 28.77V29.694H33.3269V28.77H41.7689C42.1189 27.202 42.1329 26.068 42.1329 25.074H34.7829V24.15H43.2669V25.074C43.2669 26.068 43.2669 27.188 42.9309 28.77H44.7369ZM34.7409 31.402H43.3089V35.868H34.7409V31.402ZM35.8609 34.944H42.1749V32.326H35.8609V34.944ZM57.6718 29.512H55.5998V36.036H54.4518V23.492H55.5998V28.546H57.6718V29.512ZM50.1678 27.314C50.1678 29.316 51.5958 31.542 53.4158 32.396L52.7578 33.32C51.3578 32.606 50.1678 31.15 49.6078 29.47C49.0478 31.29 47.8018 32.928 46.4018 33.628L45.7298 32.718C47.5218 31.822 49.0338 29.442 49.0338 27.314V25.718H46.1638V24.766H52.9538V25.718H50.1678V27.314ZM64.8387 30.002H59.1127V24.43H64.8387V25.522H67.7227V23.492H68.8847V30.912H67.7227V28.924H64.8387V30.002ZM63.7187 25.354H60.2467V29.092H63.7187V25.354ZM64.8387 26.446V28H67.7227V26.446H64.8387ZM64.7267 31.29C67.3167 31.29 68.9127 32.144 68.9127 33.656C68.9127 35.154 67.3167 36.022 64.7267 36.022C62.1507 36.022 60.5547 35.154 60.5547 33.656C60.5547 32.144 62.1507 31.29 64.7267 31.29ZM64.7267 35.126C66.6447 35.126 67.7787 34.608 67.7787 33.656C67.7787 32.704 66.6447 32.186 64.7267 32.186C62.8087 32.186 61.7027 32.704 61.7027 33.656C61.7027 34.608 62.8087 35.126 64.7267 35.126Z" fill="#8F8F8F"/>
<path d="M36.038 57.214H33.536V65.404H31.664V49.132H33.536V55.666H36.038V57.214ZM26.552 51.634H30.35V53.146H20.828V51.634H24.698V49.366H26.552V51.634ZM25.652 54.298C27.956 54.298 29.684 55.864 29.684 58.096C29.684 60.328 27.956 61.894 25.652 61.894C23.294 61.894 21.62 60.328 21.62 58.096C21.62 55.864 23.294 54.298 25.652 54.298ZM25.652 60.364C26.966 60.364 27.92 59.464 27.92 58.096C27.92 56.728 26.966 55.828 25.652 55.828C24.338 55.828 23.384 56.728 23.384 58.096C23.384 59.464 24.338 60.364 25.652 60.364ZM52.1646 56.998H49.6986V65.386H47.8446V49.132H49.6986V55.468H52.1646V56.998ZM39.5286 59.788C41.7786 59.77 44.0646 59.59 46.5306 59.086L46.7466 60.616C43.9926 61.174 41.4906 61.336 39.0246 61.336H37.6746V50.716H39.5286V59.788ZM67.1932 49.114V65.404H65.4112V57.052H63.5572V64.648H61.8112V49.51H63.5572V55.54H65.4112V49.114H67.1932ZM60.4972 51.058C60.4972 55.45 59.2912 59.41 54.3952 62.146L53.3512 60.832C55.6732 59.518 57.0772 58.006 57.8512 56.206L53.6392 56.656L53.3872 55.054L58.3552 54.766C58.5172 54.046 58.6432 53.326 58.6972 52.552H54.2152V51.058H60.4972ZM82.9238 49.132V65.404H81.0698V49.132H82.9238ZM77.4518 59.734C78.2618 59.68 79.0538 59.59 79.8278 59.5L79.9358 60.868C76.4798 61.444 72.6458 61.498 69.6758 61.498L69.4778 59.968C70.1078 59.968 70.8098 59.968 71.5298 59.95V52.264H69.9098V50.77H79.0718V52.264H77.4518V59.734ZM73.3298 59.932C74.1038 59.878 74.8778 59.896 75.6518 59.842V52.264H73.3298V59.932ZM100.688 52.516V54.046H98.4024V57.556H96.5484V49.132H98.4024V52.516H100.688ZM95.1084 56.728C92.9124 57.07 91.0044 57.142 87.6564 57.142H86.3784V49.87H93.9024V51.328H88.2324V52.732H93.5964V54.154H88.2324V55.666C91.1664 55.666 92.8944 55.612 94.9464 55.27L95.1084 56.728ZM89.7624 63.802H98.9424V65.242H87.9444V61.012H96.5664V59.734H87.9084V58.294H98.4024V62.344H89.7624V63.802Z" fill="#15181F"/>
<path d="M112 50.5C112.742 50.5 113.344 51.1268 113.344 51.9V55.0751L115.983 53.4876C116.626 53.101 117.448 53.3304 117.819 54C118.19 54.6696 117.97 55.5258 117.327 55.9124L114.688 57.4999L117.328 59.0876C117.971 59.4742 118.191 60.3304 117.82 61C117.449 61.6696 116.627 61.899 115.984 61.5124L113.344 59.9247V63.1C113.344 63.8732 112.742 64.5 112 64.5C111.258 64.5 110.656 63.8732 110.656 63.1V59.9248L108.016 61.5124C107.373 61.899 106.551 61.6696 106.18 61C105.809 60.3304 106.029 59.4742 106.672 59.0876L109.312 57.4999L106.673 55.9124C106.03 55.5258 105.81 54.6696 106.181 54C106.552 53.3304 107.374 53.101 108.017 53.4876L110.656 55.0749V51.9C110.656 51.1268 111.258 50.5 112 50.5Z" fill="#00A69E"/>
<path d="M128 50.5C128.742 50.5 129.344 51.1268 129.344 51.9V55.0751L131.983 53.4876C132.626 53.101 133.448 53.3304 133.819 54C134.19 54.6696 133.97 55.5258 133.327 55.9124L130.688 57.4999L133.328 59.0876C133.971 59.4742 134.191 60.3304 133.82 61C133.449 61.6696 132.627 61.899 131.984 61.5124L129.344 59.9247V63.1C129.344 63.8732 128.742 64.5 128 64.5C127.258 64.5 126.656 63.8732 126.656 63.1V59.9248L124.016 61.5124C123.373 61.899 122.551 61.6696 122.18 61C121.809 60.3304 122.029 59.4742 122.672 59.0876L125.312 57.4999L122.673 55.9124C122.03 55.5258 121.81 54.6696 122.181 54C122.552 53.3304 123.374 53.101 124.017 53.4876L126.656 55.0749V51.9C126.656 51.1268 127.258 50.5 128 50.5Z" fill="#00A69E"/>
<path d="M144 50.5C144.742 50.5 145.344 51.1268 145.344 51.9V55.0751L147.983 53.4876C148.626 53.101 149.448 53.3304 149.819 54C150.19 54.6696 149.97 55.5258 149.327 55.9124L146.688 57.4999L149.328 59.0876C149.971 59.4742 150.191 60.3304 149.82 61C149.449 61.6696 148.627 61.899 147.984 61.5124L145.344 59.9247V63.1C145.344 63.8732 144.742 64.5 144 64.5C143.258 64.5 142.656 63.8732 142.656 63.1V59.9248L140.016 61.5124C139.373 61.899 138.551 61.6696 138.18 61C137.809 60.3304 138.029 59.4742 138.672 59.0876L141.312 57.4999L138.673 55.9124C138.03 55.5258 137.81 54.6696 138.181 54C138.552 53.3304 139.374 53.101 140.017 53.4876L142.656 55.0749V51.9C142.656 51.1268 143.258 50.5 144 50.5Z" fill="#00A69E"/>
<path d="M345.568 23.492V30.226H344.42V23.492H345.568ZM338.82 24.08C340.724 24.08 342.11 25.242 342.11 26.964C342.11 28.7 340.724 29.862 338.82 29.862C336.93 29.862 335.558 28.7 335.558 26.964C335.558 25.242 336.93 24.08 338.82 24.08ZM338.82 25.032C337.574 25.032 336.678 25.83 336.678 26.964C336.678 28.126 337.574 28.91 338.82 28.91C340.108 28.91 340.99 28.14 340.99 26.964C340.99 25.83 340.094 25.032 338.82 25.032ZM338.61 30.842V32.382H344.434V30.842H345.568V35.868H337.476V30.842H338.61ZM338.61 34.944H344.434V33.278H338.61V34.944ZM359.259 28.77V29.694H347.849V28.77H356.291C356.641 27.202 356.655 26.068 356.655 25.074H349.305V24.15H357.789V25.074C357.789 26.068 357.789 27.188 357.453 28.77H359.259ZM349.263 31.402H357.831V35.868H349.263V31.402ZM350.383 34.944H356.697V32.326H350.383V34.944Z" fill="#8F8F8F"/>
<path d="M335.923 55.072L334.825 53.74L338.425 50.662H340.045V62.272H342.547V64H335.293V62.272H338.065V54.154C338.065 53.866 338.065 53.56 338.083 53.254L335.923 55.072ZM355.969 58.672V49.114H357.823V61.48H355.969V59.968H352.783V58.672H355.969ZM349.543 55.468C347.167 55.468 345.511 54.334 345.511 52.606C345.511 50.878 347.167 49.744 349.543 49.744C351.919 49.744 353.557 50.878 353.557 52.606C353.557 54.334 351.919 55.468 349.543 55.468ZM349.543 51.112C348.175 51.112 347.275 51.688 347.275 52.606C347.275 53.524 348.175 54.1 349.543 54.1C350.911 54.1 351.793 53.524 351.793 52.606C351.793 51.688 350.911 51.112 349.543 51.112ZM348.805 57.934C347.221 58.006 345.799 58.024 344.503 58.024L344.269 56.512C347.257 56.512 351.235 56.458 354.691 56.026L354.835 57.358C353.467 57.592 352.045 57.754 350.659 57.826V60.958H348.805V57.934ZM358.201 63.568V65.08H346.465V60.274H348.319V63.568H358.201Z" fill="#15181F"/>
<rect x="0.5" y="0.5" width="379" height="89" rx="9.5" stroke="#EAEAEA"/>
</svg>
