<svg width="380" height="90" viewBox="0 0 380 90" fill="none" xmlns="http://www.w3.org/2000/svg">
<g clip-path="url(#clip0_7076_72015)">
<path d="M0 8C0 3.58172 4.86091 0 10.8571 0H369.143C375.139 0 380 3.58172 380 8V82C380 86.4183 375.139 90 369.143 90H10.8571C4.86091 90 0 86.4183 0 82V8Z" fill="#FCFCFC"/>
<path fill-rule="evenodd" clip-rule="evenodd" d="M369.143 1H10.8571C5.61044 1 1.35714 4.13401 1.35714 8V82C1.35714 85.866 5.61044 89 10.8571 89H369.143C374.39 89 378.643 85.866 378.643 82V8C378.643 4.13401 374.39 1 369.143 1ZM10.8571 0C4.86091 0 0 3.58172 0 8V82C0 86.4183 4.86091 90 10.8571 90H369.143C375.139 90 380 86.4183 380 82V8C380 3.58172 375.139 0 369.143 0H10.8571Z" fill="#EAEAEA"/>
<rect x="0.5" y="0.5" width="379" height="89" rx="7.5" fill="#FCFCFC"/>
<path d="M64.8027 30.74H59.0767V25.168H64.8027V26.26H67.6867V24.23H68.8487V31.65H67.6867V29.662H64.8027V30.74ZM63.6827 26.092H60.2107V29.83H63.6827V26.092ZM64.8027 27.184V28.738H67.6867V27.184H64.8027ZM64.6907 32.028C67.2807 32.028 68.8767 32.882 68.8767 34.394C68.8767 35.892 67.2807 36.76 64.6907 36.76C62.1147 36.76 60.5187 35.892 60.5187 34.394C60.5187 32.882 62.1147 32.028 64.6907 32.028ZM64.6907 35.864C66.6087 35.864 67.7427 35.346 67.7427 34.394C67.7427 33.442 66.6087 32.924 64.6907 32.924C62.7727 32.924 61.6667 33.442 61.6667 34.394C61.6667 35.346 62.7727 35.864 64.6907 35.864Z" fill="#8F8F8F"/>
<path d="M57.6358 30.25H55.5639V36.774H54.4158V24.23H55.5639V29.284H57.6358V30.25ZM50.1318 28.052C50.1318 30.054 51.5598 32.28 53.3798 33.134L52.7218 34.058C51.3218 33.344 50.1318 31.888 49.5718 30.208C49.0118 32.028 47.7658 33.666 46.3658 34.366L45.6938 33.456C47.4858 32.56 48.9978 30.18 48.9978 28.052V26.456H46.1278V25.504H52.9178V26.456H50.1318V28.052Z" fill="#8F8F8F"/>
<path d="M44.701 29.5082V30.4322H33.291V29.5082H41.733C42.083 27.9402 42.097 26.8062 42.097 25.8122H34.747V24.8882H43.231V25.8122C43.231 26.8062 43.231 27.9262 42.895 29.5082H44.701ZM34.705 32.1402H43.273V36.6062H34.705V32.1402ZM35.825 35.6822H42.139V33.0642H35.825V35.6822Z" fill="#8F8F8F"/>
<path d="M31.01 24.23V30.964H29.862V24.23H31.01ZM24.262 24.818C26.166 24.818 27.552 25.98 27.552 27.702C27.552 29.438 26.166 30.6 24.262 30.6C22.372 30.6 21 29.438 21 27.702C21 25.98 22.372 24.818 24.262 24.818ZM24.262 25.77C23.016 25.77 22.12 26.568 22.12 27.702C22.12 28.864 23.016 29.648 24.262 29.648C25.55 29.648 26.432 28.878 26.432 27.702C26.432 26.568 25.536 25.77 24.262 25.77ZM24.052 31.58V33.12H29.876V31.58H31.01V36.606H22.918V31.58H24.052ZM24.052 35.682H29.876V34.016H24.052V35.682Z" fill="#8F8F8F"/>
<g clip-path="url(#clip1_7076_72015)">
<path d="M52.3367 57.2298H49.8707V65.6178H48.0167V49.3638H49.8707V55.6998H52.3367V57.2298ZM39.7007 60.0198C41.9507 60.0018 44.2367 59.8218 46.7027 59.3178L46.9187 60.8478C44.1647 61.4058 41.6627 61.5678 39.1967 61.5678H37.8467V50.9478H39.7007V60.0198Z" fill="#15181F"/>
<path d="M36.21 57.4458H33.708V65.6358H31.836V49.3638H33.708V55.8978H36.21V57.4458ZM26.724 51.8658H30.522V53.3778H21V51.8658H24.87V49.5978H26.724V51.8658ZM25.824 54.5298C28.128 54.5298 29.856 56.0958 29.856 58.3278C29.856 60.5598 28.128 62.1258 25.824 62.1258C23.466 62.1258 21.792 60.5598 21.792 58.3278C21.792 56.0958 23.466 54.5298 25.824 54.5298ZM25.824 60.5958C27.138 60.5958 28.092 59.6958 28.092 58.3278C28.092 56.9598 27.138 56.0598 25.824 56.0598C24.51 56.0598 23.556 56.9598 23.556 58.3278C23.556 59.6958 24.51 60.5958 25.824 60.5958Z" fill="#15181F"/>
</g>
<path d="M62.3363 50.5C63.0786 50.5 63.6803 51.1268 63.6803 51.9V55.0751L66.3198 53.4876C66.9626 53.101 67.7846 53.3304 68.1557 54C68.5268 54.6696 68.3066 55.5258 67.6638 55.9124L65.0243 57.4999L67.6642 59.0876C68.307 59.4742 68.5273 60.3304 68.1561 61C67.785 61.6696 66.9631 61.899 66.3203 61.5124L63.6803 59.9247V63.1C63.6803 63.8732 63.0786 64.5 62.3363 64.5C61.5941 64.5 60.9924 63.8732 60.9924 63.1V59.9248L58.3526 61.5124C57.7098 61.899 56.8878 61.6696 56.5167 61C56.1456 60.3304 56.3658 59.4742 57.0086 59.0876L59.6485 57.4999L57.0091 55.9124C56.3663 55.5258 56.146 54.6696 56.5171 54C56.8883 53.3304 57.7102 53.101 58.353 53.4876L60.9924 55.0749V51.9C60.9924 51.1268 61.5941 50.5 62.3363 50.5Z" fill="#00A69E"/>
<path d="M78.3363 50.5C79.0786 50.5 79.6803 51.1268 79.6803 51.9V55.0751L82.3198 53.4876C82.9626 53.101 83.7846 53.3304 84.1557 54C84.5268 54.6696 84.3066 55.5258 83.6638 55.9124L81.0243 57.4999L83.6642 59.0876C84.307 59.4742 84.5273 60.3304 84.1561 61C83.785 61.6696 82.9631 61.899 82.3203 61.5124L79.6803 59.9247V63.1C79.6803 63.8732 79.0786 64.5 78.3363 64.5C77.5941 64.5 76.9924 63.8732 76.9924 63.1V59.9248L74.3526 61.5124C73.7098 61.899 72.8878 61.6696 72.5167 61C72.1456 60.3304 72.3658 59.4742 73.0086 59.0876L75.6485 57.4999L73.0091 55.9124C72.3663 55.5258 72.146 54.6696 72.5171 54C72.8883 53.3304 73.7102 53.101 74.353 53.4876L76.9924 55.0749V51.9C76.9924 51.1268 77.5941 50.5 78.3363 50.5Z" fill="#00A69E"/>
<path d="M94.3363 50.5C95.0786 50.5 95.6803 51.1268 95.6803 51.9V55.0751L98.3198 53.4876C98.9626 53.101 99.7846 53.3304 100.156 54C100.527 54.6696 100.307 55.5258 99.6638 55.9124L97.0243 57.4999L99.6642 59.0876C100.307 59.4742 100.527 60.3304 100.156 61C99.785 61.6696 98.9631 61.899 98.3203 61.5124L95.6803 59.9247V63.1C95.6803 63.8732 95.0786 64.5 94.3363 64.5C93.5941 64.5 92.9924 63.8732 92.9924 63.1V59.9248L90.3526 61.5124C89.7098 61.899 88.8878 61.6696 88.5167 61C88.1456 60.3304 88.3658 59.4742 89.0086 59.0876L91.6485 57.4999L89.0091 55.9124C88.3663 55.5258 88.146 54.6696 88.5171 54C88.8883 53.3304 89.7102 53.101 90.353 53.4876L92.9924 55.0749V51.9C92.9924 51.1268 93.5941 50.5 94.3363 50.5Z" fill="#00A69E"/>
<path d="M358.701 30.2782V31.2022H347.291V30.2782H355.733C356.083 28.7102 356.097 27.5762 356.097 26.5822H348.747V25.6582H357.231V26.5822C357.231 27.5762 357.231 28.6962 356.895 30.2782H358.701ZM348.705 32.9102H357.273V37.3762H348.705V32.9102ZM349.825 36.4522H356.139V33.8342H349.825V36.4522Z" fill="#8F8F8F"/>
<path d="M345.01 25V31.734H343.862V25H345.01ZM338.262 25.588C340.166 25.588 341.552 26.75 341.552 28.472C341.552 30.208 340.166 31.37 338.262 31.37C336.372 31.37 335 30.208 335 28.472C335 26.75 336.372 25.588 338.262 25.588ZM338.262 26.54C337.016 26.54 336.12 27.338 336.12 28.472C336.12 29.634 337.016 30.418 338.262 30.418C339.55 30.418 340.432 29.648 340.432 28.472C340.432 27.338 339.536 26.54 338.262 26.54ZM338.052 32.35V33.89H343.876V32.35H345.01V37.376H336.918V32.35H338.052ZM338.052 36.452H343.876V34.786H338.052V36.452Z" fill="#8F8F8F"/>
<path d="M356.145 59.558V50H357.999V62.366H356.145V60.854H352.959V59.558H356.145ZM349.719 56.354C347.343 56.354 345.687 55.22 345.687 53.492C345.687 51.764 347.343 50.63 349.719 50.63C352.095 50.63 353.733 51.764 353.733 53.492C353.733 55.22 352.095 56.354 349.719 56.354ZM349.719 51.998C348.351 51.998 347.451 52.574 347.451 53.492C347.451 54.41 348.351 54.986 349.719 54.986C351.087 54.986 351.969 54.41 351.969 53.492C351.969 52.574 351.087 51.998 349.719 51.998ZM348.981 58.82C347.397 58.892 345.975 58.91 344.679 58.91L344.445 57.398C347.433 57.398 351.411 57.344 354.867 56.912L355.011 58.244C353.643 58.478 352.221 58.64 350.835 58.712V61.844H348.981V58.82ZM358.377 64.454V65.966H346.641V61.16H348.495V64.454H358.377Z" fill="#15181F"/>
<path d="M336.098 55.9579L335 54.6259L338.6 51.5479H340.22V63.1579H342.722V64.8859H335.468V63.1579H338.24V55.0399C338.24 54.7519 338.24 54.4459 338.258 54.1399L336.098 55.9579Z" fill="#15181F"/>
<rect x="0.5" y="0.5" width="379" height="89" rx="7.5" stroke="#EAEAEA"/>
</g>
<defs>
<clipPath id="clip0_7076_72015">
<rect width="380" height="90" rx="8" fill="white"/>
</clipPath>
<clipPath id="clip1_7076_72015">
<rect width="31.3366" height="16.272" fill="white" transform="translate(21 49.3638)"/>
</clipPath>
</defs>
</svg>
